999
dxfrw 0.6.3
  0
SECTION
  2
HEADER
  9
$ACADVER
  1
AC1021
  9
$DWGCODEPAGE
  3
ANSI_1252
  9
$INSBASE
 10
0
 20
0
 30
0
  9
$EXTMIN
 10
65.04779764415603
 20
-217.8052046527008
 30
0
  9
$EXTMAX
 10
234.9725100582727
 20
-82.74281997509391
 30
0
  9
$LIMMIN
 10
0
 20
0
  9
$LIMMAX
 10
12
 20
9
  9
$ORTHOMODE
 70
    0
  9
$REGENMODE
 70
    1
  9
$FILLMODE
 70
    1
  9
$QTEXTMODE
 70
    0
  9
$MIRRTEXT
 70
    1
  9
$LTSCALE
 40
1
  9
$ATTMODE
 70
    1
  9
$TEXTSIZE
 40
0.2
  9
$TRACEWID
 40
0.05
  9
$TEXTSTYLE
  7
Standard
  9
$CLAYER
  8
0
  9
$CELTYPE
  6
ByLayer
  9
$CECOLOR
 62
  256
  9
$CELTSCALE
 40
1
  9
$DISPSILH
 70
    0
  9
$DIMSCALE
 40
1
  9
$DIMASZ
 40
0.18
  9
$DIMEXO
 40
0.0625
  9
$DIMDLI
 40
0.38
  9
$DIMRND
 40
0
  9
$DIMDLE
 40
0
  9
$DIMEXE
 40
0.18
  9
$DIMTP
 40
0
  9
$DIMTM
 40
0
  9
$DIMTXT
 40
0.18
  9
$DIMCEN
 40
0.09
  9
$DIMTSZ
 40
0
  9
$DIMTOL
 70
    0
  9
$DIMLIM
 70
    0
  9
$DIMTIH
 70
    1
  9
$DIMTOH
 70
    1
  9
$DIMSE1
 70
    0
  9
$DIMSE2
 70
    0
  9
$DIMTAD
 70
    0
  9
$DIMZIN
 70
    0
  9
$DIMBLK
  1

  9
$DIMASO
 70
    1
  9
$DIMSHO
 70
    1
  9
$DIMPOST
  1

  9
$DIMAPOST
  1

  9
$DIMALT
 70
    0
  9
$DIMALTD
 70
    2
  9
$DIMALTF
 40
25.4
  9
$DIMLFAC
 40
1
  9
$DIMTOFL
 70
    0
  9
$DIMTVP
 40
0
  9
$DIMTIX
 70
    0
  9
$DIMSOXD
 70
    0
  9
$DIMSAH
 70
    0
  9
$DIMBLK1
  1

  9
$DIMBLK2
  1

  9
$DIMSTYLE
  2
Standard
  9
$DIMCLRD
 70
    0
  9
$DIMCLRE
 70
    0
  9
$DIMCLRT
 70
    0
  9
$DIMTFAC
 40
1
  9
$DIMGAP
 40
0.09
  9
$DIMJUST
 70
    0
  9
$DIMSD1
 70
    0
  9
$DIMSD2
 70
    0
  9
$DIMTOLJ
 70
    1
  9
$DIMTZIN
 70
    0
  9
$DIMALTZ
 70
    0
  9
$DIMALTTZ
 70
    0
  9
$DIMUPT
 70
    0
  9
$DIMDEC
 70
    4
  9
$DIMTDEC
 70
    4
  9
$DIMALTU
 70
    2
  9
$DIMALTTD
 70
    2
  9
$DIMTXSTY
  7
Standard
  9
$DIMAUNIT
 70
    0
  9
$DIMADEC
 70
    0
  9
$DIMALTRND
 40
0
  9
$DIMAZIN
 70
    0
  9
$DIMDSEP
 70
   46
  9
$DIMATFIT
 70
    3
  9
$DIMFRAC
 70
    0
  9
$DIMLDRBLK
  1

  9
$DIMLUNIT
 70
    2
  9
$DIMLWD
 70
   -2
  9
$DIMLWE
 70
   -2
  9
$DIMTMOVE
 70
    0
  9
$DIMFXL
 40
1
  9
$DIMFXLON
 70
    0
  9
$DIMJOGANG
 40
0.7853981633974483
  9
$DIMTFILL
 70
    0
  9
$DIMTFILLCLR
 70
    0
  9
$DIMARCSYM
 70
    0
  9
$DIMLTYPE
  6

  9
$DIMLTEX1
  6

  9
$DIMLTEX2
  6

  9
$LUNITS
 70
    2
  9
$LUPREC
 70
    4
  9
$SKETCHINC
 40
0.1
  9
$FILLETRAD
 40
0.5
  9
$AUNITS
 70
    0
  9
$AUPREC
 70
    0
  9
$MENU
  1
.
  9
$ELEVATION
 40
0
  9
$PELEVATION
 40
0
  9
$THICKNESS
 40
0
  9
$LIMCHECK
 70
    0
  9
$CHAMFERA
 40
0.5
  9
$CHAMFERB
 40
0.5
  9
$CHAMFERC
 40
1
  9
$CHAMFERD
 40
0
  9
$SKPOLY
 70
    0
  9
$USRTIMER
 70
    1
  9
$ANGBASE
 50
0
  9
$ANGDIR
 70
    0
  9
$PDMODE
 70
    0
  9
$PDSIZE
 40
0
  9
$PLINEWID
 40
0
  9
$SPLFRAME
 70
    0
  9
$SPLINETYPE
 70
    6
  9
$SPLINESEGS
 70
    8
  9
$HANDSEED
  5
20000
  9
$SURFTAB1
 70
    6
  9
$SURFTAB2
 70
    6
  9
$SURFTYPE
 70
    6
  9
$SURFU
 70
    6
  9
$SURFV
 70
    6
  9
$UCSBASE
  2

  9
$UCSNAME
  2

  9
$UCSORG
 10
0
 20
0
 30
0
  9
$UCSXDIR
 10
1
 20
0
 30
0
  9
$UCSYDIR
 10
0
 20
1
 30
0
  9
$UCSORTHOREF
  2

  9
$UCSORTHOVIEW
 70
    0
  9
$UCSORGTOP
 10
0
 20
0
 30
0
  9
$UCSORGBOTTOM
 10
0
 20
0
 30
0
  9
$UCSORGLEFT
 10
0
 20
0
 30
0
  9
$UCSORGRIGHT
 10
0
 20
0
 30
0
  9
$UCSORGFRONT
 10
0
 20
0
 30
0
  9
$UCSORGBACK
 10
0
 20
0
 30
0
  9
$PUCSBASE
  2

  9
$PUCSNAME
  2

  9
$PUCSORG
 10
0
 20
0
 30
0
  9
$PUCSXDIR
 10
1
 20
0
 30
0
  9
$PUCSYDIR
 10
0
 20
1
 30
0
  9
$PUCSORTHOREF
  2

  9
$PUCSORTHOVIEW
 70
    0
  9
$PUCSORGTOP
 10
0
 20
0
 30
0
  9
$PUCSORGBOTTOM
 10
0
 20
0
 30
0
  9
$PUCSORGLEFT
 10
0
 20
0
 30
0
  9
$PUCSORGRIGHT
 10
0
 20
0
 30
0
  9
$PUCSORGFRONT
 10
0
 20
0
 30
0
  9
$PUCSORGBACK
 10
0
 20
0
 30
0
  9
$USERI1
 70
    0
  9
$USERI2
 70
    0
  9
$USERI3
 70
    0
  9
$USERI4
 70
    0
  9
$USERI5
 70
    0
  9
$USERR1
 40
0
  9
$USERR2
 40
0
  9
$USERR3
 40
0
  9
$USERR4
 40
0
  9
$USERR5
 40
0
  9
$WORLDVIEW
 70
    1
  9
$SHADEDGE
 70
    3
  9
$SHADEDIF
 70
   70
  9
$TILEMODE
 70
    1
  9
$MAXACTVP
 70
   64
  9
$PINSBASE
 10
0
 20
0
 30
0
  9
$PLIMCHECK
 70
    0
  9
$PEXTMIN
 10
1e+20
 20
1e+20
 30
1e+20
  9
$PEXTMAX
 10
-1e+20
 20
-1e+20
 30
-1e+20
  9
$GRIDMODE
 70
    0
  9
$SNAPSTYLE
 70
    0
  9
$PLIMMIN
 10
0
 20
0
  9
$PLIMMAX
 10
12
 20
9
  9
$UNITMODE
 70
    0
  9
$VISRETAIN
 70
    1
  9
$PLINEGEN
 70
    0
  9
$PSLTSCALE
 70
    1
  9
$TREEDEPTH
 70
 3020
  9
$CMLSTYLE
  2
Standard
  9
$CMLJUST
 70
    0
  9
$CMLSCALE
 40
1
  9
$PROXYGRAPHICS
 70
    1
  9
$MEASUREMENT
 70
    0
  9
$CELWEIGHT
370
   -1
  9
$ENDCAPS
280
    0
  9
$JOINSTYLE
280
    0
  9
$LWDISPLAY
290
    1
  9
$INSUNITS
 70
    1
  9
$HYPERLINKBASE
  1

  9
$STYLESHEET
  1

  9
$XEDIT
290
    1
  9
$CEPSNTYPE
380
    0
  9
$PSTYLEMODE
290
    1
  9
$EXTNAMES
290
    1
  9
$PSVPSCALE
 40
0
  9
$OLESTARTUP
290
    0
  9
$SORTENTS
280
  127
  9
$INDEXCTL
280
    0
  9
$HIDETEXT
280
    1
  9
$XCLIPFRAME
290
    2
  9
$HALOGAP
280
    0
  9
$OBSCOLOR
 70
  257
  9
$OBSLTYPE
280
    0
  9
$INTERSECTIONDISPLAY
280
    0
  9
$INTERSECTIONCOLOR
 70
  257
  9
$DIMASSOC
280
    2
  9
$PROJECTNAME
  1

  9
$CAMERADISPLAY
290
    0
  9
$LENSLENGTH
 40
50
  9
$CAMERAHEIGHT
 40
0
  9
$STEPSPERSEC
 40
2
  9
$STEPSIZE
 40
6
  9
$3DDWFPREC
 40
2
  9
$PSOLWIDTH
 40
0.25
  9
$PSOLHEIGHT
 40
4
  9
$LOFTANG1
 40
1.570796326794897
  9
$LOFTANG2
 40
1.570796326794897
  9
$LOFTMAG1
 40
0
  9
$LOFTMAG2
 40
0
  9
$LOFTPARAM
 70
    7
  9
$LOFTNORMALS
280
    1
  9
$LATITUDE
 40
37.795
  9
$LONGITUDE
 40
-122.394
  9
$NORTHDIRECTION
 40
0
  9
$TIMEZONE
 70
-8000
  9
$LIGHTGLYPHDISPLAY
280
    1
  9
$TILEMODELIGHTSYNCH
280
    1
  9
$SOLIDHIST
280
    1
  9
$SHOWHIST
280
    1
  9
$DWFFRAME
280
    2
  9
$DGNFRAME
280
    2
  9
$REALWORLDSCALE
290
    1
  9
$INTERFERECOLOR
 62
  256
  9
$CSHADOW
280
    0
  9
$SHADOWPLANELOCATION
 40
0
  0
ENDSEC
  0
SECTION
  2
CLASSES
  0
ENDSEC
  0
SECTION
  2
TABLES
  0
TABLE
  2
VPORT
  5
8
330
0
100
AcDbSymbolTable
 70
    1
  0
VPORT
  5
31
330
2
100
AcDbSymbolTableRecord
100
AcDbViewportTableRecord
  2
*ACTIVE
 70
    0
 10
0
 20
0
 11
1
 21
1
 12
232.7990407418946
 22
-29.28338414908
 13
0
 23
0
 14
10
 24
10
 15
10
 25
10
 16
0
 26
0
 36
1
 17
0
 27
0
 37
0
 40
172.1461210663595
 41
4.078096947935368
 42
50
 43
0
 44
0
 50
0
 51
0
 71
    0
 72
  100
 73
    1
 74
    3
 75
    0
 76
    0
 77
    0
 78
    0
281
    0
 65
    1
110
0
120
0
130
0
111
1
121
0
131
0
112
0
122
1
132
0
 79
    0
146
0
348
10020
 60
    7
 61
    5
292
1
282
    1
141
0
142
0
 63
  250
421
3358443
  0
ENDTAB
  0
TABLE
  2
LTYPE
  5
5
330
0
100
AcDbSymbolTable
 70
    4
  0
LTYPE
  5
14
330
5
100
AcDbSymbolTableRecord
100
AcDbLinetypeTableRecord
  2
ByBlock
 70
    0
  3

 72
   65
 73
    0
 40
0
  0
LTYPE
  5
15
330
5
100
AcDbSymbolTableRecord
100
AcDbLinetypeTableRecord
  2
ByLayer
 70
    0
  3

 72
   65
 73
    0
 40
0
  0
LTYPE
  5
16
330
5
100
AcDbSymbolTableRecord
100
AcDbLinetypeTableRecord
  2
Continuous
 70
    0
  3
Solid line
 72
   65
 73
    0
 40
0
  0
LTYPE
  5
32
330
5
100
AcDbSymbolTableRecord
100
AcDbLinetypeTableRecord
  2
DOT
 70
    0
  3
Dot . . . . . . . . . . . . . . . . . . . . . .
 72
   65
 73
    2
 40
6.35
 49
0
 74
    0
 49
-6.35
 74
    0
  0
LTYPE
  5
33
330
5
100
AcDbSymbolTableRecord
100
AcDbLinetypeTableRecord
  2
DOTTINY
 70
    0
  3
Dot (.15x) .....................................
 72
   65
 73
    2
 40
0.9525
 49
0
 74
    0
 49
-0.9525
 74
    0
  0
LTYPE
  5
34
330
5
100
AcDbSymbolTableRecord
100
AcDbLinetypeTableRecord
  2
DOT2
 70
    0
  3
Dot (.5x) .....................................
 72
   65
 73
    2
 40
3.175
 49
0
 74
    0
 49
-3.175
 74
    0
  0
LTYPE
  5
35
330
5
100
AcDbSymbolTableRecord
100
AcDbLinetypeTableRecord
  2
DOTX2
 70
    0
  3
Dot (2x) .  .  .  .  .  .  .  .  .  .  .  .  .
 72
   65
 73
    2
 40
12.7
 49
0
 74
    0
 49
-12.7
 74
    0
  0
LTYPE
  5
36
330
5
100
AcDbSymbolTableRecord
100
AcDbLinetypeTableRecord
  2
DASHED
 70
    0
  3
Dashed _ _ _ _ _ _ _ _ _ _ _ _ _ _ _ _ _
 72
   65
 73
    2
 40
19.05
 49
12.7
 74
    0
 49
-6.35
 74
    0
  0
LTYPE
  5
37
330
5
100
AcDbSymbolTableRecord
100
AcDbLinetypeTableRecord
  2
DASHEDTINY
 70
    0
  3
Dashed (.15x) _ _ _ _ _ _ _ _ _ _ _ _ _ _ _ _ _
 72
   65
 73
    2
 40
2.8575
 49
1.905
 74
    0
 49
-0.9525
 74
    0
  0
LTYPE
  5
38
330
5
100
AcDbSymbolTableRecord
100
AcDbLinetypeTableRecord
  2
DASHED2
 70
    0
  3
Dashed (.5x) _ _ _ _ _ _ _ _ _ _ _ _ _ _ _ _ _
 72
   65
 73
    2
 40
9.524999999999999
 49
6.35
 74
    0
 49
-3.175
 74
    0
  0
LTYPE
  5
39
330
5
100
AcDbSymbolTableRecord
100
AcDbLinetypeTableRecord
  2
DASHEDX2
 70
    0
  3
Dashed (2x) ____  ____  ____  ____  ____  ___
 72
   65
 73
    2
 40
38.09999999999999
 49
25.4
 74
    0
 49
-12.7
 74
    0
  0
LTYPE
  5
3A
330
5
100
AcDbSymbolTableRecord
100
AcDbLinetypeTableRecord
  2
DASHDOT
 70
    0
  3
Dash dot __ . __ . __ . __ . __ . __ . __ . __
 72
   65
 73
    4
 40
25.4
 49
12.7
 74
    0
 49
-6.35
 74
    0
 49
0
 74
    0
 49
-6.35
 74
    0
  0
LTYPE
  5
3B
330
5
100
AcDbSymbolTableRecord
100
AcDbLinetypeTableRecord
  2
DASHDOTTINY
 70
    0
  3
Dash dot (.15x) _._._._._._._._._._._._._._._.
 72
   65
 73
    4
 40
3.81
 49
1.905
 74
    0
 49
-0.9525
 74
    0
 49
0
 74
    0
 49
-0.9525
 74
    0
  0
LTYPE
  5
3C
330
5
100
AcDbSymbolTableRecord
100
AcDbLinetypeTableRecord
  2
DASHDOT2
 70
    0
  3
Dash dot (.5x) _._._._._._._._._._._._._._._.
 72
   65
 73
    4
 40
12.7
 49
6.35
 74
    0
 49
-3.175
 74
    0
 49
0
 74
    0
 49
-3.175
 74
    0
  0
LTYPE
  5
3D
330
5
100
AcDbSymbolTableRecord
100
AcDbLinetypeTableRecord
  2
DASHDOTX2
 70
    0
  3
Dash dot (2x) ____  .  ____  .  ____  .  ___
 72
   65
 73
    4
 40
50.8
 49
25.4
 74
    0
 49
-12.7
 74
    0
 49
0
 74
    0
 49
-12.7
 74
    0
  0
LTYPE
  5
3E
330
5
100
AcDbSymbolTableRecord
100
AcDbLinetypeTableRecord
  2
DIVIDE
 70
    0
  3
Divide ____ . . ____ . . ____ . . ____ . . ____
 72
   65
 73
    6
 40
31.75
 49
12.7
 74
    0
 49
-6.35
 74
    0
 49
0
 74
    0
 49
-6.35
 74
    0
 49
0
 74
    0
 49
-6.35
 74
    0
  0
LTYPE
  5
3F
330
5
100
AcDbSymbolTableRecord
100
AcDbLinetypeTableRecord
  2
DIVIDETINY
 70
    0
  3
Divide (.15x) __..__..__..__..__..__..__..__.._
 72
   65
 73
    6
 40
4.7625
 49
1.905
 74
    0
 49
-0.9525
 74
    0
 49
0
 74
    0
 49
-0.9525
 74
    0
 49
0
 74
    0
 49
-0.9525
 74
    0
  0
LTYPE
  5
40
330
5
100
AcDbSymbolTableRecord
100
AcDbLinetypeTableRecord
  2
DIVIDE2
 70
    0
  3
Divide (.5x) __..__..__..__..__..__..__..__.._
 72
   65
 73
    6
 40
15.875
 49
6.35
 74
    0
 49
-3.175
 74
    0
 49
0
 74
    0
 49
-3.175
 74
    0
 49
0
 74
    0
 49
-3.175
 74
    0
  0
LTYPE
  5
41
330
5
100
AcDbSymbolTableRecord
100
AcDbLinetypeTableRecord
  2
DIVIDEX2
 70
    0
  3
Divide (2x) ________  .  .  ________  .  .  _
 72
   65
 73
    6
 40
63.5
 49
25.4
 74
    0
 49
-12.7
 74
    0
 49
0
 74
    0
 49
-12.7
 74
    0
 49
0
 74
    0
 49
-12.7
 74
    0
  0
LTYPE
  5
42
330
5
100
AcDbSymbolTableRecord
100
AcDbLinetypeTableRecord
  2
BORDER
 70
    0
  3
Border __ __ . __ __ . __ __ . __ __ . __ __ .
 72
   65
 73
    6
 40
44.45
 49
12.7
 74
    0
 49
-6.35
 74
    0
 49
12.7
 74
    0
 49
-6.35
 74
    0
 49
0
 74
    0
 49
-6.35
 74
    0
  0
LTYPE
  5
43
330
5
100
AcDbSymbolTableRecord
100
AcDbLinetypeTableRecord
  2
BORDERTINY
 70
    0
  3
Border (.15x) __.__.__.__.__.__.__.__.__.__.__.
 72
   65
 73
    6
 40
6.6675
 49
1.905
 74
    0
 49
-0.9525
 74
    0
 49
1.905
 74
    0
 49
-0.9525
 74
    0
 49
0
 74
    0
 49
-0.9525
 74
    0
  0
LTYPE
  5
44
330
5
100
AcDbSymbolTableRecord
100
AcDbLinetypeTableRecord
  2
BORDER2
 70
    0
  3
Border (.5x) __.__.__.__.__.__.__.__.__.__.__.
 72
   65
 73
    6
 40
22.225
 49
6.35
 74
    0
 49
-3.175
 74
    0
 49
6.35
 74
    0
 49
-3.175
 74
    0
 49
0
 74
    0
 49
-3.175
 74
    0
  0
LTYPE
  5
45
330
5
100
AcDbSymbolTableRecord
100
AcDbLinetypeTableRecord
  2
BORDERX2
 70
    0
  3
Border (2x) ____  ____  .  ____  ____  .  ___
 72
   65
 73
    6
 40
88.89999999999999
 49
25.4
 74
    0
 49
-12.7
 74
    0
 49
25.4
 74
    0
 49
-12.7
 74
    0
 49
0
 74
    0
 49
-12.7
 74
    0
  0
LTYPE
  5
46
330
5
100
AcDbSymbolTableRecord
100
AcDbLinetypeTableRecord
  2
CENTER
 70
    0
  3
Center ____ _ ____ _ ____ _ ____ _ ____ _ ____
 72
   65
 73
    4
 40
50.8
 49
31.75
 74
    0
 49
-6.35
 74
    0
 49
6.35
 74
    0
 49
-6.35
 74
    0
  0
LTYPE
  5
47
330
5
100
AcDbSymbolTableRecord
100
AcDbLinetypeTableRecord
  2
CENTERTINY
 70
    0
  3
Center (.15x) ___ _ ___ _ ___ _ ___ _ ___ _ ___
 72
   65
 73
    4
 40
7.619999999999999
 49
4.7625
 74
    0
 49
-0.9525
 74
    0
 49
0.9525
 74
    0
 49
-0.9525
 74
    0
  0
LTYPE
  5
48
330
5
100
AcDbSymbolTableRecord
100
AcDbLinetypeTableRecord
  2
CENTER2
 70
    0
  3
Center (.5x) ___ _ ___ _ ___ _ ___ _ ___ _ ___
 72
   65
 73
    4
 40
28.575
 49
19.05
 74
    0
 49
-3.175
 74
    0
 49
3.175
 74
    0
 49
-3.175
 74
    0
  0
LTYPE
  5
49
330
5
100
AcDbSymbolTableRecord
100
AcDbLinetypeTableRecord
  2
CENTERX2
 70
    0
  3
Center (2x) ________  __  ________  __  _____
 72
   65
 73
    4
 40
101.6
 49
63.5
 74
    0
 49
-12.7
 74
    0
 49
12.7
 74
    0
 49
-12.7
 74
    0
  0
ENDTAB
  0
TABLE
  2
LAYER
  5
2
330
0
100
AcDbSymbolTable
 70
    1
  0
LAYER
  5
10
330
2
100
AcDbSymbolTableRecord
100
AcDbLayerTableRecord
  2
0
 70
    0
 62
    7
  6
CONTINUOUS
370
   -3
390
F
  0
LAYER
  5
4A
330
2
100
AcDbSymbolTableRecord
100
AcDbLayerTableRecord
  2
holes
 70
    0
 62
    1
  6
CONTINUOUS
370
    0
390
F
  0
LAYER
  5
4B
330
2
100
AcDbSymbolTableRecord
100
AcDbLayerTableRecord
  2
switches
 70
    0
 62
  136
420
32896
  6
CONTINUOUS
370
    0
390
F
  0
LAYER
  5
4C
330
2
100
AcDbSymbolTableRecord
100
AcDbLayerTableRecord
  2
top
 70
    0
 62
    3
  6
CONTINUOUS
370
    0
390
F
  0
ENDTAB
  0
TABLE
  2
STYLE
  5
3
330
0
100
AcDbSymbolTable
 70
    3
  0
STYLE
  5
4D
330
2
100
AcDbSymbolTableRecord
100
AcDbTextStyleTableRecord
  2
Standard
 70
    0
 40
0
 41
1
 50
0
 71
    0
 42
1
  3
txt
  4

  0
ENDTAB
  0
TABLE
  2
VIEW
  5
6
330
0
100
AcDbSymbolTable
 70
    0
  0
ENDTAB
  0
TABLE
  2
UCS
  5
7
330
0
100
AcDbSymbolTable
 70
    0
  0
ENDTAB
  0
TABLE
  2
APPID
  5
9
330
0
100
AcDbSymbolTable
 70
    1
  0
APPID
  5
12
330
9
100
AcDbSymbolTableRecord
100
AcDbRegAppTableRecord
  2
ACAD
 70
    0
  0
APPID
  5
4E
330
9
100
AcDbSymbolTableRecord
100
AcDbRegAppTableRecord
  2
LibreCad
 70
    0
  0
ENDTAB
  0
TABLE
  2
DIMSTYLE
  5
A
330
0
100
AcDbSymbolTable
 70
    1
100
AcDbDimStyleTable
 71
    1
  0
DIMSTYLE
105
4F
330
A
100
AcDbSymbolTableRecord
100
AcDbDimStyleTableRecord
  2
Standard
 70
    0
 40
1
 41
0.18
 42
0.0625
 43
0.38
 44
0.18
 45
0
 46
0
 47
0
 48
0
 49
1
140
0.18
141
0.09
142
0
143
25.4
144
1
145
0
146
1
147
0.09
148
0
 71
    0
 72
    0
 73
    1
 74
    1
 75
    0
 76
    0
 77
    0
 78
    0
 79
    0
170
    0
171
    2
172
    0
173
    0
174
    0
175
    0
176
    0
177
    0
178
    0
179
    0
271
    4
272
    4
273
    2
274
    2
275
    0
276
    0
277
    2
278
   46
279
    0
280
    0
281
    0
282
    0
283
    1
284
    0
285
    0
286
    0
288
    0
289
    3
340
Standard
341

371
   -2
372
   -2
  0
ENDTAB
  0
TABLE
  2
BLOCK_RECORD
  5
1
330
0
100
AcDbSymbolTable
 70
    2
  0
BLOCK_RECORD
  5
1F
330
1
100
AcDbSymbolTableRecord
100
AcDbBlockTableRecord
  2
*Model_Space
 70
    0
280
    1
281
    0
  0
BLOCK_RECORD
  5
1E
330
1
100
AcDbSymbolTableRecord
100
AcDbBlockTableRecord
  2
*Paper_Space
 70
    0
280
    1
281
    0
  0
BLOCK_RECORD
  5
50
330
1
100
AcDbSymbolTableRecord
100
AcDbBlockTableRecord
  2
block 2
 70
    0
280
    1
281
    0
  0
BLOCK_RECORD
  5
53
330
1
100
AcDbSymbolTableRecord
100
AcDbBlockTableRecord
  2
block 3
 70
    0
280
    1
281
    0
  0
BLOCK_RECORD
  5
56
330
1
100
AcDbSymbolTableRecord
100
AcDbBlockTableRecord
  2
block 4
 70
    0
280
    1
281
    0
  0
BLOCK_RECORD
  5
59
330
1
100
AcDbSymbolTableRecord
100
AcDbBlockTableRecord
  2
block 5
 70
    0
280
    1
281
    0
  0
BLOCK_RECORD
  5
5C
330
1
100
AcDbSymbolTableRecord
100
AcDbBlockTableRecord
  2
block 6
 70
    0
280
    1
281
    0
  0
BLOCK_RECORD
  5
5F
330
1
100
AcDbSymbolTableRecord
100
AcDbBlockTableRecord
  2
block 7
 70
    0
280
    1
281
    0
  0
BLOCK_RECORD
  5
62
330
1
100
AcDbSymbolTableRecord
100
AcDbBlockTableRecord
  2
block 8
 70
    0
280
    1
281
    0
  0
BLOCK_RECORD
  5
65
330
1
100
AcDbSymbolTableRecord
100
AcDbBlockTableRecord
  2
block 9
 70
    0
280
    1
281
    0
  0
BLOCK_RECORD
  5
68
330
1
100
AcDbSymbolTableRecord
100
AcDbBlockTableRecord
  2
block 10
 70
    0
280
    1
281
    0
  0
BLOCK_RECORD
  5
6B
330
1
100
AcDbSymbolTableRecord
100
AcDbBlockTableRecord
  2
block 11
 70
    0
280
    1
281
    0
  0
BLOCK_RECORD
  5
6E
330
1
100
AcDbSymbolTableRecord
100
AcDbBlockTableRecord
  2
block 12
 70
    0
280
    1
281
    0
  0
BLOCK_RECORD
  5
71
330
1
100
AcDbSymbolTableRecord
100
AcDbBlockTableRecord
  2
block 13
 70
    0
280
    1
281
    0
  0
BLOCK_RECORD
  5
74
330
1
100
AcDbSymbolTableRecord
100
AcDbBlockTableRecord
  2
block 14
 70
    0
280
    1
281
    0
  0
BLOCK_RECORD
  5
77
330
1
100
AcDbSymbolTableRecord
100
AcDbBlockTableRecord
  2
block 15
 70
    0
280
    1
281
    0
  0
BLOCK_RECORD
  5
7A
330
1
100
AcDbSymbolTableRecord
100
AcDbBlockTableRecord
  2
block 16
 70
    0
280
    1
281
    0
  0
BLOCK_RECORD
  5
7D
330
1
100
AcDbSymbolTableRecord
100
AcDbBlockTableRecord
  2
block 17
 70
    0
280
    1
281
    0
  0
BLOCK_RECORD
  5
80
330
1
100
AcDbSymbolTableRecord
100
AcDbBlockTableRecord
  2
block 18
 70
    0
280
    1
281
    0
  0
BLOCK_RECORD
  5
83
330
1
100
AcDbSymbolTableRecord
100
AcDbBlockTableRecord
  2
block 19
 70
    0
280
    1
281
    0
  0
BLOCK_RECORD
  5
86
330
1
100
AcDbSymbolTableRecord
100
AcDbBlockTableRecord
  2
block 20
 70
    0
280
    1
281
    0
  0
BLOCK_RECORD
  5
89
330
1
100
AcDbSymbolTableRecord
100
AcDbBlockTableRecord
  2
block 21
 70
    0
280
    1
281
    0
  0
BLOCK_RECORD
  5
8C
330
1
100
AcDbSymbolTableRecord
100
AcDbBlockTableRecord
  2
block 22
 70
    0
280
    1
281
    0
  0
BLOCK_RECORD
  5
8F
330
1
100
AcDbSymbolTableRecord
100
AcDbBlockTableRecord
  2
block 23
 70
    0
280
    1
281
    0
  0
BLOCK_RECORD
  5
92
330
1
100
AcDbSymbolTableRecord
100
AcDbBlockTableRecord
  2
block 24
 70
    0
280
    1
281
    0
  0
BLOCK_RECORD
  5
95
330
1
100
AcDbSymbolTableRecord
100
AcDbBlockTableRecord
  2
block 25
 70
    0
280
    1
281
    0
  0
BLOCK_RECORD
  5
98
330
1
100
AcDbSymbolTableRecord
100
AcDbBlockTableRecord
  2
block 26
 70
    0
280
    1
281
    0
  0
BLOCK_RECORD
  5
9B
330
1
100
AcDbSymbolTableRecord
100
AcDbBlockTableRecord
  2
block 27
 70
    0
280
    1
281
    0
  0
BLOCK_RECORD
  5
9E
330
1
100
AcDbSymbolTableRecord
100
AcDbBlockTableRecord
  2
block 28
 70
    0
280
    1
281
    0
  0
BLOCK_RECORD
  5
A1
330
1
100
AcDbSymbolTableRecord
100
AcDbBlockTableRecord
  2
block 29
 70
    0
280
    1
281
    0
  0
BLOCK_RECORD
  5
A4
330
1
100
AcDbSymbolTableRecord
100
AcDbBlockTableRecord
  2
block 30
 70
    0
280
    1
281
    0
  0
BLOCK_RECORD
  5
A7
330
1
100
AcDbSymbolTableRecord
100
AcDbBlockTableRecord
  2
block 31
 70
    0
280
    1
281
    0
  0
BLOCK_RECORD
  5
AA
330
1
100
AcDbSymbolTableRecord
100
AcDbBlockTableRecord
  2
block 32
 70
    0
280
    1
281
    0
  0
ENDTAB
  0
ENDSEC
  0
SECTION
  2
BLOCKS
  0
BLOCK
  5
20
330
1F
100
AcDbEntity
  8
0
100
AcDbBlockBegin
  2
*Model_Space
 70
    0
 10
0
 20
0
 30
0
  3
*Model_Space
  1

  0
ENDBLK
  5
21
330
1F
100
AcDbEntity
  8
0
100
AcDbBlockEnd
  0
BLOCK
  5
1C
330
1B
100
AcDbEntity
  8
0
100
AcDbBlockBegin
  2
*Paper_Space
 70
    0
 10
0
 20
0
 30
0
  3
*Paper_Space
  1

  0
ENDBLK
  5
1D
330
1F
100
AcDbEntity
  8
0
100
AcDbBlockEnd
  0
BLOCK
  5
51
330
50
100
AcDbEntity
  8
0
100
AcDbBlockBegin
  2
block 2
 70
    0
 10
0
 20
0
  3
block 2
  1

  0
LWPOLYLINE
  5
AD
100
AcDbEntity
  8
switches
  6
ByLayer
 62
  256
370
   -1
100
AcDbPolyline
 90
    5
 70
    0
 43
0
 10
86.62251010313516
 20
-107.2678199582111
 10
100.622510103135
 20
-107.2678199582111
 10
100.622510103135
 20
-93.26781995821128
 10
86.62251010313516
 20
-93.26781995821128
 10
86.62251010313516
 20
-107.2678199582111
  0
ENDBLK
  5
52
330
50
100
AcDbEntity
  8
0
100
AcDbBlockEnd
  0
BLOCK
  5
54
330
53
100
AcDbEntity
  8
0
100
AcDbBlockBegin
  2
block 3
 70
    0
 10
0
 20
0
  3
block 3
  1

  0
LWPOLYLINE
  5
AE
100
AcDbEntity
  8
switches
  6
ByLayer
 62
  256
370
   -1
100
AcDbPolyline
 90
    5
 70
    0
 43
0
 10
105.6725101031347
 20
-107.2678199582111
 10
119.6725101031352
 20
-107.2678199582111
 10
119.6725101031352
 20
-93.26781995821128
 10
105.6725101031347
 20
-93.26781995821128
 10
105.6725101031347
 20
-107.2678199582111
  0
ENDBLK
  5
55
330
53
100
AcDbEntity
  8
0
100
AcDbBlockEnd
  0
BLOCK
  5
57
330
56
100
AcDbEntity
  8
0
100
AcDbBlockBegin
  2
block 4
 70
    0
 10
0
 20
0
  3
block 4
  1

  0
LWPOLYLINE
  5
AF
100
AcDbEntity
  8
switches
  6
ByLayer
 62
  256
370
   -1
100
AcDbPolyline
 90
    5
 70
    0
 43
0
 10
129.4850101031353
 20
-107.2678199582111
 10
143.4850101031351
 20
-107.2678199582111
 10
143.4850101031351
 20
-93.26781995821128
 10
129.4850101031353
 20
-93.26781995821128
 10
129.4850101031353
 20
-107.2678199582111
  0
ENDBLK
  5
58
330
56
100
AcDbEntity
  8
0
100
AcDbBlockEnd
  0
BLOCK
  5
5A
330
59
100
AcDbEntity
  8
0
100
AcDbBlockBegin
  2
block 5
 70
    0
 10
0
 20
0
  3
block 5
  1

  0
LWPOLYLINE
  5
B0
100
AcDbEntity
  8
switches
  6
ByLayer
 62
  256
370
   -1
100
AcDbPolyline
 90
    5
 70
    0
 43
0
 10
148.5350100983728
 20
-107.2678199582111
 10
162.5350100983726
 20
-107.2678199582111
 10
162.5350100983726
 20
-93.26781995821128
 10
148.5350100983728
 20
-93.26781995821128
 10
148.5350100983728
 20
-107.2678199582111
  0
ENDBLK
  5
5B
330
59
100
AcDbEntity
  8
0
100
AcDbBlockEnd
  0
BLOCK
  5
5D
330
5C
100
AcDbEntity
  8
0
100
AcDbBlockBegin
  2
block 6
 70
    0
 10
0
 20
0
  3
block 6
  1

  0
LWPOLYLINE
  5
B1
100
AcDbEntity
  8
switches
  6
ByLayer
 62
  256
370
   -1
100
AcDbPolyline
 90
    5
 70
    0
 43
0
 10
167.5850100936103
 20
-107.2678199582111
 10
181.5850100936101
 20
-107.2678199582111
 10
181.5850100936101
 20
-93.26781995821128
 10
167.5850100936103
 20
-93.26781995821128
 10
167.5850100936103
 20
-107.2678199582111
  0
ENDBLK
  5
5E
330
5C
100
AcDbEntity
  8
0
100
AcDbBlockEnd
  0
BLOCK
  5
60
330
5F
100
AcDbEntity
  8
0
100
AcDbBlockBegin
  2
block 7
 70
    0
 10
0
 20
0
  3
block 7
  1

  0
LWPOLYLINE
  5
B2
100
AcDbEntity
  8
switches
  6
ByLayer
 62
  256
370
   -1
100
AcDbPolyline
 90
    5
 70
    0
 43
0
 10
186.6350100888478
 20
-107.2678199582111
 10
200.6350100888476
 20
-107.2678199582111
 10
200.6350100888476
 20
-93.26781995821128
 10
186.6350100888478
 20
-93.26781995821128
 10
186.6350100888478
 20
-107.2678199582111
  0
ENDBLK
  5
61
330
5F
100
AcDbEntity
  8
0
100
AcDbBlockEnd
  0
BLOCK
  5
63
330
62
100
AcDbEntity
  8
0
100
AcDbBlockBegin
  2
block 8
 70
    0
 10
0
 20
0
  3
block 8
  1

  0
LWPOLYLINE
  5
B3
100
AcDbEntity
  8
switches
  6
ByLayer
 62
  256
370
   -1
100
AcDbPolyline
 90
    5
 70
    0
 43
0
 10
210.4475101031351
 20
-107.2678199582111
 10
224.447510103135
 20
-107.2678199582111
 10
224.447510103135
 20
-93.26781995821128
 10
210.4475101031351
 20
-93.26781995821128
 10
210.4475101031351
 20
-107.2678199582111
  0
ENDBLK
  5
64
330
62
100
AcDbEntity
  8
0
100
AcDbBlockEnd
  0
BLOCK
  5
66
330
65
100
AcDbEntity
  8
0
100
AcDbBlockBegin
  2
block 9
 70
    0
 10
0
 20
0
  3
block 9
  1

  0
LWPOLYLINE
  5
B4
100
AcDbEntity
  8
switches
  6
ByLayer
 62
  256
370
   -1
100
AcDbPolyline
 90
    5
 70
    0
 43
0
 10
77.09751010313506
 20
-131.0803199582114
 10
91.09751010313491
 20
-131.0803199582114
 10
91.09751010313491
 20
-117.0803199582112
 10
77.09751010313506
 20
-117.0803199582112
 10
77.09751010313506
 20
-131.0803199582114
  0
ENDBLK
  5
67
330
65
100
AcDbEntity
  8
0
100
AcDbBlockEnd
  0
BLOCK
  5
69
330
68
100
AcDbEntity
  8
0
100
AcDbBlockBegin
  2
block 10
 70
    0
 10
0
 20
0
  3
block 10
  1

  0
LWPOLYLINE
  5
B5
100
AcDbEntity
  8
switches
  6
ByLayer
 62
  256
370
   -1
100
AcDbPolyline
 90
    5
 70
    0
 43
0
 10
96.14751009837256
 20
-131.0803199582114
 10
110.1475100983724
 20
-131.0803199582114
 10
110.1475100983724
 20
-117.0803199582112
 10
96.14751009837256
 20
-117.0803199582112
 10
96.14751009837256
 20
-131.0803199582114
  0
ENDBLK
  5
6A
330
68
100
AcDbEntity
  8
0
100
AcDbBlockEnd
  0
BLOCK
  5
6C
330
6B
100
AcDbEntity
  8
0
100
AcDbBlockBegin
  2
block 11
 70
    0
 10
0
 20
0
  3
block 11
  1

  0
LWPOLYLINE
  5
B6
100
AcDbEntity
  8
switches
  6
ByLayer
 62
  256
370
   -1
100
AcDbPolyline
 90
    5
 70
    0
 43
0
 10
115.1975100936101
 20
-131.0803199582114
 10
129.1975100936099
 20
-131.0803199582114
 10
129.1975100936099
 20
-117.0803199582112
 10
115.1975100936101
 20
-117.0803199582112
 10
115.1975100936101
 20
-131.0803199582114
  0
ENDBLK
  5
6D
330
6B
100
AcDbEntity
  8
0
100
AcDbBlockEnd
  0
BLOCK
  5
6F
330
6E
100
AcDbEntity
  8
0
100
AcDbBlockBegin
  2
block 12
 70
    0
 10
0
 20
0
  3
block 12
  1

  0
LWPOLYLINE
  5
B7
100
AcDbEntity
  8
switches
  6
ByLayer
 62
  256
370
   -1
100
AcDbPolyline
 90
    5
 70
    0
 43
0
 10
134.2475100888475
 20
-131.0803199582114
 10
148.2475100888474
 20
-131.0803199582114
 10
148.2475100888474
 20
-117.0803199582112
 10
134.2475100888475
 20
-117.0803199582112
 10
134.2475100888475
 20
-131.0803199582114
  0
ENDBLK
  5
70
330
6E
100
AcDbEntity
  8
0
100
AcDbBlockEnd
  0
BLOCK
  5
72
330
71
100
AcDbEntity
  8
0
100
AcDbBlockBegin
  2
block 13
 70
    0
 10
0
 20
0
  3
block 13
  1

  0
LWPOLYLINE
  5
B8
100
AcDbEntity
  8
switches
  6
ByLayer
 62
  256
370
   -1
100
AcDbPolyline
 90
    5
 70
    0
 43
0
 10
153.2975100840851
 20
-131.0803199582114
 10
167.2975100840849
 20
-131.0803199582114
 10
167.2975100840849
 20
-117.0803199582112
 10
153.2975100840851
 20
-117.0803199582112
 10
153.2975100840851
 20
-131.0803199582114
  0
ENDBLK
  5
73
330
71
100
AcDbEntity
  8
0
100
AcDbBlockEnd
  0
BLOCK
  5
75
330
74
100
AcDbEntity
  8
0
100
AcDbBlockBegin
  2
block 14
 70
    0
 10
0
 20
0
  3
block 14
  1

  0
LWPOLYLINE
  5
B9
100
AcDbEntity
  8
switches
  6
ByLayer
 62
  256
370
   -1
100
AcDbPolyline
 90
    5
 70
    0
 43
0
 10
172.3475100793226
 20
-131.0803199582114
 10
186.3475100793224
 20
-131.0803199582114
 10
186.3475100793224
 20
-117.0803199582112
 10
172.3475100793226
 20
-117.0803199582112
 10
172.3475100793226
 20
-131.0803199582114
  0
ENDBLK
  5
76
330
74
100
AcDbEntity
  8
0
100
AcDbBlockEnd
  0
BLOCK
  5
78
330
77
100
AcDbEntity
  8
0
100
AcDbBlockBegin
  2
block 15
 70
    0
 10
0
 20
0
  3
block 15
  1

  0
LWPOLYLINE
  5
BA
100
AcDbEntity
  8
switches
  6
ByLayer
 62
  256
370
   -1
100
AcDbPolyline
 90
    5
 70
    0
 43
0
 10
67.57251010313496
 20
-150.1303199582116
 10
81.57251010313482
 20
-150.1303199582116
 10
81.57251010313482
 20
-136.1303199582111
 10
67.57251010313496
 20
-136.1303199582111
 10
67.57251010313496
 20
-150.1303199582116
  0
ENDBLK
  5
79
330
77
100
AcDbEntity
  8
0
100
AcDbBlockEnd
  0
BLOCK
  5
7B
330
7A
100
AcDbEntity
  8
0
100
AcDbBlockBegin
  2
block 16
 70
    0
 10
0
 20
0
  3
block 16
  1

  0
LWPOLYLINE
  5
BB
100
AcDbEntity
  8
switches
  6
ByLayer
 62
  256
370
   -1
100
AcDbPolyline
 90
    5
 70
    0
 43
0
 10
86.62251009837246
 20
-150.1303199582116
 10
100.6225100983723
 20
-150.1303199582116
 10
100.6225100983723
 20
-136.1303199582111
 10
86.62251009837246
 20
-136.1303199582111
 10
86.62251009837246
 20
-150.1303199582116
  0
ENDBLK
  5
7C
330
7A
100
AcDbEntity
  8
0
100
AcDbBlockEnd
  0
BLOCK
  5
7E
330
7D
100
AcDbEntity
  8
0
100
AcDbBlockBegin
  2
block 17
 70
    0
 10
0
 20
0
  3
block 17
  1

  0
LWPOLYLINE
  5
BC
100
AcDbEntity
  8
switches
  6
ByLayer
 62
  256
370
   -1
100
AcDbPolyline
 90
    5
 70
    0
 43
0
 10
105.67251009361
 20
-150.1303199582116
 10
119.6725100936098
 20
-150.1303199582116
 10
119.6725100936098
 20
-136.1303199582111
 10
105.67251009361
 20
-136.1303199582111
 10
105.67251009361
 20
-150.1303199582116
  0
ENDBLK
  5
7F
330
7D
100
AcDbEntity
  8
0
100
AcDbBlockEnd
  0
BLOCK
  5
81
330
80
100
AcDbEntity
  8
0
100
AcDbBlockBegin
  2
block 18
 70
    0
 10
0
 20
0
  3
block 18
  1

  0
LWPOLYLINE
  5
BD
100
AcDbEntity
  8
switches
  6
ByLayer
 62
  256
370
   -1
100
AcDbPolyline
 90
    5
 70
    0
 43
0
 10
124.7225100888475
 20
-150.1303199582116
 10
138.7225100888473
 20
-150.1303199582116
 10
138.7225100888473
 20
-136.1303199582111
 10
124.7225100888475
 20
-136.1303199582111
 10
124.7225100888475
 20
-150.1303199582116
  0
ENDBLK
  5
82
330
80
100
AcDbEntity
  8
0
100
AcDbBlockEnd
  0
BLOCK
  5
84
330
83
100
AcDbEntity
  8
0
100
AcDbBlockBegin
  2
block 19
 70
    0
 10
0
 20
0
  3
block 19
  1

  0
LWPOLYLINE
  5
BE
100
AcDbEntity
  8
switches
  6
ByLayer
 62
  256
370
   -1
100
AcDbPolyline
 90
    5
 70
    0
 43
0
 10
143.772510084085
 20
-150.1303199582116
 10
157.7725100840848
 20
-150.1303199582116
 10
157.7725100840848
 20
-136.1303199582111
 10
143.772510084085
 20
-136.1303199582111
 10
143.772510084085
 20
-150.1303199582116
  0
ENDBLK
  5
85
330
83
100
AcDbEntity
  8
0
100
AcDbBlockEnd
  0
BLOCK
  5
87
330
86
100
AcDbEntity
  8
0
100
AcDbBlockBegin
  2
block 20
 70
    0
 10
0
 20
0
  3
block 20
  1

  0
LWPOLYLINE
  5
BF
100
AcDbEntity
  8
switches
  6
ByLayer
 62
  256
370
   -1
100
AcDbPolyline
 90
    5
 70
    0
 43
0
 10
162.8225100793225
 20
-150.1303199582116
 10
176.8225100793223
 20
-150.1303199582116
 10
176.8225100793223
 20
-136.1303199582111
 10
162.8225100793225
 20
-136.1303199582111
 10
162.8225100793225
 20
-150.1303199582116
  0
ENDBLK
  5
88
330
86
100
AcDbEntity
  8
0
100
AcDbBlockEnd
  0
BLOCK
  5
8A
330
89
100
AcDbEntity
  8
0
100
AcDbBlockBegin
  2
block 21
 70
    0
 10
0
 20
0
  3
block 21
  1

  0
LWPOLYLINE
  5
C0
100
AcDbEntity
  8
switches
  6
ByLayer
 62
  256
370
   -1
100
AcDbPolyline
 90
    5
 70
    0
 43
0
 10
181.87251007456
 20
-150.1303199582116
 10
195.8725100745598
 20
-150.1303199582116
 10
195.8725100745598
 20
-136.1303199582111
 10
181.87251007456
 20
-136.1303199582111
 10
181.87251007456
 20
-150.1303199582116
  0
ENDBLK
  5
8B
330
89
100
AcDbEntity
  8
0
100
AcDbBlockEnd
  0
BLOCK
  5
8D
330
8C
100
AcDbEntity
  8
0
100
AcDbBlockBegin
  2
block 22
 70
    0
 10
0
 20
0
  3
block 22
  1

  0
LWPOLYLINE
  5
C1
100
AcDbEntity
  8
switches
  6
ByLayer
 62
  256
370
   -1
100
AcDbPolyline
 90
    5
 70
    0
 43
0
 10
72.33501010313469
 20
-169.1803199582108
 10
86.33501010313519
 20
-169.1803199582108
 10
86.33501010313519
 20
-155.1803199582116
 10
72.33501010313469
 20
-155.1803199582116
 10
72.33501010313469
 20
-169.1803199582108
  0
ENDBLK
  5
8E
330
8C
100
AcDbEntity
  8
0
100
AcDbBlockEnd
  0
BLOCK
  5
90
330
8F
100
AcDbEntity
  8
0
100
AcDbBlockBegin
  2
block 23
 70
    0
 10
0
 20
0
  3
block 23
  1

  0
LWPOLYLINE
  5
C2
100
AcDbEntity
  8
switches
  6
ByLayer
 62
  256
370
   -1
100
AcDbPolyline
 90
    5
 70
    0
 43
0
 10
91.38501009837219
 20
-169.1803199582108
 10
105.3850100983727
 20
-169.1803199582108
 10
105.3850100983727
 20
-155.1803199582116
 10
91.38501009837219
 20
-155.1803199582116
 10
91.38501009837219
 20
-169.1803199582108
  0
ENDBLK
  5
91
330
8F
100
AcDbEntity
  8
0
100
AcDbBlockEnd
  0
BLOCK
  5
93
330
92
100
AcDbEntity
  8
0
100
AcDbBlockBegin
  2
block 24
 70
    0
 10
0
 20
0
  3
block 24
  1

  0
LWPOLYLINE
  5
C3
100
AcDbEntity
  8
switches
  6
ByLayer
 62
  256
370
   -1
100
AcDbPolyline
 90
    5
 70
    0
 43
0
 10
110.4350100936097
 20
-169.1803199582108
 10
124.4350100936102
 20
-169.1803199582108
 10
124.4350100936102
 20
-155.1803199582116
 10
110.4350100936097
 20
-155.1803199582116
 10
110.4350100936097
 20
-169.1803199582108
  0
ENDBLK
  5
94
330
92
100
AcDbEntity
  8
0
100
AcDbBlockEnd
  0
BLOCK
  5
96
330
95
100
AcDbEntity
  8
0
100
AcDbBlockBegin
  2
block 25
 70
    0
 10
0
 20
0
  3
block 25
  1

  0
LWPOLYLINE
  5
C4
100
AcDbEntity
  8
switches
  6
ByLayer
 62
  256
370
   -1
100
AcDbPolyline
 90
    5
 70
    0
 43
0
 10
129.4850100888472
 20
-169.1803199582108
 10
143.4850100888477
 20
-169.1803199582108
 10
143.4850100888477
 20
-155.1803199582116
 10
129.4850100888472
 20
-155.1803199582116
 10
129.4850100888472
 20
-169.1803199582108
  0
ENDBLK
  5
97
330
95
100
AcDbEntity
  8
0
100
AcDbBlockEnd
  0
BLOCK
  5
99
330
98
100
AcDbEntity
  8
0
100
AcDbBlockBegin
  2
block 26
 70
    0
 10
0
 20
0
  3
block 26
  1

  0
LWPOLYLINE
  5
C5
100
AcDbEntity
  8
switches
  6
ByLayer
 62
  256
370
   -1
100
AcDbPolyline
 90
    5
 70
    0
 43
0
 10
148.5350100840847
 20
-169.1803199582108
 10
162.5350100840852
 20
-169.1803199582108
 10
162.5350100840852
 20
-155.1803199582116
 10
148.5350100840847
 20
-155.1803199582116
 10
148.5350100840847
 20
-169.1803199582108
  0
ENDBLK
  5
9A
330
98
100
AcDbEntity
  8
0
100
AcDbBlockEnd
  0
BLOCK
  5
9C
330
9B
100
AcDbEntity
  8
0
100
AcDbBlockBegin
  2
block 27
 70
    0
 10
0
 20
0
  3
block 27
  1

  0
LWPOLYLINE
  5
C6
100
AcDbEntity
  8
switches
  6
ByLayer
 62
  256
370
   -1
100
AcDbPolyline
 90
    5
 70
    0
 43
0
 10
167.5850100793222
 20
-169.1803199582108
 10
181.5850100793227
 20
-169.1803199582108
 10
181.5850100793227
 20
-155.1803199582116
 10
167.5850100793222
 20
-155.1803199582116
 10
167.5850100793222
 20
-169.1803199582108
  0
ENDBLK
  5
9D
330
9B
100
AcDbEntity
  8
0
100
AcDbBlockEnd
  0
BLOCK
  5
9F
330
9E
100
AcDbEntity
  8
0
100
AcDbBlockBegin
  2
block 28
 70
    0
 10
0
 20
0
  3
block 28
  1

  0
LWPOLYLINE
  5
C7
100
AcDbEntity
  8
switches
  6
ByLayer
 62
  256
370
   -1
100
AcDbPolyline
 90
    5
 70
    0
 43
0
 10
81.86001010313478
 20
-188.230319958211
 10
95.86001010313528
 20
-188.230319958211
 10
95.86001010313528
 20
-174.2303199582118
 10
81.86001010313478
 20
-174.2303199582118
 10
81.86001010313478
 20
-188.230319958211
  0
ENDBLK
  5
A0
330
9E
100
AcDbEntity
  8
0
100
AcDbBlockEnd
  0
BLOCK
  5
A2
330
A1
100
AcDbEntity
  8
0
100
AcDbBlockBegin
  2
block 29
 70
    0
 10
0
 20
0
  3
block 29
  1

  0
LWPOLYLINE
  5
C8
100
AcDbEntity
  8
switches
  6
ByLayer
 62
  256
370
   -1
100
AcDbPolyline
 90
    5
 70
    0
 43
0
 10
100.9100100983723
 20
-188.230319958211
 10
114.9100100983728
 20
-188.230319958211
 10
114.9100100983728
 20
-174.2303199582118
 10
100.9100100983723
 20
-174.2303199582118
 10
100.9100100983723
 20
-188.230319958211
  0
ENDBLK
  5
A3
330
A1
100
AcDbEntity
  8
0
100
AcDbBlockEnd
  0
BLOCK
  5
A5
330
A4
100
AcDbEntity
  8
0
100
AcDbBlockBegin
  2
block 30
 70
    0
 10
0
 20
0
  3
block 30
  1

  0
LWPOLYLINE
  5
C9
100
AcDbEntity
  8
switches
  6
ByLayer
 62
  256
370
   -1
100
AcDbPolyline
 90
    5
 70
    0
 43
0
 10
119.9600100936098
 20
-188.230319958211
 10
133.9600100936103
 20
-188.230319958211
 10
133.9600100936103
 20
-174.2303199582118
 10
119.9600100936098
 20
-174.2303199582118
 10
119.9600100936098
 20
-188.230319958211
  0
ENDBLK
  5
A6
330
A4
100
AcDbEntity
  8
0
100
AcDbBlockEnd
  0
BLOCK
  5
A8
330
A7
100
AcDbEntity
  8
0
100
AcDbBlockBegin
  2
block 31
 70
    0
 10
0
 20
0
  3
block 31
  1

  0
LWPOLYLINE
  5
CA
100
AcDbEntity
  8
switches
  6
ByLayer
 62
  256
370
   -1
100
AcDbPolyline
 90
    5
 70
    0
 43
0
 10
139.0100100888473
 20
-188.230319958211
 10
153.0100100888478
 20
-188.230319958211
 10
153.0100100888478
 20
-174.2303199582118
 10
139.0100100888473
 20
-174.2303199582118
 10
139.0100100888473
 20
-188.230319958211
  0
ENDBLK
  5
A9
330
A7
100
AcDbEntity
  8
0
100
AcDbBlockEnd
  0
BLOCK
  5
AB
330
AA
100
AcDbEntity
  8
0
100
AcDbBlockBegin
  2
block 32
 70
    0
 10
0
 20
0
  3
block 32
  1

  0
LWPOLYLINE
  5
CB
100
AcDbEntity
  8
switches
  6
ByLayer
 62
  256
370
   -1
100
AcDbPolyline
 90
    9
 70
    0
 43
0
 10
210.4475066735618
 20
-174.2303165613805
 10
210.4475066735618
 20
-175.2303201215146
 10
209.3417602138773
 20
-175.2303201215146
 10
209.3417602138773
 20
-189.2303268996986
 10
216.0917573299741
 20
-189.2303268996986
 10
216.0917573299741
 20
-188.2303233395645
 10
224.4475134517458
 20
-188.2303233395645
 10
224.4475134517458
 20
-174.2303165613805
 10
210.4475066735618
 20
-174.2303165613805
  0
LWPOLYLINE
  5
CC
100
AcDbEntity
  8
switches
  6
ByLayer
 62
  256
370
   -1
100
AcDbPolyline
 90
   16
 70
    0
 43
0
 10
198.2537634582942
 20
-174.2303165613805
 10
193.7787566777289
 20
-174.2303165613805
 10
191.3975066783243
 20
-174.2303165613805
 10
184.2537566801102
 20
-174.2303165613805
 10
184.2537566801102
 20
-188.2303233395645
 10
185.4657628036679
 20
-188.2303233395645
 10
185.4657628036679
 20
-189.2303268996986
 10
192.2157599197647
 20
-189.2303268996986
 10
192.2157599197647
 20
-188.2303233395645
 10
193.7787566777289
 20
-188.2303233395645
 10
198.2537634582942
 20
-188.2303233395645
 10
205.3975134565083
 20
-188.2303233395645
 10
207.778763455913
 20
-188.2303233395645
 10
207.778763455913
 20
-174.2303165613805
 10
205.3975134565083
 20
-174.2303165613805
 10
198.2537634582942
 20
-174.2303165613805
  0
ENDBLK
  5
AC
330
AA
100
AcDbEntity
  8
0
100
AcDbBlockEnd
  0
ENDSEC
  0
SECTION
  2
ENTITIES
  0
SPLINE
  5
CD
100
AcDbEntity
  8
holes
  6
ByLayer
 62
  256
370
   -1
100
AcDbSpline
210
0
220
0
230
0
 70
   11
 71
    3
 72
   17
 73
   13
 74
    0
 42
1e-07
 43
1e-07
 40
0
 40
0
 40
0
 40
0
 40
1
 40
1
 40
1
 40
2
 40
2
 40
2
 40
3
 40
3
 40
3
 40
4
 40
4
 40
4
 40
4
 10
231.3725100591728
 20
-87.44281997391882
 30
0
 10
231.3725100591728
 20
-88.05033319854645
 30
0
 10
230.880023284076
 20
-88.54281997364389
 30
0
 10
230.2725100594477
 20
-88.54281997364389
 30
0
 10
229.6649968348194
 20
-88.54281997364389
 30
0
 10
229.1725100597227
 20
-88.05033319854645
 30
0
 10
229.1725100597227
 20
-87.44281997391882
 30
0
 10
229.1725100597227
 20
-86.83530674929054
 30
0
 10
229.6649968348194
 20
-86.34281997419374
 30
0
 10
230.2725100594477
 20
-86.34281997419374
 30
0
 10
230.880023284076
 20
-86.34281997419374
 30
0
 10
231.3725100591728
 20
-86.83530674929054
 30
0
 10
231.3725100591728
 20
-87.44281997391882
 30
0
  0
SPLINE
  5
CE
100
AcDbEntity
  8
holes
  6
ByLayer
 62
  256
370
   -1
100
AcDbSpline
210
0
220
0
230
0
 70
   11
 71
    3
 72
   17
 73
   13
 74
    0
 42
1e-07
 43
1e-07
 40
0
 40
0
 40
0
 40
0
 40
1
 40
1
 40
1
 40
2
 40
2
 40
2
 40
3
 40
3
 40
3
 40
4
 40
4
 40
4
 40
4
 10
89.19754244521081
 20
-86.74278762359957
 30
0
 10
89.19754244521081
 20
-87.35030084822721
 30
0
 10
88.70505567011402
 20
-87.84278762332464
 30
0
 10
88.09754244548574
 20
-87.84278762332464
 30
0
 10
87.49002922085747
 20
-87.84278762332464
 30
0
 10
86.99754244576067
 20
-87.35030084822721
 30
0
 10
86.99754244576067
 20
-86.74278762359957
 30
0
 10
86.99754244576067
 20
-86.13527439897129
 30
0
 10
87.49002922085747
 20
-85.6427876238745
 30
0
 10
88.09754244548574
 20
-85.6427876238745
 30
0
 10
88.70505567011402
 20
-85.6427876238745
 30
0
 10
89.19754244521081
 20
-86.13527439897129
 30
0
 10
89.19754244521081
 20
-86.74278762359957
 30
0
  0
SPLINE
  5
CF
100
AcDbEntity
  8
holes
  6
ByLayer
 62
  256
370
   -1
100
AcDbSpline
210
0
220
0
230
0
 70
   11
 71
    3
 72
   17
 73
   13
 74
    0
 42
1e-07
 43
1e-07
 40
0
 40
0
 40
0
 40
0
 40
1
 40
1
 40
1
 40
2
 40
2
 40
2
 40
3
 40
3
 40
3
 40
4
 40
4
 40
4
 40
4
 10
116.6297272383761
 20
-86.74278762359957
 30
0
 10
116.6297272383761
 20
-87.35030084822721
 30
0
 10
116.1372404632793
 20
-87.84278762332464
 30
0
 10
115.529727238651
 20
-87.84278762332464
 30
0
 10
114.9222140140227
 20
-87.84278762332464
 30
0
 10
114.4297272389259
 20
-87.35030084822721
 30
0
 10
114.4297272389259
 20
-86.74278762359957
 30
0
 10
114.4297272389259
 20
-86.13527439897129
 30
0
 10
114.9222140140227
 20
-85.6427876238745
 30
0
 10
115.529727238651
 20
-85.6427876238745
 30
0
 10
116.1372404632793
 20
-85.6427876238745
 30
0
 10
116.6297272383761
 20
-86.13527439897129
 30
0
 10
116.6297272383761
 20
-86.74278762359957
 30
0
  0
SPLINE
  5
D0
100
AcDbEntity
  8
holes
  6
ByLayer
 62
  256
370
   -1
100
AcDbSpline
210
0
220
0
230
0
 70
   11
 71
    3
 72
   17
 73
   13
 74
    0
 42
1e-07
 43
1e-07
 40
0
 40
0
 40
0
 40
0
 40
1
 40
1
 40
1
 40
2
 40
2
 40
2
 40
3
 40
3
 40
3
 40
4
 40
4
 40
4
 40
4
 10
134.7308390849543
 20
-86.74278762359957
 30
0
 10
134.7308390849543
 20
-87.35030084822752
 30
0
 10
134.2383523098575
 20
-87.84278762332495
 30
0
 10
133.6308390852292
 20
-87.84278762332495
 30
0
 10
133.0233258606009
 20
-87.84278762332495
 30
0
 10
132.5308390855041
 20
-87.35030084822752
 30
0
 10
132.5308390855041
 20
-86.74278762359957
 30
0
 10
132.5308390855041
 20
-86.1352743989716
 30
0
 10
133.0233258606009
 20
-85.64278762387481
 30
0
 10
133.6308390852292
 20
-85.64278762387481
 30
0
 10
134.2383523098575
 20
-85.64278762387481
 30
0
 10
134.7308390849543
 20
-86.1352743989716
 30
0
 10
134.7308390849543
 20
-86.74278762359957
 30
0
  0
SPLINE
  5
D1
100
AcDbEntity
  8
holes
  6
ByLayer
 62
  256
370
   -1
100
AcDbSpline
210
0
220
0
230
0
 70
   11
 71
    3
 72
   17
 73
   13
 74
    0
 42
1e-07
 43
1e-07
 40
0
 40
0
 40
0
 40
0
 40
1
 40
1
 40
1
 40
2
 40
2
 40
2
 40
3
 40
3
 40
3
 40
4
 40
4
 40
4
 40
4
 10
174.1505301652532
 20
-86.74278762359957
 30
0
 10
174.1505301652532
 20
-87.35030084822752
 30
0
 10
173.6580433901565
 20
-87.84278762332495
 30
0
 10
173.0505301655282
 20
-87.84278762332495
 30
0
 10
172.4430169408999
 20
-87.84278762332495
 30
0
 10
171.9505301658031
 20
-87.35030084822752
 30
0
 10
171.9505301658031
 20
-86.74278762359957
 30
0
 10
171.9505301658031
 20
-86.1352743989716
 30
0
 10
172.4430169408999
 20
-85.64278762387481
 30
0
 10
173.0505301655282
 20
-85.64278762387481
 30
0
 10
173.6580433901565
 20
-85.64278762387481
 30
0
 10
174.1505301652532
 20
-86.1352743989716
 30
0
 10
174.1505301652532
 20
-86.74278762359957
 30
0
  0
SPLINE
  5
D2
100
AcDbEntity
  8
holes
  6
ByLayer
 62
  256
370
   -1
100
AcDbSpline
210
0
220
0
230
0
 70
   11
 71
    3
 72
   17
 73
   13
 74
    0
 42
1e-07
 43
1e-07
 40
0
 40
0
 40
0
 40
0
 40
1
 40
1
 40
1
 40
2
 40
2
 40
2
 40
3
 40
3
 40
3
 40
4
 40
4
 40
4
 40
4
 10
196.2699540324137
 20
-86.74278762359957
 30
0
 10
196.2699540324137
 20
-87.35030084822752
 30
0
 10
195.7774672573169
 20
-87.84278762332495
 30
0
 10
195.1699540326886
 20
-87.84278762332495
 30
0
 10
194.5624408080603
 20
-87.84278762332495
 30
0
 10
194.0699540329635
 20
-87.35030084822752
 30
0
 10
194.0699540329635
 20
-86.74278762359957
 30
0
 10
194.0699540329635
 20
-86.1352743989716
 30
0
 10
194.5624408080603
 20
-85.64278762387481
 30
0
 10
195.1699540326886
 20
-85.64278762387481
 30
0
 10
195.7774672573169
 20
-85.64278762387481
 30
0
 10
196.2699540324137
 20
-86.1352743989716
 30
0
 10
196.2699540324137
 20
-86.74278762359957
 30
0
  0
SPLINE
  5
D3
100
AcDbEntity
  8
holes
  6
ByLayer
 62
  256
370
   -1
100
AcDbSpline
210
0
220
0
230
0
 70
   11
 71
    3
 72
   17
 73
   13
 74
    0
 42
1e-07
 43
1e-07
 40
0
 40
0
 40
0
 40
0
 40
1
 40
1
 40
1
 40
2
 40
2
 40
2
 40
3
 40
3
 40
3
 40
4
 40
4
 40
4
 40
4
 10
157.9350424280267
 20
-213.8053522928226
 30
0
 10
157.9350424280267
 20
-214.4128655174495
 30
0
 10
157.4425556529299
 20
-214.9053522925476
 30
0
 10
156.8350424283016
 20
-214.9053522925476
 30
0
 10
156.2275292036734
 20
-214.9053522925476
 30
0
 10
155.7350424285766
 20
-214.4128655174495
 30
0
 10
155.7350424285766
 20
-213.8053522928226
 30
0
 10
155.7350424285766
 20
-213.1978390681943
 30
0
 10
156.2275292036734
 20
-212.7053522930975
 30
0
 10
156.8350424283016
 20
-212.7053522930975
 30
0
 10
157.4425556529299
 20
-212.7053522930975
 30
0
 10
157.9350424280267
 20
-213.1978390681943
 30
0
 10
157.9350424280267
 20
-213.8053522928226
 30
0
  0
SPLINE
  5
D4
100
AcDbEntity
  8
holes
  6
ByLayer
 62
  256
370
   -1
100
AcDbSpline
210
0
220
0
230
0
 70
   11
 71
    3
 72
   17
 73
   13
 74
    0
 42
1e-07
 43
1e-07
 40
0
 40
0
 40
0
 40
0
 40
1
 40
1
 40
1
 40
2
 40
2
 40
2
 40
3
 40
3
 40
3
 40
4
 40
4
 40
4
 40
4
 10
231.3725100591728
 20
-213.1053199425039
 30
0
 10
231.3725100591728
 20
-213.712833167131
 30
0
 10
230.880023284076
 20
-214.205319942229
 30
0
 10
230.2725100594477
 20
-214.205319942229
 30
0
 10
229.6649968348194
 20
-214.205319942229
 30
0
 10
229.1725100597227
 20
-213.712833167131
 30
0
 10
229.1725100597227
 20
-213.1053199425039
 30
0
 10
229.1725100597227
 20
-212.4978067178757
 30
0
 10
229.6649968348194
 20
-212.0053199427789
 30
0
 10
230.2725100594477
 20
-212.0053199427789
 30
0
 10
230.880023284076
 20
-212.0053199427789
 30
0
 10
231.3725100591728
 20
-212.4978067178757
 30
0
 10
231.3725100591728
 20
-213.1053199425039
 30
0
  0
SPLINE
  5
D5
100
AcDbEntity
  8
holes
  6
ByLayer
 62
  256
370
   -1
100
AcDbSpline
210
0
220
0
230
0
 70
   11
 71
    3
 72
   17
 73
   13
 74
    0
 42
1e-07
 43
1e-07
 40
0
 40
0
 40
0
 40
0
 40
1
 40
1
 40
1
 40
2
 40
2
 40
2
 40
3
 40
3
 40
3
 40
4
 40
4
 40
4
 40
4
 10
84.43504244640144
 20
-213.8053522928226
 30
0
 10
84.43504244640144
 20
-214.4128655174495
 30
0
 10
83.94255567130465
 20
-214.9053522925476
 30
0
 10
83.33504244667637
 20
-214.9053522925476
 30
0
 10
82.72752922204808
 20
-214.9053522925476
 30
0
 10
82.2350424469513
 20
-214.4128655174495
 30
0
 10
82.2350424469513
 20
-213.8053522928226
 30
0
 10
82.2350424469513
 20
-213.1978390681943
 30
0
 10
82.72752922204808
 20
-212.7053522930975
 30
0
 10
83.33504244667637
 20
-212.7053522930975
 30
0
 10
83.94255567130465
 20
-212.7053522930975
 30
0
 10
84.43504244640144
 20
-213.1978390681943
 30
0
 10
84.43504244640144
 20
-213.8053522928226
 30
0
  0
SPLINE
  5
D6
100
AcDbEntity
  8
top
  6
ByLayer
 62
  256
370
   -1
100
AcDbSpline
210
0
220
0
230
0
 70
   11
 71
    3
 72
   77
 73
   73
 74
    0
 42
1e-07
 43
1e-07
 40
0
 40
0
 40
0
 40
0
 40
1
 40
1
 40
1
 40
2
 40
2
 40
2
 40
3
 40
3
 40
3
 40
4
 40
4
 40
4
 40
5
 40
5
 40
5
 40
6
 40
6
 40
6
 40
7
 40
7
 40
7
 40
8
 40
8
 40
8
 40
9
 40
9
 40
9
 40
10
 40
10
 40
10
 40
11
 40
11
 40
11
 40
12
 40
12
 40
12
 40
13
 40
13
 40
13
 40
14
 40
14
 40
14
 40
15
 40
15
 40
15
 40
16
 40
16
 40
16
 40
17
 40
17
 40
17
 40
18
 40
18
 40
18
 40
19
 40
19
 40
19
 40
20
 40
20
 40
20
 40
21
 40
21
 40
21
 40
22
 40
22
 40
22
 40
23
 40
23
 40
23
 40
24
 40
24
 40
24
 40
24
 10
79.33529764058417
 20
-215.8052046532
 30
0
 10
79.33529764058417
 20
-215.8052046532
 30
0
 10
79.33529764058417
 20
-173.7052046637246
 30
0
 10
79.33529764058417
 20
-173.7052046637246
 30
0
 10
79.33529764058417
 20
-172.6006351643399
 30
0
 10
78.43986714046932
 20
-171.7052046642251
 30
0
 10
77.33529764108398
 20
-171.7052046642251
 30
0
 10
77.33529764108398
 20
-171.7052046642251
 30
0
 10
71.81029764246561
 20
-171.7052046642251
 30
0
 10
71.81029764246561
 20
-171.7052046642251
 30
0
 10
70.70572814308026
 20
-171.7052046642251
 30
0
 10
69.81029764296542
 20
-170.8097741641102
 30
0
 10
69.81029764296542
 20
-169.7052046647242
 30
0
 10
69.81029764296542
 20
-169.7052046647242
 30
0
 10
69.81029764296542
 20
-154.6552046684871
 30
0
 10
69.81029764296542
 20
-154.6552046684871
 30
0
 10
69.81029764296542
 20
-153.5506351691024
 30
0
 10
68.91486714285057
 20
-152.6552046689876
 30
0
 10
67.81029764346523
 20
-152.6552046689876
 30
0
 10
67.81029764346523
 20
-152.6552046689876
 30
0
 10
67.04779764365624
 20
-152.6552046689876
 30
0
 10
67.04779764365624
 20
-152.6552046689876
 30
0
 10
65.94322814427089
 20
-152.6552046689876
 30
0
 10
65.04779764415605
 20
-151.7597741688727
 30
0
 10
65.04779764415605
 20
-150.6552046694867
 30
0
 10
65.04779764415605
 20
-150.6552046694867
 30
0
 10
65.04779764415605
 20
-135.6053199618783
 30
0
 10
65.04779764415605
 20
-135.6053199618783
 30
0
 10
65.04779764415605
 20
-134.5007504624929
 30
0
 10
65.94322814427025
 20
-133.6053199623784
 30
0
 10
67.04779764365624
 20
-133.6053199623784
 30
0
 10
67.04779764365624
 20
-133.6053199623784
 30
0
 10
72.57279764227461
 20
-133.6053199623784
 30
0
 10
72.57279764227461
 20
-133.6053199623784
 30
0
 10
73.6773671416606
 20
-133.6053199623784
 30
0
 10
74.5727976417748
 20
-132.7098894622639
 30
0
 10
74.5727976417748
 20
-131.6053199628786
 30
0
 10
74.5727976417748
 20
-131.6053199628786
 30
0
 10
74.5727976417748
 20
-116.5553199666408
 30
0
 10
74.5727976417748
 20
-116.5553199666408
 30
0
 10
74.5727976417748
 20
-115.4507504672554
 30
0
 10
75.468228141889
 20
-114.5553199671409
 30
0
 10
76.57279764127499
 20
-114.5553199671409
 30
0
 10
76.57279764127499
 20
-114.5553199671409
 30
0
 10
82.09779763989336
 20
-114.5553199671409
 30
0
 10
82.09779763989336
 20
-114.5553199671409
 30
0
 10
83.20236713927935
 20
-114.5553199671409
 30
0
 10
84.09779763939355
 20
-113.6598894670264
 30
0
 10
84.09779763939355
 20
-112.555319967641
 30
0
 10
84.09779763939355
 20
-112.555319967641
 30
0
 10
84.09779763939355
 20
-84.74281997459379
 30
0
 10
84.09779763939355
 20
-84.74281997459379
 30
0
 10
84.09779763939355
 20
-83.63825047520878
 30
0
 10
84.99322813950775
 20
-82.74281997509392
 30
0
 10
86.09779763889374
 20
-82.74281997509392
 30
0
 10
86.09779763889374
 20
-82.74281997509392
 30
0
 10
230.9725100592729
 20
-82.74281997509392
 30
0
 10
230.9725100592729
 20
-82.74281997509392
 30
0
 10
233.1816490580436
 20
-82.74281997509392
 30
0
 10
234.9725100582726
 20
-84.53368097532298
 30
0
 10
234.9725100582726
 20
-86.74281997409366
 30
0
 10
234.9725100582726
 20
-86.74281997409366
 30
0
 10
234.9725100582726
 20
-213.8052046537005
 30
0
 10
234.9725100582726
 20
-213.8052046537005
 30
0
 10
234.9725100582726
 20
-216.0143436524711
 30
0
 10
233.1816490580436
 20
-217.8052046527008
 30
0
 10
230.9725100592729
 20
-217.8052046527008
 30
0
 10
230.9725100592729
 20
-217.8052046527008
 30
0
 10
81.33529764008436
 20
-217.8052046527008
 30
0
 10
81.33529764008436
 20
-217.8052046527008
 30
0
 10
80.23072814069901
 20
-217.8052046527008
 30
0
 10
79.33529764058417
 20
-216.909774152586
 30
0
 10
79.33529764058417
 20
-215.8052046532
 30
0
  0
INSERT
  5
D7
100
AcDbEntity
  8
switches
  6
ByLayer
 62
  256
370
   -1
100
AcDbBlockReference
  2
block 2
 10
0
 20
0
 30
0
 41
1
 42
1
 43
0
 50
0
 70
    1
 71
    1
 44
0
 45
0
  0
INSERT
  5
D8
100
AcDbEntity
  8
switches
  6
ByLayer
 62
  256
370
   -1
100
AcDbBlockReference
  2
block 3
 10
0
 20
0
 30
0
 41
1
 42
1
 43
0
 50
0
 70
    1
 71
    1
 44
0
 45
0
  0
INSERT
  5
D9
100
AcDbEntity
  8
switches
  6
ByLayer
 62
  256
370
   -1
100
AcDbBlockReference
  2
block 4
 10
0
 20
0
 30
0
 41
1
 42
1
 43
0
 50
0
 70
    1
 71
    1
 44
0
 45
0
  0
INSERT
  5
DA
100
AcDbEntity
  8
switches
  6
ByLayer
 62
  256
370
   -1
100
AcDbBlockReference
  2
block 5
 10
0
 20
0
 30
0
 41
1
 42
1
 43
0
 50
0
 70
    1
 71
    1
 44
0
 45
0
  0
INSERT
  5
DB
100
AcDbEntity
  8
switches
  6
ByLayer
 62
  256
370
   -1
100
AcDbBlockReference
  2
block 6
 10
0
 20
0
 30
0
 41
1
 42
1
 43
0
 50
0
 70
    1
 71
    1
 44
0
 45
0
  0
INSERT
  5
DC
100
AcDbEntity
  8
switches
  6
ByLayer
 62
  256
370
   -1
100
AcDbBlockReference
  2
block 7
 10
0
 20
0
 30
0
 41
1
 42
1
 43
0
 50
0
 70
    1
 71
    1
 44
0
 45
0
  0
INSERT
  5
DD
100
AcDbEntity
  8
switches
  6
ByLayer
 62
  256
370
   -1
100
AcDbBlockReference
  2
block 8
 10
0
 20
0
 30
0
 41
1
 42
1
 43
0
 50
0
 70
    1
 71
    1
 44
0
 45
0
  0
INSERT
  5
DE
100
AcDbEntity
  8
switches
  6
ByLayer
 62
  256
370
   -1
100
AcDbBlockReference
  2
block 9
 10
0
 20
0
 30
0
 41
1
 42
1
 43
0
 50
0
 70
    1
 71
    1
 44
0
 45
0
  0
INSERT
  5
DF
100
AcDbEntity
  8
switches
  6
ByLayer
 62
  256
370
   -1
100
AcDbBlockReference
  2
block 10
 10
0
 20
0
 30
0
 41
1
 42
1
 43
0
 50
0
 70
    1
 71
    1
 44
0
 45
0
  0
INSERT
  5
E0
100
AcDbEntity
  8
switches
  6
ByLayer
 62
  256
370
   -1
100
AcDbBlockReference
  2
block 11
 10
0
 20
0
 30
0
 41
1
 42
1
 43
0
 50
0
 70
    1
 71
    1
 44
0
 45
0
  0
INSERT
  5
E1
100
AcDbEntity
  8
switches
  6
ByLayer
 62
  256
370
   -1
100
AcDbBlockReference
  2
block 12
 10
0
 20
0
 30
0
 41
1
 42
1
 43
0
 50
0
 70
    1
 71
    1
 44
0
 45
0
  0
INSERT
  5
E2
100
AcDbEntity
  8
switches
  6
ByLayer
 62
  256
370
   -1
100
AcDbBlockReference
  2
block 13
 10
0
 20
0
 30
0
 41
1
 42
1
 43
0
 50
0
 70
    1
 71
    1
 44
0
 45
0
  0
INSERT
  5
E3
100
AcDbEntity
  8
switches
  6
ByLayer
 62
  256
370
   -1
100
AcDbBlockReference
  2
block 14
 10
0
 20
0
 30
0
 41
1
 42
1
 43
0
 50
0
 70
    1
 71
    1
 44
0
 45
0
  0
LWPOLYLINE
  5
E4
100
AcDbEntity
  8
switches
  6
ByLayer
 62
  256
370
   -1
100
AcDbPolyline
 90
   21
 70
    0
 43
0
 10
214.922513454127
 20
-117.0803165756677
 10
210.4475066735618
 20
-117.0803165756677
 10
205.3975134565083
 20
-117.0803165756677
 10
200.922506675943
 20
-117.0803165756677
 10
191.3975066783243
 20
-117.0803165756677
 10
191.3975066783243
 20
-131.0803233538517
 10
192.6095128018819
 20
-131.0803233538517
 10
192.6095128018819
 20
-132.0803269139858
 10
199.3595099179787
 20
-132.0803269139858
 10
199.3595099179787
 20
-131.0803233538517
 10
200.922506675943
 20
-131.0803233538517
 10
205.3975134565083
 20
-131.0803233538517
 10
210.4475066735618
 20
-131.0803233538517
 10
214.922513454127
 20
-131.0803233538517
 10
216.4855102120913
 20
-131.0803233538517
 10
216.4855102120913
 20
-132.0803269139858
 10
223.2355073281881
 20
-132.0803269139858
 10
223.2355073281881
 20
-131.0803233538517
 10
224.4475134517458
 20
-131.0803233538517
 10
224.4475134517458
 20
-117.0803165756677
 10
214.922513454127
 20
-117.0803165756677
  0
INSERT
  5
E5
100
AcDbEntity
  8
switches
  6
ByLayer
 62
  256
370
   -1
100
AcDbBlockReference
  2
block 15
 10
0
 20
0
 30
0
 41
1
 42
1
 43
0
 50
0
 70
    1
 71
    1
 44
0
 45
0
  0
INSERT
  5
E6
100
AcDbEntity
  8
switches
  6
ByLayer
 62
  256
370
   -1
100
AcDbBlockReference
  2
block 16
 10
0
 20
0
 30
0
 41
1
 42
1
 43
0
 50
0
 70
    1
 71
    1
 44
0
 45
0
  0
INSERT
  5
E7
100
AcDbEntity
  8
switches
  6
ByLayer
 62
  256
370
   -1
100
AcDbBlockReference
  2
block 17
 10
0
 20
0
 30
0
 41
1
 42
1
 43
0
 50
0
 70
    1
 71
    1
 44
0
 45
0
  0
INSERT
  5
E8
100
AcDbEntity
  8
switches
  6
ByLayer
 62
  256
370
   -1
100
AcDbBlockReference
  2
block 18
 10
0
 20
0
 30
0
 41
1
 42
1
 43
0
 50
0
 70
    1
 71
    1
 44
0
 45
0
  0
INSERT
  5
E9
100
AcDbEntity
  8
switches
  6
ByLayer
 62
  256
370
   -1
100
AcDbBlockReference
  2
block 19
 10
0
 20
0
 30
0
 41
1
 42
1
 43
0
 50
0
 70
    1
 71
    1
 44
0
 45
0
  0
INSERT
  5
EA
100
AcDbEntity
  8
switches
  6
ByLayer
 62
  256
370
   -1
100
AcDbBlockReference
  2
block 20
 10
0
 20
0
 30
0
 41
1
 42
1
 43
0
 50
0
 70
    1
 71
    1
 44
0
 45
0
  0
INSERT
  5
EB
100
AcDbEntity
  8
switches
  6
ByLayer
 62
  256
370
   -1
100
AcDbBlockReference
  2
block 21
 10
0
 20
0
 30
0
 41
1
 42
1
 43
0
 50
0
 70
    1
 71
    1
 44
0
 45
0
  0
INSERT
  5
EC
100
AcDbEntity
  8
switches
  6
ByLayer
 62
  256
370
   -1
100
AcDbBlockReference
  2
block 22
 10
0
 20
0
 30
0
 41
1
 42
1
 43
0
 50
0
 70
    1
 71
    1
 44
0
 45
0
  0
INSERT
  5
ED
100
AcDbEntity
  8
switches
  6
ByLayer
 62
  256
370
   -1
100
AcDbBlockReference
  2
block 23
 10
0
 20
0
 30
0
 41
1
 42
1
 43
0
 50
0
 70
    1
 71
    1
 44
0
 45
0
  0
INSERT
  5
EE
100
AcDbEntity
  8
switches
  6
ByLayer
 62
  256
370
   -1
100
AcDbBlockReference
  2
block 24
 10
0
 20
0
 30
0
 41
1
 42
1
 43
0
 50
0
 70
    1
 71
    1
 44
0
 45
0
  0
INSERT
  5
EF
100
AcDbEntity
  8
switches
  6
ByLayer
 62
  256
370
   -1
100
AcDbBlockReference
  2
block 25
 10
0
 20
0
 30
0
 41
1
 42
1
 43
0
 50
0
 70
    1
 71
    1
 44
0
 45
0
  0
INSERT
  5
F0
100
AcDbEntity
  8
switches
  6
ByLayer
 62
  256
370
   -1
100
AcDbBlockReference
  2
block 26
 10
0
 20
0
 30
0
 41
1
 42
1
 43
0
 50
0
 70
    1
 71
    1
 44
0
 45
0
  0
INSERT
  5
F1
100
AcDbEntity
  8
switches
  6
ByLayer
 62
  256
370
   -1
100
AcDbBlockReference
  2
block 27
 10
0
 20
0
 30
0
 41
1
 42
1
 43
0
 50
0
 70
    1
 71
    1
 44
0
 45
0
  0
LWPOLYLINE
  5
F2
100
AcDbEntity
  8
switches
  6
ByLayer
 62
  256
370
   -1
100
AcDbPolyline
 90
   33
 70
    0
 43
0
 10
222.0662634523411
 20
-159.6553233467083
 10
222.0662634523411
 20
-145.6553165685239
 10
219.6850134529364
 20
-145.6553165685239
 10
219.6850134529364
 20
-144.0923198105593
 10
221.066259892207
 20
-144.0923198105593
 10
221.066259892207
 20
-137.3423226944628
 10
219.6850134529364
 20
-137.3423226944628
 10
219.6850134529364
 20
-136.1303165709051
 10
205.6850066747524
 20
-136.1303165709051
 10
205.6850066747524
 20
-150.1303233490892
 10
208.0662566741571
 20
-150.1303233490892
 10
208.0662566741571
 20
-155.180316566143
 10
200.6350134576989
 20
-155.180316566143
 10
198.5412566765383
 20
-155.180316566143
 10
186.6350066795149
 20
-155.180316566143
 10
186.6350066795149
 20
-169.180323344327
 10
190.2282628024772
 20
-169.180323344327
 10
190.2282628024772
 20
-170.1803269044611
 10
196.9782599185741
 20
-170.1803269044611
 10
196.9782599185741
 20
-169.180323344327
 10
198.5412566765383
 20
-169.180323344327
 10
200.6350134576989
 20
-169.180323344327
 10
212.5412634547224
 20
-169.180323344327
 10
212.5412634547224
 20
-167.9683172207693
 10
214.1042602126866
 20
-167.9683172207693
 10
214.1042602126866
 20
-170.1803269044611
 10
220.8542573287834
 20
-170.1803269044611
 10
220.8542573287834
 20
-167.9683172207693
 10
221.066259892207
 20
-167.9683172207693
 10
221.066259892207
 20
-161.2183201046725
 10
220.8542573287834
 20
-161.2183201046725
 10
220.8542573287834
 20
-159.6553233467083
 10
222.0662634523411
 20
-159.6553233467083
  0
INSERT
  5
F3
100
AcDbEntity
  8
switches
  6
ByLayer
 62
  256
370
   -1
100
AcDbBlockReference
  2
block 28
 10
0
 20
0
 30
0
 41
1
 42
1
 43
0
 50
0
 70
    1
 71
    1
 44
0
 45
0
  0
INSERT
  5
F4
100
AcDbEntity
  8
switches
  6
ByLayer
 62
  256
370
   -1
100
AcDbBlockReference
  2
block 29
 10
0
 20
0
 30
0
 41
1
 42
1
 43
0
 50
0
 70
    1
 71
    1
 44
0
 45
0
  0
INSERT
  5
F5
100
AcDbEntity
  8
switches
  6
ByLayer
 62
  256
370
   -1
100
AcDbBlockReference
  2
block 30
 10
0
 20
0
 30
0
 41
1
 42
1
 43
0
 50
0
 70
    1
 71
    1
 44
0
 45
0
  0
INSERT
  5
F6
100
AcDbEntity
  8
switches
  6
ByLayer
 62
  256
370
   -1
100
AcDbBlockReference
  2
block 31
 10
0
 20
0
 30
0
 41
1
 42
1
 43
0
 50
0
 70
    1
 71
    1
 44
0
 45
0
  0
LWPOLYLINE
  5
F7
100
AcDbEntity
  8
switches
  6
ByLayer
 62
  256
370
   -1
100
AcDbPolyline
 90
    9
 70
    0
 43
0
 10
172.0600134648427
 20
-174.2303165613805
 10
165.2037566848727
 20
-174.2303165613805
 10
158.0600066866586
 20
-174.2303165613805
 10
158.0600066866586
 20
-188.2303233395645
 10
165.2037566848727
 20
-188.2303233395645
 10
172.0600134648427
 20
-188.2303233395645
 10
179.2037634630567
 20
-188.2303233395645
 10
179.2037634630567
 20
-174.2303165613805
 10
172.0600134648427
 20
-174.2303165613805
  0
INSERT
  5
F8
100
AcDbEntity
  8
switches
  6
ByLayer
 62
  256
370
   -1
100
AcDbBlockReference
  2
block 32
 10
0
 20
0
 30
0
 41
1
 42
1
 43
0
 50
0
 70
    1
 71
    1
 44
0
 45
0
  0
LWPOLYLINE
  5
F9
100
AcDbEntity
  8
switches
  6
ByLayer
 62
  256
370
   -1
100
AcDbPolyline
 90
   21
 70
    0
 43
0
 10
124.4350134767489
 20
-207.2803268951857
 10
93.76625670273206
 20
-207.2803268951857
 10
84.24125670511332
 20
-207.2803268951857
 10
84.24125670511332
 20
-193.2803201170017
 10
85.453262828671
 20
-193.2803201170017
 10
85.453262828671
 20
-192.2803165568675
 10
90.21576282748038
 20
-192.2803165568675
 10
92.20325994476778
 20
-192.2803165568675
 10
96.96575994357715
 20
-192.2803165568675
 10
96.96575994357715
 20
-193.2803201170017
 10
98.24126348329735
 20
-193.2803201170017
 10
98.52875670154144
 20
-193.2803201170017
 10
107.7662634809161
 20
-193.2803201170017
 10
109.3292602388804
 20
-193.2803201170017
 10
109.3292602388804
 20
-192.2803165568675
 10
114.0917602376898
 20
-192.2803165568675
 10
116.0792573549772
 20
-192.2803165568675
 10
120.8417573537865
 20
-192.2803165568675
 10
120.8417573537865
 20
-193.2803201170017
 10
124.4350134767489
 20
-193.2803201170017
 10
124.4350134767489
 20
-207.2803268951857
  0
LWPOLYLINE
  5
FA
100
AcDbEntity
  8
switches
  6
ByLayer
 62
  256
370
   -1
100
AcDbPolyline
 90
    9
 70
    0
 43
0
 10
222.0662634523411
 20
-193.280316556618
 10
210.4475066735618
 20
-193.280316556618
 10
208.0662566741571
 20
-193.280316556618
 10
208.0662566741571
 20
-207.280323334802
 10
210.4475066735618
 20
-207.280323334802
 10
222.0662634523411
 20
-207.280323334802
 10
224.4475134517458
 20
-207.280323334802
 10
224.4475134517458
 20
-193.280316556618
 10
222.0662634523411
 20
-193.280316556618
  0
LWPOLYLINE
  5
FB
100
AcDbEntity
  8
switches
  6
ByLayer
 62
  256
370
   -1
100
AcDbPolyline
 90
    5
 70
    0
 43
0
 10
127.1037566943977
 20
-193.280316556618
 10
127.1037566943977
 20
-207.280323334802
 10
205.3975134565083
 20
-207.280323334802
 10
205.3975134565083
 20
-193.280316556618
 10
127.1037566943977
 20
-193.280316556618
  0
ENDSEC
  0
SECTION
  2
OBJECTS
  0
DICTIONARY
  5
C
330
0
100
AcDbDictionary
281
    1
  3
ACAD_GROUP
350
D
  0
DICTIONARY
  5
D
330
C
100
AcDbDictionary
281
    1
  0
PLOTSETTINGS
  5
FC
100
AcDbPlotSettings
  6
1x1
 40
0
 41
0
 42
0
 43
0
  0
ENDSEC
  0
EOF
