999
dxfrw 0.6.3
  0
SECTION
  2
HEADER
  9
$ACADVER
  1
AC1021
  9
$DWGCODEPAGE
  3
ANSI_1252
  9
$INSBASE
 10
0
 20
0
 30
0
  9
$EXTMIN
 10
58.83639889276864
 20
-209.7577142894711
 30
0
  9
$EXTMAX
 10
249.3113898105968
 20
-89.74521428947112
 30
0
  9
$LIMMIN
 10
0
 20
0
  9
$LIMMAX
 10
12
 20
9
  9
$ORTHOMODE
 70
    0
  9
$REGENMODE
 70
    1
  9
$FILLMODE
 70
    1
  9
$QTEXTMODE
 70
    0
  9
$MIRRTEXT
 70
    1
  9
$LTSCALE
 40
1
  9
$ATTMODE
 70
    1
  9
$TEXTSIZE
 40
0.2
  9
$TRACEWID
 40
0.05
  9
$TEXTSTYLE
  7
Standard
  9
$CLAYER
  8
0
  9
$CELTYPE
  6
ByLayer
  9
$CECOLOR
 62
  256
  9
$CELTSCALE
 40
1
  9
$DISPSILH
 70
    0
  9
$DIMSCALE
 40
1
  9
$DIMASZ
 40
0.18
  9
$DIMEXO
 40
0.0625
  9
$DIMDLI
 40
0.38
  9
$DIMRND
 40
0
  9
$DIMDLE
 40
0
  9
$DIMEXE
 40
0.18
  9
$DIMTP
 40
0
  9
$DIMTM
 40
0
  9
$DIMTXT
 40
0.18
  9
$DIMCEN
 40
0.09
  9
$DIMTSZ
 40
0
  9
$DIMTOL
 70
    0
  9
$DIMLIM
 70
    0
  9
$DIMTIH
 70
    1
  9
$DIMTOH
 70
    1
  9
$DIMSE1
 70
    0
  9
$DIMSE2
 70
    0
  9
$DIMTAD
 70
    0
  9
$DIMZIN
 70
    0
  9
$DIMBLK
  1

  9
$DIMASO
 70
    1
  9
$DIMSHO
 70
    1
  9
$DIMPOST
  1

  9
$DIMAPOST
  1

  9
$DIMALT
 70
    0
  9
$DIMALTD
 70
    2
  9
$DIMALTF
 40
25.4
  9
$DIMLFAC
 40
1
  9
$DIMTOFL
 70
    0
  9
$DIMTVP
 40
0
  9
$DIMTIX
 70
    0
  9
$DIMSOXD
 70
    0
  9
$DIMSAH
 70
    0
  9
$DIMBLK1
  1

  9
$DIMBLK2
  1

  9
$DIMSTYLE
  2
Standard
  9
$DIMCLRD
 70
    0
  9
$DIMCLRE
 70
    0
  9
$DIMCLRT
 70
    0
  9
$DIMTFAC
 40
1
  9
$DIMGAP
 40
0.09
  9
$DIMJUST
 70
    0
  9
$DIMSD1
 70
    0
  9
$DIMSD2
 70
    0
  9
$DIMTOLJ
 70
    1
  9
$DIMTZIN
 70
    0
  9
$DIMALTZ
 70
    0
  9
$DIMALTTZ
 70
    0
  9
$DIMUPT
 70
    0
  9
$DIMDEC
 70
    4
  9
$DIMTDEC
 70
    4
  9
$DIMALTU
 70
    2
  9
$DIMALTTD
 70
    2
  9
$DIMTXSTY
  7
standard
  9
$DIMAUNIT
 70
    0
  9
$DIMADEC
 70
    0
  9
$DIMALTRND
 40
0
  9
$DIMAZIN
 70
    0
  9
$DIMDSEP
 70
    0
  9
$DIMATFIT
 70
    3
  9
$DIMFRAC
 70
    0
  9
$DIMLDRBLK
  1

  9
$DIMLUNIT
 70
    2
  9
$DIMLWD
 70
   -2
  9
$DIMLWE
 70
   -2
  9
$DIMTMOVE
 70
    0
  9
$DIMFXL
 40
1
  9
$DIMFXLON
 70
    0
  9
$DIMJOGANG
 40
0.7853981633974483
  9
$DIMTFILL
 70
    0
  9
$DIMTFILLCLR
 70
    0
  9
$DIMARCSYM
 70
    0
  9
$DIMLTYPE
  6

  9
$DIMLTEX1
  6

  9
$DIMLTEX2
  6

  9
$LUNITS
 70
    2
  9
$LUPREC
 70
    4
  9
$SKETCHINC
 40
0.1
  9
$FILLETRAD
 40
0.5
  9
$AUNITS
 70
    0
  9
$AUPREC
 70
    0
  9
$MENU
  1
.
  9
$ELEVATION
 40
0
  9
$PELEVATION
 40
0
  9
$THICKNESS
 40
0
  9
$LIMCHECK
 70
    0
  9
$CHAMFERA
 40
0.5
  9
$CHAMFERB
 40
0.5
  9
$CHAMFERC
 40
1
  9
$CHAMFERD
 40
0
  9
$SKPOLY
 70
    0
  9
$USRTIMER
 70
    1
  9
$ANGBASE
 50
0
  9
$ANGDIR
 70
    0
  9
$PDMODE
 70
    0
  9
$PDSIZE
 40
0
  9
$PLINEWID
 40
0
  9
$SPLFRAME
 70
    0
  9
$SPLINETYPE
 70
    6
  9
$SPLINESEGS
 70
    8
  9
$HANDSEED
  5
20000
  9
$SURFTAB1
 70
    6
  9
$SURFTAB2
 70
    6
  9
$SURFTYPE
 70
    6
  9
$SURFU
 70
    6
  9
$SURFV
 70
    6
  9
$UCSBASE
  2

  9
$UCSNAME
  2

  9
$UCSORG
 10
0
 20
0
 30
0
  9
$UCSXDIR
 10
1
 20
0
 30
0
  9
$UCSYDIR
 10
0
 20
1
 30
0
  9
$UCSORTHOREF
  2

  9
$UCSORTHOVIEW
 70
    0
  9
$UCSORGTOP
 10
0
 20
0
 30
0
  9
$UCSORGBOTTOM
 10
0
 20
0
 30
0
  9
$UCSORGLEFT
 10
0
 20
0
 30
0
  9
$UCSORGRIGHT
 10
0
 20
0
 30
0
  9
$UCSORGFRONT
 10
0
 20
0
 30
0
  9
$UCSORGBACK
 10
0
 20
0
 30
0
  9
$PUCSBASE
  2

  9
$PUCSNAME
  2

  9
$PUCSORG
 10
0
 20
0
 30
0
  9
$PUCSXDIR
 10
1
 20
0
 30
0
  9
$PUCSYDIR
 10
0
 20
1
 30
0
  9
$PUCSORTHOREF
  2

  9
$PUCSORTHOVIEW
 70
    0
  9
$PUCSORGTOP
 10
0
 20
0
 30
0
  9
$PUCSORGBOTTOM
 10
0
 20
0
 30
0
  9
$PUCSORGLEFT
 10
0
 20
0
 30
0
  9
$PUCSORGRIGHT
 10
0
 20
0
 30
0
  9
$PUCSORGFRONT
 10
0
 20
0
 30
0
  9
$PUCSORGBACK
 10
0
 20
0
 30
0
  9
$USERI1
 70
    0
  9
$USERI2
 70
    0
  9
$USERI3
 70
    0
  9
$USERI4
 70
    0
  9
$USERI5
 70
    0
  9
$USERR1
 40
0
  9
$USERR2
 40
0
  9
$USERR3
 40
0
  9
$USERR4
 40
0
  9
$USERR5
 40
0
  9
$WORLDVIEW
 70
    1
  9
$SHADEDGE
 70
    3
  9
$SHADEDIF
 70
   70
  9
$TILEMODE
 70
    1
  9
$MAXACTVP
 70
   64
  9
$PINSBASE
 10
-5.573894351682733
 20
254.7514642894711
 30
0
  9
$PLIMCHECK
 70
    0
  9
$PEXTMIN
 10
1e+20
 20
1e+20
 30
1e+20
  9
$PEXTMAX
 10
-1e+20
 20
-1e+20
 30
-1e+20
  9
$GRIDMODE
 70
    0
  9
$SNAPSTYLE
 70
    0
  9
$GRIDUNIT
 10
0
 20
0
  9
$PLIMMIN
 10
0
 20
0
  9
$PLIMMAX
 10
297
 20
210
  9
$UNITMODE
 70
    0
  9
$VISRETAIN
 70
    1
  9
$PLINEGEN
 70
    0
  9
$PSLTSCALE
 70
    1
  9
$TREEDEPTH
 70
 3020
  9
$CMLSTYLE
  2
Standard
  9
$CMLJUST
 70
    0
  9
$CMLSCALE
 40
1
  9
$PROXYGRAPHICS
 70
    1
  9
$MEASUREMENT
 70
    0
  9
$CELWEIGHT
370
   -1
  9
$ENDCAPS
280
    0
  9
$JOINSTYLE
280
    0
  9
$LWDISPLAY
290
    1
  9
$INSUNITS
 70
    4
  9
$HYPERLINKBASE
  1

  9
$STYLESHEET
  1

  9
$XEDIT
290
    1
  9
$CEPSNTYPE
380
    0
  9
$PSTYLEMODE
290
    1
  9
$EXTNAMES
290
    1
  9
$PSVPSCALE
 40
1
  9
$OLESTARTUP
290
    0
  9
$SORTENTS
280
  127
  9
$INDEXCTL
280
    0
  9
$HIDETEXT
280
    1
  9
$XCLIPFRAME
290
    2
  9
$HALOGAP
280
    0
  9
$OBSCOLOR
 70
  257
  9
$OBSLTYPE
280
    0
  9
$INTERSECTIONDISPLAY
280
    0
  9
$INTERSECTIONCOLOR
 70
  257
  9
$DIMASSOC
280
    2
  9
$PROJECTNAME
  1

  9
$CAMERADISPLAY
290
    0
  9
$LENSLENGTH
 40
50
  9
$CAMERAHEIGHT
 40
0
  9
$STEPSPERSEC
 40
2
  9
$STEPSIZE
 40
6
  9
$3DDWFPREC
 40
2
  9
$PSOLWIDTH
 40
0.25
  9
$PSOLHEIGHT
 40
4
  9
$LOFTANG1
 40
1.570796326794897
  9
$LOFTANG2
 40
1.570796326794897
  9
$LOFTMAG1
 40
0
  9
$LOFTMAG2
 40
0
  9
$LOFTPARAM
 70
    7
  9
$LOFTNORMALS
280
    1
  9
$LATITUDE
 40
37.795
  9
$LONGITUDE
 40
-122.394
  9
$NORTHDIRECTION
 40
0
  9
$TIMEZONE
 70
-8000
  9
$LIGHTGLYPHDISPLAY
280
    1
  9
$TILEMODELIGHTSYNCH
280
    1
  9
$SOLIDHIST
280
    1
  9
$SHOWHIST
280
    1
  9
$DWFFRAME
280
    2
  9
$DGNFRAME
280
    2
  9
$REALWORLDSCALE
290
    1
  9
$INTERFERECOLOR
 62
  256
  9
$CSHADOW
280
    0
  9
$SHADOWPLANELOCATION
 40
0
  0
ENDSEC
  0
SECTION
  2
CLASSES
  0
ENDSEC
  0
SECTION
  2
TABLES
  0
TABLE
  2
VPORT
  5
8
330
0
100
AcDbSymbolTable
 70
    1
  0
VPORT
  5
31
330
2
100
AcDbSymbolTableRecord
100
AcDbViewportTableRecord
  2
*ACTIVE
 70
    0
 10
0
 20
0
 11
1
 21
1
 12
138.0899224370503
 22
-44.30317558453236
 13
0
 23
0
 14
10
 24
10
 15
10
 25
10
 16
0
 26
0
 36
1
 17
0
 27
0
 37
0
 40
122.1709982014388
 41
1.999116607773852
 42
50
 43
0
 44
0
 50
0
 51
0
 71
    0
 72
  100
 73
    1
 74
    3
 75
    0
 76
    0
 77
    0
 78
    0
281
    0
 65
    1
110
0
120
0
130
0
111
1
121
0
131
0
112
0
122
1
132
0
 79
    0
146
0
348
10020
 60
    7
 61
    5
292
1
282
    1
141
0
142
0
 63
  250
421
3358443
  0
ENDTAB
  0
TABLE
  2
LTYPE
  5
5
330
0
100
AcDbSymbolTable
 70
    4
  0
LTYPE
  5
14
330
5
100
AcDbSymbolTableRecord
100
AcDbLinetypeTableRecord
  2
ByBlock
 70
    0
  3

 72
   65
 73
    0
 40
0
  0
LTYPE
  5
15
330
5
100
AcDbSymbolTableRecord
100
AcDbLinetypeTableRecord
  2
ByLayer
 70
    0
  3

 72
   65
 73
    0
 40
0
  0
LTYPE
  5
16
330
5
100
AcDbSymbolTableRecord
100
AcDbLinetypeTableRecord
  2
Continuous
 70
    0
  3
Solid line
 72
   65
 73
    0
 40
0
  0
LTYPE
  5
32
330
5
100
AcDbSymbolTableRecord
100
AcDbLinetypeTableRecord
  2
DOT
 70
    0
  3
Dot . . . . . . . . . . . . . . . . . . . . . .
 72
   65
 73
    2
 40
6.35
 49
0
 74
    0
 49
-6.35
 74
    0
  0
LTYPE
  5
33
330
5
100
AcDbSymbolTableRecord
100
AcDbLinetypeTableRecord
  2
DOTTINY
 70
    0
  3
Dot (.15x) .....................................
 72
   65
 73
    2
 40
0.9525
 49
0
 74
    0
 49
-0.9525
 74
    0
  0
LTYPE
  5
34
330
5
100
AcDbSymbolTableRecord
100
AcDbLinetypeTableRecord
  2
DOT2
 70
    0
  3
Dot (.5x) .....................................
 72
   65
 73
    2
 40
3.175
 49
0
 74
    0
 49
-3.175
 74
    0
  0
LTYPE
  5
35
330
5
100
AcDbSymbolTableRecord
100
AcDbLinetypeTableRecord
  2
DOTX2
 70
    0
  3
Dot (2x) .  .  .  .  .  .  .  .  .  .  .  .  .
 72
   65
 73
    2
 40
12.7
 49
0
 74
    0
 49
-12.7
 74
    0
  0
LTYPE
  5
36
330
5
100
AcDbSymbolTableRecord
100
AcDbLinetypeTableRecord
  2
DASHED
 70
    0
  3
Dashed _ _ _ _ _ _ _ _ _ _ _ _ _ _ _ _ _
 72
   65
 73
    2
 40
19.05
 49
12.7
 74
    0
 49
-6.35
 74
    0
  0
LTYPE
  5
37
330
5
100
AcDbSymbolTableRecord
100
AcDbLinetypeTableRecord
  2
DASHEDTINY
 70
    0
  3
Dashed (.15x) _ _ _ _ _ _ _ _ _ _ _ _ _ _ _ _ _
 72
   65
 73
    2
 40
2.8575
 49
1.905
 74
    0
 49
-0.9525
 74
    0
  0
LTYPE
  5
38
330
5
100
AcDbSymbolTableRecord
100
AcDbLinetypeTableRecord
  2
DASHED2
 70
    0
  3
Dashed (.5x) _ _ _ _ _ _ _ _ _ _ _ _ _ _ _ _ _
 72
   65
 73
    2
 40
9.524999999999999
 49
6.35
 74
    0
 49
-3.175
 74
    0
  0
LTYPE
  5
39
330
5
100
AcDbSymbolTableRecord
100
AcDbLinetypeTableRecord
  2
DASHEDX2
 70
    0
  3
Dashed (2x) ____  ____  ____  ____  ____  ___
 72
   65
 73
    2
 40
38.09999999999999
 49
25.4
 74
    0
 49
-12.7
 74
    0
  0
LTYPE
  5
3A
330
5
100
AcDbSymbolTableRecord
100
AcDbLinetypeTableRecord
  2
DASHDOT
 70
    0
  3
Dash dot __ . __ . __ . __ . __ . __ . __ . __
 72
   65
 73
    4
 40
25.4
 49
12.7
 74
    0
 49
-6.35
 74
    0
 49
0
 74
    0
 49
-6.35
 74
    0
  0
LTYPE
  5
3B
330
5
100
AcDbSymbolTableRecord
100
AcDbLinetypeTableRecord
  2
DASHDOTTINY
 70
    0
  3
Dash dot (.15x) _._._._._._._._._._._._._._._.
 72
   65
 73
    4
 40
3.81
 49
1.905
 74
    0
 49
-0.9525
 74
    0
 49
0
 74
    0
 49
-0.9525
 74
    0
  0
LTYPE
  5
3C
330
5
100
AcDbSymbolTableRecord
100
AcDbLinetypeTableRecord
  2
DASHDOT2
 70
    0
  3
Dash dot (.5x) _._._._._._._._._._._._._._._.
 72
   65
 73
    4
 40
12.7
 49
6.35
 74
    0
 49
-3.175
 74
    0
 49
0
 74
    0
 49
-3.175
 74
    0
  0
LTYPE
  5
3D
330
5
100
AcDbSymbolTableRecord
100
AcDbLinetypeTableRecord
  2
DASHDOTX2
 70
    0
  3
Dash dot (2x) ____  .  ____  .  ____  .  ___
 72
   65
 73
    4
 40
50.8
 49
25.4
 74
    0
 49
-12.7
 74
    0
 49
0
 74
    0
 49
-12.7
 74
    0
  0
LTYPE
  5
3E
330
5
100
AcDbSymbolTableRecord
100
AcDbLinetypeTableRecord
  2
DIVIDE
 70
    0
  3
Divide ____ . . ____ . . ____ . . ____ . . ____
 72
   65
 73
    6
 40
31.75
 49
12.7
 74
    0
 49
-6.35
 74
    0
 49
0
 74
    0
 49
-6.35
 74
    0
 49
0
 74
    0
 49
-6.35
 74
    0
  0
LTYPE
  5
3F
330
5
100
AcDbSymbolTableRecord
100
AcDbLinetypeTableRecord
  2
DIVIDETINY
 70
    0
  3
Divide (.15x) __..__..__..__..__..__..__..__.._
 72
   65
 73
    6
 40
4.7625
 49
1.905
 74
    0
 49
-0.9525
 74
    0
 49
0
 74
    0
 49
-0.9525
 74
    0
 49
0
 74
    0
 49
-0.9525
 74
    0
  0
LTYPE
  5
40
330
5
100
AcDbSymbolTableRecord
100
AcDbLinetypeTableRecord
  2
DIVIDE2
 70
    0
  3
Divide (.5x) __..__..__..__..__..__..__..__.._
 72
   65
 73
    6
 40
15.875
 49
6.35
 74
    0
 49
-3.175
 74
    0
 49
0
 74
    0
 49
-3.175
 74
    0
 49
0
 74
    0
 49
-3.175
 74
    0
  0
LTYPE
  5
41
330
5
100
AcDbSymbolTableRecord
100
AcDbLinetypeTableRecord
  2
DIVIDEX2
 70
    0
  3
Divide (2x) ________  .  .  ________  .  .  _
 72
   65
 73
    6
 40
63.5
 49
25.4
 74
    0
 49
-12.7
 74
    0
 49
0
 74
    0
 49
-12.7
 74
    0
 49
0
 74
    0
 49
-12.7
 74
    0
  0
LTYPE
  5
42
330
5
100
AcDbSymbolTableRecord
100
AcDbLinetypeTableRecord
  2
BORDER
 70
    0
  3
Border __ __ . __ __ . __ __ . __ __ . __ __ .
 72
   65
 73
    6
 40
44.45
 49
12.7
 74
    0
 49
-6.35
 74
    0
 49
12.7
 74
    0
 49
-6.35
 74
    0
 49
0
 74
    0
 49
-6.35
 74
    0
  0
LTYPE
  5
43
330
5
100
AcDbSymbolTableRecord
100
AcDbLinetypeTableRecord
  2
BORDERTINY
 70
    0
  3
Border (.15x) __.__.__.__.__.__.__.__.__.__.__.
 72
   65
 73
    6
 40
6.6675
 49
1.905
 74
    0
 49
-0.9525
 74
    0
 49
1.905
 74
    0
 49
-0.9525
 74
    0
 49
0
 74
    0
 49
-0.9525
 74
    0
  0
LTYPE
  5
44
330
5
100
AcDbSymbolTableRecord
100
AcDbLinetypeTableRecord
  2
BORDER2
 70
    0
  3
Border (.5x) __.__.__.__.__.__.__.__.__.__.__.
 72
   65
 73
    6
 40
22.225
 49
6.35
 74
    0
 49
-3.175
 74
    0
 49
6.35
 74
    0
 49
-3.175
 74
    0
 49
0
 74
    0
 49
-3.175
 74
    0
  0
LTYPE
  5
45
330
5
100
AcDbSymbolTableRecord
100
AcDbLinetypeTableRecord
  2
BORDERX2
 70
    0
  3
Border (2x) ____  ____  .  ____  ____  .  ___
 72
   65
 73
    6
 40
88.89999999999999
 49
25.4
 74
    0
 49
-12.7
 74
    0
 49
25.4
 74
    0
 49
-12.7
 74
    0
 49
0
 74
    0
 49
-12.7
 74
    0
  0
LTYPE
  5
46
330
5
100
AcDbSymbolTableRecord
100
AcDbLinetypeTableRecord
  2
CENTER
 70
    0
  3
Center ____ _ ____ _ ____ _ ____ _ ____ _ ____
 72
   65
 73
    4
 40
50.8
 49
31.75
 74
    0
 49
-6.35
 74
    0
 49
6.35
 74
    0
 49
-6.35
 74
    0
  0
LTYPE
  5
47
330
5
100
AcDbSymbolTableRecord
100
AcDbLinetypeTableRecord
  2
CENTERTINY
 70
    0
  3
Center (.15x) ___ _ ___ _ ___ _ ___ _ ___ _ ___
 72
   65
 73
    4
 40
7.619999999999999
 49
4.7625
 74
    0
 49
-0.9525
 74
    0
 49
0.9525
 74
    0
 49
-0.9525
 74
    0
  0
LTYPE
  5
48
330
5
100
AcDbSymbolTableRecord
100
AcDbLinetypeTableRecord
  2
CENTER2
 70
    0
  3
Center (.5x) ___ _ ___ _ ___ _ ___ _ ___ _ ___
 72
   65
 73
    4
 40
28.575
 49
19.05
 74
    0
 49
-3.175
 74
    0
 49
3.175
 74
    0
 49
-3.175
 74
    0
  0
LTYPE
  5
49
330
5
100
AcDbSymbolTableRecord
100
AcDbLinetypeTableRecord
  2
CENTERX2
 70
    0
  3
Center (2x) ________  __  ________  __  _____
 72
   65
 73
    4
 40
101.6
 49
63.5
 74
    0
 49
-12.7
 74
    0
 49
12.7
 74
    0
 49
-12.7
 74
    0
  0
ENDTAB
  0
TABLE
  2
LAYER
  5
2
330
0
100
AcDbSymbolTable
 70
    1
  0
LAYER
  5
10
330
2
100
AcDbSymbolTableRecord
100
AcDbLayerTableRecord
  2
0
 70
    1
 62
    7
  6
CONTINUOUS
370
   -3
390
F
  0
LAYER
  5
4A
330
2
100
AcDbSymbolTableRecord
100
AcDbLayerTableRecord
  2
holes
 70
    0
 62
    1
  6
CONTINUOUS
370
    0
390
F
  0
LAYER
  5
4B
330
2
100
AcDbSymbolTableRecord
100
AcDbLayerTableRecord
  2
switches
 70
    0
 62
  136
420
32896
  6
CONTINUOUS
370
    0
390
F
  0
LAYER
  5
4C
330
2
100
AcDbSymbolTableRecord
100
AcDbLayerTableRecord
  2
top
 70
    0
 62
    3
  6
CONTINUOUS
370
   -3
390
F
  0
ENDTAB
  0
TABLE
  2
STYLE
  5
3
330
0
100
AcDbSymbolTable
 70
    3
  0
STYLE
  5
4D
330
2
100
AcDbSymbolTableRecord
100
AcDbTextStyleTableRecord
  2
Standard
 70
    0
 40
0
 41
1
 50
0
 71
    0
 42
1
  3
txt
  4

  0
ENDTAB
  0
TABLE
  2
VIEW
  5
6
330
0
100
AcDbSymbolTable
 70
    0
  0
ENDTAB
  0
TABLE
  2
UCS
  5
7
330
0
100
AcDbSymbolTable
 70
    0
  0
ENDTAB
  0
TABLE
  2
APPID
  5
9
330
0
100
AcDbSymbolTable
 70
    1
  0
APPID
  5
12
330
9
100
AcDbSymbolTableRecord
100
AcDbRegAppTableRecord
  2
ACAD
 70
    0
  0
APPID
  5
4E
330
9
100
AcDbSymbolTableRecord
100
AcDbRegAppTableRecord
  2
LibreCad
 70
    0
  0
ENDTAB
  0
TABLE
  2
DIMSTYLE
  5
A
330
0
100
AcDbSymbolTable
 70
    1
100
AcDbDimStyleTable
 71
    1
  0
DIMSTYLE
105
4F
330
A
100
AcDbSymbolTableRecord
100
AcDbDimStyleTableRecord
  2
Standard
 70
    0
 40
1
 41
0.18
 42
0.0625
 43
0.38
 44
0.18
 45
0
 46
0
 47
0
 48
0
 49
1
140
0.18
141
0.09
142
0
143
25.4
144
1
145
0
146
1
147
0.09
148
0
 71
    0
 72
    0
 73
    1
 74
    1
 75
    0
 76
    0
 77
    0
 78
    0
 79
    0
170
    0
171
    2
172
    0
173
    0
174
    0
175
    0
176
    0
177
    0
178
    0
179
    0
271
    4
272
    4
273
    2
274
    2
275
    0
276
    0
277
    2
278
    0
279
    0
280
    0
281
    0
282
    0
283
    1
284
    0
285
    0
286
    0
288
    0
289
    3
340
standard
341

371
   -2
372
   -2
  0
ENDTAB
  0
TABLE
  2
BLOCK_RECORD
  5
1
330
0
100
AcDbSymbolTable
 70
    2
  0
BLOCK_RECORD
  5
1F
330
1
100
AcDbSymbolTableRecord
100
AcDbBlockTableRecord
  2
*Model_Space
 70
    0
280
    1
281
    0
  0
BLOCK_RECORD
  5
1E
330
1
100
AcDbSymbolTableRecord
100
AcDbBlockTableRecord
  2
*Paper_Space
 70
    0
280
    1
281
    0
  0
BLOCK_RECORD
  5
50
330
1
100
AcDbSymbolTableRecord
100
AcDbBlockTableRecord
  2
block 2
 70
    0
280
    1
281
    0
  0
BLOCK_RECORD
  5
53
330
1
100
AcDbSymbolTableRecord
100
AcDbBlockTableRecord
  2
block 3
 70
    0
280
    1
281
    0
  0
BLOCK_RECORD
  5
56
330
1
100
AcDbSymbolTableRecord
100
AcDbBlockTableRecord
  2
block 4
 70
    0
280
    1
281
    0
  0
BLOCK_RECORD
  5
59
330
1
100
AcDbSymbolTableRecord
100
AcDbBlockTableRecord
  2
block 5
 70
    0
280
    1
281
    0
  0
BLOCK_RECORD
  5
5C
330
1
100
AcDbSymbolTableRecord
100
AcDbBlockTableRecord
  2
block 6
 70
    0
280
    1
281
    0
  0
BLOCK_RECORD
  5
5F
330
1
100
AcDbSymbolTableRecord
100
AcDbBlockTableRecord
  2
block 7
 70
    0
280
    1
281
    0
  0
BLOCK_RECORD
  5
62
330
1
100
AcDbSymbolTableRecord
100
AcDbBlockTableRecord
  2
block 8
 70
    0
280
    1
281
    0
  0
BLOCK_RECORD
  5
65
330
1
100
AcDbSymbolTableRecord
100
AcDbBlockTableRecord
  2
block 9
 70
    0
280
    1
281
    0
  0
BLOCK_RECORD
  5
68
330
1
100
AcDbSymbolTableRecord
100
AcDbBlockTableRecord
  2
block 10
 70
    0
280
    1
281
    0
  0
BLOCK_RECORD
  5
6B
330
1
100
AcDbSymbolTableRecord
100
AcDbBlockTableRecord
  2
block 11
 70
    0
280
    1
281
    0
  0
BLOCK_RECORD
  5
6E
330
1
100
AcDbSymbolTableRecord
100
AcDbBlockTableRecord
  2
block 12
 70
    0
280
    1
281
    0
  0
BLOCK_RECORD
  5
71
330
1
100
AcDbSymbolTableRecord
100
AcDbBlockTableRecord
  2
block 13
 70
    0
280
    1
281
    0
  0
BLOCK_RECORD
  5
74
330
1
100
AcDbSymbolTableRecord
100
AcDbBlockTableRecord
  2
block 14
 70
    0
280
    1
281
    0
  0
BLOCK_RECORD
  5
77
330
1
100
AcDbSymbolTableRecord
100
AcDbBlockTableRecord
  2
block 15
 70
    0
280
    1
281
    0
  0
BLOCK_RECORD
  5
7A
330
1
100
AcDbSymbolTableRecord
100
AcDbBlockTableRecord
  2
block 16
 70
    0
280
    1
281
    0
  0
BLOCK_RECORD
  5
7D
330
1
100
AcDbSymbolTableRecord
100
AcDbBlockTableRecord
  2
block 17
 70
    0
280
    1
281
    0
  0
BLOCK_RECORD
  5
80
330
1
100
AcDbSymbolTableRecord
100
AcDbBlockTableRecord
  2
block 18
 70
    0
280
    1
281
    0
  0
BLOCK_RECORD
  5
83
330
1
100
AcDbSymbolTableRecord
100
AcDbBlockTableRecord
  2
block 19
 70
    0
280
    1
281
    0
  0
BLOCK_RECORD
  5
86
330
1
100
AcDbSymbolTableRecord
100
AcDbBlockTableRecord
  2
block 20
 70
    0
280
    1
281
    0
  0
BLOCK_RECORD
  5
89
330
1
100
AcDbSymbolTableRecord
100
AcDbBlockTableRecord
  2
block 21
 70
    0
280
    1
281
    0
  0
BLOCK_RECORD
  5
8C
330
1
100
AcDbSymbolTableRecord
100
AcDbBlockTableRecord
  2
block 22
 70
    0
280
    1
281
    0
  0
BLOCK_RECORD
  5
8F
330
1
100
AcDbSymbolTableRecord
100
AcDbBlockTableRecord
  2
block 23
 70
    0
280
    1
281
    0
  0
BLOCK_RECORD
  5
92
330
1
100
AcDbSymbolTableRecord
100
AcDbBlockTableRecord
  2
block 24
 70
    0
280
    1
281
    0
  0
BLOCK_RECORD
  5
95
330
1
100
AcDbSymbolTableRecord
100
AcDbBlockTableRecord
  2
block 25
 70
    0
280
    1
281
    0
  0
BLOCK_RECORD
  5
98
330
1
100
AcDbSymbolTableRecord
100
AcDbBlockTableRecord
  2
block 26
 70
    0
280
    1
281
    0
  0
BLOCK_RECORD
  5
9B
330
1
100
AcDbSymbolTableRecord
100
AcDbBlockTableRecord
  2
block 27
 70
    0
280
    1
281
    0
  0
BLOCK_RECORD
  5
9E
330
1
100
AcDbSymbolTableRecord
100
AcDbBlockTableRecord
  2
block 28
 70
    0
280
    1
281
    0
  0
BLOCK_RECORD
  5
A1
330
1
100
AcDbSymbolTableRecord
100
AcDbBlockTableRecord
  2
block 29
 70
    0
280
    1
281
    0
  0
BLOCK_RECORD
  5
A4
330
1
100
AcDbSymbolTableRecord
100
AcDbBlockTableRecord
  2
block 30
 70
    0
280
    1
281
    0
  0
BLOCK_RECORD
  5
A7
330
1
100
AcDbSymbolTableRecord
100
AcDbBlockTableRecord
  2
block 31
 70
    0
280
    1
281
    0
  0
BLOCK_RECORD
  5
AA
330
1
100
AcDbSymbolTableRecord
100
AcDbBlockTableRecord
  2
block 32
 70
    0
280
    1
281
    0
  0
BLOCK_RECORD
  5
AD
330
1
100
AcDbSymbolTableRecord
100
AcDbBlockTableRecord
  2
block 33
 70
    0
280
    1
281
    0
  0
BLOCK_RECORD
  5
B0
330
1
100
AcDbSymbolTableRecord
100
AcDbBlockTableRecord
  2
block 34
 70
    0
280
    1
281
    0
  0
BLOCK_RECORD
  5
B3
330
1
100
AcDbSymbolTableRecord
100
AcDbBlockTableRecord
  2
block 35
 70
    0
280
    1
281
    0
  0
BLOCK_RECORD
  5
B6
330
1
100
AcDbSymbolTableRecord
100
AcDbBlockTableRecord
  2
block 36
 70
    0
280
    1
281
    0
  0
BLOCK_RECORD
  5
B9
330
1
100
AcDbSymbolTableRecord
100
AcDbBlockTableRecord
  2
block 37
 70
    0
280
    1
281
    0
  0
BLOCK_RECORD
  5
BC
330
1
100
AcDbSymbolTableRecord
100
AcDbBlockTableRecord
  2
block 38
 70
    0
280
    1
281
    0
  0
BLOCK_RECORD
  5
BF
330
1
100
AcDbSymbolTableRecord
100
AcDbBlockTableRecord
  2
block 39
 70
    0
280
    1
281
    0
  0
BLOCK_RECORD
  5
C2
330
1
100
AcDbSymbolTableRecord
100
AcDbBlockTableRecord
  2
block 40
 70
    0
280
    1
281
    0
  0
BLOCK_RECORD
  5
C5
330
1
100
AcDbSymbolTableRecord
100
AcDbBlockTableRecord
  2
block 41
 70
    0
280
    1
281
    0
  0
BLOCK_RECORD
  5
C8
330
1
100
AcDbSymbolTableRecord
100
AcDbBlockTableRecord
  2
block 42
 70
    0
280
    1
281
    0
  0
ENDTAB
  0
ENDSEC
  0
SECTION
  2
BLOCKS
  0
BLOCK
  5
20
330
1F
100
AcDbEntity
  8
0
100
AcDbBlockBegin
  2
*Model_Space
 70
    0
 10
0
 20
0
 30
0
  3
*Model_Space
  1

  0
ENDBLK
  5
21
330
1F
100
AcDbEntity
  8
0
100
AcDbBlockEnd
  0
BLOCK
  5
1C
330
1B
100
AcDbEntity
  8
0
100
AcDbBlockBegin
  2
*Paper_Space
 70
    0
 10
0
 20
0
 30
0
  3
*Paper_Space
  1

  0
ENDBLK
  5
1D
330
1F
100
AcDbEntity
  8
0
100
AcDbBlockEnd
  0
BLOCK
  5
51
330
50
100
AcDbEntity
  8
0
100
AcDbBlockBegin
  2
block 2
 70
    0
 10
0
 20
0
  3
block 2
  1

  0
ENDBLK
  5
52
330
50
100
AcDbEntity
  8
0
100
AcDbBlockEnd
  0
BLOCK
  5
54
330
53
100
AcDbEntity
  8
0
100
AcDbBlockBegin
  2
block 3
 70
    0
 10
0
 20
0
  3
block 3
  1

  0
ENDBLK
  5
55
330
53
100
AcDbEntity
  8
0
100
AcDbBlockEnd
  0
BLOCK
  5
57
330
56
100
AcDbEntity
  8
0
100
AcDbBlockBegin
  2
block 4
 70
    0
 10
0
 20
0
  3
block 4
  1

  0
ENDBLK
  5
58
330
56
100
AcDbEntity
  8
0
100
AcDbBlockEnd
  0
BLOCK
  5
5A
330
59
100
AcDbEntity
  8
0
100
AcDbBlockBegin
  2
block 5
 70
    0
 10
0
 20
0
  3
block 5
  1

  0
ENDBLK
  5
5B
330
59
100
AcDbEntity
  8
0
100
AcDbBlockEnd
  0
BLOCK
  5
5D
330
5C
100
AcDbEntity
  8
0
100
AcDbBlockBegin
  2
block 6
 70
    0
 10
0
 20
0
  3
block 6
  1

  0
ENDBLK
  5
5E
330
5C
100
AcDbEntity
  8
0
100
AcDbBlockEnd
  0
BLOCK
  5
60
330
5F
100
AcDbEntity
  8
0
100
AcDbBlockBegin
  2
block 7
 70
    0
 10
0
 20
0
  3
block 7
  1

  0
ENDBLK
  5
61
330
5F
100
AcDbEntity
  8
0
100
AcDbBlockEnd
  0
BLOCK
  5
63
330
62
100
AcDbEntity
  8
0
100
AcDbBlockBegin
  2
block 8
 70
    0
 10
0
 20
0
  3
block 8
  1

  0
ENDBLK
  5
64
330
62
100
AcDbEntity
  8
0
100
AcDbBlockEnd
  0
BLOCK
  5
66
330
65
100
AcDbEntity
  8
0
100
AcDbBlockBegin
  2
block 9
 70
    0
 10
0
 20
0
  3
block 9
  1

  0
ENDBLK
  5
67
330
65
100
AcDbEntity
  8
0
100
AcDbBlockEnd
  0
BLOCK
  5
69
330
68
100
AcDbEntity
  8
0
100
AcDbBlockBegin
  2
block 10
 70
    0
 10
0
 20
0
  3
block 10
  1

  0
ENDBLK
  5
6A
330
68
100
AcDbEntity
  8
0
100
AcDbBlockEnd
  0
BLOCK
  5
6C
330
6B
100
AcDbEntity
  8
0
100
AcDbBlockBegin
  2
block 11
 70
    0
 10
0
 20
0
  3
block 11
  1

  0
ENDBLK
  5
6D
330
6B
100
AcDbEntity
  8
0
100
AcDbBlockEnd
  0
BLOCK
  5
6F
330
6E
100
AcDbEntity
  8
0
100
AcDbBlockBegin
  2
block 12
 70
    0
 10
0
 20
0
  3
block 12
  1

  0
ENDBLK
  5
70
330
6E
100
AcDbEntity
  8
0
100
AcDbBlockEnd
  0
BLOCK
  5
72
330
71
100
AcDbEntity
  8
0
100
AcDbBlockBegin
  2
block 13
 70
    0
 10
0
 20
0
  3
block 13
  1

  0
ENDBLK
  5
73
330
71
100
AcDbEntity
  8
0
100
AcDbBlockEnd
  0
BLOCK
  5
75
330
74
100
AcDbEntity
  8
0
100
AcDbBlockBegin
  2
block 14
 70
    0
 10
0
 20
0
  3
block 14
  1

  0
ENDBLK
  5
76
330
74
100
AcDbEntity
  8
0
100
AcDbBlockEnd
  0
BLOCK
  5
78
330
77
100
AcDbEntity
  8
0
100
AcDbBlockBegin
  2
block 15
 70
    0
 10
0
 20
0
  3
block 15
  1

  0
ENDBLK
  5
79
330
77
100
AcDbEntity
  8
0
100
AcDbBlockEnd
  0
BLOCK
  5
7B
330
7A
100
AcDbEntity
  8
0
100
AcDbBlockBegin
  2
block 16
 70
    0
 10
0
 20
0
  3
block 16
  1

  0
ENDBLK
  5
7C
330
7A
100
AcDbEntity
  8
0
100
AcDbBlockEnd
  0
BLOCK
  5
7E
330
7D
100
AcDbEntity
  8
0
100
AcDbBlockBegin
  2
block 17
 70
    0
 10
0
 20
0
  3
block 17
  1

  0
ENDBLK
  5
7F
330
7D
100
AcDbEntity
  8
0
100
AcDbBlockEnd
  0
BLOCK
  5
81
330
80
100
AcDbEntity
  8
0
100
AcDbBlockBegin
  2
block 18
 70
    0
 10
0
 20
0
  3
block 18
  1

  0
ENDBLK
  5
82
330
80
100
AcDbEntity
  8
0
100
AcDbBlockEnd
  0
BLOCK
  5
84
330
83
100
AcDbEntity
  8
0
100
AcDbBlockBegin
  2
block 19
 70
    0
 10
0
 20
0
  3
block 19
  1

  0
ENDBLK
  5
85
330
83
100
AcDbEntity
  8
0
100
AcDbBlockEnd
  0
BLOCK
  5
87
330
86
100
AcDbEntity
  8
0
100
AcDbBlockBegin
  2
block 20
 70
    0
 10
0
 20
0
  3
block 20
  1

  0
ENDBLK
  5
88
330
86
100
AcDbEntity
  8
0
100
AcDbBlockEnd
  0
BLOCK
  5
8A
330
89
100
AcDbEntity
  8
0
100
AcDbBlockBegin
  2
block 21
 70
    0
 10
0
 20
0
  3
block 21
  1

  0
ENDBLK
  5
8B
330
89
100
AcDbEntity
  8
0
100
AcDbBlockEnd
  0
BLOCK
  5
8D
330
8C
100
AcDbEntity
  8
0
100
AcDbBlockBegin
  2
block 22
 70
    0
 10
0
 20
0
  3
block 22
  1

  0
ENDBLK
  5
8E
330
8C
100
AcDbEntity
  8
0
100
AcDbBlockEnd
  0
BLOCK
  5
90
330
8F
100
AcDbEntity
  8
0
100
AcDbBlockBegin
  2
block 23
 70
    0
 10
0
 20
0
  3
block 23
  1

  0
ENDBLK
  5
91
330
8F
100
AcDbEntity
  8
0
100
AcDbBlockEnd
  0
BLOCK
  5
93
330
92
100
AcDbEntity
  8
0
100
AcDbBlockBegin
  2
block 24
 70
    0
 10
0
 20
0
  3
block 24
  1

  0
ENDBLK
  5
94
330
92
100
AcDbEntity
  8
0
100
AcDbBlockEnd
  0
BLOCK
  5
96
330
95
100
AcDbEntity
  8
0
100
AcDbBlockBegin
  2
block 25
 70
    0
 10
0
 20
0
  3
block 25
  1

  0
ENDBLK
  5
97
330
95
100
AcDbEntity
  8
0
100
AcDbBlockEnd
  0
BLOCK
  5
99
330
98
100
AcDbEntity
  8
0
100
AcDbBlockBegin
  2
block 26
 70
    0
 10
0
 20
0
  3
block 26
  1

  0
ENDBLK
  5
9A
330
98
100
AcDbEntity
  8
0
100
AcDbBlockEnd
  0
BLOCK
  5
9C
330
9B
100
AcDbEntity
  8
0
100
AcDbBlockBegin
  2
block 27
 70
    0
 10
0
 20
0
  3
block 27
  1

  0
ENDBLK
  5
9D
330
9B
100
AcDbEntity
  8
0
100
AcDbBlockEnd
  0
BLOCK
  5
9F
330
9E
100
AcDbEntity
  8
0
100
AcDbBlockBegin
  2
block 28
 70
    0
 10
0
 20
0
  3
block 28
  1

  0
ENDBLK
  5
A0
330
9E
100
AcDbEntity
  8
0
100
AcDbBlockEnd
  0
BLOCK
  5
A2
330
A1
100
AcDbEntity
  8
0
100
AcDbBlockBegin
  2
block 29
 70
    0
 10
0
 20
0
  3
block 29
  1

  0
ENDBLK
  5
A3
330
A1
100
AcDbEntity
  8
0
100
AcDbBlockEnd
  0
BLOCK
  5
A5
330
A4
100
AcDbEntity
  8
0
100
AcDbBlockBegin
  2
block 30
 70
    0
 10
0
 20
0
  3
block 30
  1

  0
ENDBLK
  5
A6
330
A4
100
AcDbEntity
  8
0
100
AcDbBlockEnd
  0
BLOCK
  5
A8
330
A7
100
AcDbEntity
  8
0
100
AcDbBlockBegin
  2
block 31
 70
    0
 10
0
 20
0
  3
block 31
  1

  0
ENDBLK
  5
A9
330
A7
100
AcDbEntity
  8
0
100
AcDbBlockEnd
  0
BLOCK
  5
AB
330
AA
100
AcDbEntity
  8
0
100
AcDbBlockBegin
  2
block 32
 70
    0
 10
0
 20
0
  3
block 32
  1

  0
LWPOLYLINE
  5
CB
100
AcDbEntity
  8
switches
  6
ByLayer
 62
  256
370
   -1
100
AcDbPolyline
 90
    5
 70
    0
 43
0
 10
61.33639889276865
 20
-108.745213293741
 10
75.33639889276883
 20
-108.745213293741
 10
75.33639889276883
 20
-92.24521329436604
 10
61.33639889276865
 20
-92.24521329436604
 10
61.33639889276865
 20
-108.745213293741
  0
ENDBLK
  5
AC
330
AA
100
AcDbEntity
  8
0
100
AcDbBlockEnd
  0
BLOCK
  5
AE
330
AD
100
AcDbEntity
  8
0
100
AcDbBlockBegin
  2
block 33
 70
    0
 10
0
 20
0
  3
block 33
  1

  0
LWPOLYLINE
  5
CC
100
AcDbEntity
  8
switches
  6
ByLayer
 62
  256
370
   -1
100
AcDbPolyline
 90
    5
 70
    0
 43
0
 10
61.33639889276865
 20
-131.0577132941162
 10
75.33639889276883
 20
-131.0577132941162
 10
75.33639889276883
 20
-117.0577132941161
 10
61.33639889276865
 20
-117.0577132941161
 10
61.33639889276865
 20
-131.0577132941162
  0
ENDBLK
  5
AF
330
AD
100
AcDbEntity
  8
0
100
AcDbBlockEnd
  0
BLOCK
  5
B1
330
B0
100
AcDbEntity
  8
0
100
AcDbBlockBegin
  2
block 34
 70
    0
 10
0
 20
0
  3
block 34
  1

  0
LWPOLYLINE
  5
CD
100
AcDbEntity
  8
switches
  6
ByLayer
 62
  256
370
   -1
100
AcDbPolyline
 90
    5
 70
    0
 43
0
 10
80.38639889276884
 20
-131.0577132941162
 10
94.3863988927687
 20
-131.0577132941162
 10
94.3863988927687
 20
-117.0577132941161
 10
80.38639889276884
 20
-117.0577132941161
 10
80.38639889276884
 20
-131.0577132941162
  0
ENDBLK
  5
B2
330
B0
100
AcDbEntity
  8
0
100
AcDbBlockEnd
  0
BLOCK
  5
B4
330
B3
100
AcDbEntity
  8
0
100
AcDbBlockBegin
  2
block 35
 70
    0
 10
0
 20
0
  3
block 35
  1

  0
LWPOLYLINE
  5
CE
100
AcDbEntity
  8
switches
  6
ByLayer
 62
  256
370
   -1
100
AcDbPolyline
 90
    5
 70
    0
 43
0
 10
61.33639889276865
 20
-150.1077132941164
 10
75.33639889276883
 20
-150.1077132941164
 10
75.33639889276883
 20
-136.1077132941159
 10
61.33639889276865
 20
-136.1077132941159
 10
61.33639889276865
 20
-150.1077132941164
  0
ENDBLK
  5
B5
330
B3
100
AcDbEntity
  8
0
100
AcDbBlockEnd
  0
BLOCK
  5
B7
330
B6
100
AcDbEntity
  8
0
100
AcDbBlockBegin
  2
block 36
 70
    0
 10
0
 20
0
  3
block 36
  1

  0
LWPOLYLINE
  5
CF
100
AcDbEntity
  8
switches
  6
ByLayer
 62
  256
370
   -1
100
AcDbPolyline
 90
    5
 70
    0
 43
0
 10
80.38639889276884
 20
-150.1077132941164
 10
94.3863988927687
 20
-150.1077132941164
 10
94.3863988927687
 20
-136.1077132941159
 10
80.38639889276884
 20
-136.1077132941159
 10
80.38639889276884
 20
-150.1077132941164
  0
ENDBLK
  5
B8
330
B6
100
AcDbEntity
  8
0
100
AcDbBlockEnd
  0
BLOCK
  5
BA
330
B9
100
AcDbEntity
  8
0
100
AcDbBlockBegin
  2
block 37
 70
    0
 10
0
 20
0
  3
block 37
  1

  0
LWPOLYLINE
  5
D0
100
AcDbEntity
  8
switches
  6
ByLayer
 62
  256
370
   -1
100
AcDbPolyline
 90
    5
 70
    0
 43
0
 10
61.33639889276865
 20
-169.1577132941156
 10
75.33639889276883
 20
-169.1577132941156
 10
75.33639889276883
 20
-155.1577132941164
 10
61.33639889276865
 20
-155.1577132941164
 10
61.33639889276865
 20
-169.1577132941156
  0
ENDBLK
  5
BB
330
B9
100
AcDbEntity
  8
0
100
AcDbBlockEnd
  0
BLOCK
  5
BD
330
BC
100
AcDbEntity
  8
0
100
AcDbBlockBegin
  2
block 38
 70
    0
 10
0
 20
0
  3
block 38
  1

  0
LWPOLYLINE
  5
D1
100
AcDbEntity
  8
switches
  6
ByLayer
 62
  256
370
   -1
100
AcDbPolyline
 90
    5
 70
    0
 43
0
 10
80.38639889276884
 20
-169.1577132941156
 10
94.3863988927687
 20
-169.1577132941156
 10
94.3863988927687
 20
-155.1577132941164
 10
80.38639889276884
 20
-155.1577132941164
 10
80.38639889276884
 20
-169.1577132941156
  0
ENDBLK
  5
BE
330
BC
100
AcDbEntity
  8
0
100
AcDbBlockEnd
  0
BLOCK
  5
C0
330
BF
100
AcDbEntity
  8
0
100
AcDbBlockBegin
  2
block 39
 70
    0
 10
0
 20
0
  3
block 39
  1

  0
LWPOLYLINE
  5
D2
100
AcDbEntity
  8
switches
  6
ByLayer
 62
  256
370
   -1
100
AcDbPolyline
 90
    5
 70
    0
 43
0
 10
61.33639889276865
 20
-188.2077132941158
 10
75.33639889276883
 20
-188.2077132941158
 10
75.33639889276883
 20
-174.2077132941166
 10
61.33639889276865
 20
-174.2077132941166
 10
61.33639889276865
 20
-188.2077132941158
  0
ENDBLK
  5
C1
330
BF
100
AcDbEntity
  8
0
100
AcDbBlockEnd
  0
BLOCK
  5
C3
330
C2
100
AcDbEntity
  8
0
100
AcDbBlockBegin
  2
block 40
 70
    0
 10
0
 20
0
  3
block 40
  1

  0
LWPOLYLINE
  5
D3
100
AcDbEntity
  8
switches
  6
ByLayer
 62
  256
370
   -1
100
AcDbPolyline
 90
    5
 70
    0
 43
0
 10
80.38639889276884
 20
-188.2077132941158
 10
94.3863988927687
 20
-188.2077132941158
 10
94.3863988927687
 20
-174.2077132941166
 10
80.38639889276884
 20
-174.2077132941166
 10
80.38639889276884
 20
-188.2077132941158
  0
ENDBLK
  5
C4
330
C2
100
AcDbEntity
  8
0
100
AcDbBlockEnd
  0
BLOCK
  5
C6
330
C5
100
AcDbEntity
  8
0
100
AcDbBlockBegin
  2
block 41
 70
    0
 10
0
 20
0
  3
block 41
  1

  0
LWPOLYLINE
  5
D4
100
AcDbEntity
  8
switches
  6
ByLayer
 62
  256
370
   -1
100
AcDbPolyline
 90
    5
 70
    0
 43
0
 10
61.33639889276865
 20
-207.257713294116
 10
75.33639889276883
 20
-207.257713294116
 10
75.33639889276883
 20
-193.2577132941155
 10
61.33639889276865
 20
-193.2577132941155
 10
61.33639889276865
 20
-207.257713294116
  0
ENDBLK
  5
C7
330
C5
100
AcDbEntity
  8
0
100
AcDbBlockEnd
  0
BLOCK
  5
C9
330
C8
100
AcDbEntity
  8
0
100
AcDbBlockBegin
  2
block 42
 70
    0
 10
0
 20
0
  3
block 42
  1

  0
LWPOLYLINE
  5
D5
100
AcDbEntity
  8
switches
  6
ByLayer
 62
  256
370
   -1
100
AcDbPolyline
 90
    5
 70
    0
 43
0
 10
80.38639889276884
 20
-207.257713294116
 10
94.3863988927687
 20
-207.257713294116
 10
94.3863988927687
 20
-193.2577132941155
 10
80.38639889276884
 20
-193.2577132941155
 10
80.38639889276884
 20
-207.257713294116
  0
ENDBLK
  5
CA
330
C8
100
AcDbEntity
  8
0
100
AcDbBlockEnd
  0
ENDSEC
  0
SECTION
  2
ENTITIES
  0
LINE
  5
D6
100
AcDbEntity
  8
switches
  6
ByLayer
 62
  256
370
   -1
100
AcDbLine
 10
109.4613988927688
 20
-93.24521428947114
 11
122.4613988927688
 21
-93.24521428947114
  0
LINE
  5
D7
100
AcDbEntity
  8
switches
  6
ByLayer
 62
  256
370
   -1
100
AcDbLine
 10
109.4613988927688
 20
-107.2452142894711
 11
122.4613988927688
 21
-107.2452142894711
  0
LINE
  5
D8
100
AcDbEntity
  8
switches
  6
ByLayer
 62
  256
370
   -1
100
AcDbLine
 10
108.9613988927688
 20
-93.74521428947114
 11
108.9613988927688
 21
-106.7452142894711
  0
LINE
  5
D9
100
AcDbEntity
  8
switches
  6
ByLayer
 62
  256
370
   -1
100
AcDbLine
 10
122.9613988927688
 20
-93.74521428947114
 11
122.9613988927688
 21
-106.7452142894711
  0
ARC
  5
DA
100
AcDbEntity
  8
switches
  6
ByLayer
 62
  256
370
   -1
100
AcDbCircle
 10
109.4613988927688
 20
-93.74521428947114
 40
0.5
100
AcDbArc
 50
90
 51
180
  0
ARC
  5
DB
100
AcDbEntity
  8
switches
  6
ByLayer
 62
  256
370
   -1
100
AcDbCircle
 10
122.4613988927688
 20
-93.74521428947114
 40
0.5
100
AcDbArc
 50
0
 51
90
  0
ARC
  5
DC
100
AcDbEntity
  8
switches
  6
ByLayer
 62
  256
370
   -1
100
AcDbCircle
 10
109.4613988927688
 20
-106.7452142894711
 40
0.5
100
AcDbArc
 50
180
 51
270
  0
ARC
  5
DD
100
AcDbEntity
  8
switches
  6
ByLayer
 62
  256
370
   -1
100
AcDbCircle
 10
122.4613988927688
 20
-106.7452142894711
 40
0.5
100
AcDbArc
 50
270
 51
0
  0
LINE
  5
DE
100
AcDbEntity
  8
switches
  6
ByLayer
 62
  256
370
   -1
100
AcDbLine
 10
133.2738988927688
 20
-93.24521428947114
 11
146.2738988927688
 21
-93.24521428947114
  0
LINE
  5
DF
100
AcDbEntity
  8
switches
  6
ByLayer
 62
  256
370
   -1
100
AcDbLine
 10
133.2738988927688
 20
-107.2452142894711
 11
146.2738988927688
 21
-107.2452142894711
  0
LINE
  5
E0
100
AcDbEntity
  8
switches
  6
ByLayer
 62
  256
370
   -1
100
AcDbLine
 10
132.7738988927688
 20
-93.74521428947114
 11
132.7738988927688
 21
-106.7452142894711
  0
LINE
  5
E1
100
AcDbEntity
  8
switches
  6
ByLayer
 62
  256
370
   -1
100
AcDbLine
 10
146.7738988927688
 20
-93.74521428947114
 11
146.7738988927688
 21
-106.7452142894711
  0
ARC
  5
E2
100
AcDbEntity
  8
switches
  6
ByLayer
 62
  256
370
   -1
100
AcDbCircle
 10
133.2738988927688
 20
-93.74521428947114
 40
0.5
100
AcDbArc
 50
90
 51
180
  0
ARC
  5
E3
100
AcDbEntity
  8
switches
  6
ByLayer
 62
  256
370
   -1
100
AcDbCircle
 10
146.2738988927688
 20
-93.74521428947114
 40
0.5
100
AcDbArc
 50
0
 51
90
  0
ARC
  5
E4
100
AcDbEntity
  8
switches
  6
ByLayer
 62
  256
370
   -1
100
AcDbCircle
 10
133.2738988927688
 20
-106.7452142894711
 40
0.5
100
AcDbArc
 50
180
 51
270
  0
ARC
  5
E5
100
AcDbEntity
  8
switches
  6
ByLayer
 62
  256
370
   -1
100
AcDbCircle
 10
146.2738988927688
 20
-106.7452142894711
 40
0.5
100
AcDbArc
 50
270
 51
0
  0
LINE
  5
E6
100
AcDbEntity
  8
switches
  6
ByLayer
 62
  256
370
   -1
100
AcDbLine
 10
152.3238988927688
 20
-93.24521428947114
 11
165.3238988927688
 21
-93.24521428947114
  0
LINE
  5
E7
100
AcDbEntity
  8
switches
  6
ByLayer
 62
  256
370
   -1
100
AcDbLine
 10
152.3238988927688
 20
-107.2452142894711
 11
165.3238988927688
 21
-107.2452142894711
  0
LINE
  5
E8
100
AcDbEntity
  8
switches
  6
ByLayer
 62
  256
370
   -1
100
AcDbLine
 10
151.8238988927688
 20
-93.74521428947114
 11
151.8238988927688
 21
-106.7452142894711
  0
LINE
  5
E9
100
AcDbEntity
  8
switches
  6
ByLayer
 62
  256
370
   -1
100
AcDbLine
 10
165.8238988927688
 20
-93.74521428947114
 11
165.8238988927688
 21
-106.7452142894711
  0
ARC
  5
EA
100
AcDbEntity
  8
switches
  6
ByLayer
 62
  256
370
   -1
100
AcDbCircle
 10
152.3238988927688
 20
-93.74521428947114
 40
0.5
100
AcDbArc
 50
90
 51
180
  0
ARC
  5
EB
100
AcDbEntity
  8
switches
  6
ByLayer
 62
  256
370
   -1
100
AcDbCircle
 10
165.3238988927688
 20
-93.74521428947114
 40
0.5
100
AcDbArc
 50
0
 51
90
  0
ARC
  5
EC
100
AcDbEntity
  8
switches
  6
ByLayer
 62
  256
370
   -1
100
AcDbCircle
 10
152.3238988927688
 20
-106.7452142894711
 40
0.5
100
AcDbArc
 50
180
 51
270
  0
ARC
  5
ED
100
AcDbEntity
  8
switches
  6
ByLayer
 62
  256
370
   -1
100
AcDbCircle
 10
165.3238988927688
 20
-106.7452142894711
 40
0.5
100
AcDbArc
 50
270
 51
0
  0
LINE
  5
EE
100
AcDbEntity
  8
switches
  6
ByLayer
 62
  256
370
   -1
100
AcDbLine
 10
171.3738988927688
 20
-93.24521428947114
 11
184.3738988927688
 21
-93.24521428947114
  0
LINE
  5
EF
100
AcDbEntity
  8
switches
  6
ByLayer
 62
  256
370
   -1
100
AcDbLine
 10
171.3738988927688
 20
-107.2452142894711
 11
184.3738988927688
 21
-107.2452142894711
  0
LINE
  5
F0
100
AcDbEntity
  8
switches
  6
ByLayer
 62
  256
370
   -1
100
AcDbLine
 10
170.8738988927688
 20
-93.74521428947114
 11
170.8738988927688
 21
-106.7452142894711
  0
LINE
  5
F1
100
AcDbEntity
  8
switches
  6
ByLayer
 62
  256
370
   -1
100
AcDbLine
 10
184.8738988927688
 20
-93.74521428947114
 11
184.8738988927688
 21
-106.7452142894711
  0
ARC
  5
F2
100
AcDbEntity
  8
switches
  6
ByLayer
 62
  256
370
   -1
100
AcDbCircle
 10
171.3738988927688
 20
-93.74521428947114
 40
0.5
100
AcDbArc
 50
90
 51
180
  0
ARC
  5
F3
100
AcDbEntity
  8
switches
  6
ByLayer
 62
  256
370
   -1
100
AcDbCircle
 10
184.3738988927688
 20
-93.74521428947114
 40
0.5
100
AcDbArc
 50
0
 51
90
  0
ARC
  5
F4
100
AcDbEntity
  8
switches
  6
ByLayer
 62
  256
370
   -1
100
AcDbCircle
 10
171.3738988927688
 20
-106.7452142894711
 40
0.5
100
AcDbArc
 50
180
 51
270
  0
ARC
  5
F5
100
AcDbEntity
  8
switches
  6
ByLayer
 62
  256
370
   -1
100
AcDbCircle
 10
184.3738988927688
 20
-106.7452142894711
 40
0.5
100
AcDbArc
 50
270
 51
0
  0
LINE
  5
F6
100
AcDbEntity
  8
switches
  6
ByLayer
 62
  256
370
   -1
100
AcDbLine
 10
190.4238988927688
 20
-93.24521428947114
 11
203.4238988927688
 21
-93.24521428947114
  0
LINE
  5
F7
100
AcDbEntity
  8
switches
  6
ByLayer
 62
  256
370
   -1
100
AcDbLine
 10
190.4238988927688
 20
-107.2452142894711
 11
203.4238988927688
 21
-107.2452142894711
  0
LINE
  5
F8
100
AcDbEntity
  8
switches
  6
ByLayer
 62
  256
370
   -1
100
AcDbLine
 10
189.9238988927688
 20
-93.74521428947114
 11
189.9238988927688
 21
-106.7452142894711
  0
LINE
  5
F9
100
AcDbEntity
  8
switches
  6
ByLayer
 62
  256
370
   -1
100
AcDbLine
 10
203.9238988927688
 20
-93.74521428947114
 11
203.9238988927688
 21
-106.7452142894711
  0
ARC
  5
FA
100
AcDbEntity
  8
switches
  6
ByLayer
 62
  256
370
   -1
100
AcDbCircle
 10
190.4238988927688
 20
-93.74521428947114
 40
0.5
100
AcDbArc
 50
90
 51
180
  0
ARC
  5
FB
100
AcDbEntity
  8
switches
  6
ByLayer
 62
  256
370
   -1
100
AcDbCircle
 10
203.4238988927688
 20
-93.74521428947114
 40
0.5
100
AcDbArc
 50
0
 51
90
  0
ARC
  5
FC
100
AcDbEntity
  8
switches
  6
ByLayer
 62
  256
370
   -1
100
AcDbCircle
 10
190.4238988927688
 20
-106.7452142894711
 40
0.5
100
AcDbArc
 50
180
 51
270
  0
ARC
  5
FD
100
AcDbEntity
  8
switches
  6
ByLayer
 62
  256
370
   -1
100
AcDbCircle
 10
203.4238988927688
 20
-106.7452142894711
 40
0.5
100
AcDbArc
 50
270
 51
0
  0
LINE
  5
FE
100
AcDbEntity
  8
switches
  6
ByLayer
 62
  256
370
   -1
100
AcDbLine
 10
214.2363988927688
 20
-93.24521428947114
 11
227.2363988927688
 21
-93.24521428947114
  0
LINE
  5
FF
100
AcDbEntity
  8
switches
  6
ByLayer
 62
  256
370
   -1
100
AcDbLine
 10
214.2363988927688
 20
-107.2452142894711
 11
227.2363988927688
 21
-107.2452142894711
  0
LINE
  5
100
100
AcDbEntity
  8
switches
  6
ByLayer
 62
  256
370
   -1
100
AcDbLine
 10
213.7363988927688
 20
-93.74521428947114
 11
213.7363988927688
 21
-106.7452142894711
  0
LINE
  5
101
100
AcDbEntity
  8
switches
  6
ByLayer
 62
  256
370
   -1
100
AcDbLine
 10
227.7363988927688
 20
-93.74521428947114
 11
227.7363988927688
 21
-106.7452142894711
  0
ARC
  5
102
100
AcDbEntity
  8
switches
  6
ByLayer
 62
  256
370
   -1
100
AcDbCircle
 10
214.2363988927688
 20
-93.74521428947114
 40
0.5
100
AcDbArc
 50
90
 51
180
  0
ARC
  5
103
100
AcDbEntity
  8
switches
  6
ByLayer
 62
  256
370
   -1
100
AcDbCircle
 10
227.2363988927688
 20
-93.74521428947114
 40
0.5
100
AcDbArc
 50
0
 51
90
  0
ARC
  5
104
100
AcDbEntity
  8
switches
  6
ByLayer
 62
  256
370
   -1
100
AcDbCircle
 10
214.2363988927688
 20
-106.7452142894711
 40
0.5
100
AcDbArc
 50
180
 51
270
  0
ARC
  5
105
100
AcDbEntity
  8
switches
  6
ByLayer
 62
  256
370
   -1
100
AcDbCircle
 10
227.2363988927688
 20
-106.7452142894711
 40
0.5
100
AcDbArc
 50
270
 51
0
  0
LINE
  5
106
100
AcDbEntity
  8
switches
  6
ByLayer
 62
  256
370
   -1
100
AcDbLine
 10
109.4613988927688
 20
-117.0577142894711
 11
122.4613988927688
 21
-117.0577142894711
  0
LINE
  5
107
100
AcDbEntity
  8
switches
  6
ByLayer
 62
  256
370
   -1
100
AcDbLine
 10
109.4613988927688
 20
-131.0577142894711
 11
122.4613988927688
 21
-131.0577142894711
  0
LINE
  5
108
100
AcDbEntity
  8
switches
  6
ByLayer
 62
  256
370
   -1
100
AcDbLine
 10
108.9613988927688
 20
-117.5577142894711
 11
108.9613988927688
 21
-130.5577142894711
  0
LINE
  5
109
100
AcDbEntity
  8
switches
  6
ByLayer
 62
  256
370
   -1
100
AcDbLine
 10
122.9613988927688
 20
-117.5577142894711
 11
122.9613988927688
 21
-130.5577142894711
  0
ARC
  5
10A
100
AcDbEntity
  8
switches
  6
ByLayer
 62
  256
370
   -1
100
AcDbCircle
 10
109.4613988927688
 20
-117.5577142894711
 40
0.5
100
AcDbArc
 50
90
 51
180
  0
ARC
  5
10B
100
AcDbEntity
  8
switches
  6
ByLayer
 62
  256
370
   -1
100
AcDbCircle
 10
122.4613988927688
 20
-117.5577142894711
 40
0.5
100
AcDbArc
 50
0
 51
90
  0
ARC
  5
10C
100
AcDbEntity
  8
switches
  6
ByLayer
 62
  256
370
   -1
100
AcDbCircle
 10
109.4613988927688
 20
-130.5577142894711
 40
0.5
100
AcDbArc
 50
180
 51
270
  0
ARC
  5
10D
100
AcDbEntity
  8
switches
  6
ByLayer
 62
  256
370
   -1
100
AcDbCircle
 10
122.4613988927688
 20
-130.5577142894711
 40
0.5
100
AcDbArc
 50
270
 51
0
  0
LINE
  5
10E
100
AcDbEntity
  8
switches
  6
ByLayer
 62
  256
370
   -1
100
AcDbLine
 10
128.5113988927688
 20
-117.0577142894711
 11
141.5113988927688
 21
-117.0577142894711
  0
LINE
  5
10F
100
AcDbEntity
  8
switches
  6
ByLayer
 62
  256
370
   -1
100
AcDbLine
 10
128.5113988927688
 20
-131.0577142894711
 11
141.5113988927688
 21
-131.0577142894711
  0
LINE
  5
110
100
AcDbEntity
  8
switches
  6
ByLayer
 62
  256
370
   -1
100
AcDbLine
 10
128.0113988927688
 20
-117.5577142894711
 11
128.0113988927688
 21
-130.5577142894711
  0
LINE
  5
111
100
AcDbEntity
  8
switches
  6
ByLayer
 62
  256
370
   -1
100
AcDbLine
 10
142.0113988927688
 20
-117.5577142894711
 11
142.0113988927688
 21
-130.5577142894711
  0
ARC
  5
112
100
AcDbEntity
  8
switches
  6
ByLayer
 62
  256
370
   -1
100
AcDbCircle
 10
128.5113988927688
 20
-117.5577142894711
 40
0.5
100
AcDbArc
 50
90
 51
180
  0
ARC
  5
113
100
AcDbEntity
  8
switches
  6
ByLayer
 62
  256
370
   -1
100
AcDbCircle
 10
141.5113988927688
 20
-117.5577142894711
 40
0.5
100
AcDbArc
 50
0
 51
90
  0
ARC
  5
114
100
AcDbEntity
  8
switches
  6
ByLayer
 62
  256
370
   -1
100
AcDbCircle
 10
128.5113988927688
 20
-130.5577142894711
 40
0.5
100
AcDbArc
 50
180
 51
270
  0
ARC
  5
115
100
AcDbEntity
  8
switches
  6
ByLayer
 62
  256
370
   -1
100
AcDbCircle
 10
141.5113988927688
 20
-130.5577142894711
 40
0.5
100
AcDbArc
 50
270
 51
0
  0
LINE
  5
116
100
AcDbEntity
  8
switches
  6
ByLayer
 62
  256
370
   -1
100
AcDbLine
 10
147.5613988927688
 20
-117.0577142894711
 11
160.5613988927688
 21
-117.0577142894711
  0
LINE
  5
117
100
AcDbEntity
  8
switches
  6
ByLayer
 62
  256
370
   -1
100
AcDbLine
 10
147.5613988927688
 20
-131.0577142894711
 11
160.5613988927688
 21
-131.0577142894711
  0
LINE
  5
118
100
AcDbEntity
  8
switches
  6
ByLayer
 62
  256
370
   -1
100
AcDbLine
 10
147.0613988927688
 20
-117.5577142894711
 11
147.0613988927688
 21
-130.5577142894711
  0
LINE
  5
119
100
AcDbEntity
  8
switches
  6
ByLayer
 62
  256
370
   -1
100
AcDbLine
 10
161.0613988927688
 20
-117.5577142894711
 11
161.0613988927688
 21
-130.5577142894711
  0
ARC
  5
11A
100
AcDbEntity
  8
switches
  6
ByLayer
 62
  256
370
   -1
100
AcDbCircle
 10
147.5613988927688
 20
-117.5577142894711
 40
0.5
100
AcDbArc
 50
90
 51
180
  0
ARC
  5
11B
100
AcDbEntity
  8
switches
  6
ByLayer
 62
  256
370
   -1
100
AcDbCircle
 10
160.5613988927688
 20
-117.5577142894711
 40
0.5
100
AcDbArc
 50
0
 51
90
  0
ARC
  5
11C
100
AcDbEntity
  8
switches
  6
ByLayer
 62
  256
370
   -1
100
AcDbCircle
 10
147.5613988927688
 20
-130.5577142894711
 40
0.5
100
AcDbArc
 50
180
 51
270
  0
ARC
  5
11D
100
AcDbEntity
  8
switches
  6
ByLayer
 62
  256
370
   -1
100
AcDbCircle
 10
160.5613988927688
 20
-130.5577142894711
 40
0.5
100
AcDbArc
 50
270
 51
0
  0
LINE
  5
11E
100
AcDbEntity
  8
switches
  6
ByLayer
 62
  256
370
   -1
100
AcDbLine
 10
166.6113988927688
 20
-117.0577142894711
 11
179.6113988927688
 21
-117.0577142894711
  0
LINE
  5
11F
100
AcDbEntity
  8
switches
  6
ByLayer
 62
  256
370
   -1
100
AcDbLine
 10
166.6113988927688
 20
-131.0577142894711
 11
179.6113988927688
 21
-131.0577142894711
  0
LINE
  5
120
100
AcDbEntity
  8
switches
  6
ByLayer
 62
  256
370
   -1
100
AcDbLine
 10
166.1113988927688
 20
-117.5577142894711
 11
166.1113988927688
 21
-130.5577142894711
  0
LINE
  5
121
100
AcDbEntity
  8
switches
  6
ByLayer
 62
  256
370
   -1
100
AcDbLine
 10
180.1113988927688
 20
-117.5577142894711
 11
180.1113988927688
 21
-130.5577142894711
  0
ARC
  5
122
100
AcDbEntity
  8
switches
  6
ByLayer
 62
  256
370
   -1
100
AcDbCircle
 10
166.6113988927688
 20
-117.5577142894711
 40
0.5
100
AcDbArc
 50
90
 51
180
  0
ARC
  5
123
100
AcDbEntity
  8
switches
  6
ByLayer
 62
  256
370
   -1
100
AcDbCircle
 10
179.6113988927688
 20
-117.5577142894711
 40
0.5
100
AcDbArc
 50
0
 51
90
  0
ARC
  5
124
100
AcDbEntity
  8
switches
  6
ByLayer
 62
  256
370
   -1
100
AcDbCircle
 10
166.6113988927688
 20
-130.5577142894711
 40
0.5
100
AcDbArc
 50
180
 51
270
  0
ARC
  5
125
100
AcDbEntity
  8
switches
  6
ByLayer
 62
  256
370
   -1
100
AcDbCircle
 10
179.6113988927688
 20
-130.5577142894711
 40
0.5
100
AcDbArc
 50
270
 51
0
  0
LINE
  5
126
100
AcDbEntity
  8
switches
  6
ByLayer
 62
  256
370
   -1
100
AcDbLine
 10
185.6613988927688
 20
-117.0577142894711
 11
198.6613988927688
 21
-117.0577142894711
  0
LINE
  5
127
100
AcDbEntity
  8
switches
  6
ByLayer
 62
  256
370
   -1
100
AcDbLine
 10
185.6613988927688
 20
-131.0577142894711
 11
198.6613988927688
 21
-131.0577142894711
  0
LINE
  5
128
100
AcDbEntity
  8
switches
  6
ByLayer
 62
  256
370
   -1
100
AcDbLine
 10
185.1613988927688
 20
-117.5577142894711
 11
185.1613988927688
 21
-130.5577142894711
  0
LINE
  5
129
100
AcDbEntity
  8
switches
  6
ByLayer
 62
  256
370
   -1
100
AcDbLine
 10
199.1613988927688
 20
-117.5577142894711
 11
199.1613988927688
 21
-130.5577142894711
  0
ARC
  5
12A
100
AcDbEntity
  8
switches
  6
ByLayer
 62
  256
370
   -1
100
AcDbCircle
 10
185.6613988927688
 20
-117.5577142894711
 40
0.5
100
AcDbArc
 50
90
 51
180
  0
ARC
  5
12B
100
AcDbEntity
  8
switches
  6
ByLayer
 62
  256
370
   -1
100
AcDbCircle
 10
198.6613988927688
 20
-117.5577142894711
 40
0.5
100
AcDbArc
 50
0
 51
90
  0
ARC
  5
12C
100
AcDbEntity
  8
switches
  6
ByLayer
 62
  256
370
   -1
100
AcDbCircle
 10
185.6613988927688
 20
-130.5577142894711
 40
0.5
100
AcDbArc
 50
180
 51
270
  0
ARC
  5
12D
100
AcDbEntity
  8
switches
  6
ByLayer
 62
  256
370
   -1
100
AcDbCircle
 10
198.6613988927688
 20
-130.5577142894711
 40
0.5
100
AcDbArc
 50
270
 51
0
  0
LINE
  5
12E
100
AcDbEntity
  8
switches
  6
ByLayer
 62
  256
370
   -1
100
AcDbLine
 10
204.7113988927688
 20
-117.0577142894711
 11
217.7113988927688
 21
-117.0577142894711
  0
LINE
  5
12F
100
AcDbEntity
  8
switches
  6
ByLayer
 62
  256
370
   -1
100
AcDbLine
 10
204.7113988927688
 20
-131.0577142894711
 11
217.7113988927688
 21
-131.0577142894711
  0
LINE
  5
130
100
AcDbEntity
  8
switches
  6
ByLayer
 62
  256
370
   -1
100
AcDbLine
 10
204.2113988927688
 20
-117.5577142894711
 11
204.2113988927688
 21
-130.5577142894711
  0
LINE
  5
131
100
AcDbEntity
  8
switches
  6
ByLayer
 62
  256
370
   -1
100
AcDbLine
 10
218.2113988927688
 20
-117.5577142894711
 11
218.2113988927688
 21
-130.5577142894711
  0
ARC
  5
132
100
AcDbEntity
  8
switches
  6
ByLayer
 62
  256
370
   -1
100
AcDbCircle
 10
204.7113988927688
 20
-117.5577142894711
 40
0.5
100
AcDbArc
 50
90
 51
180
  0
ARC
  5
133
100
AcDbEntity
  8
switches
  6
ByLayer
 62
  256
370
   -1
100
AcDbCircle
 10
217.7113988927688
 20
-117.5577142894711
 40
0.5
100
AcDbArc
 50
0
 51
90
  0
ARC
  5
134
100
AcDbEntity
  8
switches
  6
ByLayer
 62
  256
370
   -1
100
AcDbCircle
 10
204.7113988927688
 20
-130.5577142894711
 40
0.5
100
AcDbArc
 50
180
 51
270
  0
ARC
  5
135
100
AcDbEntity
  8
switches
  6
ByLayer
 62
  256
370
   -1
100
AcDbCircle
 10
217.7113988927688
 20
-130.5577142894711
 40
0.5
100
AcDbArc
 50
270
 51
0
  0
LINE
  5
136
100
AcDbEntity
  8
switches
  6
ByLayer
 62
  256
370
   -1
100
AcDbLine
 10
223.7613988927688
 20
-117.0577142894711
 11
236.7613988927688
 21
-117.0577142894711
  0
LINE
  5
137
100
AcDbEntity
  8
switches
  6
ByLayer
 62
  256
370
   -1
100
AcDbLine
 10
223.7613988927688
 20
-131.0577142894711
 11
236.7613988927688
 21
-131.0577142894711
  0
LINE
  5
138
100
AcDbEntity
  8
switches
  6
ByLayer
 62
  256
370
   -1
100
AcDbLine
 10
223.2613988927688
 20
-117.5577142894711
 11
223.2613988927688
 21
-130.5577142894711
  0
LINE
  5
139
100
AcDbEntity
  8
switches
  6
ByLayer
 62
  256
370
   -1
100
AcDbLine
 10
237.2613988927688
 20
-117.5577142894711
 11
237.2613988927688
 21
-130.5577142894711
  0
ARC
  5
13A
100
AcDbEntity
  8
switches
  6
ByLayer
 62
  256
370
   -1
100
AcDbCircle
 10
223.7613988927688
 20
-117.5577142894711
 40
0.5
100
AcDbArc
 50
90
 51
180
  0
ARC
  5
13B
100
AcDbEntity
  8
switches
  6
ByLayer
 62
  256
370
   -1
100
AcDbCircle
 10
236.7613988927688
 20
-117.5577142894711
 40
0.5
100
AcDbArc
 50
0
 51
90
  0
ARC
  5
13C
100
AcDbEntity
  8
switches
  6
ByLayer
 62
  256
370
   -1
100
AcDbCircle
 10
223.7613988927688
 20
-130.5577142894711
 40
0.5
100
AcDbArc
 50
180
 51
270
  0
ARC
  5
13D
100
AcDbEntity
  8
switches
  6
ByLayer
 62
  256
370
   -1
100
AcDbCircle
 10
236.7613988927688
 20
-130.5577142894711
 40
0.5
100
AcDbArc
 50
270
 51
0
  0
LINE
  5
13E
100
AcDbEntity
  8
switches
  6
ByLayer
 62
  256
370
   -1
100
AcDbLine
 10
114.2238988927688
 20
-136.1077142894711
 11
127.2238988927688
 21
-136.1077142894711
  0
LINE
  5
13F
100
AcDbEntity
  8
switches
  6
ByLayer
 62
  256
370
   -1
100
AcDbLine
 10
114.2238988927688
 20
-150.1077142894711
 11
127.2238988927688
 21
-150.1077142894711
  0
LINE
  5
140
100
AcDbEntity
  8
switches
  6
ByLayer
 62
  256
370
   -1
100
AcDbLine
 10
113.7238988927688
 20
-136.6077142894711
 11
113.7238988927688
 21
-149.6077142894711
  0
LINE
  5
141
100
AcDbEntity
  8
switches
  6
ByLayer
 62
  256
370
   -1
100
AcDbLine
 10
127.7238988927688
 20
-136.6077142894711
 11
127.7238988927688
 21
-149.6077142894711
  0
ARC
  5
142
100
AcDbEntity
  8
switches
  6
ByLayer
 62
  256
370
   -1
100
AcDbCircle
 10
114.2238988927688
 20
-136.6077142894711
 40
0.5
100
AcDbArc
 50
90
 51
180
  0
ARC
  5
143
100
AcDbEntity
  8
switches
  6
ByLayer
 62
  256
370
   -1
100
AcDbCircle
 10
127.2238988927688
 20
-136.6077142894711
 40
0.5
100
AcDbArc
 50
0
 51
90
  0
ARC
  5
144
100
AcDbEntity
  8
switches
  6
ByLayer
 62
  256
370
   -1
100
AcDbCircle
 10
114.2238988927688
 20
-149.6077142894711
 40
0.5
100
AcDbArc
 50
180
 51
270
  0
ARC
  5
145
100
AcDbEntity
  8
switches
  6
ByLayer
 62
  256
370
   -1
100
AcDbCircle
 10
127.2238988927688
 20
-149.6077142894711
 40
0.5
100
AcDbArc
 50
270
 51
0
  0
LINE
  5
146
100
AcDbEntity
  8
switches
  6
ByLayer
 62
  256
370
   -1
100
AcDbLine
 10
138.0363988927688
 20
-136.1077142894711
 11
151.0363988927688
 21
-136.1077142894711
  0
LINE
  5
147
100
AcDbEntity
  8
switches
  6
ByLayer
 62
  256
370
   -1
100
AcDbLine
 10
138.0363988927688
 20
-150.1077142894711
 11
151.0363988927688
 21
-150.1077142894711
  0
LINE
  5
148
100
AcDbEntity
  8
switches
  6
ByLayer
 62
  256
370
   -1
100
AcDbLine
 10
137.5363988927688
 20
-136.6077142894711
 11
137.5363988927688
 21
-149.6077142894711
  0
LINE
  5
149
100
AcDbEntity
  8
switches
  6
ByLayer
 62
  256
370
   -1
100
AcDbLine
 10
151.5363988927688
 20
-136.6077142894711
 11
151.5363988927688
 21
-149.6077142894711
  0
ARC
  5
14A
100
AcDbEntity
  8
switches
  6
ByLayer
 62
  256
370
   -1
100
AcDbCircle
 10
138.0363988927688
 20
-136.6077142894711
 40
0.5
100
AcDbArc
 50
90
 51
180
  0
ARC
  5
14B
100
AcDbEntity
  8
switches
  6
ByLayer
 62
  256
370
   -1
100
AcDbCircle
 10
151.0363988927688
 20
-136.6077142894711
 40
0.5
100
AcDbArc
 50
0
 51
90
  0
ARC
  5
14C
100
AcDbEntity
  8
switches
  6
ByLayer
 62
  256
370
   -1
100
AcDbCircle
 10
138.0363988927688
 20
-149.6077142894711
 40
0.5
100
AcDbArc
 50
180
 51
270
  0
ARC
  5
14D
100
AcDbEntity
  8
switches
  6
ByLayer
 62
  256
370
   -1
100
AcDbCircle
 10
151.0363988927688
 20
-149.6077142894711
 40
0.5
100
AcDbArc
 50
270
 51
0
  0
LINE
  5
14E
100
AcDbEntity
  8
switches
  6
ByLayer
 62
  256
370
   -1
100
AcDbLine
 10
157.0863988927688
 20
-136.1077142894711
 11
170.0863988927688
 21
-136.1077142894711
  0
LINE
  5
14F
100
AcDbEntity
  8
switches
  6
ByLayer
 62
  256
370
   -1
100
AcDbLine
 10
157.0863988927688
 20
-150.1077142894711
 11
170.0863988927688
 21
-150.1077142894711
  0
LINE
  5
150
100
AcDbEntity
  8
switches
  6
ByLayer
 62
  256
370
   -1
100
AcDbLine
 10
156.5863988927688
 20
-136.6077142894711
 11
156.5863988927688
 21
-149.6077142894711
  0
LINE
  5
151
100
AcDbEntity
  8
switches
  6
ByLayer
 62
  256
370
   -1
100
AcDbLine
 10
170.5863988927688
 20
-136.6077142894711
 11
170.5863988927688
 21
-149.6077142894711
  0
ARC
  5
152
100
AcDbEntity
  8
switches
  6
ByLayer
 62
  256
370
   -1
100
AcDbCircle
 10
157.0863988927688
 20
-136.6077142894711
 40
0.5
100
AcDbArc
 50
90
 51
180
  0
ARC
  5
153
100
AcDbEntity
  8
switches
  6
ByLayer
 62
  256
370
   -1
100
AcDbCircle
 10
170.0863988927688
 20
-136.6077142894711
 40
0.5
100
AcDbArc
 50
0
 51
90
  0
ARC
  5
154
100
AcDbEntity
  8
switches
  6
ByLayer
 62
  256
370
   -1
100
AcDbCircle
 10
157.0863988927688
 20
-149.6077142894711
 40
0.5
100
AcDbArc
 50
180
 51
270
  0
ARC
  5
155
100
AcDbEntity
  8
switches
  6
ByLayer
 62
  256
370
   -1
100
AcDbCircle
 10
170.0863988927688
 20
-149.6077142894711
 40
0.5
100
AcDbArc
 50
270
 51
0
  0
LINE
  5
156
100
AcDbEntity
  8
switches
  6
ByLayer
 62
  256
370
   -1
100
AcDbLine
 10
176.1363988927688
 20
-136.1077142894711
 11
189.1363988927688
 21
-136.1077142894711
  0
LINE
  5
157
100
AcDbEntity
  8
switches
  6
ByLayer
 62
  256
370
   -1
100
AcDbLine
 10
176.1363988927688
 20
-150.1077142894711
 11
189.1363988927688
 21
-150.1077142894711
  0
LINE
  5
158
100
AcDbEntity
  8
switches
  6
ByLayer
 62
  256
370
   -1
100
AcDbLine
 10
175.6363988927688
 20
-136.6077142894711
 11
175.6363988927688
 21
-149.6077142894711
  0
LINE
  5
159
100
AcDbEntity
  8
switches
  6
ByLayer
 62
  256
370
   -1
100
AcDbLine
 10
189.6363988927688
 20
-136.6077142894711
 11
189.6363988927688
 21
-149.6077142894711
  0
ARC
  5
15A
100
AcDbEntity
  8
switches
  6
ByLayer
 62
  256
370
   -1
100
AcDbCircle
 10
176.1363988927688
 20
-136.6077142894711
 40
0.5
100
AcDbArc
 50
90
 51
180
  0
ARC
  5
15B
100
AcDbEntity
  8
switches
  6
ByLayer
 62
  256
370
   -1
100
AcDbCircle
 10
189.1363988927688
 20
-136.6077142894711
 40
0.5
100
AcDbArc
 50
0
 51
90
  0
ARC
  5
15C
100
AcDbEntity
  8
switches
  6
ByLayer
 62
  256
370
   -1
100
AcDbCircle
 10
176.1363988927688
 20
-149.6077142894711
 40
0.5
100
AcDbArc
 50
180
 51
270
  0
ARC
  5
15D
100
AcDbEntity
  8
switches
  6
ByLayer
 62
  256
370
   -1
100
AcDbCircle
 10
189.1363988927688
 20
-149.6077142894711
 40
0.5
100
AcDbArc
 50
270
 51
0
  0
LINE
  5
15E
100
AcDbEntity
  8
switches
  6
ByLayer
 62
  256
370
   -1
100
AcDbLine
 10
195.1863988927688
 20
-136.1077142894711
 11
208.1863988927688
 21
-136.1077142894711
  0
LINE
  5
15F
100
AcDbEntity
  8
switches
  6
ByLayer
 62
  256
370
   -1
100
AcDbLine
 10
195.1863988927688
 20
-150.1077142894711
 11
208.1863988927688
 21
-150.1077142894711
  0
LINE
  5
160
100
AcDbEntity
  8
switches
  6
ByLayer
 62
  256
370
   -1
100
AcDbLine
 10
194.6863988927688
 20
-136.6077142894711
 11
194.6863988927688
 21
-149.6077142894711
  0
LINE
  5
161
100
AcDbEntity
  8
switches
  6
ByLayer
 62
  256
370
   -1
100
AcDbLine
 10
208.6863988927688
 20
-136.6077142894711
 11
208.6863988927688
 21
-149.6077142894711
  0
ARC
  5
162
100
AcDbEntity
  8
switches
  6
ByLayer
 62
  256
370
   -1
100
AcDbCircle
 10
195.1863988927688
 20
-136.6077142894711
 40
0.5
100
AcDbArc
 50
90
 51
180
  0
ARC
  5
163
100
AcDbEntity
  8
switches
  6
ByLayer
 62
  256
370
   -1
100
AcDbCircle
 10
208.1863988927688
 20
-136.6077142894711
 40
0.5
100
AcDbArc
 50
0
 51
90
  0
ARC
  5
164
100
AcDbEntity
  8
switches
  6
ByLayer
 62
  256
370
   -1
100
AcDbCircle
 10
195.1863988927688
 20
-149.6077142894711
 40
0.5
100
AcDbArc
 50
180
 51
270
  0
ARC
  5
165
100
AcDbEntity
  8
switches
  6
ByLayer
 62
  256
370
   -1
100
AcDbCircle
 10
208.1863988927688
 20
-149.6077142894711
 40
0.5
100
AcDbArc
 50
270
 51
0
  0
LINE
  5
166
100
AcDbEntity
  8
switches
  6
ByLayer
 62
  256
370
   -1
100
AcDbLine
 10
214.2363988927688
 20
-136.1077142894711
 11
227.2363988927688
 21
-136.1077142894711
  0
LINE
  5
167
100
AcDbEntity
  8
switches
  6
ByLayer
 62
  256
370
   -1
100
AcDbLine
 10
214.2363988927688
 20
-150.1077142894711
 11
227.2363988927688
 21
-150.1077142894711
  0
LINE
  5
168
100
AcDbEntity
  8
switches
  6
ByLayer
 62
  256
370
   -1
100
AcDbLine
 10
213.7363988927688
 20
-136.6077142894711
 11
213.7363988927688
 21
-149.6077142894711
  0
LINE
  5
169
100
AcDbEntity
  8
switches
  6
ByLayer
 62
  256
370
   -1
100
AcDbLine
 10
227.7363988927688
 20
-136.6077142894711
 11
227.7363988927688
 21
-149.6077142894711
  0
ARC
  5
16A
100
AcDbEntity
  8
switches
  6
ByLayer
 62
  256
370
   -1
100
AcDbCircle
 10
214.2363988927688
 20
-136.6077142894711
 40
0.5
100
AcDbArc
 50
90
 51
180
  0
ARC
  5
16B
100
AcDbEntity
  8
switches
  6
ByLayer
 62
  256
370
   -1
100
AcDbCircle
 10
227.2363988927688
 20
-136.6077142894711
 40
0.5
100
AcDbArc
 50
0
 51
90
  0
ARC
  5
16C
100
AcDbEntity
  8
switches
  6
ByLayer
 62
  256
370
   -1
100
AcDbCircle
 10
214.2363988927688
 20
-149.6077142894711
 40
0.5
100
AcDbArc
 50
180
 51
270
  0
ARC
  5
16D
100
AcDbEntity
  8
switches
  6
ByLayer
 62
  256
370
   -1
100
AcDbCircle
 10
227.2363988927688
 20
-149.6077142894711
 40
0.5
100
AcDbArc
 50
270
 51
0
  0
LINE
  5
16E
100
AcDbEntity
  8
switches
  6
ByLayer
 62
  256
370
   -1
100
AcDbLine
 10
116.6051488927688
 20
-155.1577142894711
 11
129.6051488927688
 21
-155.1577142894711
  0
LINE
  5
16F
100
AcDbEntity
  8
switches
  6
ByLayer
 62
  256
370
   -1
100
AcDbLine
 10
116.6051488927688
 20
-169.1577142894711
 11
129.6051488927688
 21
-169.1577142894711
  0
LINE
  5
170
100
AcDbEntity
  8
switches
  6
ByLayer
 62
  256
370
   -1
100
AcDbLine
 10
116.1051488927688
 20
-155.6577142894711
 11
116.1051488927688
 21
-168.6577142894711
  0
LINE
  5
171
100
AcDbEntity
  8
switches
  6
ByLayer
 62
  256
370
   -1
100
AcDbLine
 10
130.1051488927688
 20
-155.6577142894711
 11
130.1051488927688
 21
-168.6577142894711
  0
ARC
  5
172
100
AcDbEntity
  8
switches
  6
ByLayer
 62
  256
370
   -1
100
AcDbCircle
 10
116.6051488927688
 20
-155.6577142894711
 40
0.5
100
AcDbArc
 50
90
 51
180
  0
ARC
  5
173
100
AcDbEntity
  8
switches
  6
ByLayer
 62
  256
370
   -1
100
AcDbCircle
 10
129.6051488927688
 20
-155.6577142894711
 40
0.5
100
AcDbArc
 50
0
 51
90
  0
ARC
  5
174
100
AcDbEntity
  8
switches
  6
ByLayer
 62
  256
370
   -1
100
AcDbCircle
 10
116.6051488927688
 20
-168.6577142894711
 40
0.5
100
AcDbArc
 50
180
 51
270
  0
ARC
  5
175
100
AcDbEntity
  8
switches
  6
ByLayer
 62
  256
370
   -1
100
AcDbCircle
 10
129.6051488927688
 20
-168.6577142894711
 40
0.5
100
AcDbArc
 50
270
 51
0
  0
LINE
  5
176
100
AcDbEntity
  8
switches
  6
ByLayer
 62
  256
370
   -1
100
AcDbLine
 10
142.7988988927688
 20
-155.1577142894711
 11
155.7988988927688
 21
-155.1577142894711
  0
LINE
  5
177
100
AcDbEntity
  8
switches
  6
ByLayer
 62
  256
370
   -1
100
AcDbLine
 10
142.7988988927688
 20
-169.1577142894711
 11
155.7988988927688
 21
-169.1577142894711
  0
LINE
  5
178
100
AcDbEntity
  8
switches
  6
ByLayer
 62
  256
370
   -1
100
AcDbLine
 10
142.2988988927688
 20
-155.6577142894711
 11
142.2988988927688
 21
-168.6577142894711
  0
LINE
  5
179
100
AcDbEntity
  8
switches
  6
ByLayer
 62
  256
370
   -1
100
AcDbLine
 10
156.2988988927688
 20
-155.6577142894711
 11
156.2988988927688
 21
-168.6577142894711
  0
ARC
  5
17A
100
AcDbEntity
  8
switches
  6
ByLayer
 62
  256
370
   -1
100
AcDbCircle
 10
142.7988988927688
 20
-155.6577142894711
 40
0.5
100
AcDbArc
 50
90
 51
180
  0
ARC
  5
17B
100
AcDbEntity
  8
switches
  6
ByLayer
 62
  256
370
   -1
100
AcDbCircle
 10
155.7988988927688
 20
-155.6577142894711
 40
0.5
100
AcDbArc
 50
0
 51
90
  0
ARC
  5
17C
100
AcDbEntity
  8
switches
  6
ByLayer
 62
  256
370
   -1
100
AcDbCircle
 10
142.7988988927688
 20
-168.6577142894711
 40
0.5
100
AcDbArc
 50
180
 51
270
  0
ARC
  5
17D
100
AcDbEntity
  8
switches
  6
ByLayer
 62
  256
370
   -1
100
AcDbCircle
 10
155.7988988927688
 20
-168.6577142894711
 40
0.5
100
AcDbArc
 50
270
 51
0
  0
LINE
  5
17E
100
AcDbEntity
  8
switches
  6
ByLayer
 62
  256
370
   -1
100
AcDbLine
 10
161.8488988927688
 20
-155.1577142894711
 11
174.8488988927688
 21
-155.1577142894711
  0
LINE
  5
17F
100
AcDbEntity
  8
switches
  6
ByLayer
 62
  256
370
   -1
100
AcDbLine
 10
161.8488988927688
 20
-169.1577142894711
 11
174.8488988927688
 21
-169.1577142894711
  0
LINE
  5
180
100
AcDbEntity
  8
switches
  6
ByLayer
 62
  256
370
   -1
100
AcDbLine
 10
161.3488988927688
 20
-155.6577142894711
 11
161.3488988927688
 21
-168.6577142894711
  0
LINE
  5
181
100
AcDbEntity
  8
switches
  6
ByLayer
 62
  256
370
   -1
100
AcDbLine
 10
175.3488988927688
 20
-155.6577142894711
 11
175.3488988927688
 21
-168.6577142894711
  0
ARC
  5
182
100
AcDbEntity
  8
switches
  6
ByLayer
 62
  256
370
   -1
100
AcDbCircle
 10
161.8488988927688
 20
-155.6577142894711
 40
0.5
100
AcDbArc
 50
90
 51
180
  0
ARC
  5
183
100
AcDbEntity
  8
switches
  6
ByLayer
 62
  256
370
   -1
100
AcDbCircle
 10
174.8488988927688
 20
-155.6577142894711
 40
0.5
100
AcDbArc
 50
0
 51
90
  0
ARC
  5
184
100
AcDbEntity
  8
switches
  6
ByLayer
 62
  256
370
   -1
100
AcDbCircle
 10
161.8488988927688
 20
-168.6577142894711
 40
0.5
100
AcDbArc
 50
180
 51
270
  0
ARC
  5
185
100
AcDbEntity
  8
switches
  6
ByLayer
 62
  256
370
   -1
100
AcDbCircle
 10
174.8488988927688
 20
-168.6577142894711
 40
0.5
100
AcDbArc
 50
270
 51
0
  0
LINE
  5
186
100
AcDbEntity
  8
switches
  6
ByLayer
 62
  256
370
   -1
100
AcDbLine
 10
180.8988988927688
 20
-155.1577142894711
 11
193.8988988927688
 21
-155.1577142894711
  0
LINE
  5
187
100
AcDbEntity
  8
switches
  6
ByLayer
 62
  256
370
   -1
100
AcDbLine
 10
180.8988988927688
 20
-169.1577142894711
 11
193.8988988927688
 21
-169.1577142894711
  0
LINE
  5
188
100
AcDbEntity
  8
switches
  6
ByLayer
 62
  256
370
   -1
100
AcDbLine
 10
180.3988988927688
 20
-155.6577142894711
 11
180.3988988927688
 21
-168.6577142894711
  0
LINE
  5
189
100
AcDbEntity
  8
switches
  6
ByLayer
 62
  256
370
   -1
100
AcDbLine
 10
194.3988988927688
 20
-155.6577142894711
 11
194.3988988927688
 21
-168.6577142894711
  0
ARC
  5
18A
100
AcDbEntity
  8
switches
  6
ByLayer
 62
  256
370
   -1
100
AcDbCircle
 10
180.8988988927688
 20
-155.6577142894711
 40
0.5
100
AcDbArc
 50
90
 51
180
  0
ARC
  5
18B
100
AcDbEntity
  8
switches
  6
ByLayer
 62
  256
370
   -1
100
AcDbCircle
 10
193.8988988927688
 20
-155.6577142894711
 40
0.5
100
AcDbArc
 50
0
 51
90
  0
ARC
  5
18C
100
AcDbEntity
  8
switches
  6
ByLayer
 62
  256
370
   -1
100
AcDbCircle
 10
180.8988988927688
 20
-168.6577142894711
 40
0.5
100
AcDbArc
 50
180
 51
270
  0
ARC
  5
18D
100
AcDbEntity
  8
switches
  6
ByLayer
 62
  256
370
   -1
100
AcDbCircle
 10
193.8988988927688
 20
-168.6577142894711
 40
0.5
100
AcDbArc
 50
270
 51
0
  0
LINE
  5
18E
100
AcDbEntity
  8
switches
  6
ByLayer
 62
  256
370
   -1
100
AcDbLine
 10
199.9488988927688
 20
-155.1577142894711
 11
212.9488988927688
 21
-155.1577142894711
  0
LINE
  5
18F
100
AcDbEntity
  8
switches
  6
ByLayer
 62
  256
370
   -1
100
AcDbLine
 10
199.9488988927688
 20
-169.1577142894711
 11
212.9488988927688
 21
-169.1577142894711
  0
LINE
  5
190
100
AcDbEntity
  8
switches
  6
ByLayer
 62
  256
370
   -1
100
AcDbLine
 10
199.4488988927688
 20
-155.6577142894711
 11
199.4488988927688
 21
-168.6577142894711
  0
LINE
  5
191
100
AcDbEntity
  8
switches
  6
ByLayer
 62
  256
370
   -1
100
AcDbLine
 10
213.4488988927688
 20
-155.6577142894711
 11
213.4488988927688
 21
-168.6577142894711
  0
ARC
  5
192
100
AcDbEntity
  8
switches
  6
ByLayer
 62
  256
370
   -1
100
AcDbCircle
 10
199.9488988927688
 20
-155.6577142894711
 40
0.5
100
AcDbArc
 50
90
 51
180
  0
ARC
  5
193
100
AcDbEntity
  8
switches
  6
ByLayer
 62
  256
370
   -1
100
AcDbCircle
 10
212.9488988927688
 20
-155.6577142894711
 40
0.5
100
AcDbArc
 50
0
 51
90
  0
ARC
  5
194
100
AcDbEntity
  8
switches
  6
ByLayer
 62
  256
370
   -1
100
AcDbCircle
 10
199.9488988927688
 20
-168.6577142894711
 40
0.5
100
AcDbArc
 50
180
 51
270
  0
ARC
  5
195
100
AcDbEntity
  8
switches
  6
ByLayer
 62
  256
370
   -1
100
AcDbCircle
 10
212.9488988927688
 20
-168.6577142894711
 40
0.5
100
AcDbArc
 50
270
 51
0
  0
LINE
  5
196
100
AcDbEntity
  8
switches
  6
ByLayer
 62
  256
370
   -1
100
AcDbLine
 10
218.9988988927688
 20
-155.1577142894711
 11
231.9988988927688
 21
-155.1577142894711
  0
LINE
  5
197
100
AcDbEntity
  8
switches
  6
ByLayer
 62
  256
370
   -1
100
AcDbLine
 10
218.9988988927688
 20
-169.1577142894711
 11
231.9988988927688
 21
-169.1577142894711
  0
LINE
  5
198
100
AcDbEntity
  8
switches
  6
ByLayer
 62
  256
370
   -1
100
AcDbLine
 10
218.4988988927688
 20
-155.6577142894711
 11
218.4988988927688
 21
-168.6577142894711
  0
LINE
  5
199
100
AcDbEntity
  8
switches
  6
ByLayer
 62
  256
370
   -1
100
AcDbLine
 10
232.4988988927688
 20
-155.6577142894711
 11
232.4988988927688
 21
-168.6577142894711
  0
ARC
  5
19A
100
AcDbEntity
  8
switches
  6
ByLayer
 62
  256
370
   -1
100
AcDbCircle
 10
218.9988988927688
 20
-155.6577142894711
 40
0.5
100
AcDbArc
 50
90
 51
180
  0
ARC
  5
19B
100
AcDbEntity
  8
switches
  6
ByLayer
 62
  256
370
   -1
100
AcDbCircle
 10
231.9988988927688
 20
-155.6577142894711
 40
0.5
100
AcDbArc
 50
0
 51
90
  0
ARC
  5
19C
100
AcDbEntity
  8
switches
  6
ByLayer
 62
  256
370
   -1
100
AcDbCircle
 10
218.9988988927688
 20
-168.6577142894711
 40
0.5
100
AcDbArc
 50
180
 51
270
  0
ARC
  5
19D
100
AcDbEntity
  8
switches
  6
ByLayer
 62
  256
370
   -1
100
AcDbCircle
 10
231.9988988927688
 20
-168.6577142894711
 40
0.5
100
AcDbArc
 50
270
 51
0
  0
LINE
  5
19E
100
AcDbEntity
  8
switches
  6
ByLayer
 62
  256
370
   -1
100
AcDbLine
 10
111.8426488927688
 20
-174.2077142894711
 11
124.8426488927688
 21
-174.2077142894711
  0
LINE
  5
19F
100
AcDbEntity
  8
switches
  6
ByLayer
 62
  256
370
   -1
100
AcDbLine
 10
111.8426488927688
 20
-188.2077142894711
 11
124.8426488927688
 21
-188.2077142894711
  0
LINE
  5
1A0
100
AcDbEntity
  8
switches
  6
ByLayer
 62
  256
370
   -1
100
AcDbLine
 10
111.3426488927688
 20
-174.7077142894711
 11
111.3426488927688
 21
-187.7077142894711
  0
LINE
  5
1A1
100
AcDbEntity
  8
switches
  6
ByLayer
 62
  256
370
   -1
100
AcDbLine
 10
125.3426488927688
 20
-174.7077142894711
 11
125.3426488927688
 21
-187.7077142894711
  0
ARC
  5
1A2
100
AcDbEntity
  8
switches
  6
ByLayer
 62
  256
370
   -1
100
AcDbCircle
 10
111.8426488927688
 20
-174.7077142894711
 40
0.5
100
AcDbArc
 50
90
 51
180
  0
ARC
  5
1A3
100
AcDbEntity
  8
switches
  6
ByLayer
 62
  256
370
   -1
100
AcDbCircle
 10
124.8426488927688
 20
-174.7077142894711
 40
0.5
100
AcDbArc
 50
0
 51
90
  0
ARC
  5
1A4
100
AcDbEntity
  8
switches
  6
ByLayer
 62
  256
370
   -1
100
AcDbCircle
 10
111.8426488927688
 20
-187.7077142894711
 40
0.5
100
AcDbArc
 50
180
 51
270
  0
ARC
  5
1A5
100
AcDbEntity
  8
switches
  6
ByLayer
 62
  256
370
   -1
100
AcDbCircle
 10
124.8426488927688
 20
-187.7077142894711
 40
0.5
100
AcDbArc
 50
270
 51
0
  0
LINE
  5
1A6
100
AcDbEntity
  8
switches
  6
ByLayer
 62
  256
370
   -1
100
AcDbLine
 10
133.2738988927688
 20
-174.2077142894711
 11
146.2738988927688
 21
-174.2077142894711
  0
LINE
  5
1A7
100
AcDbEntity
  8
switches
  6
ByLayer
 62
  256
370
   -1
100
AcDbLine
 10
133.2738988927688
 20
-188.2077142894711
 11
146.2738988927688
 21
-188.2077142894711
  0
LINE
  5
1A8
100
AcDbEntity
  8
switches
  6
ByLayer
 62
  256
370
   -1
100
AcDbLine
 10
132.7738988927688
 20
-174.7077142894711
 11
132.7738988927688
 21
-187.7077142894711
  0
LINE
  5
1A9
100
AcDbEntity
  8
switches
  6
ByLayer
 62
  256
370
   -1
100
AcDbLine
 10
146.7738988927688
 20
-174.7077142894711
 11
146.7738988927688
 21
-187.7077142894711
  0
ARC
  5
1AA
100
AcDbEntity
  8
switches
  6
ByLayer
 62
  256
370
   -1
100
AcDbCircle
 10
133.2738988927688
 20
-174.7077142894711
 40
0.5
100
AcDbArc
 50
90
 51
180
  0
ARC
  5
1AB
100
AcDbEntity
  8
switches
  6
ByLayer
 62
  256
370
   -1
100
AcDbCircle
 10
146.2738988927688
 20
-174.7077142894711
 40
0.5
100
AcDbArc
 50
0
 51
90
  0
ARC
  5
1AC
100
AcDbEntity
  8
switches
  6
ByLayer
 62
  256
370
   -1
100
AcDbCircle
 10
133.2738988927688
 20
-187.7077142894711
 40
0.5
100
AcDbArc
 50
180
 51
270
  0
ARC
  5
1AD
100
AcDbEntity
  8
switches
  6
ByLayer
 62
  256
370
   -1
100
AcDbCircle
 10
146.2738988927688
 20
-187.7077142894711
 40
0.5
100
AcDbArc
 50
270
 51
0
  0
LINE
  5
1AE
100
AcDbEntity
  8
switches
  6
ByLayer
 62
  256
370
   -1
100
AcDbLine
 10
152.3238988927688
 20
-174.2077142894711
 11
165.3238988927688
 21
-174.2077142894711
  0
LINE
  5
1AF
100
AcDbEntity
  8
switches
  6
ByLayer
 62
  256
370
   -1
100
AcDbLine
 10
152.3238988927688
 20
-188.2077142894711
 11
165.3238988927688
 21
-188.2077142894711
  0
LINE
  5
1B0
100
AcDbEntity
  8
switches
  6
ByLayer
 62
  256
370
   -1
100
AcDbLine
 10
151.8238988927688
 20
-174.7077142894711
 11
151.8238988927688
 21
-187.7077142894711
  0
LINE
  5
1B1
100
AcDbEntity
  8
switches
  6
ByLayer
 62
  256
370
   -1
100
AcDbLine
 10
165.8238988927688
 20
-174.7077142894711
 11
165.8238988927688
 21
-187.7077142894711
  0
ARC
  5
1B2
100
AcDbEntity
  8
switches
  6
ByLayer
 62
  256
370
   -1
100
AcDbCircle
 10
152.3238988927688
 20
-174.7077142894711
 40
0.5
100
AcDbArc
 50
90
 51
180
  0
ARC
  5
1B3
100
AcDbEntity
  8
switches
  6
ByLayer
 62
  256
370
   -1
100
AcDbCircle
 10
165.3238988927688
 20
-174.7077142894711
 40
0.5
100
AcDbArc
 50
0
 51
90
  0
ARC
  5
1B4
100
AcDbEntity
  8
switches
  6
ByLayer
 62
  256
370
   -1
100
AcDbCircle
 10
152.3238988927688
 20
-187.7077142894711
 40
0.5
100
AcDbArc
 50
180
 51
270
  0
ARC
  5
1B5
100
AcDbEntity
  8
switches
  6
ByLayer
 62
  256
370
   -1
100
AcDbCircle
 10
165.3238988927688
 20
-187.7077142894711
 40
0.5
100
AcDbArc
 50
270
 51
0
  0
LINE
  5
1B6
100
AcDbEntity
  8
switches
  6
ByLayer
 62
  256
370
   -1
100
AcDbLine
 10
171.3738988927688
 20
-174.2077142894711
 11
184.3738988927688
 21
-174.2077142894711
  0
LINE
  5
1B7
100
AcDbEntity
  8
switches
  6
ByLayer
 62
  256
370
   -1
100
AcDbLine
 10
171.3738988927688
 20
-188.2077142894711
 11
184.3738988927688
 21
-188.2077142894711
  0
LINE
  5
1B8
100
AcDbEntity
  8
switches
  6
ByLayer
 62
  256
370
   -1
100
AcDbLine
 10
170.8738988927688
 20
-174.7077142894711
 11
170.8738988927688
 21
-187.7077142894711
  0
LINE
  5
1B9
100
AcDbEntity
  8
switches
  6
ByLayer
 62
  256
370
   -1
100
AcDbLine
 10
184.8738988927688
 20
-174.7077142894711
 11
184.8738988927688
 21
-187.7077142894711
  0
ARC
  5
1BA
100
AcDbEntity
  8
switches
  6
ByLayer
 62
  256
370
   -1
100
AcDbCircle
 10
171.3738988927688
 20
-174.7077142894711
 40
0.5
100
AcDbArc
 50
90
 51
180
  0
ARC
  5
1BB
100
AcDbEntity
  8
switches
  6
ByLayer
 62
  256
370
   -1
100
AcDbCircle
 10
184.3738988927688
 20
-174.7077142894711
 40
0.5
100
AcDbArc
 50
0
 51
90
  0
ARC
  5
1BC
100
AcDbEntity
  8
switches
  6
ByLayer
 62
  256
370
   -1
100
AcDbCircle
 10
171.3738988927688
 20
-187.7077142894711
 40
0.5
100
AcDbArc
 50
180
 51
270
  0
ARC
  5
1BD
100
AcDbEntity
  8
switches
  6
ByLayer
 62
  256
370
   -1
100
AcDbCircle
 10
184.3738988927688
 20
-187.7077142894711
 40
0.5
100
AcDbArc
 50
270
 51
0
  0
LINE
  5
1BE
100
AcDbEntity
  8
switches
  6
ByLayer
 62
  256
370
   -1
100
AcDbLine
 10
190.4238988927688
 20
-174.2077142894711
 11
203.4238988927688
 21
-174.2077142894711
  0
LINE
  5
1BF
100
AcDbEntity
  8
switches
  6
ByLayer
 62
  256
370
   -1
100
AcDbLine
 10
190.4238988927688
 20
-188.2077142894711
 11
203.4238988927688
 21
-188.2077142894711
  0
LINE
  5
1C0
100
AcDbEntity
  8
switches
  6
ByLayer
 62
  256
370
   -1
100
AcDbLine
 10
189.9238988927688
 20
-174.7077142894711
 11
189.9238988927688
 21
-187.7077142894711
  0
LINE
  5
1C1
100
AcDbEntity
  8
switches
  6
ByLayer
 62
  256
370
   -1
100
AcDbLine
 10
203.9238988927688
 20
-174.7077142894711
 11
203.9238988927688
 21
-187.7077142894711
  0
ARC
  5
1C2
100
AcDbEntity
  8
switches
  6
ByLayer
 62
  256
370
   -1
100
AcDbCircle
 10
190.4238988927688
 20
-174.7077142894711
 40
0.5
100
AcDbArc
 50
90
 51
180
  0
ARC
  5
1C3
100
AcDbEntity
  8
switches
  6
ByLayer
 62
  256
370
   -1
100
AcDbCircle
 10
203.4238988927688
 20
-174.7077142894711
 40
0.5
100
AcDbArc
 50
0
 51
90
  0
ARC
  5
1C4
100
AcDbEntity
  8
switches
  6
ByLayer
 62
  256
370
   -1
100
AcDbCircle
 10
190.4238988927688
 20
-187.7077142894711
 40
0.5
100
AcDbArc
 50
180
 51
270
  0
ARC
  5
1C5
100
AcDbEntity
  8
switches
  6
ByLayer
 62
  256
370
   -1
100
AcDbCircle
 10
203.4238988927688
 20
-187.7077142894711
 40
0.5
100
AcDbArc
 50
270
 51
0
  0
LINE
  5
1C6
100
AcDbEntity
  8
switches
  6
ByLayer
 62
  256
370
   -1
100
AcDbLine
 10
209.4738988927688
 20
-174.2077142894711
 11
222.4738988927688
 21
-174.2077142894711
  0
LINE
  5
1C7
100
AcDbEntity
  8
switches
  6
ByLayer
 62
  256
370
   -1
100
AcDbLine
 10
209.4738988927688
 20
-188.2077142894711
 11
222.4738988927688
 21
-188.2077142894711
  0
LINE
  5
1C8
100
AcDbEntity
  8
switches
  6
ByLayer
 62
  256
370
   -1
100
AcDbLine
 10
208.9738988927688
 20
-174.7077142894711
 11
208.9738988927688
 21
-187.7077142894711
  0
LINE
  5
1C9
100
AcDbEntity
  8
switches
  6
ByLayer
 62
  256
370
   -1
100
AcDbLine
 10
222.9738988927688
 20
-174.7077142894711
 11
222.9738988927688
 21
-187.7077142894711
  0
ARC
  5
1CA
100
AcDbEntity
  8
switches
  6
ByLayer
 62
  256
370
   -1
100
AcDbCircle
 10
209.4738988927688
 20
-174.7077142894711
 40
0.5
100
AcDbArc
 50
90
 51
180
  0
ARC
  5
1CB
100
AcDbEntity
  8
switches
  6
ByLayer
 62
  256
370
   -1
100
AcDbCircle
 10
222.4738988927688
 20
-174.7077142894711
 40
0.5
100
AcDbArc
 50
0
 51
90
  0
ARC
  5
1CC
100
AcDbEntity
  8
switches
  6
ByLayer
 62
  256
370
   -1
100
AcDbCircle
 10
209.4738988927688
 20
-187.7077142894711
 40
0.5
100
AcDbArc
 50
180
 51
270
  0
ARC
  5
1CD
100
AcDbEntity
  8
switches
  6
ByLayer
 62
  256
370
   -1
100
AcDbCircle
 10
222.4738988927688
 20
-187.7077142894711
 40
0.5
100
AcDbArc
 50
270
 51
0
  0
LINE
  5
1CE
100
AcDbEntity
  8
switches
  6
ByLayer
 62
  256
370
   -1
100
AcDbLine
 10
228.5238988927688
 20
-174.2077142894711
 11
241.5238988927688
 21
-174.2077142894711
  0
LINE
  5
1CF
100
AcDbEntity
  8
switches
  6
ByLayer
 62
  256
370
   -1
100
AcDbLine
 10
228.5238988927688
 20
-188.2077142894711
 11
241.5238988927688
 21
-188.2077142894711
  0
LINE
  5
1D0
100
AcDbEntity
  8
switches
  6
ByLayer
 62
  256
370
   -1
100
AcDbLine
 10
228.0238988927688
 20
-174.7077142894711
 11
228.0238988927688
 21
-187.7077142894711
  0
LINE
  5
1D1
100
AcDbEntity
  8
switches
  6
ByLayer
 62
  256
370
   -1
100
AcDbLine
 10
242.0238988927688
 20
-174.7077142894711
 11
242.0238988927688
 21
-187.7077142894711
  0
ARC
  5
1D2
100
AcDbEntity
  8
switches
  6
ByLayer
 62
  256
370
   -1
100
AcDbCircle
 10
228.5238988927688
 20
-174.7077142894711
 40
0.5
100
AcDbArc
 50
90
 51
180
  0
ARC
  5
1D3
100
AcDbEntity
  8
switches
  6
ByLayer
 62
  256
370
   -1
100
AcDbCircle
 10
241.5238988927688
 20
-174.7077142894711
 40
0.5
100
AcDbArc
 50
0
 51
90
  0
ARC
  5
1D4
100
AcDbEntity
  8
switches
  6
ByLayer
 62
  256
370
   -1
100
AcDbCircle
 10
228.5238988927688
 20
-187.7077142894711
 40
0.5
100
AcDbArc
 50
180
 51
270
  0
ARC
  5
1D5
100
AcDbEntity
  8
switches
  6
ByLayer
 62
  256
370
   -1
100
AcDbCircle
 10
241.5238988927688
 20
-187.7077142894711
 40
0.5
100
AcDbArc
 50
270
 51
0
  0
LINE
  5
1D6
100
AcDbEntity
  8
switches
  6
ByLayer
 62
  256
370
   -1
100
AcDbLine
 10
111.8426488927688
 20
-193.2577142894711
 11
124.8426488927688
 21
-193.2577142894711
  0
LINE
  5
1D7
100
AcDbEntity
  8
switches
  6
ByLayer
 62
  256
370
   -1
100
AcDbLine
 10
111.8426488927688
 20
-207.2577142894711
 11
124.8426488927688
 21
-207.2577142894711
  0
LINE
  5
1D8
100
AcDbEntity
  8
switches
  6
ByLayer
 62
  256
370
   -1
100
AcDbLine
 10
111.3426488927688
 20
-193.7577142894711
 11
111.3426488927688
 21
-206.7577142894711
  0
LINE
  5
1D9
100
AcDbEntity
  8
switches
  6
ByLayer
 62
  256
370
   -1
100
AcDbLine
 10
125.3426488927688
 20
-193.7577142894711
 11
125.3426488927688
 21
-206.7577142894711
  0
ARC
  5
1DA
100
AcDbEntity
  8
switches
  6
ByLayer
 62
  256
370
   -1
100
AcDbCircle
 10
111.8426488927688
 20
-193.7577142894711
 40
0.5
100
AcDbArc
 50
90
 51
180
  0
ARC
  5
1DB
100
AcDbEntity
  8
switches
  6
ByLayer
 62
  256
370
   -1
100
AcDbCircle
 10
124.8426488927688
 20
-193.7577142894711
 40
0.5
100
AcDbArc
 50
0
 51
90
  0
ARC
  5
1DC
100
AcDbEntity
  8
switches
  6
ByLayer
 62
  256
370
   -1
100
AcDbCircle
 10
111.8426488927688
 20
-206.7577142894711
 40
0.5
100
AcDbArc
 50
180
 51
270
  0
ARC
  5
1DD
100
AcDbEntity
  8
switches
  6
ByLayer
 62
  256
370
   -1
100
AcDbCircle
 10
124.8426488927688
 20
-206.7577142894711
 40
0.5
100
AcDbArc
 50
270
 51
0
  0
LINE
  5
1DE
100
AcDbEntity
  8
switches
  6
ByLayer
 62
  256
370
   -1
100
AcDbLine
 10
135.6551488927688
 20
-193.2577142894711
 11
148.6551488927688
 21
-193.2577142894711
  0
LINE
  5
1DF
100
AcDbEntity
  8
switches
  6
ByLayer
 62
  256
370
   -1
100
AcDbLine
 10
135.6551488927688
 20
-207.2577142894711
 11
148.6551488927688
 21
-207.2577142894711
  0
LINE
  5
1E0
100
AcDbEntity
  8
switches
  6
ByLayer
 62
  256
370
   -1
100
AcDbLine
 10
135.1551488927688
 20
-193.7577142894711
 11
135.1551488927688
 21
-206.7577142894711
  0
LINE
  5
1E1
100
AcDbEntity
  8
switches
  6
ByLayer
 62
  256
370
   -1
100
AcDbLine
 10
149.1551488927688
 20
-193.7577142894711
 11
149.1551488927688
 21
-206.7577142894711
  0
ARC
  5
1E2
100
AcDbEntity
  8
switches
  6
ByLayer
 62
  256
370
   -1
100
AcDbCircle
 10
135.6551488927688
 20
-193.7577142894711
 40
0.5
100
AcDbArc
 50
90
 51
180
  0
ARC
  5
1E3
100
AcDbEntity
  8
switches
  6
ByLayer
 62
  256
370
   -1
100
AcDbCircle
 10
148.6551488927688
 20
-193.7577142894711
 40
0.5
100
AcDbArc
 50
0
 51
90
  0
ARC
  5
1E4
100
AcDbEntity
  8
switches
  6
ByLayer
 62
  256
370
   -1
100
AcDbCircle
 10
135.6551488927688
 20
-206.7577142894711
 40
0.5
100
AcDbArc
 50
180
 51
270
  0
ARC
  5
1E5
100
AcDbEntity
  8
switches
  6
ByLayer
 62
  256
370
   -1
100
AcDbCircle
 10
148.6551488927688
 20
-206.7577142894711
 40
0.5
100
AcDbArc
 50
270
 51
0
  0
LINE
  5
1E6
100
AcDbEntity
  8
switches
  6
ByLayer
 62
  256
370
   -1
100
AcDbLine
 10
159.4676488927688
 20
-193.2577142894711
 11
172.4676488927688
 21
-193.2577142894711
  0
LINE
  5
1E7
100
AcDbEntity
  8
switches
  6
ByLayer
 62
  256
370
   -1
100
AcDbLine
 10
159.4676488927688
 20
-207.2577142894711
 11
172.4676488927688
 21
-207.2577142894711
  0
LINE
  5
1E8
100
AcDbEntity
  8
switches
  6
ByLayer
 62
  256
370
   -1
100
AcDbLine
 10
158.9676488927688
 20
-193.7577142894711
 11
158.9676488927688
 21
-206.7577142894711
  0
LINE
  5
1E9
100
AcDbEntity
  8
switches
  6
ByLayer
 62
  256
370
   -1
100
AcDbLine
 10
172.9676488927688
 20
-193.7577142894711
 11
172.9676488927688
 21
-206.7577142894711
  0
ARC
  5
1EA
100
AcDbEntity
  8
switches
  6
ByLayer
 62
  256
370
   -1
100
AcDbCircle
 10
159.4676488927688
 20
-193.7577142894711
 40
0.5
100
AcDbArc
 50
90
 51
180
  0
ARC
  5
1EB
100
AcDbEntity
  8
switches
  6
ByLayer
 62
  256
370
   -1
100
AcDbCircle
 10
172.4676488927688
 20
-193.7577142894711
 40
0.5
100
AcDbArc
 50
0
 51
90
  0
ARC
  5
1EC
100
AcDbEntity
  8
switches
  6
ByLayer
 62
  256
370
   -1
100
AcDbCircle
 10
159.4676488927688
 20
-206.7577142894711
 40
0.5
100
AcDbArc
 50
180
 51
270
  0
ARC
  5
1ED
100
AcDbEntity
  8
switches
  6
ByLayer
 62
  256
370
   -1
100
AcDbCircle
 10
172.4676488927688
 20
-206.7577142894711
 40
0.5
100
AcDbArc
 50
270
 51
0
  0
LINE
  5
1EE
100
AcDbEntity
  8
switches
  6
ByLayer
 62
  256
370
   -1
100
AcDbLine
 10
183.2801488927688
 20
-193.2577142894711
 11
196.2801488927688
 21
-193.2577142894711
  0
LINE
  5
1EF
100
AcDbEntity
  8
switches
  6
ByLayer
 62
  256
370
   -1
100
AcDbLine
 10
183.2801488927688
 20
-207.2577142894711
 11
196.2801488927688
 21
-207.2577142894711
  0
LINE
  5
1F0
100
AcDbEntity
  8
switches
  6
ByLayer
 62
  256
370
   -1
100
AcDbLine
 10
182.7801488927688
 20
-193.7577142894711
 11
182.7801488927688
 21
-206.7577142894711
  0
LINE
  5
1F1
100
AcDbEntity
  8
switches
  6
ByLayer
 62
  256
370
   -1
100
AcDbLine
 10
196.7801488927688
 20
-193.7577142894711
 11
196.7801488927688
 21
-206.7577142894711
  0
ARC
  5
1F2
100
AcDbEntity
  8
switches
  6
ByLayer
 62
  256
370
   -1
100
AcDbCircle
 10
183.2801488927688
 20
-193.7577142894711
 40
0.5
100
AcDbArc
 50
90
 51
180
  0
ARC
  5
1F3
100
AcDbEntity
  8
switches
  6
ByLayer
 62
  256
370
   -1
100
AcDbCircle
 10
196.2801488927688
 20
-193.7577142894711
 40
0.5
100
AcDbArc
 50
0
 51
90
  0
ARC
  5
1F4
100
AcDbEntity
  8
switches
  6
ByLayer
 62
  256
370
   -1
100
AcDbCircle
 10
183.2801488927688
 20
-206.7577142894711
 40
0.5
100
AcDbArc
 50
180
 51
270
  0
ARC
  5
1F5
100
AcDbEntity
  8
switches
  6
ByLayer
 62
  256
370
   -1
100
AcDbCircle
 10
196.2801488927688
 20
-206.7577142894711
 40
0.5
100
AcDbArc
 50
270
 51
0
  0
LINE
  5
1F6
100
AcDbEntity
  8
switches
  6
ByLayer
 62
  256
370
   -1
100
AcDbLine
 10
216.6176488927688
 20
-193.2577142894711
 11
229.6176488927688
 21
-193.2577142894711
  0
LINE
  5
1F7
100
AcDbEntity
  8
switches
  6
ByLayer
 62
  256
370
   -1
100
AcDbLine
 10
216.6176488927688
 20
-207.2577142894711
 11
229.6176488927688
 21
-207.2577142894711
  0
LINE
  5
1F8
100
AcDbEntity
  8
switches
  6
ByLayer
 62
  256
370
   -1
100
AcDbLine
 10
216.1176488927688
 20
-193.7577142894711
 11
216.1176488927688
 21
-206.7577142894711
  0
LINE
  5
1F9
100
AcDbEntity
  8
switches
  6
ByLayer
 62
  256
370
   -1
100
AcDbLine
 10
230.1176488927688
 20
-193.7577142894711
 11
230.1176488927688
 21
-206.7577142894711
  0
ARC
  5
1FA
100
AcDbEntity
  8
switches
  6
ByLayer
 62
  256
370
   -1
100
AcDbCircle
 10
216.6176488927688
 20
-193.7577142894711
 40
0.5
100
AcDbArc
 50
90
 51
180
  0
ARC
  5
1FB
100
AcDbEntity
  8
switches
  6
ByLayer
 62
  256
370
   -1
100
AcDbCircle
 10
229.6176488927688
 20
-193.7577142894711
 40
0.5
100
AcDbArc
 50
0
 51
90
  0
ARC
  5
1FC
100
AcDbEntity
  8
switches
  6
ByLayer
 62
  256
370
   -1
100
AcDbCircle
 10
216.6176488927688
 20
-206.7577142894711
 40
0.5
100
AcDbArc
 50
180
 51
270
  0
ARC
  5
1FD
100
AcDbEntity
  8
switches
  6
ByLayer
 62
  256
370
   -1
100
AcDbCircle
 10
229.6176488927688
 20
-206.7577142894711
 40
0.5
100
AcDbArc
 50
270
 51
0
  0
LINE
  5
1FE
100
AcDbEntity
  8
switches
  6
ByBlock
 62
  256
370
   -1
100
AcDbLine
 10
61.33639889276865
 20
-150.1077132941164
 11
75.33639889276883
 21
-150.1077132941164
  0
LINE
  5
1FF
100
AcDbEntity
  8
switches
  6
ByBlock
 62
  256
370
   -1
100
AcDbLine
 10
80.38639889276884
 20
-150.1077132941164
 11
94.3863988927687
 21
-150.1077132941164
  0
ARC
  5
200
100
AcDbEntity
  8
switches
  6
ByBlock
 62
  256
370
   -1
100
AcDbCircle
 10
61.83639889276865
 20
-92.74521329436604
 40
0.5
100
AcDbArc
 50
90
 51
180
  0
LINE
  5
201
100
AcDbEntity
  8
switches
  6
ByBlock
 62
  256
370
   -1
100
AcDbLine
 10
74.83639889276883
 20
-92.24521329436604
 11
61.83639889276865
 21
-92.24521329436604
  0
ARC
  5
202
100
AcDbEntity
  8
switches
  6
ByBlock
 62
  256
370
   -1
100
AcDbCircle
 10
74.83639889276883
 20
-92.74521329436604
 40
0.5
100
AcDbArc
 50
0
 51
90
  0
LINE
  5
203
100
AcDbEntity
  8
switches
  6
ByBlock
 62
  256
370
   -1
100
AcDbLine
 10
75.33639889276883
 20
-108.245213293741
 11
75.33639889276883
 21
-92.74521329436604
  0
ARC
  5
204
100
AcDbEntity
  8
switches
  6
ByBlock
 62
  256
370
   -1
100
AcDbCircle
 10
74.83639889276883
 20
-108.245213293741
 40
0.5
100
AcDbArc
 50
270
 51
0
  0
LINE
  5
205
100
AcDbEntity
  8
switches
  6
ByBlock
 62
  256
370
   -1
100
AcDbLine
 10
61.83639889276865
 20
-108.745213293741
 11
74.83639889276883
 21
-108.745213293741
  0
LINE
  5
206
100
AcDbEntity
  8
switches
  6
ByBlock
 62
  256
370
   -1
100
AcDbLine
 10
61.33639889276865
 20
-92.74521329436604
 11
61.33639889276865
 21
-108.245213293741
  0
ARC
  5
207
100
AcDbEntity
  8
switches
  6
ByBlock
 62
  256
370
   -1
100
AcDbCircle
 10
61.83639889276865
 20
-108.245213293741
 40
0.5
100
AcDbArc
 50
180
 51
270
  0
ARC
  5
208
100
AcDbEntity
  8
switches
  6
ByBlock
 62
  256
370
   -1
100
AcDbCircle
 10
61.83639889276865
 20
-117.5577132941161
 40
0.5
100
AcDbArc
 50
90
 51
180
  0
LINE
  5
209
100
AcDbEntity
  8
switches
  6
ByBlock
 62
  256
370
   -1
100
AcDbLine
 10
74.83639889276883
 20
-117.0577132941161
 11
61.83639889276865
 21
-117.0577132941161
  0
ARC
  5
20A
100
AcDbEntity
  8
switches
  6
ByBlock
 62
  256
370
   -1
100
AcDbCircle
 10
74.83639889276883
 20
-117.5577132941161
 40
0.5
100
AcDbArc
 50
0
 51
90
  0
ARC
  5
20B
100
AcDbEntity
  8
switches
  6
ByBlock
 62
  256
370
   -1
100
AcDbCircle
 10
80.88639889276884
 20
-117.5577132941161
 40
0.5
100
AcDbArc
 50
90
 51
180
  0
LINE
  5
20C
100
AcDbEntity
  8
switches
  6
ByBlock
 62
  256
370
   -1
100
AcDbLine
 10
93.8863988927687
 20
-117.0577132941161
 11
80.88639889276884
 21
-117.0577132941161
  0
ARC
  5
20D
100
AcDbEntity
  8
switches
  6
ByBlock
 62
  256
370
   -1
100
AcDbCircle
 10
93.8863988927687
 20
-117.5577132941161
 40
0.5
100
AcDbArc
 50
0
 51
90
  0
LINE
  5
20E
100
AcDbEntity
  8
switches
  6
ByBlock
 62
  256
370
   -1
100
AcDbLine
 10
61.33639889276865
 20
-117.5577132941161
 11
61.33639889276865
 21
-130.5577132941162
  0
ARC
  5
20F
100
AcDbEntity
  8
switches
  6
ByBlock
 62
  256
370
   -1
100
AcDbCircle
 10
61.83639889276865
 20
-130.5577132941162
 40
0.5
100
AcDbArc
 50
180
 51
270
  0
LINE
  5
210
100
AcDbEntity
  8
switches
  6
ByBlock
 62
  256
370
   -1
100
AcDbLine
 10
61.83639889276865
 20
-131.0577132941162
 11
74.83639889276883
 21
-131.0577132941162
  0
LINE
  5
211
100
AcDbEntity
  8
switches
  6
ByBlock
 62
  256
370
   -1
100
AcDbLine
 10
75.33639889276883
 20
-130.5577132941162
 11
75.33639889276883
 21
-117.5577132941161
  0
ARC
  5
212
100
AcDbEntity
  8
switches
  6
ByBlock
 62
  256
370
   -1
100
AcDbCircle
 10
74.83639889276883
 20
-130.5577132941162
 40
0.5
100
AcDbArc
 50
270
 51
0
  0
LINE
  5
213
100
AcDbEntity
  8
switches
  6
ByBlock
 62
  256
370
   -1
100
AcDbLine
 10
80.38639889276884
 20
-117.5577132941161
 11
80.38639889276884
 21
-130.5577132941162
  0
ARC
  5
214
100
AcDbEntity
  8
switches
  6
ByBlock
 62
  256
370
   -1
100
AcDbCircle
 10
80.88639889276884
 20
-130.5577132941162
 40
0.5
100
AcDbArc
 50
180
 51
270
  0
LINE
  5
215
100
AcDbEntity
  8
switches
  6
ByBlock
 62
  256
370
   -1
100
AcDbLine
 10
80.88639889276884
 20
-131.0577132941162
 11
93.8863988927687
 21
-131.0577132941162
  0
LINE
  5
216
100
AcDbEntity
  8
switches
  6
ByBlock
 62
  256
370
   -1
100
AcDbLine
 10
94.3863988927687
 20
-130.5577132941162
 11
94.3863988927687
 21
-117.5577132941161
  0
ARC
  5
217
100
AcDbEntity
  8
switches
  6
ByBlock
 62
  256
370
   -1
100
AcDbCircle
 10
93.8863988927687
 20
-130.5577132941162
 40
0.5
100
AcDbArc
 50
270
 51
0
  0
LINE
  5
218
100
AcDbEntity
  8
switches
  6
ByBlock
 62
  256
370
   -1
100
AcDbLine
 10
61.33639889276865
 20
-136.6077132941159
 11
61.33639889276865
 21
-150.1077132941164
  0
ARC
  5
219
100
AcDbEntity
  8
switches
  6
ByBlock
 62
  256
370
   -1
100
AcDbCircle
 10
61.83639889276865
 20
-136.6077132941159
 40
0.5
100
AcDbArc
 50
90
 51
180
  0
LINE
  5
21A
100
AcDbEntity
  8
switches
  6
ByBlock
 62
  256
370
   -1
100
AcDbLine
 10
74.83639889276883
 20
-136.1077132941159
 11
61.83639889276865
 21
-136.1077132941159
  0
LINE
  5
21B
100
AcDbEntity
  8
switches
  6
ByBlock
 62
  256
370
   -1
100
AcDbLine
 10
75.33639889276883
 20
-150.1077132941164
 11
75.33639889276883
 21
-136.6077132941159
  0
ARC
  5
21C
100
AcDbEntity
  8
switches
  6
ByBlock
 62
  256
370
   -1
100
AcDbCircle
 10
74.83639889276883
 20
-136.6077132941159
 40
0.5
100
AcDbArc
 50
0
 51
90
  0
LINE
  5
21D
100
AcDbEntity
  8
switches
  6
ByBlock
 62
  256
370
   -1
100
AcDbLine
 10
80.38639889276884
 20
-136.6077132941159
 11
80.38639889276884
 21
-150.1077132941164
  0
ARC
  5
21E
100
AcDbEntity
  8
switches
  6
ByBlock
 62
  256
370
   -1
100
AcDbCircle
 10
80.88639889276884
 20
-136.6077132941159
 40
0.5
100
AcDbArc
 50
90
 51
180
  0
LINE
  5
21F
100
AcDbEntity
  8
switches
  6
ByBlock
 62
  256
370
   -1
100
AcDbLine
 10
93.8863988927687
 20
-136.1077132941159
 11
80.88639889276884
 21
-136.1077132941159
  0
LINE
  5
220
100
AcDbEntity
  8
switches
  6
ByBlock
 62
  256
370
   -1
100
AcDbLine
 10
94.3863988927687
 20
-150.1077132941164
 11
94.3863988927687
 21
-136.6077132941159
  0
ARC
  5
221
100
AcDbEntity
  8
switches
  6
ByBlock
 62
  256
370
   -1
100
AcDbCircle
 10
93.8863988927687
 20
-136.6077132941159
 40
0.5
100
AcDbArc
 50
0
 51
90
  0
ARC
  5
222
100
AcDbEntity
  8
switches
  6
ByBlock
 62
  256
370
   -1
100
AcDbCircle
 10
61.83639889276866
 20
-155.6577132941164
 40
0.5
100
AcDbArc
 50
90
 51
180
  0
LINE
  5
223
100
AcDbEntity
  8
switches
  6
ByBlock
 62
  256
370
   -1
100
AcDbLine
 10
74.83639889276883
 20
-155.1577132941164
 11
61.83639889276866
 21
-155.1577132941164
  0
ARC
  5
224
100
AcDbEntity
  8
switches
  6
ByBlock
 62
  256
370
   -1
100
AcDbCircle
 10
74.83639889276883
 20
-155.6577132941164
 40
0.5
100
AcDbArc
 50
0
 51
90
  0
ARC
  5
225
100
AcDbEntity
  8
switches
  6
ByBlock
 62
  256
370
   -1
100
AcDbCircle
 10
80.88639889276884
 20
-155.6577132941164
 40
0.5
100
AcDbArc
 50
90
 51
180
  0
LINE
  5
226
100
AcDbEntity
  8
switches
  6
ByBlock
 62
  256
370
   -1
100
AcDbLine
 10
93.8863988927687
 20
-155.1577132941164
 11
80.88639889276884
 21
-155.1577132941164
  0
ARC
  5
227
100
AcDbEntity
  8
switches
  6
ByBlock
 62
  256
370
   -1
100
AcDbCircle
 10
93.8863988927687
 20
-155.6577132941164
 40
0.5
100
AcDbArc
 50
0
 51
90
  0
LINE
  5
228
100
AcDbEntity
  8
switches
  6
ByBlock
 62
  256
370
   -1
100
AcDbLine
 10
94.3863988927687
 20
-168.6577132941156
 11
94.3863988927687
 21
-155.6577132941164
  0
ARC
  5
229
100
AcDbEntity
  8
switches
  6
ByBlock
 62
  256
370
   -1
100
AcDbCircle
 10
93.8863988927687
 20
-168.6577132941156
 40
0.5
100
AcDbArc
 50
270
 51
0
  0
LINE
  5
22A
100
AcDbEntity
  8
switches
  6
ByBlock
 62
  256
370
   -1
100
AcDbLine
 10
80.88639889276884
 20
-169.1577132941156
 11
93.8863988927687
 21
-169.1577132941156
  0
LINE
  5
22B
100
AcDbEntity
  8
switches
  6
ByBlock
 62
  256
370
   -1
100
AcDbLine
 10
80.38639889276884
 20
-155.6577132941164
 11
80.38639889276884
 21
-168.6577132941156
  0
ARC
  5
22C
100
AcDbEntity
  8
switches
  6
ByBlock
 62
  256
370
   -1
100
AcDbCircle
 10
80.88639889276884
 20
-168.6577132941156
 40
0.5
100
AcDbArc
 50
180
 51
270
  0
LINE
  5
22D
100
AcDbEntity
  8
switches
  6
ByBlock
 62
  256
370
   -1
100
AcDbLine
 10
75.33639889276883
 20
-168.6577132941156
 11
75.33639889276883
 21
-155.6577132941164
  0
ARC
  5
22E
100
AcDbEntity
  8
switches
  6
ByBlock
 62
  256
370
   -1
100
AcDbCircle
 10
74.83639889276883
 20
-168.6577132941156
 40
0.5
100
AcDbArc
 50
270
 51
0
  0
LINE
  5
22F
100
AcDbEntity
  8
switches
  6
ByBlock
 62
  256
370
   -1
100
AcDbLine
 10
61.83639889276865
 20
-169.1577132941156
 11
74.83639889276883
 21
-169.1577132941156
  0
LINE
  5
230
100
AcDbEntity
  8
switches
  6
ByBlock
 62
  256
370
   -1
100
AcDbLine
 10
61.33639889276865
 20
-155.6577132941164
 11
61.33639889276865
 21
-168.6577132941156
  0
ARC
  5
231
100
AcDbEntity
  8
switches
  6
ByBlock
 62
  256
370
   -1
100
AcDbCircle
 10
61.83639889276865
 20
-168.6577132941156
 40
0.5
100
AcDbArc
 50
180
 51
270
  0
ARC
  5
232
100
AcDbEntity
  8
switches
  6
ByBlock
 62
  256
370
   -1
100
AcDbCircle
 10
61.83639889276866
 20
-174.7077132941166
 40
0.5
100
AcDbArc
 50
90
 51
180
  0
LINE
  5
233
100
AcDbEntity
  8
switches
  6
ByBlock
 62
  256
370
   -1
100
AcDbLine
 10
74.83639889276883
 20
-174.2077132941166
 11
61.83639889276866
 21
-174.2077132941166
  0
ARC
  5
234
100
AcDbEntity
  8
switches
  6
ByBlock
 62
  256
370
   -1
100
AcDbCircle
 10
74.83639889276883
 20
-174.7077132941166
 40
0.5
100
AcDbArc
 50
0
 51
90
  0
LINE
  5
235
100
AcDbEntity
  8
switches
  6
ByBlock
 62
  256
370
   -1
100
AcDbLine
 10
75.33639889276883
 20
-187.7077132941158
 11
75.33639889276883
 21
-174.7077132941166
  0
ARC
  5
236
100
AcDbEntity
  8
switches
  6
ByBlock
 62
  256
370
   -1
100
AcDbCircle
 10
74.83639889276883
 20
-187.7077132941158
 40
0.5
100
AcDbArc
 50
270
 51
0
  0
LINE
  5
237
100
AcDbEntity
  8
switches
  6
ByBlock
 62
  256
370
   -1
100
AcDbLine
 10
61.83639889276865
 20
-188.2077132941158
 11
74.83639889276883
 21
-188.2077132941158
  0
LINE
  5
238
100
AcDbEntity
  8
switches
  6
ByBlock
 62
  256
370
   -1
100
AcDbLine
 10
61.33639889276865
 20
-174.7077132941166
 11
61.33639889276865
 21
-187.7077132941158
  0
ARC
  5
239
100
AcDbEntity
  8
switches
  6
ByBlock
 62
  256
370
   -1
100
AcDbCircle
 10
61.83639889276865
 20
-187.7077132941158
 40
0.5
100
AcDbArc
 50
180
 51
270
  0
ARC
  5
23A
100
AcDbEntity
  8
switches
  6
ByBlock
 62
  256
370
   -1
100
AcDbCircle
 10
80.88639889276884
 20
-187.7077132941158
 40
0.5
100
AcDbArc
 50
180
 51
270
  0
LINE
  5
23B
100
AcDbEntity
  8
switches
  6
ByBlock
 62
  256
370
   -1
100
AcDbLine
 10
80.88639889276884
 20
-188.2077132941158
 11
93.8863988927687
 21
-188.2077132941158
  0
ARC
  5
23C
100
AcDbEntity
  8
switches
  6
ByBlock
 62
  256
370
   -1
100
AcDbCircle
 10
93.8863988927687
 20
-187.7077132941158
 40
0.5
100
AcDbArc
 50
270
 51
0
  0
LINE
  5
23D
100
AcDbEntity
  8
switches
  6
ByBlock
 62
  256
370
   -1
100
AcDbLine
 10
94.3863988927687
 20
-187.7077132941158
 11
94.3863988927687
 21
-174.7077132941166
  0
ARC
  5
23E
100
AcDbEntity
  8
switches
  6
ByBlock
 62
  256
370
   -1
100
AcDbCircle
 10
93.8863988927687
 20
-174.7077132941166
 40
0.5
100
AcDbArc
 50
0
 51
90
  0
LINE
  5
23F
100
AcDbEntity
  8
switches
  6
ByBlock
 62
  256
370
   -1
100
AcDbLine
 10
93.8863988927687
 20
-174.2077132941166
 11
80.88639889276884
 21
-174.2077132941166
  0
LINE
  5
240
100
AcDbEntity
  8
switches
  6
ByBlock
 62
  256
370
   -1
100
AcDbLine
 10
80.38639889276884
 20
-174.7077132941166
 11
80.38639889276884
 21
-187.7077132941158
  0
ARC
  5
241
100
AcDbEntity
  8
switches
  6
ByBlock
 62
  256
370
   -1
100
AcDbCircle
 10
80.88639889276884
 20
-174.7077132941166
 40
0.5
100
AcDbArc
 50
90
 51
180
  0
ARC
  5
242
100
AcDbEntity
  8
switches
  6
ByBlock
 62
  256
370
   -1
100
AcDbCircle
 10
93.8863988927687
 20
-193.7577132941155
 40
0.5
100
AcDbArc
 50
0
 51
90
  0
LINE
  5
243
100
AcDbEntity
  8
switches
  6
ByBlock
 62
  256
370
   -1
100
AcDbLine
 10
93.8863988927687
 20
-193.2577132941155
 11
80.88639889276884
 21
-193.2577132941155
  0
ARC
  5
244
100
AcDbEntity
  8
switches
  6
ByBlock
 62
  256
370
   -1
100
AcDbCircle
 10
80.88639889276884
 20
-193.7577132941155
 40
0.5
100
AcDbArc
 50
90
 51
180
  0
ARC
  5
245
100
AcDbEntity
  8
switches
  6
ByBlock
 62
  256
370
   -1
100
AcDbCircle
 10
74.83639889276883
 20
-193.7577132941155
 40
0.5
100
AcDbArc
 50
0
 51
90
  0
LINE
  5
246
100
AcDbEntity
  8
switches
  6
ByBlock
 62
  256
370
   -1
100
AcDbLine
 10
74.83639889276883
 20
-193.2577132941155
 11
61.83639889276865
 21
-193.2577132941155
  0
ARC
  5
247
100
AcDbEntity
  8
switches
  6
ByBlock
 62
  256
370
   -1
100
AcDbCircle
 10
61.83639889276865
 20
-193.7577132941155
 40
0.5
100
AcDbArc
 50
90
 51
180
  0
LINE
  5
248
100
AcDbEntity
  8
switches
  6
ByBlock
 62
  256
370
   -1
100
AcDbLine
 10
61.33639889276865
 20
-193.7577132941155
 11
61.33639889276865
 21
-206.757713294116
  0
ARC
  5
249
100
AcDbEntity
  8
switches
  6
ByBlock
 62
  256
370
   -1
100
AcDbCircle
 10
61.83639889276865
 20
-206.757713294116
 40
0.5
100
AcDbArc
 50
180
 51
270
  0
LINE
  5
24A
100
AcDbEntity
  8
switches
  6
ByBlock
 62
  256
370
   -1
100
AcDbLine
 10
61.83639889276865
 20
-207.257713294116
 11
74.83639889276883
 21
-207.257713294116
  0
LINE
  5
24B
100
AcDbEntity
  8
switches
  6
ByBlock
 62
  256
370
   -1
100
AcDbLine
 10
75.33639889276883
 20
-206.757713294116
 11
75.33639889276883
 21
-193.7577132941155
  0
ARC
  5
24C
100
AcDbEntity
  8
switches
  6
ByBlock
 62
  256
370
   -1
100
AcDbCircle
 10
74.83639889276883
 20
-206.757713294116
 40
0.5
100
AcDbArc
 50
270
 51
0
  0
LINE
  5
24D
100
AcDbEntity
  8
switches
  6
ByBlock
 62
  256
370
   -1
100
AcDbLine
 10
80.38639889276884
 20
-193.7577132941155
 11
80.38639889276884
 21
-206.757713294116
  0
ARC
  5
24E
100
AcDbEntity
  8
switches
  6
ByBlock
 62
  256
370
   -1
100
AcDbCircle
 10
80.88639889276884
 20
-206.757713294116
 40
0.5
100
AcDbArc
 50
180
 51
270
  0
LINE
  5
24F
100
AcDbEntity
  8
switches
  6
ByBlock
 62
  256
370
   -1
100
AcDbLine
 10
80.88639889276884
 20
-207.257713294116
 11
93.8863988927687
 21
-207.257713294116
  0
LINE
  5
250
100
AcDbEntity
  8
switches
  6
ByBlock
 62
  256
370
   -1
100
AcDbLine
 10
94.3863988927687
 20
-206.757713294116
 11
94.3863988927687
 21
-193.7577132941155
  0
ARC
  5
251
100
AcDbEntity
  8
switches
  6
ByBlock
 62
  256
370
   -1
100
AcDbCircle
 10
93.8863988927687
 20
-206.757713294116
 40
0.5
100
AcDbArc
 50
270
 51
0
  0
ARC
  5
252
100
AcDbEntity
  8
top
  6
ByLayer
 62
  256
370
   -1
100
AcDbCircle
 10
242.5487551222579
 20
-173.7011579944091
 40
2
100
AcDbArc
 50
0
 51
89.68534613999459
  0
LINE
  5
253
100
AcDbEntity
  8
top
  6
ByLayer
 62
  256
370
   -1
100
AcDbLine
 10
237.0129154598268
 20
-171.6707261045711
 11
242.5597385587714
 21
-171.7011881536059
  0
ARC
  5
254
100
AcDbEntity
  8
top
  6
ByLayer
 62
  256
370
   -1
100
AcDbCircle
 10
237.0238988963403
 20
-169.6707562637679
 40
2
100
AcDbArc
 50
179.9999999999976
 51
269.6853461399938
  0
LINE
  5
255
100
AcDbEntity
  8
top
  6
ByLayer
 62
  256
370
   -1
100
AcDbLine
 10
235.023898896341
 20
-154.6098028260409
 11
235.0238988963403
 21
-169.6707562637678
  0
ARC
  5
256
100
AcDbEntity
  8
top
  6
ByLayer
 62
  256
370
   -1
100
AcDbCircle
 10
233.023898896341
 20
-154.6098028260408
 40
2
100
AcDbArc
 50
359.9999999999976
 51
89.99999999997638
  0
LINE
  5
257
100
AcDbEntity
  8
top
  6
ByLayer
 62
  256
370
   -1
100
AcDbLine
 10
232.2613988975302
 20
-152.6098028260405
 11
233.0238988963418
 21
-152.6098028260408
  0
ARC
  5
258
100
AcDbEntity
  8
top
  6
ByLayer
 62
  256
370
   -1
100
AcDbCircle
 10
232.261398897531
 20
-150.6098028260404
 40
2
100
AcDbArc
 50
179.9999999999976
 51
269.9999999999764
  0
LINE
  5
259
100
AcDbEntity
  8
top
  6
ByLayer
 62
  256
370
   -1
100
AcDbLine
 10
230.2613988975317
 20
-135.5553591160344
 11
230.2613988975311
 21
-150.6098028260404
  0
ARC
  5
25A
100
AcDbEntity
  8
top
  6
ByLayer
 62
  256
370
   -1
100
AcDbCircle
 10
232.2613988975316
 20
-135.5553591160345
 40
2
100
AcDbArc
 50
90.12744458015766
 51
179.9999999999976
  0
LINE
  5
25B
100
AcDbEntity
  8
top
  6
ByLayer
 62
  256
370
   -1
100
AcDbLine
 10
237.790847546557
 20
-133.5430548432094
 11
232.2569502461249
 21
-133.5553640636654
  0
ARC
  5
25C
100
AcDbEntity
  8
top
  6
ByLayer
 62
  256
370
   -1
100
AcDbCircle
 10
237.7863988951502
 20
-131.5430597908404
 40
2
100
AcDbArc
 50
270.1274445801577
 51
8.142219984546603e-13
  0
LINE
  5
25D
100
AcDbEntity
  8
top
  6
ByLayer
 62
  256
370
   -1
100
AcDbLine
 10
239.7863988951499
 20
-116.4978967734491
 11
239.7863988951502
 21
-131.5430597908403
  0
ARC
  5
25E
100
AcDbEntity
  8
top
  6
ByLayer
 62
  256
370
   -1
100
AcDbCircle
 10
241.7863988951499
 20
-116.4978967734491
 40
2
100
AcDbArc
 50
89.73474365662219
 51
180.0000000000012
  0
LINE
  5
25F
100
AcDbEntity
  8
top
  6
ByLayer
 62
  256
370
   -1
100
AcDbLine
 10
247.3021306505649
 20
-114.5234111352575
 11
241.7956580551817
 21
-114.497918206575
  0
ARC
  5
260
100
AcDbEntity
  8
top
  6
ByLayer
 62
  256
370
   -1
100
AcDbCircle
 10
247.3113898105968
 20
-112.5234325683835
 40
2
100
AcDbArc
 50
269.7347436566222
 51
0.0002589827054476179
  0
ARC
  5
261
100
AcDbEntity
  8
top
  6
ByLayer
 62
  256
370
   -1
100
AcDbCircle
 10
60.83639889276868
 20
-91.74521428947114
 40
2
100
AcDbArc
 50
90
 51
180
  0
LINE
  5
262
100
AcDbEntity
  8
top
  6
ByLayer
 62
  256
370
   -1
100
AcDbLine
 10
58.83639889276867
 20
-91.74521428947114
 11
58.83639889276864
 21
-207.7577142894711
  0
ARC
  5
263
100
AcDbEntity
  8
top
  6
ByLayer
 62
  256
370
   -1
100
AcDbCircle
 10
60.83639889276865
 20
-207.7577142894711
 40
2
100
AcDbArc
 50
180
 51
270
  0
LINE
  5
264
100
AcDbEntity
  8
top
  6
ByLayer
 62
  256
370
   -1
100
AcDbLine
 10
60.83639889276865
 20
-209.7577142894711
 11
242.5487551222579
 21
-209.7577142894711
  0
LINE
  5
265
100
AcDbEntity
  8
top
  6
ByLayer
 62
  256
370
   -1
100
AcDbLine
 10
244.5487551222579
 20
-173.7011579944091
 11
244.5487551222579
 21
-207.7577142894711
  0
ARC
  5
266
100
AcDbEntity
  8
top
  6
ByLayer
 62
  256
370
   -1
100
AcDbCircle
 10
242.5487551222579
 20
-207.7577142894711
 40
2
100
AcDbArc
 50
269.9999999999992
 51
0
  0
LINE
  5
267
100
AcDbEntity
  8
top
  6
ByLayer
 62
  256
370
   -1
100
AcDbLine
 10
60.83639889276868
 20
-89.74521428947114
 11
247.3112958909534
 21
-89.74521428947114
  0
LINE
  5
268
100
AcDbEntity
  8
top
  6
ByLayer
 62
  256
370
   -1
100
AcDbLine
 10
249.311295890933
 20
-91.74520524926929
 11
249.3113898105764
 21
-112.5234235281817
  0
ARC
  5
269
100
AcDbEntity
  8
top
  6
ByLayer
 62
  256
370
   -1
100
AcDbCircle
 10
247.3112958909535
 20
-91.74521428947112
 40
2
100
AcDbArc
 50
0.0002589827054476179
 51
90.00000000000081
  0
CIRCLE
  5
26A
100
AcDbEntity
  8
switches
  6
ByLayer
 62
  256
370
   -1
100
AcDbCircle
 10
239.7863988927688
 20
-100.2452142894711
 40
0
  0
ARC
  5
26B
100
AcDbEntity
  8
switches
  6
ByLayer
 62
  256
370
   -1
100
AcDbCircle
 10
233.2863988927688
 20
-93.74521428947114
 40
0.5
100
AcDbArc
 50
90
 51
180
  0
LINE
  5
26C
100
AcDbEntity
  8
switches
  6
ByLayer
 62
  256
370
   -1
100
AcDbLine
 10
233.2863988927688
 20
-93.24521428947114
 11
246.2863988927688
 21
-93.24521428947114
  0
ARC
  5
26D
100
AcDbEntity
  8
switches
  6
ByLayer
 62
  256
370
   -1
100
AcDbCircle
 10
246.2863988927688
 20
-93.74521428947114
 40
0.5
100
AcDbArc
 50
0
 51
90
  0
LINE
  5
26E
100
AcDbEntity
  8
switches
  6
ByLayer
 62
  256
370
   -1
100
AcDbLine
 10
232.7863988927688
 20
-93.74521428947114
 11
232.7863988927688
 21
-106.7452142894711
  0
ARC
  5
26F
100
AcDbEntity
  8
switches
  6
ByLayer
 62
  256
370
   -1
100
AcDbCircle
 10
233.2863988927688
 20
-106.7452142894711
 40
0.5
100
AcDbArc
 50
180
 51
270
  0
LINE
  5
270
100
AcDbEntity
  8
switches
  6
ByLayer
 62
  256
370
   -1
100
AcDbLine
 10
233.2863988927688
 20
-107.2452142894711
 11
246.2863988927688
 21
-107.2452142894711
  0
LINE
  5
271
100
AcDbEntity
  8
switches
  6
ByLayer
 62
  256
370
   -1
100
AcDbLine
 10
246.7863988927688
 20
-93.74521428947114
 11
246.7863988927688
 21
-106.7452142894711
  0
ARC
  5
272
100
AcDbEntity
  8
switches
  6
ByLayer
 62
  256
370
   -1
100
AcDbCircle
 10
246.2863988927688
 20
-106.7452142894711
 40
0.5
100
AcDbArc
 50
270
 51
0
  0
CIRCLE
  5
273
100
AcDbEntity
  8
holes
  6
ByBlock
 62
  256
370
   -1
100
AcDbCircle
 10
77.86110000000002
 20
-197.579
 40
1.6
  0
CIRCLE
  5
274
100
AcDbEntity
  8
holes
  6
ByBlock
 62
  256
370
   -1
100
AcDbCircle
 10
130.249
 20
-199.067
 40
1.6
  0
CIRCLE
  5
275
100
AcDbEntity
  8
holes
  6
ByBlock
 62
  256
370
   -1
100
AcDbCircle
 10
177.874
 20
-199.067
 40
1.6
  0
CIRCLE
  5
276
100
AcDbEntity
  8
holes
  6
ByBlock
 62
  256
370
   -1
100
AcDbCircle
 10
225.499
 20
-186.566
 40
1.6
  0
CIRCLE
  5
277
100
AcDbEntity
  8
holes
  6
ByBlock
 62
  256
370
   -1
100
AcDbCircle
 10
177.874
 20
-160.9671
 40
1.6
  0
CIRCLE
  5
278
100
AcDbEntity
  8
holes
  6
ByBlock
 62
  256
370
   -1
100
AcDbCircle
 10
77.86110000000002
 20
-140.7264
 40
1.6
  0
CIRCLE
  5
279
100
AcDbEntity
  8
holes
  6
ByBlock
 62
  256
370
   -1
100
AcDbCircle
 10
144.536
 20
-131.7967
 40
1.6
  0
CIRCLE
  5
27A
100
AcDbEntity
  8
holes
  6
ByBlock
 62
  256
370
   -1
100
AcDbCircle
 10
77.86100000000002
 20
-112.1512
 40
1.6
  0
CIRCLE
  5
27B
100
AcDbEntity
  8
holes
  6
ByBlock
 62
  256
370
   -1
100
AcDbCircle
 10
149.298
 20
-112.1512
 40
1.6
  0
CIRCLE
  5
27C
100
AcDbEntity
  8
holes
  6
ByBlock
 62
  256
370
   -1
100
AcDbCircle
 10
201.686
 20
-131.7967
 40
1.6
  0
CIRCLE
  5
27D
100
AcDbEntity
  8
holes
  6
ByBlock
 62
  256
370
   -1
100
AcDbCircle
 10
224.01
 20
-112.1512
 40
1.6
  0
ENDSEC
  0
SECTION
  2
OBJECTS
  0
DICTIONARY
  5
C
330
0
100
AcDbDictionary
281
    1
  3
ACAD_GROUP
350
D
  0
DICTIONARY
  5
D
330
C
100
AcDbDictionary
281
    1
  0
PLOTSETTINGS
  5
27E
100
AcDbPlotSettings
  6
1x1
 40
2.96
 41
2.96
 42
2.96
 43
2.96
  0
ENDSEC
  0
EOF
