999
dxfrw 0.6.3
  0
SECTION
  2
HEADER
  9
$ACADVER
  1
AC1021
  9
$DWGCODEPAGE
  3
ANSI_1252
  9
$INSBASE
 10
0
 20
0
 30
0
  9
$EXTMIN
 10
22.21817725666864
 20
6.611025131564745
 30
0
  9
$EXTMAX
 10
207.3236772566686
 20
130.1014251315647
 30
0
  9
$LIMMIN
 10
0
 20
0
  9
$LIMMAX
 10
12
 20
9
  9
$ORTHOMODE
 70
    0
  9
$REGENMODE
 70
    1
  9
$FILLMODE
 70
    1
  9
$QTEXTMODE
 70
    0
  9
$MIRRTEXT
 70
    1
  9
$LTSCALE
 40
1
  9
$ATTMODE
 70
    1
  9
$TEXTSIZE
 40
0.2
  9
$TRACEWID
 40
0.05
  9
$TEXTSTYLE
  7
Standard
  9
$CLAYER
  8
holes
  9
$CELTYPE
  6
ByLayer
  9
$CECOLOR
 62
  256
  9
$CELTSCALE
 40
1
  9
$DISPSILH
 70
    0
  9
$DIMSCALE
 40
1
  9
$DIMASZ
 40
0.18
  9
$DIMEXO
 40
0.0625
  9
$DIMDLI
 40
0.38
  9
$DIMRND
 40
0
  9
$DIMDLE
 40
0
  9
$DIMEXE
 40
0.18
  9
$DIMTP
 40
0
  9
$DIMTM
 40
0
  9
$DIMTXT
 40
0.18
  9
$DIMCEN
 40
0.09
  9
$DIMTSZ
 40
0
  9
$DIMTOL
 70
    0
  9
$DIMLIM
 70
    0
  9
$DIMTIH
 70
    1
  9
$DIMTOH
 70
    1
  9
$DIMSE1
 70
    0
  9
$DIMSE2
 70
    0
  9
$DIMTAD
 70
    0
  9
$DIMZIN
 70
    0
  9
$DIMBLK
  1

  9
$DIMASO
 70
    1
  9
$DIMSHO
 70
    1
  9
$DIMPOST
  1

  9
$DIMAPOST
  1

  9
$DIMALT
 70
    0
  9
$DIMALTD
 70
    2
  9
$DIMALTF
 40
25.4
  9
$DIMLFAC
 40
1
  9
$DIMTOFL
 70
    0
  9
$DIMTVP
 40
0
  9
$DIMTIX
 70
    0
  9
$DIMSOXD
 70
    0
  9
$DIMSAH
 70
    0
  9
$DIMBLK1
  1

  9
$DIMBLK2
  1

  9
$DIMSTYLE
  2
Standard
  9
$DIMCLRD
 70
    0
  9
$DIMCLRE
 70
    0
  9
$DIMCLRT
 70
    0
  9
$DIMTFAC
 40
1
  9
$DIMGAP
 40
0.09
  9
$DIMJUST
 70
    0
  9
$DIMSD1
 70
    0
  9
$DIMSD2
 70
    0
  9
$DIMTOLJ
 70
    1
  9
$DIMTZIN
 70
    0
  9
$DIMALTZ
 70
    0
  9
$DIMALTTZ
 70
    0
  9
$DIMUPT
 70
    0
  9
$DIMDEC
 70
    4
  9
$DIMTDEC
 70
    4
  9
$DIMALTU
 70
    2
  9
$DIMALTTD
 70
    2
  9
$DIMTXSTY
  7
standard
  9
$DIMAUNIT
 70
    0
  9
$DIMADEC
 70
    0
  9
$DIMALTRND
 40
0
  9
$DIMAZIN
 70
    0
  9
$DIMDSEP
 70
    0
  9
$DIMATFIT
 70
    3
  9
$DIMFRAC
 70
    0
  9
$DIMLDRBLK
  1

  9
$DIMLUNIT
 70
    2
  9
$DIMLWD
 70
   -2
  9
$DIMLWE
 70
   -2
  9
$DIMTMOVE
 70
    0
  9
$DIMFXL
 40
1
  9
$DIMFXLON
 70
    0
  9
$DIMJOGANG
 40
0.7853981633974483
  9
$DIMTFILL
 70
    0
  9
$DIMTFILLCLR
 70
    0
  9
$DIMARCSYM
 70
    0
  9
$DIMLTYPE
  6

  9
$DIMLTEX1
  6

  9
$DIMLTEX2
  6

  9
$LUNITS
 70
    2
  9
$LUPREC
 70
    4
  9
$SKETCHINC
 40
0.1
  9
$FILLETRAD
 40
0.5
  9
$AUNITS
 70
    0
  9
$AUPREC
 70
    0
  9
$MENU
  1
.
  9
$ELEVATION
 40
0
  9
$PELEVATION
 40
0
  9
$THICKNESS
 40
0
  9
$LIMCHECK
 70
    0
  9
$CHAMFERA
 40
0.5
  9
$CHAMFERB
 40
0.5
  9
$CHAMFERC
 40
1
  9
$CHAMFERD
 40
0
  9
$SKPOLY
 70
    0
  9
$USRTIMER
 70
    1
  9
$ANGBASE
 50
0
  9
$ANGDIR
 70
    0
  9
$PDMODE
 70
    0
  9
$PDSIZE
 40
0
  9
$PLINEWID
 40
0
  9
$SPLFRAME
 70
    0
  9
$SPLINETYPE
 70
    6
  9
$SPLINESEGS
 70
    8
  9
$HANDSEED
  5
20000
  9
$SURFTAB1
 70
    6
  9
$SURFTAB2
 70
    6
  9
$SURFTYPE
 70
    6
  9
$SURFU
 70
    6
  9
$SURFV
 70
    6
  9
$UCSBASE
  2

  9
$UCSNAME
  2

  9
$UCSORG
 10
0
 20
0
 30
0
  9
$UCSXDIR
 10
1
 20
0
 30
0
  9
$UCSYDIR
 10
0
 20
1
 30
0
  9
$UCSORTHOREF
  2

  9
$UCSORTHOVIEW
 70
    0
  9
$UCSORGTOP
 10
0
 20
0
 30
0
  9
$UCSORGBOTTOM
 10
0
 20
0
 30
0
  9
$UCSORGLEFT
 10
0
 20
0
 30
0
  9
$UCSORGRIGHT
 10
0
 20
0
 30
0
  9
$UCSORGFRONT
 10
0
 20
0
 30
0
  9
$UCSORGBACK
 10
0
 20
0
 30
0
  9
$PUCSBASE
  2

  9
$PUCSNAME
  2

  9
$PUCSORG
 10
0
 20
0
 30
0
  9
$PUCSXDIR
 10
1
 20
0
 30
0
  9
$PUCSYDIR
 10
0
 20
1
 30
0
  9
$PUCSORTHOREF
  2

  9
$PUCSORTHOVIEW
 70
    0
  9
$PUCSORGTOP
 10
0
 20
0
 30
0
  9
$PUCSORGBOTTOM
 10
0
 20
0
 30
0
  9
$PUCSORGLEFT
 10
0
 20
0
 30
0
  9
$PUCSORGRIGHT
 10
0
 20
0
 30
0
  9
$PUCSORGFRONT
 10
0
 20
0
 30
0
  9
$PUCSORGBACK
 10
0
 20
0
 30
0
  9
$USERI1
 70
    0
  9
$USERI2
 70
    0
  9
$USERI3
 70
    0
  9
$USERI4
 70
    0
  9
$USERI5
 70
    0
  9
$USERR1
 40
0
  9
$USERR2
 40
0
  9
$USERR3
 40
0
  9
$USERR4
 40
0
  9
$USERR5
 40
0
  9
$WORLDVIEW
 70
    1
  9
$SHADEDGE
 70
    3
  9
$SHADEDIF
 70
   70
  9
$TILEMODE
 70
    1
  9
$MAXACTVP
 70
   64
  9
$PINSBASE
 10
26.65575871586955
 20
251.2130895409568
 30
0
  9
$PLIMCHECK
 70
    0
  9
$PEXTMIN
 10
1e+20
 20
1e+20
 30
1e+20
  9
$PEXTMAX
 10
-1e+20
 20
-1e+20
 30
-1e+20
  9
$GRIDMODE
 70
    0
  9
$SNAPSTYLE
 70
    0
  9
$GRIDUNIT
 10
0
 20
0
  9
$PLIMMIN
 10
0
 20
0
  9
$PLIMMAX
 10
297
 20
210
  9
$UNITMODE
 70
    0
  9
$VISRETAIN
 70
    1
  9
$PLINEGEN
 70
    0
  9
$PSLTSCALE
 70
    1
  9
$TREEDEPTH
 70
 3020
  9
$CMLSTYLE
  2
Standard
  9
$CMLJUST
 70
    0
  9
$CMLSCALE
 40
1
  9
$PROXYGRAPHICS
 70
    1
  9
$MEASUREMENT
 70
    0
  9
$CELWEIGHT
370
   -1
  9
$ENDCAPS
280
    0
  9
$JOINSTYLE
280
    0
  9
$LWDISPLAY
290
    1
  9
$INSUNITS
 70
    4
  9
$HYPERLINKBASE
  1

  9
$STYLESHEET
  1

  9
$XEDIT
290
    1
  9
$CEPSNTYPE
380
    0
  9
$PSTYLEMODE
290
    1
  9
$EXTNAMES
290
    1
  9
$PSVPSCALE
 40
1
  9
$OLESTARTUP
290
    0
  9
$SORTENTS
280
  127
  9
$INDEXCTL
280
    0
  9
$HIDETEXT
280
    1
  9
$XCLIPFRAME
290
    2
  9
$HALOGAP
280
    0
  9
$OBSCOLOR
 70
  257
  9
$OBSLTYPE
280
    0
  9
$INTERSECTIONDISPLAY
280
    0
  9
$INTERSECTIONCOLOR
 70
  257
  9
$DIMASSOC
280
    2
  9
$PROJECTNAME
  1

  9
$CAMERADISPLAY
290
    0
  9
$LENSLENGTH
 40
50
  9
$CAMERAHEIGHT
 40
0
  9
$STEPSPERSEC
 40
2
  9
$STEPSIZE
 40
6
  9
$3DDWFPREC
 40
2
  9
$PSOLWIDTH
 40
0.25
  9
$PSOLHEIGHT
 40
4
  9
$LOFTANG1
 40
1.570796326794897
  9
$LOFTANG2
 40
1.570796326794897
  9
$LOFTMAG1
 40
0
  9
$LOFTMAG2
 40
0
  9
$LOFTPARAM
 70
    7
  9
$LOFTNORMALS
280
    1
  9
$LATITUDE
 40
37.795
  9
$LONGITUDE
 40
-122.394
  9
$NORTHDIRECTION
 40
0
  9
$TIMEZONE
 70
-8000
  9
$LIGHTGLYPHDISPLAY
280
    1
  9
$TILEMODELIGHTSYNCH
280
    1
  9
$SOLIDHIST
280
    1
  9
$SHOWHIST
280
    1
  9
$DWFFRAME
280
    2
  9
$DGNFRAME
280
    2
  9
$REALWORLDSCALE
290
    1
  9
$INTERFERECOLOR
 62
  256
  9
$CSHADOW
280
    0
  9
$SHADOWPLANELOCATION
 40
0
  0
ENDSEC
  0
SECTION
  2
CLASSES
  0
ENDSEC
  0
SECTION
  2
TABLES
  0
TABLE
  2
VPORT
  5
8
330
0
100
AcDbSymbolTable
 70
    1
  0
VPORT
  5
31
330
2
100
AcDbSymbolTableRecord
100
AcDbViewportTableRecord
  2
*ACTIVE
 70
    0
 10
0
 20
0
 11
1
 21
1
 12
141.3184327089228
 22
76.56598931181111
 13
0
 23
0
 14
10
 24
10
 15
10
 25
10
 16
0
 26
0
 36
1
 17
0
 27
0
 37
0
 40
179.9567219788043
 41
1.804540967423495
 42
50
 43
0
 44
0
 50
0
 51
0
 71
    0
 72
  100
 73
    1
 74
    3
 75
    0
 76
    0
 77
    0
 78
    0
281
    0
 65
    1
110
0
120
0
130
0
111
1
121
0
131
0
112
0
122
1
132
0
 79
    0
146
0
348
10020
 60
    7
 61
    5
292
1
282
    1
141
0
142
0
 63
  250
421
3358443
  0
ENDTAB
  0
TABLE
  2
LTYPE
  5
5
330
0
100
AcDbSymbolTable
 70
    4
  0
LTYPE
  5
14
330
5
100
AcDbSymbolTableRecord
100
AcDbLinetypeTableRecord
  2
ByBlock
 70
    0
  3

 72
   65
 73
    0
 40
0
  0
LTYPE
  5
15
330
5
100
AcDbSymbolTableRecord
100
AcDbLinetypeTableRecord
  2
ByLayer
 70
    0
  3

 72
   65
 73
    0
 40
0
  0
LTYPE
  5
16
330
5
100
AcDbSymbolTableRecord
100
AcDbLinetypeTableRecord
  2
Continuous
 70
    0
  3
Solid line
 72
   65
 73
    0
 40
0
  0
LTYPE
  5
32
330
5
100
AcDbSymbolTableRecord
100
AcDbLinetypeTableRecord
  2
DOT
 70
    0
  3
Dot . . . . . . . . . . . . . . . . . . . . . .
 72
   65
 73
    2
 40
6.35
 49
0
 74
    0
 49
-6.35
 74
    0
  0
LTYPE
  5
33
330
5
100
AcDbSymbolTableRecord
100
AcDbLinetypeTableRecord
  2
DOTTINY
 70
    0
  3
Dot (.15x) .....................................
 72
   65
 73
    2
 40
0.9525
 49
0
 74
    0
 49
-0.9525
 74
    0
  0
LTYPE
  5
34
330
5
100
AcDbSymbolTableRecord
100
AcDbLinetypeTableRecord
  2
DOT2
 70
    0
  3
Dot (.5x) .....................................
 72
   65
 73
    2
 40
3.175
 49
0
 74
    0
 49
-3.175
 74
    0
  0
LTYPE
  5
35
330
5
100
AcDbSymbolTableRecord
100
AcDbLinetypeTableRecord
  2
DOTX2
 70
    0
  3
Dot (2x) .  .  .  .  .  .  .  .  .  .  .  .  .
 72
   65
 73
    2
 40
12.7
 49
0
 74
    0
 49
-12.7
 74
    0
  0
LTYPE
  5
36
330
5
100
AcDbSymbolTableRecord
100
AcDbLinetypeTableRecord
  2
DASHED
 70
    0
  3
Dashed _ _ _ _ _ _ _ _ _ _ _ _ _ _ _ _ _
 72
   65
 73
    2
 40
19.05
 49
12.7
 74
    0
 49
-6.35
 74
    0
  0
LTYPE
  5
37
330
5
100
AcDbSymbolTableRecord
100
AcDbLinetypeTableRecord
  2
DASHEDTINY
 70
    0
  3
Dashed (.15x) _ _ _ _ _ _ _ _ _ _ _ _ _ _ _ _ _
 72
   65
 73
    2
 40
2.8575
 49
1.905
 74
    0
 49
-0.9525
 74
    0
  0
LTYPE
  5
38
330
5
100
AcDbSymbolTableRecord
100
AcDbLinetypeTableRecord
  2
DASHED2
 70
    0
  3
Dashed (.5x) _ _ _ _ _ _ _ _ _ _ _ _ _ _ _ _ _
 72
   65
 73
    2
 40
9.524999999999999
 49
6.35
 74
    0
 49
-3.175
 74
    0
  0
LTYPE
  5
39
330
5
100
AcDbSymbolTableRecord
100
AcDbLinetypeTableRecord
  2
DASHEDX2
 70
    0
  3
Dashed (2x) ____  ____  ____  ____  ____  ___
 72
   65
 73
    2
 40
38.09999999999999
 49
25.4
 74
    0
 49
-12.7
 74
    0
  0
LTYPE
  5
3A
330
5
100
AcDbSymbolTableRecord
100
AcDbLinetypeTableRecord
  2
DASHDOT
 70
    0
  3
Dash dot __ . __ . __ . __ . __ . __ . __ . __
 72
   65
 73
    4
 40
25.4
 49
12.7
 74
    0
 49
-6.35
 74
    0
 49
0
 74
    0
 49
-6.35
 74
    0
  0
LTYPE
  5
3B
330
5
100
AcDbSymbolTableRecord
100
AcDbLinetypeTableRecord
  2
DASHDOTTINY
 70
    0
  3
Dash dot (.15x) _._._._._._._._._._._._._._._.
 72
   65
 73
    4
 40
3.81
 49
1.905
 74
    0
 49
-0.9525
 74
    0
 49
0
 74
    0
 49
-0.9525
 74
    0
  0
LTYPE
  5
3C
330
5
100
AcDbSymbolTableRecord
100
AcDbLinetypeTableRecord
  2
DASHDOT2
 70
    0
  3
Dash dot (.5x) _._._._._._._._._._._._._._._.
 72
   65
 73
    4
 40
12.7
 49
6.35
 74
    0
 49
-3.175
 74
    0
 49
0
 74
    0
 49
-3.175
 74
    0
  0
LTYPE
  5
3D
330
5
100
AcDbSymbolTableRecord
100
AcDbLinetypeTableRecord
  2
DASHDOTX2
 70
    0
  3
Dash dot (2x) ____  .  ____  .  ____  .  ___
 72
   65
 73
    4
 40
50.8
 49
25.4
 74
    0
 49
-12.7
 74
    0
 49
0
 74
    0
 49
-12.7
 74
    0
  0
LTYPE
  5
3E
330
5
100
AcDbSymbolTableRecord
100
AcDbLinetypeTableRecord
  2
DIVIDE
 70
    0
  3
Divide ____ . . ____ . . ____ . . ____ . . ____
 72
   65
 73
    6
 40
31.75
 49
12.7
 74
    0
 49
-6.35
 74
    0
 49
0
 74
    0
 49
-6.35
 74
    0
 49
0
 74
    0
 49
-6.35
 74
    0
  0
LTYPE
  5
3F
330
5
100
AcDbSymbolTableRecord
100
AcDbLinetypeTableRecord
  2
DIVIDETINY
 70
    0
  3
Divide (.15x) __..__..__..__..__..__..__..__.._
 72
   65
 73
    6
 40
4.7625
 49
1.905
 74
    0
 49
-0.9525
 74
    0
 49
0
 74
    0
 49
-0.9525
 74
    0
 49
0
 74
    0
 49
-0.9525
 74
    0
  0
LTYPE
  5
40
330
5
100
AcDbSymbolTableRecord
100
AcDbLinetypeTableRecord
  2
DIVIDE2
 70
    0
  3
Divide (.5x) __..__..__..__..__..__..__..__.._
 72
   65
 73
    6
 40
15.875
 49
6.35
 74
    0
 49
-3.175
 74
    0
 49
0
 74
    0
 49
-3.175
 74
    0
 49
0
 74
    0
 49
-3.175
 74
    0
  0
LTYPE
  5
41
330
5
100
AcDbSymbolTableRecord
100
AcDbLinetypeTableRecord
  2
DIVIDEX2
 70
    0
  3
Divide (2x) ________  .  .  ________  .  .  _
 72
   65
 73
    6
 40
63.5
 49
25.4
 74
    0
 49
-12.7
 74
    0
 49
0
 74
    0
 49
-12.7
 74
    0
 49
0
 74
    0
 49
-12.7
 74
    0
  0
LTYPE
  5
42
330
5
100
AcDbSymbolTableRecord
100
AcDbLinetypeTableRecord
  2
BORDER
 70
    0
  3
Border __ __ . __ __ . __ __ . __ __ . __ __ .
 72
   65
 73
    6
 40
44.45
 49
12.7
 74
    0
 49
-6.35
 74
    0
 49
12.7
 74
    0
 49
-6.35
 74
    0
 49
0
 74
    0
 49
-6.35
 74
    0
  0
LTYPE
  5
43
330
5
100
AcDbSymbolTableRecord
100
AcDbLinetypeTableRecord
  2
BORDERTINY
 70
    0
  3
Border (.15x) __.__.__.__.__.__.__.__.__.__.__.
 72
   65
 73
    6
 40
6.6675
 49
1.905
 74
    0
 49
-0.9525
 74
    0
 49
1.905
 74
    0
 49
-0.9525
 74
    0
 49
0
 74
    0
 49
-0.9525
 74
    0
  0
LTYPE
  5
44
330
5
100
AcDbSymbolTableRecord
100
AcDbLinetypeTableRecord
  2
BORDER2
 70
    0
  3
Border (.5x) __.__.__.__.__.__.__.__.__.__.__.
 72
   65
 73
    6
 40
22.225
 49
6.35
 74
    0
 49
-3.175
 74
    0
 49
6.35
 74
    0
 49
-3.175
 74
    0
 49
0
 74
    0
 49
-3.175
 74
    0
  0
LTYPE
  5
45
330
5
100
AcDbSymbolTableRecord
100
AcDbLinetypeTableRecord
  2
BORDERX2
 70
    0
  3
Border (2x) ____  ____  .  ____  ____  .  ___
 72
   65
 73
    6
 40
88.89999999999999
 49
25.4
 74
    0
 49
-12.7
 74
    0
 49
25.4
 74
    0
 49
-12.7
 74
    0
 49
0
 74
    0
 49
-12.7
 74
    0
  0
LTYPE
  5
46
330
5
100
AcDbSymbolTableRecord
100
AcDbLinetypeTableRecord
  2
CENTER
 70
    0
  3
Center ____ _ ____ _ ____ _ ____ _ ____ _ ____
 72
   65
 73
    4
 40
50.8
 49
31.75
 74
    0
 49
-6.35
 74
    0
 49
6.35
 74
    0
 49
-6.35
 74
    0
  0
LTYPE
  5
47
330
5
100
AcDbSymbolTableRecord
100
AcDbLinetypeTableRecord
  2
CENTERTINY
 70
    0
  3
Center (.15x) ___ _ ___ _ ___ _ ___ _ ___ _ ___
 72
   65
 73
    4
 40
7.619999999999999
 49
4.7625
 74
    0
 49
-0.9525
 74
    0
 49
0.9525
 74
    0
 49
-0.9525
 74
    0
  0
LTYPE
  5
48
330
5
100
AcDbSymbolTableRecord
100
AcDbLinetypeTableRecord
  2
CENTER2
 70
    0
  3
Center (.5x) ___ _ ___ _ ___ _ ___ _ ___ _ ___
 72
   65
 73
    4
 40
28.575
 49
19.05
 74
    0
 49
-3.175
 74
    0
 49
3.175
 74
    0
 49
-3.175
 74
    0
  0
LTYPE
  5
49
330
5
100
AcDbSymbolTableRecord
100
AcDbLinetypeTableRecord
  2
CENTERX2
 70
    0
  3
Center (2x) ________  __  ________  __  _____
 72
   65
 73
    4
 40
101.6
 49
63.5
 74
    0
 49
-12.7
 74
    0
 49
12.7
 74
    0
 49
-12.7
 74
    0
  0
ENDTAB
  0
TABLE
  2
LAYER
  5
2
330
0
100
AcDbSymbolTable
 70
    1
  0
LAYER
  5
10
330
2
100
AcDbSymbolTableRecord
100
AcDbLayerTableRecord
  2
0
 70
    0
 62
    7
  6
CONTINUOUS
370
   -3
390
F
  0
LAYER
  5
4A
330
2
100
AcDbSymbolTableRecord
100
AcDbLayerTableRecord
  2
holes
 70
    0
 62
    1
  6
CONTINUOUS
370
    0
390
F
  0
LAYER
  5
4B
330
2
100
AcDbSymbolTableRecord
100
AcDbLayerTableRecord
  2
switches
 70
    0
 62
  136
420
32896
  6
CONTINUOUS
370
    0
390
F
  0
LAYER
  5
4C
330
2
100
AcDbSymbolTableRecord
100
AcDbLayerTableRecord
  2
top
 70
    0
 62
    3
  6
CONTINUOUS
370
    0
390
F
  0
ENDTAB
  0
TABLE
  2
STYLE
  5
3
330
0
100
AcDbSymbolTable
 70
    3
  0
STYLE
  5
4D
330
2
100
AcDbSymbolTableRecord
100
AcDbTextStyleTableRecord
  2
Standard
 70
    0
 40
0
 41
1
 50
0
 71
    0
 42
1
  3
txt
  4

  0
ENDTAB
  0
TABLE
  2
VIEW
  5
6
330
0
100
AcDbSymbolTable
 70
    0
  0
ENDTAB
  0
TABLE
  2
UCS
  5
7
330
0
100
AcDbSymbolTable
 70
    0
  0
ENDTAB
  0
TABLE
  2
APPID
  5
9
330
0
100
AcDbSymbolTable
 70
    1
  0
APPID
  5
12
330
9
100
AcDbSymbolTableRecord
100
AcDbRegAppTableRecord
  2
ACAD
 70
    0
  0
APPID
  5
4E
330
9
100
AcDbSymbolTableRecord
100
AcDbRegAppTableRecord
  2
LibreCad
 70
    0
  0
ENDTAB
  0
TABLE
  2
DIMSTYLE
  5
A
330
0
100
AcDbSymbolTable
 70
    1
100
AcDbDimStyleTable
 71
    1
  0
DIMSTYLE
105
4F
330
A
100
AcDbSymbolTableRecord
100
AcDbDimStyleTableRecord
  2
Standard
 70
    0
 40
1
 41
0.18
 42
0.0625
 43
0.38
 44
0.18
 45
0
 46
0
 47
0
 48
0
 49
1
140
0.18
141
0.09
142
0
143
25.4
144
1
145
0
146
1
147
0.09
148
0
 71
    0
 72
    0
 73
    1
 74
    1
 75
    0
 76
    0
 77
    0
 78
    0
 79
    0
170
    0
171
    2
172
    0
173
    0
174
    0
175
    0
176
    0
177
    0
178
    0
179
    0
271
    4
272
    4
273
    2
274
    2
275
    0
276
    0
277
    2
278
    0
279
    0
280
    0
281
    0
282
    0
283
    1
284
    0
285
    0
286
    0
288
    0
289
    3
340
standard
341

371
   -2
372
   -2
  0
ENDTAB
  0
TABLE
  2
BLOCK_RECORD
  5
1
330
0
100
AcDbSymbolTable
 70
    2
  0
BLOCK_RECORD
  5
1F
330
1
100
AcDbSymbolTableRecord
100
AcDbBlockTableRecord
  2
*Model_Space
 70
    0
280
    1
281
    0
  0
BLOCK_RECORD
  5
1E
330
1
100
AcDbSymbolTableRecord
100
AcDbBlockTableRecord
  2
*Paper_Space
 70
    0
280
    1
281
    0
  0
BLOCK_RECORD
  5
50
330
1
100
AcDbSymbolTableRecord
100
AcDbBlockTableRecord
  2
block 2
 70
    0
280
    1
281
    0
  0
BLOCK_RECORD
  5
53
330
1
100
AcDbSymbolTableRecord
100
AcDbBlockTableRecord
  2
block 3
 70
    0
280
    1
281
    0
  0
BLOCK_RECORD
  5
56
330
1
100
AcDbSymbolTableRecord
100
AcDbBlockTableRecord
  2
block 4
 70
    0
280
    1
281
    0
  0
BLOCK_RECORD
  5
59
330
1
100
AcDbSymbolTableRecord
100
AcDbBlockTableRecord
  2
block 5
 70
    0
280
    1
281
    0
  0
BLOCK_RECORD
  5
5C
330
1
100
AcDbSymbolTableRecord
100
AcDbBlockTableRecord
  2
block 6
 70
    0
280
    1
281
    0
  0
BLOCK_RECORD
  5
5F
330
1
100
AcDbSymbolTableRecord
100
AcDbBlockTableRecord
  2
block 7
 70
    0
280
    1
281
    0
  0
BLOCK_RECORD
  5
62
330
1
100
AcDbSymbolTableRecord
100
AcDbBlockTableRecord
  2
block 8
 70
    0
280
    1
281
    0
  0
BLOCK_RECORD
  5
65
330
1
100
AcDbSymbolTableRecord
100
AcDbBlockTableRecord
  2
block 9
 70
    0
280
    1
281
    0
  0
BLOCK_RECORD
  5
68
330
1
100
AcDbSymbolTableRecord
100
AcDbBlockTableRecord
  2
block 10
 70
    0
280
    1
281
    0
  0
BLOCK_RECORD
  5
6B
330
1
100
AcDbSymbolTableRecord
100
AcDbBlockTableRecord
  2
block 11
 70
    0
280
    1
281
    0
  0
BLOCK_RECORD
  5
6E
330
1
100
AcDbSymbolTableRecord
100
AcDbBlockTableRecord
  2
block 12
 70
    0
280
    1
281
    0
  0
BLOCK_RECORD
  5
71
330
1
100
AcDbSymbolTableRecord
100
AcDbBlockTableRecord
  2
block 13
 70
    0
280
    1
281
    0
  0
BLOCK_RECORD
  5
74
330
1
100
AcDbSymbolTableRecord
100
AcDbBlockTableRecord
  2
block 14
 70
    0
280
    1
281
    0
  0
BLOCK_RECORD
  5
77
330
1
100
AcDbSymbolTableRecord
100
AcDbBlockTableRecord
  2
block 15
 70
    0
280
    1
281
    0
  0
BLOCK_RECORD
  5
7A
330
1
100
AcDbSymbolTableRecord
100
AcDbBlockTableRecord
  2
block 16
 70
    0
280
    1
281
    0
  0
BLOCK_RECORD
  5
7D
330
1
100
AcDbSymbolTableRecord
100
AcDbBlockTableRecord
  2
block 17
 70
    0
280
    1
281
    0
  0
BLOCK_RECORD
  5
80
330
1
100
AcDbSymbolTableRecord
100
AcDbBlockTableRecord
  2
block 18
 70
    0
280
    1
281
    0
  0
BLOCK_RECORD
  5
83
330
1
100
AcDbSymbolTableRecord
100
AcDbBlockTableRecord
  2
block 19
 70
    0
280
    1
281
    0
  0
BLOCK_RECORD
  5
86
330
1
100
AcDbSymbolTableRecord
100
AcDbBlockTableRecord
  2
block 20
 70
    0
280
    1
281
    0
  0
BLOCK_RECORD
  5
89
330
1
100
AcDbSymbolTableRecord
100
AcDbBlockTableRecord
  2
block 21
 70
    0
280
    1
281
    0
  0
BLOCK_RECORD
  5
8C
330
1
100
AcDbSymbolTableRecord
100
AcDbBlockTableRecord
  2
block 22
 70
    0
280
    1
281
    0
  0
BLOCK_RECORD
  5
8F
330
1
100
AcDbSymbolTableRecord
100
AcDbBlockTableRecord
  2
block 23
 70
    0
280
    1
281
    0
  0
BLOCK_RECORD
  5
92
330
1
100
AcDbSymbolTableRecord
100
AcDbBlockTableRecord
  2
block 24
 70
    0
280
    1
281
    0
  0
BLOCK_RECORD
  5
95
330
1
100
AcDbSymbolTableRecord
100
AcDbBlockTableRecord
  2
block 25
 70
    0
280
    1
281
    0
  0
BLOCK_RECORD
  5
98
330
1
100
AcDbSymbolTableRecord
100
AcDbBlockTableRecord
  2
block 26
 70
    0
280
    1
281
    0
  0
BLOCK_RECORD
  5
9B
330
1
100
AcDbSymbolTableRecord
100
AcDbBlockTableRecord
  2
block 27
 70
    0
280
    1
281
    0
  0
BLOCK_RECORD
  5
9E
330
1
100
AcDbSymbolTableRecord
100
AcDbBlockTableRecord
  2
block 28
 70
    0
280
    1
281
    0
  0
BLOCK_RECORD
  5
A1
330
1
100
AcDbSymbolTableRecord
100
AcDbBlockTableRecord
  2
block 29
 70
    0
280
    1
281
    0
  0
BLOCK_RECORD
  5
A4
330
1
100
AcDbSymbolTableRecord
100
AcDbBlockTableRecord
  2
block 30
 70
    0
280
    1
281
    0
  0
BLOCK_RECORD
  5
A7
330
1
100
AcDbSymbolTableRecord
100
AcDbBlockTableRecord
  2
block 31
 70
    0
280
    1
281
    0
  0
BLOCK_RECORD
  5
AA
330
1
100
AcDbSymbolTableRecord
100
AcDbBlockTableRecord
  2
block 32
 70
    0
280
    1
281
    0
  0
BLOCK_RECORD
  5
AD
330
1
100
AcDbSymbolTableRecord
100
AcDbBlockTableRecord
  2
block 33
 70
    0
280
    1
281
    0
  0
BLOCK_RECORD
  5
B0
330
1
100
AcDbSymbolTableRecord
100
AcDbBlockTableRecord
  2
block 34
 70
    0
280
    1
281
    0
  0
BLOCK_RECORD
  5
B3
330
1
100
AcDbSymbolTableRecord
100
AcDbBlockTableRecord
  2
block 35
 70
    0
280
    1
281
    0
  0
BLOCK_RECORD
  5
B6
330
1
100
AcDbSymbolTableRecord
100
AcDbBlockTableRecord
  2
block 36
 70
    0
280
    1
281
    0
  0
BLOCK_RECORD
  5
B9
330
1
100
AcDbSymbolTableRecord
100
AcDbBlockTableRecord
  2
block 37
 70
    0
280
    1
281
    0
  0
BLOCK_RECORD
  5
BC
330
1
100
AcDbSymbolTableRecord
100
AcDbBlockTableRecord
  2
block 38
 70
    0
280
    1
281
    0
  0
ENDTAB
  0
ENDSEC
  0
SECTION
  2
BLOCKS
  0
BLOCK
  5
20
330
1F
100
AcDbEntity
  8
0
100
AcDbBlockBegin
  2
*Model_Space
 70
    0
 10
0
 20
0
 30
0
  3
*Model_Space
  1

  0
ENDBLK
  5
21
330
1F
100
AcDbEntity
  8
0
100
AcDbBlockEnd
  0
BLOCK
  5
1C
330
1B
100
AcDbEntity
  8
0
100
AcDbBlockBegin
  2
*Paper_Space
 70
    0
 10
0
 20
0
 30
0
  3
*Paper_Space
  1

  0
ENDBLK
  5
1D
330
1F
100
AcDbEntity
  8
0
100
AcDbBlockEnd
  0
BLOCK
  5
51
330
50
100
AcDbEntity
  8
0
100
AcDbBlockBegin
  2
block 2
 70
    0
 10
0
 20
0
  3
block 2
  1

  0
ENDBLK
  5
52
330
50
100
AcDbEntity
  8
0
100
AcDbBlockEnd
  0
BLOCK
  5
54
330
53
100
AcDbEntity
  8
0
100
AcDbBlockBegin
  2
block 3
 70
    0
 10
0
 20
0
  3
block 3
  1

  0
ENDBLK
  5
55
330
53
100
AcDbEntity
  8
0
100
AcDbBlockEnd
  0
BLOCK
  5
57
330
56
100
AcDbEntity
  8
0
100
AcDbBlockBegin
  2
block 4
 70
    0
 10
0
 20
0
  3
block 4
  1

  0
ENDBLK
  5
58
330
56
100
AcDbEntity
  8
0
100
AcDbBlockEnd
  0
BLOCK
  5
5A
330
59
100
AcDbEntity
  8
0
100
AcDbBlockBegin
  2
block 5
 70
    0
 10
0
 20
0
  3
block 5
  1

  0
ENDBLK
  5
5B
330
59
100
AcDbEntity
  8
0
100
AcDbBlockEnd
  0
BLOCK
  5
5D
330
5C
100
AcDbEntity
  8
0
100
AcDbBlockBegin
  2
block 6
 70
    0
 10
0
 20
0
  3
block 6
  1

  0
ENDBLK
  5
5E
330
5C
100
AcDbEntity
  8
0
100
AcDbBlockEnd
  0
BLOCK
  5
60
330
5F
100
AcDbEntity
  8
0
100
AcDbBlockBegin
  2
block 7
 70
    0
 10
0
 20
0
  3
block 7
  1

  0
ENDBLK
  5
61
330
5F
100
AcDbEntity
  8
0
100
AcDbBlockEnd
  0
BLOCK
  5
63
330
62
100
AcDbEntity
  8
0
100
AcDbBlockBegin
  2
block 8
 70
    0
 10
0
 20
0
  3
block 8
  1

  0
ENDBLK
  5
64
330
62
100
AcDbEntity
  8
0
100
AcDbBlockEnd
  0
BLOCK
  5
66
330
65
100
AcDbEntity
  8
0
100
AcDbBlockBegin
  2
block 9
 70
    0
 10
0
 20
0
  3
block 9
  1

  0
ENDBLK
  5
67
330
65
100
AcDbEntity
  8
0
100
AcDbBlockEnd
  0
BLOCK
  5
69
330
68
100
AcDbEntity
  8
0
100
AcDbBlockBegin
  2
block 10
 70
    0
 10
0
 20
0
  3
block 10
  1

  0
ENDBLK
  5
6A
330
68
100
AcDbEntity
  8
0
100
AcDbBlockEnd
  0
BLOCK
  5
6C
330
6B
100
AcDbEntity
  8
0
100
AcDbBlockBegin
  2
block 11
 70
    0
 10
0
 20
0
  3
block 11
  1

  0
ENDBLK
  5
6D
330
6B
100
AcDbEntity
  8
0
100
AcDbBlockEnd
  0
BLOCK
  5
6F
330
6E
100
AcDbEntity
  8
0
100
AcDbBlockBegin
  2
block 12
 70
    0
 10
0
 20
0
  3
block 12
  1

  0
ENDBLK
  5
70
330
6E
100
AcDbEntity
  8
0
100
AcDbBlockEnd
  0
BLOCK
  5
72
330
71
100
AcDbEntity
  8
0
100
AcDbBlockBegin
  2
block 13
 70
    0
 10
0
 20
0
  3
block 13
  1

  0
ENDBLK
  5
73
330
71
100
AcDbEntity
  8
0
100
AcDbBlockEnd
  0
BLOCK
  5
75
330
74
100
AcDbEntity
  8
0
100
AcDbBlockBegin
  2
block 14
 70
    0
 10
0
 20
0
  3
block 14
  1

  0
ENDBLK
  5
76
330
74
100
AcDbEntity
  8
0
100
AcDbBlockEnd
  0
BLOCK
  5
78
330
77
100
AcDbEntity
  8
0
100
AcDbBlockBegin
  2
block 15
 70
    0
 10
0
 20
0
  3
block 15
  1

  0
ENDBLK
  5
79
330
77
100
AcDbEntity
  8
0
100
AcDbBlockEnd
  0
BLOCK
  5
7B
330
7A
100
AcDbEntity
  8
0
100
AcDbBlockBegin
  2
block 16
 70
    0
 10
0
 20
0
  3
block 16
  1

  0
ENDBLK
  5
7C
330
7A
100
AcDbEntity
  8
0
100
AcDbBlockEnd
  0
BLOCK
  5
7E
330
7D
100
AcDbEntity
  8
0
100
AcDbBlockBegin
  2
block 17
 70
    0
 10
0
 20
0
  3
block 17
  1

  0
ENDBLK
  5
7F
330
7D
100
AcDbEntity
  8
0
100
AcDbBlockEnd
  0
BLOCK
  5
81
330
80
100
AcDbEntity
  8
0
100
AcDbBlockBegin
  2
block 18
 70
    0
 10
0
 20
0
  3
block 18
  1

  0
ENDBLK
  5
82
330
80
100
AcDbEntity
  8
0
100
AcDbBlockEnd
  0
BLOCK
  5
84
330
83
100
AcDbEntity
  8
0
100
AcDbBlockBegin
  2
block 19
 70
    0
 10
0
 20
0
  3
block 19
  1

  0
ENDBLK
  5
85
330
83
100
AcDbEntity
  8
0
100
AcDbBlockEnd
  0
BLOCK
  5
87
330
86
100
AcDbEntity
  8
0
100
AcDbBlockBegin
  2
block 20
 70
    0
 10
0
 20
0
  3
block 20
  1

  0
ENDBLK
  5
88
330
86
100
AcDbEntity
  8
0
100
AcDbBlockEnd
  0
BLOCK
  5
8A
330
89
100
AcDbEntity
  8
0
100
AcDbBlockBegin
  2
block 21
 70
    0
 10
0
 20
0
  3
block 21
  1

  0
ENDBLK
  5
8B
330
89
100
AcDbEntity
  8
0
100
AcDbBlockEnd
  0
BLOCK
  5
8D
330
8C
100
AcDbEntity
  8
0
100
AcDbBlockBegin
  2
block 22
 70
    0
 10
0
 20
0
  3
block 22
  1

  0
ENDBLK
  5
8E
330
8C
100
AcDbEntity
  8
0
100
AcDbBlockEnd
  0
BLOCK
  5
90
330
8F
100
AcDbEntity
  8
0
100
AcDbBlockBegin
  2
block 23
 70
    0
 10
0
 20
0
  3
block 23
  1

  0
ENDBLK
  5
91
330
8F
100
AcDbEntity
  8
0
100
AcDbBlockEnd
  0
BLOCK
  5
93
330
92
100
AcDbEntity
  8
0
100
AcDbBlockBegin
  2
block 24
 70
    0
 10
0
 20
0
  3
block 24
  1

  0
ENDBLK
  5
94
330
92
100
AcDbEntity
  8
0
100
AcDbBlockEnd
  0
BLOCK
  5
96
330
95
100
AcDbEntity
  8
0
100
AcDbBlockBegin
  2
block 25
 70
    0
 10
0
 20
0
  3
block 25
  1

  0
ENDBLK
  5
97
330
95
100
AcDbEntity
  8
0
100
AcDbBlockEnd
  0
BLOCK
  5
99
330
98
100
AcDbEntity
  8
0
100
AcDbBlockBegin
  2
block 26
 70
    0
 10
0
 20
0
  3
block 26
  1

  0
ENDBLK
  5
9A
330
98
100
AcDbEntity
  8
0
100
AcDbBlockEnd
  0
BLOCK
  5
9C
330
9B
100
AcDbEntity
  8
0
100
AcDbBlockBegin
  2
block 27
 70
    0
 10
0
 20
0
  3
block 27
  1

  0
ENDBLK
  5
9D
330
9B
100
AcDbEntity
  8
0
100
AcDbBlockEnd
  0
BLOCK
  5
9F
330
9E
100
AcDbEntity
  8
0
100
AcDbBlockBegin
  2
block 28
 70
    0
 10
0
 20
0
  3
block 28
  1

  0
ENDBLK
  5
A0
330
9E
100
AcDbEntity
  8
0
100
AcDbBlockEnd
  0
BLOCK
  5
A2
330
A1
100
AcDbEntity
  8
0
100
AcDbBlockBegin
  2
block 29
 70
    0
 10
0
 20
0
  3
block 29
  1

  0
ENDBLK
  5
A3
330
A1
100
AcDbEntity
  8
0
100
AcDbBlockEnd
  0
BLOCK
  5
A5
330
A4
100
AcDbEntity
  8
0
100
AcDbBlockBegin
  2
block 30
 70
    0
 10
0
 20
0
  3
block 30
  1

  0
ENDBLK
  5
A6
330
A4
100
AcDbEntity
  8
0
100
AcDbBlockEnd
  0
BLOCK
  5
A8
330
A7
100
AcDbEntity
  8
0
100
AcDbBlockBegin
  2
block 31
 70
    0
 10
0
 20
0
  3
block 31
  1

  0
ENDBLK
  5
A9
330
A7
100
AcDbEntity
  8
0
100
AcDbBlockEnd
  0
BLOCK
  5
AB
330
AA
100
AcDbEntity
  8
0
100
AcDbBlockBegin
  2
block 32
 70
    0
 10
0
 20
0
  3
block 32
  1

  0
ENDBLK
  5
AC
330
AA
100
AcDbEntity
  8
0
100
AcDbBlockEnd
  0
BLOCK
  5
AE
330
AD
100
AcDbEntity
  8
0
100
AcDbBlockBegin
  2
block 33
 70
    0
 10
0
 20
0
  3
block 33
  1

  0
ENDBLK
  5
AF
330
AD
100
AcDbEntity
  8
0
100
AcDbBlockEnd
  0
BLOCK
  5
B1
330
B0
100
AcDbEntity
  8
0
100
AcDbBlockBegin
  2
block 34
 70
    0
 10
0
 20
0
  3
block 34
  1

  0
ENDBLK
  5
B2
330
B0
100
AcDbEntity
  8
0
100
AcDbBlockEnd
  0
BLOCK
  5
B4
330
B3
100
AcDbEntity
  8
0
100
AcDbBlockBegin
  2
block 35
 70
    0
 10
0
 20
0
  3
block 35
  1

  0
ENDBLK
  5
B5
330
B3
100
AcDbEntity
  8
0
100
AcDbBlockEnd
  0
BLOCK
  5
B7
330
B6
100
AcDbEntity
  8
0
100
AcDbBlockBegin
  2
block 36
 70
    0
 10
0
 20
0
  3
block 36
  1

  0
ENDBLK
  5
B8
330
B6
100
AcDbEntity
  8
0
100
AcDbBlockEnd
  0
BLOCK
  5
BA
330
B9
100
AcDbEntity
  8
0
100
AcDbBlockBegin
  2
block 37
 70
    0
 10
0
 20
0
  3
block 37
  1

  0
ENDBLK
  5
BB
330
B9
100
AcDbEntity
  8
0
100
AcDbBlockEnd
  0
BLOCK
  5
BD
330
BC
100
AcDbEntity
  8
0
100
AcDbBlockBegin
  2
block 38
 70
    0
 10
0
 20
0
  3
block 38
  1

  0
ENDBLK
  5
BE
330
BC
100
AcDbEntity
  8
0
100
AcDbBlockEnd
  0
ENDSEC
  0
SECTION
  2
ENTITIES
  0
LINE
  5
BF
100
AcDbEntity
  8
switches
  6
ByLayer
 62
  256
370
   -1
100
AcDbLine
 10
64.36657725666863
 20
124.7670251315647
 11
77.36657725666863
 21
124.7670251315647
  0
LINE
  5
C0
100
AcDbEntity
  8
switches
  6
ByLayer
 62
  256
370
   -1
100
AcDbLine
 10
64.36657725666863
 20
110.7670251315647
 11
77.36657725666863
 21
110.7670251315647
  0
LINE
  5
C1
100
AcDbEntity
  8
switches
  6
ByLayer
 62
  256
370
   -1
100
AcDbLine
 10
63.86657725666863
 20
124.2670251315647
 11
63.86657725666863
 21
111.2670251315647
  0
LINE
  5
C2
100
AcDbEntity
  8
switches
  6
ByLayer
 62
  256
370
   -1
100
AcDbLine
 10
77.86657725666863
 20
124.2670251315647
 11
77.86657725666863
 21
111.2670251315647
  0
ARC
  5
C3
100
AcDbEntity
  8
switches
  6
ByLayer
 62
  256
370
   -1
100
AcDbCircle
 10
64.36657725666863
 20
124.2670251315647
 40
0.5
100
AcDbArc
 50
90
 51
180
  0
ARC
  5
C4
100
AcDbEntity
  8
switches
  6
ByLayer
 62
  256
370
   -1
100
AcDbCircle
 10
77.36657725666863
 20
124.2670251315647
 40
0.5
100
AcDbArc
 50
0
 51
90
  0
ARC
  5
C5
100
AcDbEntity
  8
switches
  6
ByLayer
 62
  256
370
   -1
100
AcDbCircle
 10
64.36657725666863
 20
111.2670251315647
 40
0.5
100
AcDbArc
 50
180
 51
270
  0
ARC
  5
C6
100
AcDbEntity
  8
switches
  6
ByLayer
 62
  256
370
   -1
100
AcDbCircle
 10
77.36657725666863
 20
111.2670251315647
 40
0.5
100
AcDbArc
 50
270
 51
0
  0
LINE
  5
C7
100
AcDbEntity
  8
switches
  6
ByLayer
 62
  256
370
   -1
100
AcDbLine
 10
88.17907725666861
 20
124.7670251315647
 11
101.1790772566686
 21
124.7670251315647
  0
LINE
  5
C8
100
AcDbEntity
  8
switches
  6
ByLayer
 62
  256
370
   -1
100
AcDbLine
 10
88.17907725666861
 20
110.7670251315647
 11
101.1790772566686
 21
110.7670251315647
  0
LINE
  5
C9
100
AcDbEntity
  8
switches
  6
ByLayer
 62
  256
370
   -1
100
AcDbLine
 10
87.67907725666861
 20
124.2670251315647
 11
87.67907725666861
 21
111.2670251315647
  0
LINE
  5
CA
100
AcDbEntity
  8
switches
  6
ByLayer
 62
  256
370
   -1
100
AcDbLine
 10
101.6790772566686
 20
124.2670251315647
 11
101.6790772566686
 21
111.2670251315647
  0
ARC
  5
CB
100
AcDbEntity
  8
switches
  6
ByLayer
 62
  256
370
   -1
100
AcDbCircle
 10
88.17907725666861
 20
124.2670251315647
 40
0.5
100
AcDbArc
 50
90
 51
180
  0
ARC
  5
CC
100
AcDbEntity
  8
switches
  6
ByLayer
 62
  256
370
   -1
100
AcDbCircle
 10
101.1790772566686
 20
124.2670251315647
 40
0.5
100
AcDbArc
 50
0
 51
90
  0
ARC
  5
CD
100
AcDbEntity
  8
switches
  6
ByLayer
 62
  256
370
   -1
100
AcDbCircle
 10
88.17907725666861
 20
111.2670251315647
 40
0.5
100
AcDbArc
 50
180
 51
270
  0
ARC
  5
CE
100
AcDbEntity
  8
switches
  6
ByLayer
 62
  256
370
   -1
100
AcDbCircle
 10
101.1790772566686
 20
111.2670251315647
 40
0.5
100
AcDbArc
 50
270
 51
0
  0
LINE
  5
CF
100
AcDbEntity
  8
switches
  6
ByLayer
 62
  256
370
   -1
100
AcDbLine
 10
107.2290772566686
 20
124.7670251315647
 11
120.2290772566686
 21
124.7670251315647
  0
LINE
  5
D0
100
AcDbEntity
  8
switches
  6
ByLayer
 62
  256
370
   -1
100
AcDbLine
 10
107.2290772566686
 20
110.7670251315647
 11
120.2290772566686
 21
110.7670251315647
  0
LINE
  5
D1
100
AcDbEntity
  8
switches
  6
ByLayer
 62
  256
370
   -1
100
AcDbLine
 10
106.7290772566686
 20
124.2670251315647
 11
106.7290772566686
 21
111.2670251315647
  0
LINE
  5
D2
100
AcDbEntity
  8
switches
  6
ByLayer
 62
  256
370
   -1
100
AcDbLine
 10
120.7290772566686
 20
124.2670251315647
 11
120.7290772566686
 21
111.2670251315647
  0
ARC
  5
D3
100
AcDbEntity
  8
switches
  6
ByLayer
 62
  256
370
   -1
100
AcDbCircle
 10
107.2290772566686
 20
124.2670251315647
 40
0.5
100
AcDbArc
 50
90
 51
180
  0
ARC
  5
D4
100
AcDbEntity
  8
switches
  6
ByLayer
 62
  256
370
   -1
100
AcDbCircle
 10
120.2290772566686
 20
124.2670251315647
 40
0.5
100
AcDbArc
 50
0
 51
90
  0
ARC
  5
D5
100
AcDbEntity
  8
switches
  6
ByLayer
 62
  256
370
   -1
100
AcDbCircle
 10
107.2290772566686
 20
111.2670251315647
 40
0.5
100
AcDbArc
 50
180
 51
270
  0
ARC
  5
D6
100
AcDbEntity
  8
switches
  6
ByLayer
 62
  256
370
   -1
100
AcDbCircle
 10
120.2290772566686
 20
111.2670251315647
 40
0.5
100
AcDbArc
 50
270
 51
0
  0
LINE
  5
D7
100
AcDbEntity
  8
switches
  6
ByLayer
 62
  256
370
   -1
100
AcDbLine
 10
126.2790772566686
 20
124.7670251315647
 11
139.2790772566686
 21
124.7670251315647
  0
LINE
  5
D8
100
AcDbEntity
  8
switches
  6
ByLayer
 62
  256
370
   -1
100
AcDbLine
 10
126.2790772566686
 20
110.7670251315647
 11
139.2790772566686
 21
110.7670251315647
  0
LINE
  5
D9
100
AcDbEntity
  8
switches
  6
ByLayer
 62
  256
370
   -1
100
AcDbLine
 10
125.7790772566686
 20
124.2670251315647
 11
125.7790772566686
 21
111.2670251315647
  0
LINE
  5
DA
100
AcDbEntity
  8
switches
  6
ByLayer
 62
  256
370
   -1
100
AcDbLine
 10
139.7790772566686
 20
124.2670251315647
 11
139.7790772566686
 21
111.2670251315647
  0
ARC
  5
DB
100
AcDbEntity
  8
switches
  6
ByLayer
 62
  256
370
   -1
100
AcDbCircle
 10
126.2790772566686
 20
124.2670251315647
 40
0.5
100
AcDbArc
 50
90
 51
180
  0
ARC
  5
DC
100
AcDbEntity
  8
switches
  6
ByLayer
 62
  256
370
   -1
100
AcDbCircle
 10
139.2790772566686
 20
124.2670251315647
 40
0.5
100
AcDbArc
 50
0
 51
90
  0
ARC
  5
DD
100
AcDbEntity
  8
switches
  6
ByLayer
 62
  256
370
   -1
100
AcDbCircle
 10
126.2790772566686
 20
111.2670251315647
 40
0.5
100
AcDbArc
 50
180
 51
270
  0
ARC
  5
DE
100
AcDbEntity
  8
switches
  6
ByLayer
 62
  256
370
   -1
100
AcDbCircle
 10
139.2790772566686
 20
111.2670251315647
 40
0.5
100
AcDbArc
 50
270
 51
0
  0
LINE
  5
DF
100
AcDbEntity
  8
switches
  6
ByLayer
 62
  256
370
   -1
100
AcDbLine
 10
145.3290772566687
 20
124.7670251315647
 11
158.3290772566687
 21
124.7670251315647
  0
LINE
  5
E0
100
AcDbEntity
  8
switches
  6
ByLayer
 62
  256
370
   -1
100
AcDbLine
 10
145.3290772566687
 20
110.7670251315647
 11
158.3290772566687
 21
110.7670251315647
  0
LINE
  5
E1
100
AcDbEntity
  8
switches
  6
ByLayer
 62
  256
370
   -1
100
AcDbLine
 10
144.8290772566687
 20
124.2670251315647
 11
144.8290772566687
 21
111.2670251315647
  0
LINE
  5
E2
100
AcDbEntity
  8
switches
  6
ByLayer
 62
  256
370
   -1
100
AcDbLine
 10
158.8290772566687
 20
124.2670251315647
 11
158.8290772566687
 21
111.2670251315647
  0
ARC
  5
E3
100
AcDbEntity
  8
switches
  6
ByLayer
 62
  256
370
   -1
100
AcDbCircle
 10
145.3290772566687
 20
124.2670251315647
 40
0.5
100
AcDbArc
 50
90
 51
180
  0
ARC
  5
E4
100
AcDbEntity
  8
switches
  6
ByLayer
 62
  256
370
   -1
100
AcDbCircle
 10
158.3290772566687
 20
124.2670251315647
 40
0.5
100
AcDbArc
 50
0
 51
90
  0
ARC
  5
E5
100
AcDbEntity
  8
switches
  6
ByLayer
 62
  256
370
   -1
100
AcDbCircle
 10
145.3290772566687
 20
111.2670251315647
 40
0.5
100
AcDbArc
 50
180
 51
270
  0
ARC
  5
E6
100
AcDbEntity
  8
switches
  6
ByLayer
 62
  256
370
   -1
100
AcDbCircle
 10
158.3290772566687
 20
111.2670251315647
 40
0.5
100
AcDbArc
 50
270
 51
0
  0
LINE
  5
E7
100
AcDbEntity
  8
switches
  6
ByLayer
 62
  256
370
   -1
100
AcDbLine
 10
169.1415772566687
 20
124.7670251315647
 11
182.1415772566687
 21
124.7670251315647
  0
LINE
  5
E8
100
AcDbEntity
  8
switches
  6
ByLayer
 62
  256
370
   -1
100
AcDbLine
 10
169.1415772566687
 20
110.7670251315647
 11
182.1415772566687
 21
110.7670251315647
  0
LINE
  5
E9
100
AcDbEntity
  8
switches
  6
ByLayer
 62
  256
370
   -1
100
AcDbLine
 10
168.6415772566687
 20
124.2670251315647
 11
168.6415772566687
 21
111.2670251315647
  0
LINE
  5
EA
100
AcDbEntity
  8
switches
  6
ByLayer
 62
  256
370
   -1
100
AcDbLine
 10
182.6415772566687
 20
124.2670251315647
 11
182.6415772566687
 21
111.2670251315647
  0
ARC
  5
EB
100
AcDbEntity
  8
switches
  6
ByLayer
 62
  256
370
   -1
100
AcDbCircle
 10
169.1415772566687
 20
124.2670251315647
 40
0.5
100
AcDbArc
 50
90
 51
180
  0
ARC
  5
EC
100
AcDbEntity
  8
switches
  6
ByLayer
 62
  256
370
   -1
100
AcDbCircle
 10
182.1415772566687
 20
124.2670251315647
 40
0.5
100
AcDbArc
 50
0
 51
90
  0
ARC
  5
ED
100
AcDbEntity
  8
switches
  6
ByLayer
 62
  256
370
   -1
100
AcDbCircle
 10
169.1415772566687
 20
111.2670251315647
 40
0.5
100
AcDbArc
 50
180
 51
270
  0
ARC
  5
EE
100
AcDbEntity
  8
switches
  6
ByLayer
 62
  256
370
   -1
100
AcDbCircle
 10
182.1415772566687
 20
111.2670251315647
 40
0.5
100
AcDbArc
 50
270
 51
0
  0
LINE
  5
EF
100
AcDbEntity
  8
switches
  6
ByLayer
 62
  256
370
   -1
100
AcDbLine
 10
188.1915772566687
 20
124.7670251315647
 11
201.1915772566687
 21
124.7670251315647
  0
LINE
  5
F0
100
AcDbEntity
  8
switches
  6
ByLayer
 62
  256
370
   -1
100
AcDbLine
 10
188.1915772566687
 20
110.7670251315647
 11
201.1915772566687
 21
110.7670251315647
  0
LINE
  5
F1
100
AcDbEntity
  8
switches
  6
ByLayer
 62
  256
370
   -1
100
AcDbLine
 10
187.6915772566687
 20
124.2670251315647
 11
187.6915772566687
 21
111.2670251315647
  0
LINE
  5
F2
100
AcDbEntity
  8
switches
  6
ByLayer
 62
  256
370
   -1
100
AcDbLine
 10
201.6915772566687
 20
124.2670251315647
 11
201.6915772566687
 21
111.2670251315647
  0
ARC
  5
F3
100
AcDbEntity
  8
switches
  6
ByLayer
 62
  256
370
   -1
100
AcDbCircle
 10
188.1915772566687
 20
124.2670251315647
 40
0.5
100
AcDbArc
 50
90
 51
180
  0
ARC
  5
F4
100
AcDbEntity
  8
switches
  6
ByLayer
 62
  256
370
   -1
100
AcDbCircle
 10
201.1915772566687
 20
124.2670251315647
 40
0.5
100
AcDbArc
 50
0
 51
90
  0
ARC
  5
F5
100
AcDbEntity
  8
switches
  6
ByLayer
 62
  256
370
   -1
100
AcDbCircle
 10
188.1915772566687
 20
111.2670251315647
 40
0.5
100
AcDbArc
 50
180
 51
270
  0
ARC
  5
F6
100
AcDbEntity
  8
switches
  6
ByLayer
 62
  256
370
   -1
100
AcDbCircle
 10
201.1915772566687
 20
111.2670251315647
 40
0.5
100
AcDbArc
 50
270
 51
0
  0
LINE
  5
F7
100
AcDbEntity
  8
switches
  6
ByLayer
 62
  256
370
   -1
100
AcDbLine
 10
35.79157725666862
 20
100.9545251315647
 11
48.79157725666862
 21
100.9545251315647
  0
LINE
  5
F8
100
AcDbEntity
  8
switches
  6
ByLayer
 62
  256
370
   -1
100
AcDbLine
 10
35.79157725666862
 20
86.95452513156472
 11
48.79157725666862
 21
86.95452513156472
  0
LINE
  5
F9
100
AcDbEntity
  8
switches
  6
ByLayer
 62
  256
370
   -1
100
AcDbLine
 10
35.29157725666862
 20
100.4545251315647
 11
35.29157725666862
 21
87.45452513156472
  0
LINE
  5
FA
100
AcDbEntity
  8
switches
  6
ByLayer
 62
  256
370
   -1
100
AcDbLine
 10
49.29157725666862
 20
100.4545251315647
 11
49.29157725666862
 21
87.45452513156472
  0
ARC
  5
FB
100
AcDbEntity
  8
switches
  6
ByLayer
 62
  256
370
   -1
100
AcDbCircle
 10
35.79157725666862
 20
100.4545251315647
 40
0.5
100
AcDbArc
 50
90
 51
180
  0
ARC
  5
FC
100
AcDbEntity
  8
switches
  6
ByLayer
 62
  256
370
   -1
100
AcDbCircle
 10
48.79157725666862
 20
100.4545251315647
 40
0.5
100
AcDbArc
 50
0
 51
90
  0
ARC
  5
FD
100
AcDbEntity
  8
switches
  6
ByLayer
 62
  256
370
   -1
100
AcDbCircle
 10
35.79157725666862
 20
87.45452513156472
 40
0.5
100
AcDbArc
 50
180
 51
270
  0
ARC
  5
FE
100
AcDbEntity
  8
switches
  6
ByLayer
 62
  256
370
   -1
100
AcDbCircle
 10
48.79157725666862
 20
87.45452513156472
 40
0.5
100
AcDbArc
 50
270
 51
0
  0
LINE
  5
FF
100
AcDbEntity
  8
switches
  6
ByLayer
 62
  256
370
   -1
100
AcDbLine
 10
54.84157725666863
 20
100.9545251315647
 11
67.84157725666863
 21
100.9545251315647
  0
LINE
  5
100
100
AcDbEntity
  8
switches
  6
ByLayer
 62
  256
370
   -1
100
AcDbLine
 10
54.84157725666863
 20
86.95452513156472
 11
67.84157725666863
 21
86.95452513156472
  0
LINE
  5
101
100
AcDbEntity
  8
switches
  6
ByLayer
 62
  256
370
   -1
100
AcDbLine
 10
54.34157725666863
 20
100.4545251315647
 11
54.34157725666863
 21
87.45452513156472
  0
LINE
  5
102
100
AcDbEntity
  8
switches
  6
ByLayer
 62
  256
370
   -1
100
AcDbLine
 10
68.34157725666863
 20
100.4545251315647
 11
68.34157725666863
 21
87.45452513156472
  0
ARC
  5
103
100
AcDbEntity
  8
switches
  6
ByLayer
 62
  256
370
   -1
100
AcDbCircle
 10
54.84157725666863
 20
100.4545251315647
 40
0.5
100
AcDbArc
 50
90
 51
180
  0
ARC
  5
104
100
AcDbEntity
  8
switches
  6
ByLayer
 62
  256
370
   -1
100
AcDbCircle
 10
67.84157725666863
 20
100.4545251315647
 40
0.5
100
AcDbArc
 50
0
 51
90
  0
ARC
  5
105
100
AcDbEntity
  8
switches
  6
ByLayer
 62
  256
370
   -1
100
AcDbCircle
 10
54.84157725666863
 20
87.45452513156472
 40
0.5
100
AcDbArc
 50
180
 51
270
  0
ARC
  5
106
100
AcDbEntity
  8
switches
  6
ByLayer
 62
  256
370
   -1
100
AcDbCircle
 10
67.84157725666863
 20
87.45452513156472
 40
0.5
100
AcDbArc
 50
270
 51
0
  0
LINE
  5
107
100
AcDbEntity
  8
switches
  6
ByLayer
 62
  256
370
   -1
100
AcDbLine
 10
73.89157725666864
 20
100.9545251315647
 11
86.89157725666864
 21
100.9545251315647
  0
LINE
  5
108
100
AcDbEntity
  8
switches
  6
ByLayer
 62
  256
370
   -1
100
AcDbLine
 10
73.89157725666864
 20
86.95452513156472
 11
86.89157725666864
 21
86.95452513156472
  0
LINE
  5
109
100
AcDbEntity
  8
switches
  6
ByLayer
 62
  256
370
   -1
100
AcDbLine
 10
73.39157725666864
 20
100.4545251315647
 11
73.39157725666864
 21
87.45452513156472
  0
LINE
  5
10A
100
AcDbEntity
  8
switches
  6
ByLayer
 62
  256
370
   -1
100
AcDbLine
 10
87.39157725666864
 20
100.4545251315647
 11
87.39157725666864
 21
87.45452513156472
  0
ARC
  5
10B
100
AcDbEntity
  8
switches
  6
ByLayer
 62
  256
370
   -1
100
AcDbCircle
 10
73.89157725666864
 20
100.4545251315647
 40
0.5
100
AcDbArc
 50
90
 51
180
  0
ARC
  5
10C
100
AcDbEntity
  8
switches
  6
ByLayer
 62
  256
370
   -1
100
AcDbCircle
 10
86.89157725666864
 20
100.4545251315647
 40
0.5
100
AcDbArc
 50
0
 51
90
  0
ARC
  5
10D
100
AcDbEntity
  8
switches
  6
ByLayer
 62
  256
370
   -1
100
AcDbCircle
 10
73.89157725666864
 20
87.45452513156472
 40
0.5
100
AcDbArc
 50
180
 51
270
  0
ARC
  5
10E
100
AcDbEntity
  8
switches
  6
ByLayer
 62
  256
370
   -1
100
AcDbCircle
 10
86.89157725666864
 20
87.45452513156472
 40
0.5
100
AcDbArc
 50
270
 51
0
  0
LINE
  5
10F
100
AcDbEntity
  8
switches
  6
ByLayer
 62
  256
370
   -1
100
AcDbLine
 10
92.94157725666865
 20
100.9545251315647
 11
105.9415772566687
 21
100.9545251315647
  0
LINE
  5
110
100
AcDbEntity
  8
switches
  6
ByLayer
 62
  256
370
   -1
100
AcDbLine
 10
92.94157725666865
 20
86.95452513156472
 11
105.9415772566687
 21
86.95452513156472
  0
LINE
  5
111
100
AcDbEntity
  8
switches
  6
ByLayer
 62
  256
370
   -1
100
AcDbLine
 10
92.44157725666865
 20
100.4545251315647
 11
92.44157725666865
 21
87.45452513156472
  0
LINE
  5
112
100
AcDbEntity
  8
switches
  6
ByLayer
 62
  256
370
   -1
100
AcDbLine
 10
106.4415772566687
 20
100.4545251315647
 11
106.4415772566687
 21
87.45452513156472
  0
ARC
  5
113
100
AcDbEntity
  8
switches
  6
ByLayer
 62
  256
370
   -1
100
AcDbCircle
 10
92.94157725666865
 20
100.4545251315647
 40
0.5
100
AcDbArc
 50
90
 51
180
  0
ARC
  5
114
100
AcDbEntity
  8
switches
  6
ByLayer
 62
  256
370
   -1
100
AcDbCircle
 10
105.9415772566687
 20
100.4545251315647
 40
0.5
100
AcDbArc
 50
0
 51
90
  0
ARC
  5
115
100
AcDbEntity
  8
switches
  6
ByLayer
 62
  256
370
   -1
100
AcDbCircle
 10
92.94157725666865
 20
87.45452513156472
 40
0.5
100
AcDbArc
 50
180
 51
270
  0
ARC
  5
116
100
AcDbEntity
  8
switches
  6
ByLayer
 62
  256
370
   -1
100
AcDbCircle
 10
105.9415772566687
 20
87.45452513156472
 40
0.5
100
AcDbArc
 50
270
 51
0
  0
LINE
  5
117
100
AcDbEntity
  8
switches
  6
ByLayer
 62
  256
370
   -1
100
AcDbLine
 10
111.9915772566686
 20
100.9545251315647
 11
124.9915772566686
 21
100.9545251315647
  0
LINE
  5
118
100
AcDbEntity
  8
switches
  6
ByLayer
 62
  256
370
   -1
100
AcDbLine
 10
111.9915772566686
 20
86.95452513156472
 11
124.9915772566686
 21
86.95452513156472
  0
LINE
  5
119
100
AcDbEntity
  8
switches
  6
ByLayer
 62
  256
370
   -1
100
AcDbLine
 10
111.4915772566686
 20
100.4545251315647
 11
111.4915772566686
 21
87.45452513156472
  0
LINE
  5
11A
100
AcDbEntity
  8
switches
  6
ByLayer
 62
  256
370
   -1
100
AcDbLine
 10
125.4915772566686
 20
100.4545251315647
 11
125.4915772566686
 21
87.45452513156472
  0
ARC
  5
11B
100
AcDbEntity
  8
switches
  6
ByLayer
 62
  256
370
   -1
100
AcDbCircle
 10
111.9915772566686
 20
100.4545251315647
 40
0.5
100
AcDbArc
 50
90
 51
180
  0
ARC
  5
11C
100
AcDbEntity
  8
switches
  6
ByLayer
 62
  256
370
   -1
100
AcDbCircle
 10
124.9915772566686
 20
100.4545251315647
 40
0.5
100
AcDbArc
 50
0
 51
90
  0
ARC
  5
11D
100
AcDbEntity
  8
switches
  6
ByLayer
 62
  256
370
   -1
100
AcDbCircle
 10
111.9915772566686
 20
87.45452513156472
 40
0.5
100
AcDbArc
 50
180
 51
270
  0
ARC
  5
11E
100
AcDbEntity
  8
switches
  6
ByLayer
 62
  256
370
   -1
100
AcDbCircle
 10
124.9915772566686
 20
87.45452513156472
 40
0.5
100
AcDbArc
 50
270
 51
0
  0
LINE
  5
11F
100
AcDbEntity
  8
switches
  6
ByLayer
 62
  256
370
   -1
100
AcDbLine
 10
131.0415772566686
 20
100.9545251315647
 11
144.0415772566686
 21
100.9545251315647
  0
LINE
  5
120
100
AcDbEntity
  8
switches
  6
ByLayer
 62
  256
370
   -1
100
AcDbLine
 10
131.0415772566686
 20
86.95452513156472
 11
144.0415772566686
 21
86.95452513156472
  0
LINE
  5
121
100
AcDbEntity
  8
switches
  6
ByLayer
 62
  256
370
   -1
100
AcDbLine
 10
130.5415772566686
 20
100.4545251315647
 11
130.5415772566686
 21
87.45452513156472
  0
LINE
  5
122
100
AcDbEntity
  8
switches
  6
ByLayer
 62
  256
370
   -1
100
AcDbLine
 10
144.5415772566686
 20
100.4545251315647
 11
144.5415772566686
 21
87.45452513156472
  0
ARC
  5
123
100
AcDbEntity
  8
switches
  6
ByLayer
 62
  256
370
   -1
100
AcDbCircle
 10
131.0415772566686
 20
100.4545251315647
 40
0.5
100
AcDbArc
 50
90
 51
180
  0
ARC
  5
124
100
AcDbEntity
  8
switches
  6
ByLayer
 62
  256
370
   -1
100
AcDbCircle
 10
144.0415772566686
 20
100.4545251315647
 40
0.5
100
AcDbArc
 50
0
 51
90
  0
ARC
  5
125
100
AcDbEntity
  8
switches
  6
ByLayer
 62
  256
370
   -1
100
AcDbCircle
 10
131.0415772566686
 20
87.45452513156472
 40
0.5
100
AcDbArc
 50
180
 51
270
  0
ARC
  5
126
100
AcDbEntity
  8
switches
  6
ByLayer
 62
  256
370
   -1
100
AcDbCircle
 10
144.0415772566686
 20
87.45452513156472
 40
0.5
100
AcDbArc
 50
270
 51
0
  0
LINE
  5
127
100
AcDbEntity
  8
switches
  6
ByLayer
 62
  256
370
   -1
100
AcDbLine
 10
159.6165772566686
 20
100.9545251315647
 11
172.6165772566686
 21
100.9545251315647
  0
LINE
  5
128
100
AcDbEntity
  8
switches
  6
ByLayer
 62
  256
370
   -1
100
AcDbLine
 10
159.6165772566686
 20
86.95452513156472
 11
172.6165772566686
 21
86.95452513156472
  0
LINE
  5
129
100
AcDbEntity
  8
switches
  6
ByLayer
 62
  256
370
   -1
100
AcDbLine
 10
159.1165772566686
 20
100.4545251315647
 11
159.1165772566686
 21
87.45452513156472
  0
LINE
  5
12A
100
AcDbEntity
  8
switches
  6
ByLayer
 62
  256
370
   -1
100
AcDbLine
 10
173.1165772566686
 20
100.4545251315647
 11
173.1165772566686
 21
87.45452513156472
  0
ARC
  5
12B
100
AcDbEntity
  8
switches
  6
ByLayer
 62
  256
370
   -1
100
AcDbCircle
 10
159.6165772566686
 20
100.4545251315647
 40
0.5
100
AcDbArc
 50
90
 51
180
  0
ARC
  5
12C
100
AcDbEntity
  8
switches
  6
ByLayer
 62
  256
370
   -1
100
AcDbCircle
 10
172.6165772566686
 20
100.4545251315647
 40
0.5
100
AcDbArc
 50
0
 51
90
  0
ARC
  5
12D
100
AcDbEntity
  8
switches
  6
ByLayer
 62
  256
370
   -1
100
AcDbCircle
 10
159.6165772566686
 20
87.45452513156472
 40
0.5
100
AcDbArc
 50
180
 51
270
  0
ARC
  5
12E
100
AcDbEntity
  8
switches
  6
ByLayer
 62
  256
370
   -1
100
AcDbCircle
 10
172.6165772566686
 20
87.45452513156472
 40
0.5
100
AcDbArc
 50
270
 51
0
  0
LINE
  5
12F
100
AcDbEntity
  8
switches
  6
ByLayer
 62
  256
370
   -1
100
AcDbLine
 10
151.1785772566686
 20
99.95452513156474
 11
157.1785772566686
 21
99.95452513156474
  0
LINE
  5
130
100
AcDbEntity
  8
switches
  6
ByLayer
 62
  256
370
   -1
100
AcDbLine
 10
151.1785772566686
 20
84.95452513156472
 11
157.1785772566686
 21
84.95452513156472
  0
LINE
  5
131
100
AcDbEntity
  8
switches
  6
ByLayer
 62
  256
370
   -1
100
AcDbLine
 10
150.6785772566686
 20
99.45452513156474
 11
150.6785772566686
 21
85.45452513156472
  0
LINE
  5
132
100
AcDbEntity
  8
switches
  6
ByLayer
 62
  256
370
   -1
100
AcDbLine
 10
157.6785772566686
 20
99.45452513156474
 11
157.6785772566686
 21
85.45452513156472
  0
ARC
  5
133
100
AcDbEntity
  8
switches
  6
ByLayer
 62
  256
370
   -1
100
AcDbCircle
 10
151.1785772566686
 20
99.45452513156474
 40
0.5
100
AcDbArc
 50
90
 51
180
  0
ARC
  5
134
100
AcDbEntity
  8
switches
  6
ByLayer
 62
  256
370
   -1
100
AcDbCircle
 10
157.1785772566686
 20
99.45452513156474
 40
0.5
100
AcDbArc
 50
0
 51
90
  0
ARC
  5
135
100
AcDbEntity
  8
switches
  6
ByLayer
 62
  256
370
   -1
100
AcDbCircle
 10
151.1785772566686
 20
85.45452513156472
 40
0.5
100
AcDbArc
 50
180
 51
270
  0
ARC
  5
136
100
AcDbEntity
  8
switches
  6
ByLayer
 62
  256
370
   -1
100
AcDbCircle
 10
157.1785772566686
 20
85.45452513156472
 40
0.5
100
AcDbArc
 50
270
 51
0
  0
LINE
  5
137
100
AcDbEntity
  8
switches
  6
ByLayer
 62
  256
370
   -1
100
AcDbLine
 10
175.0545772566687
 20
99.95452513156474
 11
181.0545772566687
 21
99.95452513156474
  0
LINE
  5
138
100
AcDbEntity
  8
switches
  6
ByLayer
 62
  256
370
   -1
100
AcDbLine
 10
175.0545772566687
 20
84.95452513156472
 11
181.0545772566687
 21
84.95452513156472
  0
LINE
  5
139
100
AcDbEntity
  8
switches
  6
ByLayer
 62
  256
370
   -1
100
AcDbLine
 10
174.5545772566687
 20
99.45452513156474
 11
174.5545772566687
 21
85.45452513156472
  0
LINE
  5
13A
100
AcDbEntity
  8
switches
  6
ByLayer
 62
  256
370
   -1
100
AcDbLine
 10
181.5545772566687
 20
99.45452513156474
 11
181.5545772566687
 21
85.45452513156472
  0
ARC
  5
13B
100
AcDbEntity
  8
switches
  6
ByLayer
 62
  256
370
   -1
100
AcDbCircle
 10
175.0545772566687
 20
99.45452513156474
 40
0.5
100
AcDbArc
 50
90
 51
180
  0
ARC
  5
13C
100
AcDbEntity
  8
switches
  6
ByLayer
 62
  256
370
   -1
100
AcDbCircle
 10
181.0545772566687
 20
99.45452513156474
 40
0.5
100
AcDbArc
 50
0
 51
90
  0
ARC
  5
13D
100
AcDbEntity
  8
switches
  6
ByLayer
 62
  256
370
   -1
100
AcDbCircle
 10
175.0545772566687
 20
85.45452513156472
 40
0.5
100
AcDbArc
 50
180
 51
270
  0
ARC
  5
13E
100
AcDbEntity
  8
switches
  6
ByLayer
 62
  256
370
   -1
100
AcDbCircle
 10
181.0545772566687
 20
85.45452513156472
 40
0.5
100
AcDbArc
 50
270
 51
0
  0
LINE
  5
13F
100
AcDbEntity
  8
switches
  6
ByLayer
 62
  256
370
   -1
100
AcDbLine
 10
188.1915772566687
 20
100.9545251315647
 11
201.1915772566687
 21
100.9545251315647
  0
LINE
  5
140
100
AcDbEntity
  8
switches
  6
ByLayer
 62
  256
370
   -1
100
AcDbLine
 10
188.1915772566687
 20
86.95452513156472
 11
201.1915772566687
 21
86.95452513156472
  0
LINE
  5
141
100
AcDbEntity
  8
switches
  6
ByLayer
 62
  256
370
   -1
100
AcDbLine
 10
187.6915772566687
 20
100.4545251315647
 11
187.6915772566687
 21
87.45452513156472
  0
LINE
  5
142
100
AcDbEntity
  8
switches
  6
ByLayer
 62
  256
370
   -1
100
AcDbLine
 10
201.6915772566687
 20
100.4545251315647
 11
201.6915772566687
 21
87.45452513156472
  0
ARC
  5
143
100
AcDbEntity
  8
switches
  6
ByLayer
 62
  256
370
   -1
100
AcDbCircle
 10
188.1915772566687
 20
100.4545251315647
 40
0.5
100
AcDbArc
 50
90
 51
180
  0
ARC
  5
144
100
AcDbEntity
  8
switches
  6
ByLayer
 62
  256
370
   -1
100
AcDbCircle
 10
201.1915772566687
 20
100.4545251315647
 40
0.5
100
AcDbArc
 50
0
 51
90
  0
ARC
  5
145
100
AcDbEntity
  8
switches
  6
ByLayer
 62
  256
370
   -1
100
AcDbCircle
 10
188.1915772566687
 20
87.45452513156472
 40
0.5
100
AcDbArc
 50
180
 51
270
  0
ARC
  5
146
100
AcDbEntity
  8
switches
  6
ByLayer
 62
  256
370
   -1
100
AcDbCircle
 10
201.1915772566687
 20
87.45452513156472
 40
0.5
100
AcDbArc
 50
270
 51
0
  0
LINE
  5
147
100
AcDbEntity
  8
switches
  6
ByLayer
 62
  256
370
   -1
100
AcDbLine
 10
26.26657725666864
 20
81.90452513156463
 11
39.26657725666864
 21
81.90452513156463
  0
LINE
  5
148
100
AcDbEntity
  8
switches
  6
ByLayer
 62
  256
370
   -1
100
AcDbLine
 10
26.26657725666864
 20
67.90452513156463
 11
39.26657725666864
 21
67.90452513156463
  0
LINE
  5
149
100
AcDbEntity
  8
switches
  6
ByLayer
 62
  256
370
   -1
100
AcDbLine
 10
25.76657725666864
 20
81.40452513156463
 11
25.76657725666864
 21
68.40452513156463
  0
LINE
  5
14A
100
AcDbEntity
  8
switches
  6
ByLayer
 62
  256
370
   -1
100
AcDbLine
 10
39.76657725666864
 20
81.40452513156463
 11
39.76657725666864
 21
68.40452513156463
  0
ARC
  5
14B
100
AcDbEntity
  8
switches
  6
ByLayer
 62
  256
370
   -1
100
AcDbCircle
 10
26.26657725666864
 20
81.40452513156463
 40
0.5
100
AcDbArc
 50
90
 51
180
  0
ARC
  5
14C
100
AcDbEntity
  8
switches
  6
ByLayer
 62
  256
370
   -1
100
AcDbCircle
 10
39.26657725666864
 20
81.40452513156463
 40
0.5
100
AcDbArc
 50
0
 51
90
  0
ARC
  5
14D
100
AcDbEntity
  8
switches
  6
ByLayer
 62
  256
370
   -1
100
AcDbCircle
 10
26.26657725666864
 20
68.40452513156463
 40
0.5
100
AcDbArc
 50
180
 51
270
  0
ARC
  5
14E
100
AcDbEntity
  8
switches
  6
ByLayer
 62
  256
370
   -1
100
AcDbCircle
 10
39.26657725666864
 20
68.40452513156463
 40
0.5
100
AcDbArc
 50
270
 51
0
  0
LINE
  5
14F
100
AcDbEntity
  8
switches
  6
ByLayer
 62
  256
370
   -1
100
AcDbLine
 10
45.31657725666863
 20
81.90452513156463
 11
58.31657725666863
 21
81.90452513156463
  0
LINE
  5
150
100
AcDbEntity
  8
switches
  6
ByLayer
 62
  256
370
   -1
100
AcDbLine
 10
45.31657725666863
 20
67.90452513156463
 11
58.31657725666863
 21
67.90452513156463
  0
LINE
  5
151
100
AcDbEntity
  8
switches
  6
ByLayer
 62
  256
370
   -1
100
AcDbLine
 10
44.81657725666863
 20
81.40452513156463
 11
44.81657725666863
 21
68.40452513156463
  0
LINE
  5
152
100
AcDbEntity
  8
switches
  6
ByLayer
 62
  256
370
   -1
100
AcDbLine
 10
58.81657725666863
 20
81.40452513156463
 11
58.81657725666863
 21
68.40452513156463
  0
ARC
  5
153
100
AcDbEntity
  8
switches
  6
ByLayer
 62
  256
370
   -1
100
AcDbCircle
 10
45.31657725666863
 20
81.40452513156463
 40
0.5
100
AcDbArc
 50
90
 51
180
  0
ARC
  5
154
100
AcDbEntity
  8
switches
  6
ByLayer
 62
  256
370
   -1
100
AcDbCircle
 10
58.31657725666863
 20
81.40452513156463
 40
0.5
100
AcDbArc
 50
0
 51
90
  0
ARC
  5
155
100
AcDbEntity
  8
switches
  6
ByLayer
 62
  256
370
   -1
100
AcDbCircle
 10
45.31657725666863
 20
68.40452513156463
 40
0.5
100
AcDbArc
 50
180
 51
270
  0
ARC
  5
156
100
AcDbEntity
  8
switches
  6
ByLayer
 62
  256
370
   -1
100
AcDbCircle
 10
58.31657725666863
 20
68.40452513156463
 40
0.5
100
AcDbArc
 50
270
 51
0
  0
LINE
  5
157
100
AcDbEntity
  8
switches
  6
ByLayer
 62
  256
370
   -1
100
AcDbLine
 10
64.36657725666863
 20
81.90452513156463
 11
77.36657725666863
 21
81.90452513156463
  0
LINE
  5
158
100
AcDbEntity
  8
switches
  6
ByLayer
 62
  256
370
   -1
100
AcDbLine
 10
64.36657725666863
 20
67.90452513156463
 11
77.36657725666863
 21
67.90452513156463
  0
LINE
  5
159
100
AcDbEntity
  8
switches
  6
ByLayer
 62
  256
370
   -1
100
AcDbLine
 10
63.86657725666863
 20
81.40452513156463
 11
63.86657725666863
 21
68.40452513156463
  0
LINE
  5
15A
100
AcDbEntity
  8
switches
  6
ByLayer
 62
  256
370
   -1
100
AcDbLine
 10
77.86657725666863
 20
81.40452513156463
 11
77.86657725666863
 21
68.40452513156463
  0
ARC
  5
15B
100
AcDbEntity
  8
switches
  6
ByLayer
 62
  256
370
   -1
100
AcDbCircle
 10
64.36657725666863
 20
81.40452513156463
 40
0.5
100
AcDbArc
 50
90
 51
180
  0
ARC
  5
15C
100
AcDbEntity
  8
switches
  6
ByLayer
 62
  256
370
   -1
100
AcDbCircle
 10
77.36657725666863
 20
81.40452513156463
 40
0.5
100
AcDbArc
 50
0
 51
90
  0
ARC
  5
15D
100
AcDbEntity
  8
switches
  6
ByLayer
 62
  256
370
   -1
100
AcDbCircle
 10
64.36657725666863
 20
68.40452513156463
 40
0.5
100
AcDbArc
 50
180
 51
270
  0
ARC
  5
15E
100
AcDbEntity
  8
switches
  6
ByLayer
 62
  256
370
   -1
100
AcDbCircle
 10
77.36657725666863
 20
68.40452513156463
 40
0.5
100
AcDbArc
 50
270
 51
0
  0
LINE
  5
15F
100
AcDbEntity
  8
switches
  6
ByLayer
 62
  256
370
   -1
100
AcDbLine
 10
83.41657725666862
 20
81.90452513156463
 11
96.41657725666862
 21
81.90452513156463
  0
LINE
  5
160
100
AcDbEntity
  8
switches
  6
ByLayer
 62
  256
370
   -1
100
AcDbLine
 10
83.41657725666862
 20
67.90452513156463
 11
96.41657725666862
 21
67.90452513156463
  0
LINE
  5
161
100
AcDbEntity
  8
switches
  6
ByLayer
 62
  256
370
   -1
100
AcDbLine
 10
82.91657725666862
 20
81.40452513156463
 11
82.91657725666862
 21
68.40452513156463
  0
LINE
  5
162
100
AcDbEntity
  8
switches
  6
ByLayer
 62
  256
370
   -1
100
AcDbLine
 10
96.91657725666862
 20
81.40452513156463
 11
96.91657725666862
 21
68.40452513156463
  0
ARC
  5
163
100
AcDbEntity
  8
switches
  6
ByLayer
 62
  256
370
   -1
100
AcDbCircle
 10
83.41657725666862
 20
81.40452513156463
 40
0.5
100
AcDbArc
 50
90
 51
180
  0
ARC
  5
164
100
AcDbEntity
  8
switches
  6
ByLayer
 62
  256
370
   -1
100
AcDbCircle
 10
96.41657725666862
 20
81.40452513156463
 40
0.5
100
AcDbArc
 50
0
 51
90
  0
ARC
  5
165
100
AcDbEntity
  8
switches
  6
ByLayer
 62
  256
370
   -1
100
AcDbCircle
 10
83.41657725666862
 20
68.40452513156463
 40
0.5
100
AcDbArc
 50
180
 51
270
  0
ARC
  5
166
100
AcDbEntity
  8
switches
  6
ByLayer
 62
  256
370
   -1
100
AcDbCircle
 10
96.41657725666862
 20
68.40452513156463
 40
0.5
100
AcDbArc
 50
270
 51
0
  0
LINE
  5
167
100
AcDbEntity
  8
switches
  6
ByLayer
 62
  256
370
   -1
100
AcDbLine
 10
102.4665772566686
 20
81.90452513156463
 11
115.4665772566686
 21
81.90452513156463
  0
LINE
  5
168
100
AcDbEntity
  8
switches
  6
ByLayer
 62
  256
370
   -1
100
AcDbLine
 10
102.4665772566686
 20
67.90452513156463
 11
115.4665772566686
 21
67.90452513156463
  0
LINE
  5
169
100
AcDbEntity
  8
switches
  6
ByLayer
 62
  256
370
   -1
100
AcDbLine
 10
101.9665772566686
 20
81.40452513156463
 11
101.9665772566686
 21
68.40452513156463
  0
LINE
  5
16A
100
AcDbEntity
  8
switches
  6
ByLayer
 62
  256
370
   -1
100
AcDbLine
 10
115.9665772566686
 20
81.40452513156463
 11
115.9665772566686
 21
68.40452513156463
  0
ARC
  5
16B
100
AcDbEntity
  8
switches
  6
ByLayer
 62
  256
370
   -1
100
AcDbCircle
 10
102.4665772566686
 20
81.40452513156463
 40
0.5
100
AcDbArc
 50
90
 51
180
  0
ARC
  5
16C
100
AcDbEntity
  8
switches
  6
ByLayer
 62
  256
370
   -1
100
AcDbCircle
 10
115.4665772566686
 20
81.40452513156463
 40
0.5
100
AcDbArc
 50
0
 51
90
  0
ARC
  5
16D
100
AcDbEntity
  8
switches
  6
ByLayer
 62
  256
370
   -1
100
AcDbCircle
 10
102.4665772566686
 20
68.40452513156463
 40
0.5
100
AcDbArc
 50
180
 51
270
  0
ARC
  5
16E
100
AcDbEntity
  8
switches
  6
ByLayer
 62
  256
370
   -1
100
AcDbCircle
 10
115.4665772566686
 20
68.40452513156463
 40
0.5
100
AcDbArc
 50
270
 51
0
  0
LINE
  5
16F
100
AcDbEntity
  8
switches
  6
ByLayer
 62
  256
370
   -1
100
AcDbLine
 10
121.5165772566686
 20
81.90452513156463
 11
134.5165772566687
 21
81.90452513156463
  0
LINE
  5
170
100
AcDbEntity
  8
switches
  6
ByLayer
 62
  256
370
   -1
100
AcDbLine
 10
121.5165772566686
 20
67.90452513156463
 11
134.5165772566687
 21
67.90452513156463
  0
LINE
  5
171
100
AcDbEntity
  8
switches
  6
ByLayer
 62
  256
370
   -1
100
AcDbLine
 10
121.0165772566686
 20
81.40452513156463
 11
121.0165772566686
 21
68.40452513156463
  0
LINE
  5
172
100
AcDbEntity
  8
switches
  6
ByLayer
 62
  256
370
   -1
100
AcDbLine
 10
135.0165772566687
 20
81.40452513156463
 11
135.0165772566687
 21
68.40452513156463
  0
ARC
  5
173
100
AcDbEntity
  8
switches
  6
ByLayer
 62
  256
370
   -1
100
AcDbCircle
 10
121.5165772566686
 20
81.40452513156463
 40
0.5
100
AcDbArc
 50
90
 51
180
  0
ARC
  5
174
100
AcDbEntity
  8
switches
  6
ByLayer
 62
  256
370
   -1
100
AcDbCircle
 10
134.5165772566687
 20
81.40452513156463
 40
0.5
100
AcDbArc
 50
0
 51
90
  0
ARC
  5
175
100
AcDbEntity
  8
switches
  6
ByLayer
 62
  256
370
   -1
100
AcDbCircle
 10
121.5165772566686
 20
68.40452513156463
 40
0.5
100
AcDbArc
 50
180
 51
270
  0
ARC
  5
176
100
AcDbEntity
  8
switches
  6
ByLayer
 62
  256
370
   -1
100
AcDbCircle
 10
134.5165772566687
 20
68.40452513156463
 40
0.5
100
AcDbArc
 50
270
 51
0
  0
LINE
  5
177
100
AcDbEntity
  8
switches
  6
ByLayer
 62
  256
370
   -1
100
AcDbLine
 10
140.5665772566687
 20
81.90452513156463
 11
153.5665772566687
 21
81.90452513156463
  0
LINE
  5
178
100
AcDbEntity
  8
switches
  6
ByLayer
 62
  256
370
   -1
100
AcDbLine
 10
140.5665772566687
 20
67.90452513156463
 11
153.5665772566687
 21
67.90452513156463
  0
LINE
  5
179
100
AcDbEntity
  8
switches
  6
ByLayer
 62
  256
370
   -1
100
AcDbLine
 10
140.0665772566687
 20
81.40452513156463
 11
140.0665772566687
 21
68.40452513156463
  0
LINE
  5
17A
100
AcDbEntity
  8
switches
  6
ByLayer
 62
  256
370
   -1
100
AcDbLine
 10
154.0665772566687
 20
81.40452513156463
 11
154.0665772566687
 21
68.40452513156463
  0
ARC
  5
17B
100
AcDbEntity
  8
switches
  6
ByLayer
 62
  256
370
   -1
100
AcDbCircle
 10
140.5665772566687
 20
81.40452513156463
 40
0.5
100
AcDbArc
 50
90
 51
180
  0
ARC
  5
17C
100
AcDbEntity
  8
switches
  6
ByLayer
 62
  256
370
   -1
100
AcDbCircle
 10
153.5665772566687
 20
81.40452513156463
 40
0.5
100
AcDbArc
 50
0
 51
90
  0
ARC
  5
17D
100
AcDbEntity
  8
switches
  6
ByLayer
 62
  256
370
   -1
100
AcDbCircle
 10
140.5665772566687
 20
68.40452513156463
 40
0.5
100
AcDbArc
 50
180
 51
270
  0
ARC
  5
17E
100
AcDbEntity
  8
switches
  6
ByLayer
 62
  256
370
   -1
100
AcDbCircle
 10
153.5665772566687
 20
68.40452513156463
 40
0.5
100
AcDbArc
 50
270
 51
0
  0
LINE
  5
17F
100
AcDbEntity
  8
switches
  6
ByLayer
 62
  256
370
   -1
100
AcDbLine
 10
164.3790772566687
 20
81.90452513156463
 11
177.3790772566687
 21
81.90452513156463
  0
LINE
  5
180
100
AcDbEntity
  8
switches
  6
ByLayer
 62
  256
370
   -1
100
AcDbLine
 10
164.3790772566687
 20
67.90452513156463
 11
177.3790772566687
 21
67.90452513156463
  0
LINE
  5
181
100
AcDbEntity
  8
switches
  6
ByLayer
 62
  256
370
   -1
100
AcDbLine
 10
163.8790772566687
 20
81.40452513156463
 11
163.8790772566687
 21
68.40452513156463
  0
LINE
  5
182
100
AcDbEntity
  8
switches
  6
ByLayer
 62
  256
370
   -1
100
AcDbLine
 10
177.8790772566687
 20
81.40452513156463
 11
177.8790772566687
 21
68.40452513156463
  0
ARC
  5
183
100
AcDbEntity
  8
switches
  6
ByLayer
 62
  256
370
   -1
100
AcDbCircle
 10
164.3790772566687
 20
81.40452513156463
 40
0.5
100
AcDbArc
 50
90
 51
180
  0
ARC
  5
184
100
AcDbEntity
  8
switches
  6
ByLayer
 62
  256
370
   -1
100
AcDbCircle
 10
177.3790772566687
 20
81.40452513156463
 40
0.5
100
AcDbArc
 50
0
 51
90
  0
ARC
  5
185
100
AcDbEntity
  8
switches
  6
ByLayer
 62
  256
370
   -1
100
AcDbCircle
 10
164.3790772566687
 20
68.40452513156463
 40
0.5
100
AcDbArc
 50
180
 51
270
  0
ARC
  5
186
100
AcDbEntity
  8
switches
  6
ByLayer
 62
  256
370
   -1
100
AcDbCircle
 10
177.3790772566687
 20
68.40452513156463
 40
0.5
100
AcDbArc
 50
270
 51
0
  0
LINE
  5
187
100
AcDbEntity
  8
switches
  6
ByLayer
 62
  256
370
   -1
100
AcDbLine
 10
159.6290772566687
 20
81.90452513156463
 11
160.6290772566687
 21
81.90452513156463
  0
LINE
  5
188
100
AcDbEntity
  8
switches
  6
ByLayer
 62
  256
370
   -1
100
AcDbLine
 10
159.6290772566687
 20
67.90452513156463
 11
160.6290772566687
 21
67.90452513156463
  0
LINE
  5
189
100
AcDbEntity
  8
switches
  6
ByLayer
 62
  256
370
   -1
100
AcDbLine
 10
159.1290772566687
 20
81.40452513156463
 11
159.1290772566687
 21
68.40452513156463
  0
LINE
  5
18A
100
AcDbEntity
  8
switches
  6
ByLayer
 62
  256
370
   -1
100
AcDbLine
 10
161.1290772566687
 20
81.40452513156463
 11
161.1290772566687
 21
68.40452513156463
  0
ARC
  5
18B
100
AcDbEntity
  8
switches
  6
ByLayer
 62
  256
370
   -1
100
AcDbCircle
 10
159.6290772566687
 20
81.40452513156463
 40
0.5
100
AcDbArc
 50
90
 51
180
  0
ARC
  5
18C
100
AcDbEntity
  8
switches
  6
ByLayer
 62
  256
370
   -1
100
AcDbCircle
 10
160.6290772566687
 20
81.40452513156463
 40
0.5
100
AcDbArc
 50
0
 51
90
  0
ARC
  5
18D
100
AcDbEntity
  8
switches
  6
ByLayer
 62
  256
370
   -1
100
AcDbCircle
 10
159.6290772566687
 20
68.40452513156463
 40
0.5
100
AcDbArc
 50
180
 51
270
  0
ARC
  5
18E
100
AcDbEntity
  8
switches
  6
ByLayer
 62
  256
370
   -1
100
AcDbCircle
 10
160.6290772566687
 20
68.40452513156463
 40
0.5
100
AcDbArc
 50
270
 51
0
  0
LINE
  5
18F
100
AcDbEntity
  8
switches
  6
ByLayer
 62
  256
370
   -1
100
AcDbLine
 10
181.1290772566687
 20
81.90452513156463
 11
182.1290772566687
 21
81.90452513156463
  0
LINE
  5
190
100
AcDbEntity
  8
switches
  6
ByLayer
 62
  256
370
   -1
100
AcDbLine
 10
181.1290772566687
 20
67.90452513156463
 11
182.1290772566687
 21
67.90452513156463
  0
LINE
  5
191
100
AcDbEntity
  8
switches
  6
ByLayer
 62
  256
370
   -1
100
AcDbLine
 10
180.6290772566687
 20
81.40452513156463
 11
180.6290772566687
 21
68.40452513156463
  0
LINE
  5
192
100
AcDbEntity
  8
switches
  6
ByLayer
 62
  256
370
   -1
100
AcDbLine
 10
182.6290772566687
 20
81.40452513156463
 11
182.6290772566687
 21
68.40452513156463
  0
ARC
  5
193
100
AcDbEntity
  8
switches
  6
ByLayer
 62
  256
370
   -1
100
AcDbCircle
 10
181.1290772566687
 20
81.40452513156463
 40
0.5
100
AcDbArc
 50
90
 51
180
  0
ARC
  5
194
100
AcDbEntity
  8
switches
  6
ByLayer
 62
  256
370
   -1
100
AcDbCircle
 10
182.1290772566687
 20
81.40452513156463
 40
0.5
100
AcDbArc
 50
0
 51
90
  0
ARC
  5
195
100
AcDbEntity
  8
switches
  6
ByLayer
 62
  256
370
   -1
100
AcDbCircle
 10
181.1290772566687
 20
68.40452513156463
 40
0.5
100
AcDbArc
 50
180
 51
270
  0
ARC
  5
196
100
AcDbEntity
  8
switches
  6
ByLayer
 62
  256
370
   -1
100
AcDbCircle
 10
182.1290772566687
 20
68.40452513156463
 40
0.5
100
AcDbArc
 50
270
 51
0
  0
LINE
  5
197
100
AcDbEntity
  8
switches
  6
ByLayer
 62
  256
370
   -1
100
AcDbLine
 10
188.1915772566687
 20
81.90452513156463
 11
201.1915772566687
 21
81.90452513156463
  0
LINE
  5
198
100
AcDbEntity
  8
switches
  6
ByLayer
 62
  256
370
   -1
100
AcDbLine
 10
188.1915772566687
 20
67.90452513156463
 11
201.1915772566687
 21
67.90452513156463
  0
LINE
  5
199
100
AcDbEntity
  8
switches
  6
ByLayer
 62
  256
370
   -1
100
AcDbLine
 10
187.6915772566687
 20
81.40452513156463
 11
187.6915772566687
 21
68.40452513156463
  0
LINE
  5
19A
100
AcDbEntity
  8
switches
  6
ByLayer
 62
  256
370
   -1
100
AcDbLine
 10
201.6915772566687
 20
81.40452513156463
 11
201.6915772566687
 21
68.40452513156463
  0
ARC
  5
19B
100
AcDbEntity
  8
switches
  6
ByLayer
 62
  256
370
   -1
100
AcDbCircle
 10
188.1915772566687
 20
81.40452513156463
 40
0.5
100
AcDbArc
 50
90
 51
180
  0
ARC
  5
19C
100
AcDbEntity
  8
switches
  6
ByLayer
 62
  256
370
   -1
100
AcDbCircle
 10
201.1915772566687
 20
81.40452513156463
 40
0.5
100
AcDbArc
 50
0
 51
90
  0
ARC
  5
19D
100
AcDbEntity
  8
switches
  6
ByLayer
 62
  256
370
   -1
100
AcDbCircle
 10
188.1915772566687
 20
68.40452513156463
 40
0.5
100
AcDbArc
 50
180
 51
270
  0
ARC
  5
19E
100
AcDbEntity
  8
switches
  6
ByLayer
 62
  256
370
   -1
100
AcDbCircle
 10
201.1915772566687
 20
68.40452513156463
 40
0.5
100
AcDbArc
 50
270
 51
0
  0
LINE
  5
19F
100
AcDbEntity
  8
switches
  6
ByLayer
 62
  256
370
   -1
100
AcDbLine
 10
31.02907725666863
 20
62.85452513156473
 11
44.02907725666863
 21
62.85452513156473
  0
LINE
  5
1A0
100
AcDbEntity
  8
switches
  6
ByLayer
 62
  256
370
   -1
100
AcDbLine
 10
31.02907725666863
 20
48.85452513156473
 11
44.02907725666863
 21
48.85452513156473
  0
LINE
  5
1A1
100
AcDbEntity
  8
switches
  6
ByLayer
 62
  256
370
   -1
100
AcDbLine
 10
30.52907725666863
 20
62.35452513156473
 11
30.52907725666863
 21
49.35452513156473
  0
LINE
  5
1A2
100
AcDbEntity
  8
switches
  6
ByLayer
 62
  256
370
   -1
100
AcDbLine
 10
44.52907725666863
 20
62.35452513156473
 11
44.52907725666863
 21
49.35452513156473
  0
ARC
  5
1A3
100
AcDbEntity
  8
switches
  6
ByLayer
 62
  256
370
   -1
100
AcDbCircle
 10
31.02907725666863
 20
62.35452513156473
 40
0.5
100
AcDbArc
 50
90
 51
180
  0
ARC
  5
1A4
100
AcDbEntity
  8
switches
  6
ByLayer
 62
  256
370
   -1
100
AcDbCircle
 10
44.02907725666863
 20
62.35452513156473
 40
0.5
100
AcDbArc
 50
0
 51
90
  0
ARC
  5
1A5
100
AcDbEntity
  8
switches
  6
ByLayer
 62
  256
370
   -1
100
AcDbCircle
 10
31.02907725666863
 20
49.35452513156473
 40
0.5
100
AcDbArc
 50
180
 51
270
  0
ARC
  5
1A6
100
AcDbEntity
  8
switches
  6
ByLayer
 62
  256
370
   -1
100
AcDbCircle
 10
44.02907725666863
 20
49.35452513156473
 40
0.5
100
AcDbArc
 50
270
 51
0
  0
LINE
  5
1A7
100
AcDbEntity
  8
switches
  6
ByLayer
 62
  256
370
   -1
100
AcDbLine
 10
50.07907725666864
 20
62.85452513156473
 11
63.07907725666864
 21
62.85452513156473
  0
LINE
  5
1A8
100
AcDbEntity
  8
switches
  6
ByLayer
 62
  256
370
   -1
100
AcDbLine
 10
50.07907725666864
 20
48.85452513156473
 11
63.07907725666864
 21
48.85452513156473
  0
LINE
  5
1A9
100
AcDbEntity
  8
switches
  6
ByLayer
 62
  256
370
   -1
100
AcDbLine
 10
49.57907725666864
 20
62.35452513156473
 11
49.57907725666864
 21
49.35452513156473
  0
LINE
  5
1AA
100
AcDbEntity
  8
switches
  6
ByLayer
 62
  256
370
   -1
100
AcDbLine
 10
63.57907725666864
 20
62.35452513156473
 11
63.57907725666864
 21
49.35452513156473
  0
ARC
  5
1AB
100
AcDbEntity
  8
switches
  6
ByLayer
 62
  256
370
   -1
100
AcDbCircle
 10
50.07907725666864
 20
62.35452513156473
 40
0.5
100
AcDbArc
 50
90
 51
180
  0
ARC
  5
1AC
100
AcDbEntity
  8
switches
  6
ByLayer
 62
  256
370
   -1
100
AcDbCircle
 10
63.07907725666864
 20
62.35452513156473
 40
0.5
100
AcDbArc
 50
0
 51
90
  0
ARC
  5
1AD
100
AcDbEntity
  8
switches
  6
ByLayer
 62
  256
370
   -1
100
AcDbCircle
 10
50.07907725666864
 20
49.35452513156473
 40
0.5
100
AcDbArc
 50
180
 51
270
  0
ARC
  5
1AE
100
AcDbEntity
  8
switches
  6
ByLayer
 62
  256
370
   -1
100
AcDbCircle
 10
63.07907725666864
 20
49.35452513156473
 40
0.5
100
AcDbArc
 50
270
 51
0
  0
LINE
  5
1AF
100
AcDbEntity
  8
switches
  6
ByLayer
 62
  256
370
   -1
100
AcDbLine
 10
69.12907725666862
 20
62.85452513156473
 11
82.12907725666865
 21
62.85452513156473
  0
LINE
  5
1B0
100
AcDbEntity
  8
switches
  6
ByLayer
 62
  256
370
   -1
100
AcDbLine
 10
69.12907725666862
 20
48.85452513156473
 11
82.12907725666865
 21
48.85452513156473
  0
LINE
  5
1B1
100
AcDbEntity
  8
switches
  6
ByLayer
 62
  256
370
   -1
100
AcDbLine
 10
68.62907725666862
 20
62.35452513156473
 11
68.62907725666862
 21
49.35452513156473
  0
LINE
  5
1B2
100
AcDbEntity
  8
switches
  6
ByLayer
 62
  256
370
   -1
100
AcDbLine
 10
82.62907725666865
 20
62.35452513156473
 11
82.62907725666865
 21
49.35452513156473
  0
ARC
  5
1B3
100
AcDbEntity
  8
switches
  6
ByLayer
 62
  256
370
   -1
100
AcDbCircle
 10
69.12907725666862
 20
62.35452513156473
 40
0.5
100
AcDbArc
 50
90
 51
180
  0
ARC
  5
1B4
100
AcDbEntity
  8
switches
  6
ByLayer
 62
  256
370
   -1
100
AcDbCircle
 10
82.12907725666865
 20
62.35452513156473
 40
0.5
100
AcDbArc
 50
0
 51
90
  0
ARC
  5
1B5
100
AcDbEntity
  8
switches
  6
ByLayer
 62
  256
370
   -1
100
AcDbCircle
 10
69.12907725666862
 20
49.35452513156473
 40
0.5
100
AcDbArc
 50
180
 51
270
  0
ARC
  5
1B6
100
AcDbEntity
  8
switches
  6
ByLayer
 62
  256
370
   -1
100
AcDbCircle
 10
82.12907725666865
 20
49.35452513156473
 40
0.5
100
AcDbArc
 50
270
 51
0
  0
LINE
  5
1B7
100
AcDbEntity
  8
switches
  6
ByLayer
 62
  256
370
   -1
100
AcDbLine
 10
88.17907725666861
 20
62.85452513156473
 11
101.1790772566686
 21
62.85452513156473
  0
LINE
  5
1B8
100
AcDbEntity
  8
switches
  6
ByLayer
 62
  256
370
   -1
100
AcDbLine
 10
88.17907725666861
 20
48.85452513156473
 11
101.1790772566686
 21
48.85452513156473
  0
LINE
  5
1B9
100
AcDbEntity
  8
switches
  6
ByLayer
 62
  256
370
   -1
100
AcDbLine
 10
87.67907725666861
 20
62.35452513156473
 11
87.67907725666861
 21
49.35452513156473
  0
LINE
  5
1BA
100
AcDbEntity
  8
switches
  6
ByLayer
 62
  256
370
   -1
100
AcDbLine
 10
101.6790772566686
 20
62.35452513156473
 11
101.6790772566686
 21
49.35452513156473
  0
ARC
  5
1BB
100
AcDbEntity
  8
switches
  6
ByLayer
 62
  256
370
   -1
100
AcDbCircle
 10
88.17907725666861
 20
62.35452513156473
 40
0.5
100
AcDbArc
 50
90
 51
180
  0
ARC
  5
1BC
100
AcDbEntity
  8
switches
  6
ByLayer
 62
  256
370
   -1
100
AcDbCircle
 10
101.1790772566686
 20
62.35452513156473
 40
0.5
100
AcDbArc
 50
0
 51
90
  0
ARC
  5
1BD
100
AcDbEntity
  8
switches
  6
ByLayer
 62
  256
370
   -1
100
AcDbCircle
 10
88.17907725666861
 20
49.35452513156473
 40
0.5
100
AcDbArc
 50
180
 51
270
  0
ARC
  5
1BE
100
AcDbEntity
  8
switches
  6
ByLayer
 62
  256
370
   -1
100
AcDbCircle
 10
101.1790772566686
 20
49.35452513156473
 40
0.5
100
AcDbArc
 50
270
 51
0
  0
LINE
  5
1BF
100
AcDbEntity
  8
switches
  6
ByLayer
 62
  256
370
   -1
100
AcDbLine
 10
107.2290772566686
 20
62.85452513156473
 11
120.2290772566686
 21
62.85452513156473
  0
LINE
  5
1C0
100
AcDbEntity
  8
switches
  6
ByLayer
 62
  256
370
   -1
100
AcDbLine
 10
107.2290772566686
 20
48.85452513156473
 11
120.2290772566686
 21
48.85452513156473
  0
LINE
  5
1C1
100
AcDbEntity
  8
switches
  6
ByLayer
 62
  256
370
   -1
100
AcDbLine
 10
106.7290772566686
 20
62.35452513156473
 11
106.7290772566686
 21
49.35452513156473
  0
LINE
  5
1C2
100
AcDbEntity
  8
switches
  6
ByLayer
 62
  256
370
   -1
100
AcDbLine
 10
120.7290772566686
 20
62.35452513156473
 11
120.7290772566686
 21
49.35452513156473
  0
ARC
  5
1C3
100
AcDbEntity
  8
switches
  6
ByLayer
 62
  256
370
   -1
100
AcDbCircle
 10
107.2290772566686
 20
62.35452513156473
 40
0.5
100
AcDbArc
 50
90
 51
180
  0
ARC
  5
1C4
100
AcDbEntity
  8
switches
  6
ByLayer
 62
  256
370
   -1
100
AcDbCircle
 10
120.2290772566686
 20
62.35452513156473
 40
0.5
100
AcDbArc
 50
0
 51
90
  0
ARC
  5
1C5
100
AcDbEntity
  8
switches
  6
ByLayer
 62
  256
370
   -1
100
AcDbCircle
 10
107.2290772566686
 20
49.35452513156473
 40
0.5
100
AcDbArc
 50
180
 51
270
  0
ARC
  5
1C6
100
AcDbEntity
  8
switches
  6
ByLayer
 62
  256
370
   -1
100
AcDbCircle
 10
120.2290772566686
 20
49.35452513156473
 40
0.5
100
AcDbArc
 50
270
 51
0
  0
LINE
  5
1C7
100
AcDbEntity
  8
switches
  6
ByLayer
 62
  256
370
   -1
100
AcDbLine
 10
126.2790772566686
 20
62.85452513156473
 11
139.2790772566686
 21
62.85452513156473
  0
LINE
  5
1C8
100
AcDbEntity
  8
switches
  6
ByLayer
 62
  256
370
   -1
100
AcDbLine
 10
126.2790772566686
 20
48.85452513156473
 11
139.2790772566686
 21
48.85452513156473
  0
LINE
  5
1C9
100
AcDbEntity
  8
switches
  6
ByLayer
 62
  256
370
   -1
100
AcDbLine
 10
125.7790772566686
 20
62.35452513156473
 11
125.7790772566686
 21
49.35452513156473
  0
LINE
  5
1CA
100
AcDbEntity
  8
switches
  6
ByLayer
 62
  256
370
   -1
100
AcDbLine
 10
139.7790772566686
 20
62.35452513156473
 11
139.7790772566686
 21
49.35452513156473
  0
ARC
  5
1CB
100
AcDbEntity
  8
switches
  6
ByLayer
 62
  256
370
   -1
100
AcDbCircle
 10
126.2790772566686
 20
62.35452513156473
 40
0.5
100
AcDbArc
 50
90
 51
180
  0
ARC
  5
1CC
100
AcDbEntity
  8
switches
  6
ByLayer
 62
  256
370
   -1
100
AcDbCircle
 10
139.2790772566686
 20
62.35452513156473
 40
0.5
100
AcDbArc
 50
0
 51
90
  0
ARC
  5
1CD
100
AcDbEntity
  8
switches
  6
ByLayer
 62
  256
370
   -1
100
AcDbCircle
 10
126.2790772566686
 20
49.35452513156473
 40
0.5
100
AcDbArc
 50
180
 51
270
  0
ARC
  5
1CE
100
AcDbEntity
  8
switches
  6
ByLayer
 62
  256
370
   -1
100
AcDbCircle
 10
139.2790772566686
 20
49.35452513156473
 40
0.5
100
AcDbArc
 50
270
 51
0
  0
LINE
  5
1CF
100
AcDbEntity
  8
switches
  6
ByLayer
 62
  256
370
   -1
100
AcDbLine
 10
157.2353272566687
 20
62.85452513156473
 11
170.2353272566687
 21
62.85452513156473
  0
LINE
  5
1D0
100
AcDbEntity
  8
switches
  6
ByLayer
 62
  256
370
   -1
100
AcDbLine
 10
157.2353272566687
 20
48.85452513156473
 11
170.2353272566687
 21
48.85452513156473
  0
LINE
  5
1D1
100
AcDbEntity
  8
switches
  6
ByLayer
 62
  256
370
   -1
100
AcDbLine
 10
156.7353272566687
 20
62.35452513156473
 11
156.7353272566687
 21
49.35452513156473
  0
LINE
  5
1D2
100
AcDbEntity
  8
switches
  6
ByLayer
 62
  256
370
   -1
100
AcDbLine
 10
170.7353272566687
 20
62.35452513156473
 11
170.7353272566687
 21
49.35452513156473
  0
ARC
  5
1D3
100
AcDbEntity
  8
switches
  6
ByLayer
 62
  256
370
   -1
100
AcDbCircle
 10
157.2353272566687
 20
62.35452513156473
 40
0.5
100
AcDbArc
 50
90
 51
180
  0
ARC
  5
1D4
100
AcDbEntity
  8
switches
  6
ByLayer
 62
  256
370
   -1
100
AcDbCircle
 10
170.2353272566687
 20
62.35452513156473
 40
0.5
100
AcDbArc
 50
0
 51
90
  0
ARC
  5
1D5
100
AcDbEntity
  8
switches
  6
ByLayer
 62
  256
370
   -1
100
AcDbCircle
 10
157.2353272566687
 20
49.35452513156473
 40
0.5
100
AcDbArc
 50
180
 51
270
  0
ARC
  5
1D6
100
AcDbEntity
  8
switches
  6
ByLayer
 62
  256
370
   -1
100
AcDbCircle
 10
170.2353272566687
 20
49.35452513156473
 40
0.5
100
AcDbArc
 50
270
 51
0
  0
LINE
  5
1D7
100
AcDbEntity
  8
switches
  6
ByLayer
 62
  256
370
   -1
100
AcDbLine
 10
148.7973272566687
 20
61.85452513156473
 11
154.7973272566687
 21
61.85452513156473
  0
LINE
  5
1D8
100
AcDbEntity
  8
switches
  6
ByLayer
 62
  256
370
   -1
100
AcDbLine
 10
148.7973272566687
 20
46.85452513156473
 11
154.7973272566687
 21
46.85452513156473
  0
LINE
  5
1D9
100
AcDbEntity
  8
switches
  6
ByLayer
 62
  256
370
   -1
100
AcDbLine
 10
148.2973272566687
 20
61.35452513156473
 11
148.2973272566687
 21
47.35452513156473
  0
LINE
  5
1DA
100
AcDbEntity
  8
switches
  6
ByLayer
 62
  256
370
   -1
100
AcDbLine
 10
155.2973272566687
 20
61.35452513156473
 11
155.2973272566687
 21
47.35452513156473
  0
ARC
  5
1DB
100
AcDbEntity
  8
switches
  6
ByLayer
 62
  256
370
   -1
100
AcDbCircle
 10
148.7973272566687
 20
61.35452513156473
 40
0.5
100
AcDbArc
 50
90
 51
180
  0
ARC
  5
1DC
100
AcDbEntity
  8
switches
  6
ByLayer
 62
  256
370
   -1
100
AcDbCircle
 10
154.7973272566687
 20
61.35452513156473
 40
0.5
100
AcDbArc
 50
0
 51
90
  0
ARC
  5
1DD
100
AcDbEntity
  8
switches
  6
ByLayer
 62
  256
370
   -1
100
AcDbCircle
 10
148.7973272566687
 20
47.35452513156473
 40
0.5
100
AcDbArc
 50
180
 51
270
  0
ARC
  5
1DE
100
AcDbEntity
  8
switches
  6
ByLayer
 62
  256
370
   -1
100
AcDbCircle
 10
154.7973272566687
 20
47.35452513156473
 40
0.5
100
AcDbArc
 50
270
 51
0
  0
LINE
  5
1DF
100
AcDbEntity
  8
switches
  6
ByLayer
 62
  256
370
   -1
100
AcDbLine
 10
172.6733272566686
 20
61.85452513156473
 11
178.6733272566686
 21
61.85452513156473
  0
LINE
  5
1E0
100
AcDbEntity
  8
switches
  6
ByLayer
 62
  256
370
   -1
100
AcDbLine
 10
172.6733272566686
 20
46.85452513156473
 11
178.6733272566686
 21
46.85452513156473
  0
LINE
  5
1E1
100
AcDbEntity
  8
switches
  6
ByLayer
 62
  256
370
   -1
100
AcDbLine
 10
172.1733272566686
 20
61.35452513156473
 11
172.1733272566686
 21
47.35452513156473
  0
LINE
  5
1E2
100
AcDbEntity
  8
switches
  6
ByLayer
 62
  256
370
   -1
100
AcDbLine
 10
179.1733272566686
 20
61.35452513156473
 11
179.1733272566686
 21
47.35452513156473
  0
ARC
  5
1E3
100
AcDbEntity
  8
switches
  6
ByLayer
 62
  256
370
   -1
100
AcDbCircle
 10
172.6733272566686
 20
61.35452513156473
 40
0.5
100
AcDbArc
 50
90
 51
180
  0
ARC
  5
1E4
100
AcDbEntity
  8
switches
  6
ByLayer
 62
  256
370
   -1
100
AcDbCircle
 10
178.6733272566686
 20
61.35452513156473
 40
0.5
100
AcDbArc
 50
0
 51
90
  0
ARC
  5
1E5
100
AcDbEntity
  8
switches
  6
ByLayer
 62
  256
370
   -1
100
AcDbCircle
 10
172.6733272566686
 20
47.35452513156473
 40
0.5
100
AcDbArc
 50
180
 51
270
  0
ARC
  5
1E6
100
AcDbEntity
  8
switches
  6
ByLayer
 62
  256
370
   -1
100
AcDbCircle
 10
178.6733272566686
 20
47.35452513156473
 40
0.5
100
AcDbArc
 50
270
 51
0
  0
LINE
  5
1E7
100
AcDbEntity
  8
switches
  6
ByLayer
 62
  256
370
   -1
100
AcDbLine
 10
144.9853272566687
 20
62.85452513156473
 11
145.9853272566687
 21
62.85452513156473
  0
LINE
  5
1E8
100
AcDbEntity
  8
switches
  6
ByLayer
 62
  256
370
   -1
100
AcDbLine
 10
144.9853272566687
 20
48.85452513156473
 11
145.9853272566687
 21
48.85452513156473
  0
LINE
  5
1E9
100
AcDbEntity
  8
switches
  6
ByLayer
 62
  256
370
   -1
100
AcDbLine
 10
144.4853272566687
 20
62.35452513156473
 11
144.4853272566687
 21
49.35452513156473
  0
LINE
  5
1EA
100
AcDbEntity
  8
switches
  6
ByLayer
 62
  256
370
   -1
100
AcDbLine
 10
146.4853272566687
 20
62.35452513156473
 11
146.4853272566687
 21
49.35452513156473
  0
ARC
  5
1EB
100
AcDbEntity
  8
switches
  6
ByLayer
 62
  256
370
   -1
100
AcDbCircle
 10
144.9853272566687
 20
62.35452513156473
 40
0.5
100
AcDbArc
 50
90
 51
180
  0
ARC
  5
1EC
100
AcDbEntity
  8
switches
  6
ByLayer
 62
  256
370
   -1
100
AcDbCircle
 10
145.9853272566687
 20
62.35452513156473
 40
0.5
100
AcDbArc
 50
0
 51
90
  0
ARC
  5
1ED
100
AcDbEntity
  8
switches
  6
ByLayer
 62
  256
370
   -1
100
AcDbCircle
 10
144.9853272566687
 20
49.35452513156473
 40
0.5
100
AcDbArc
 50
180
 51
270
  0
ARC
  5
1EE
100
AcDbEntity
  8
switches
  6
ByLayer
 62
  256
370
   -1
100
AcDbCircle
 10
145.9853272566687
 20
49.35452513156473
 40
0.5
100
AcDbArc
 50
270
 51
0
  0
LINE
  5
1EF
100
AcDbEntity
  8
switches
  6
ByLayer
 62
  256
370
   -1
100
AcDbLine
 10
181.4853272566687
 20
62.85452513156473
 11
182.4853272566687
 21
62.85452513156473
  0
LINE
  5
1F0
100
AcDbEntity
  8
switches
  6
ByLayer
 62
  256
370
   -1
100
AcDbLine
 10
181.4853272566687
 20
48.85452513156473
 11
182.4853272566687
 21
48.85452513156473
  0
LINE
  5
1F1
100
AcDbEntity
  8
switches
  6
ByLayer
 62
  256
370
   -1
100
AcDbLine
 10
180.9853272566687
 20
62.35452513156473
 11
180.9853272566687
 21
49.35452513156473
  0
LINE
  5
1F2
100
AcDbEntity
  8
switches
  6
ByLayer
 62
  256
370
   -1
100
AcDbLine
 10
182.9853272566687
 20
62.35452513156473
 11
182.9853272566687
 21
49.35452513156473
  0
ARC
  5
1F3
100
AcDbEntity
  8
switches
  6
ByLayer
 62
  256
370
   -1
100
AcDbCircle
 10
181.4853272566687
 20
62.35452513156473
 40
0.5
100
AcDbArc
 50
90
 51
180
  0
ARC
  5
1F4
100
AcDbEntity
  8
switches
  6
ByLayer
 62
  256
370
   -1
100
AcDbCircle
 10
182.4853272566687
 20
62.35452513156473
 40
0.5
100
AcDbArc
 50
0
 51
90
  0
ARC
  5
1F5
100
AcDbEntity
  8
switches
  6
ByLayer
 62
  256
370
   -1
100
AcDbCircle
 10
181.4853272566687
 20
49.35452513156473
 40
0.5
100
AcDbArc
 50
180
 51
270
  0
ARC
  5
1F6
100
AcDbEntity
  8
switches
  6
ByLayer
 62
  256
370
   -1
100
AcDbCircle
 10
182.4853272566687
 20
49.35452513156473
 40
0.5
100
AcDbArc
 50
270
 51
0
  0
LINE
  5
1F7
100
AcDbEntity
  8
switches
  6
ByLayer
 62
  256
370
   -1
100
AcDbLine
 10
188.1915772566687
 20
62.85452513156473
 11
201.1915772566687
 21
62.85452513156473
  0
LINE
  5
1F8
100
AcDbEntity
  8
switches
  6
ByLayer
 62
  256
370
   -1
100
AcDbLine
 10
188.1915772566687
 20
48.85452513156473
 11
201.1915772566687
 21
48.85452513156473
  0
LINE
  5
1F9
100
AcDbEntity
  8
switches
  6
ByLayer
 62
  256
370
   -1
100
AcDbLine
 10
187.6915772566687
 20
62.35452513156473
 11
187.6915772566687
 21
49.35452513156473
  0
LINE
  5
1FA
100
AcDbEntity
  8
switches
  6
ByLayer
 62
  256
370
   -1
100
AcDbLine
 10
201.6915772566687
 20
62.35452513156473
 11
201.6915772566687
 21
49.35452513156473
  0
ARC
  5
1FB
100
AcDbEntity
  8
switches
  6
ByLayer
 62
  256
370
   -1
100
AcDbCircle
 10
188.1915772566687
 20
62.35452513156473
 40
0.5
100
AcDbArc
 50
90
 51
180
  0
ARC
  5
1FC
100
AcDbEntity
  8
switches
  6
ByLayer
 62
  256
370
   -1
100
AcDbCircle
 10
201.1915772566687
 20
62.35452513156473
 40
0.5
100
AcDbArc
 50
0
 51
90
  0
ARC
  5
1FD
100
AcDbEntity
  8
switches
  6
ByLayer
 62
  256
370
   -1
100
AcDbCircle
 10
188.1915772566687
 20
49.35452513156473
 40
0.5
100
AcDbArc
 50
180
 51
270
  0
ARC
  5
1FE
100
AcDbEntity
  8
switches
  6
ByLayer
 62
  256
370
   -1
100
AcDbCircle
 10
201.1915772566687
 20
49.35452513156473
 40
0.5
100
AcDbArc
 50
270
 51
0
  0
LINE
  5
1FF
100
AcDbEntity
  8
switches
  6
ByLayer
 62
  256
370
   -1
100
AcDbLine
 10
40.55407725666863
 20
43.80452513156474
 11
53.55407725666863
 21
43.80452513156474
  0
LINE
  5
200
100
AcDbEntity
  8
switches
  6
ByLayer
 62
  256
370
   -1
100
AcDbLine
 10
40.55407725666863
 20
29.80452513156474
 11
53.55407725666863
 21
29.80452513156474
  0
LINE
  5
201
100
AcDbEntity
  8
switches
  6
ByLayer
 62
  256
370
   -1
100
AcDbLine
 10
40.05407725666863
 20
43.30452513156474
 11
40.05407725666863
 21
30.30452513156474
  0
LINE
  5
202
100
AcDbEntity
  8
switches
  6
ByLayer
 62
  256
370
   -1
100
AcDbLine
 10
54.05407725666863
 20
43.30452513156474
 11
54.05407725666863
 21
30.30452513156474
  0
ARC
  5
203
100
AcDbEntity
  8
switches
  6
ByLayer
 62
  256
370
   -1
100
AcDbCircle
 10
40.55407725666863
 20
43.30452513156474
 40
0.5
100
AcDbArc
 50
90
 51
180
  0
ARC
  5
204
100
AcDbEntity
  8
switches
  6
ByLayer
 62
  256
370
   -1
100
AcDbCircle
 10
53.55407725666863
 20
43.30452513156474
 40
0.5
100
AcDbArc
 50
0
 51
90
  0
ARC
  5
205
100
AcDbEntity
  8
switches
  6
ByLayer
 62
  256
370
   -1
100
AcDbCircle
 10
40.55407725666863
 20
30.30452513156474
 40
0.5
100
AcDbArc
 50
180
 51
270
  0
ARC
  5
206
100
AcDbEntity
  8
switches
  6
ByLayer
 62
  256
370
   -1
100
AcDbCircle
 10
53.55407725666863
 20
30.30452513156474
 40
0.5
100
AcDbArc
 50
270
 51
0
  0
LINE
  5
207
100
AcDbEntity
  8
switches
  6
ByLayer
 62
  256
370
   -1
100
AcDbLine
 10
59.60407725666862
 20
43.80452513156474
 11
72.60407725666862
 21
43.80452513156474
  0
LINE
  5
208
100
AcDbEntity
  8
switches
  6
ByLayer
 62
  256
370
   -1
100
AcDbLine
 10
59.60407725666862
 20
29.80452513156474
 11
72.60407725666862
 21
29.80452513156474
  0
LINE
  5
209
100
AcDbEntity
  8
switches
  6
ByLayer
 62
  256
370
   -1
100
AcDbLine
 10
59.10407725666862
 20
43.30452513156474
 11
59.10407725666862
 21
30.30452513156474
  0
LINE
  5
20A
100
AcDbEntity
  8
switches
  6
ByLayer
 62
  256
370
   -1
100
AcDbLine
 10
73.10407725666862
 20
43.30452513156474
 11
73.10407725666862
 21
30.30452513156474
  0
ARC
  5
20B
100
AcDbEntity
  8
switches
  6
ByLayer
 62
  256
370
   -1
100
AcDbCircle
 10
59.60407725666862
 20
43.30452513156474
 40
0.5
100
AcDbArc
 50
90
 51
180
  0
ARC
  5
20C
100
AcDbEntity
  8
switches
  6
ByLayer
 62
  256
370
   -1
100
AcDbCircle
 10
72.60407725666862
 20
43.30452513156474
 40
0.5
100
AcDbArc
 50
0
 51
90
  0
ARC
  5
20D
100
AcDbEntity
  8
switches
  6
ByLayer
 62
  256
370
   -1
100
AcDbCircle
 10
59.60407725666862
 20
30.30452513156474
 40
0.5
100
AcDbArc
 50
180
 51
270
  0
ARC
  5
20E
100
AcDbEntity
  8
switches
  6
ByLayer
 62
  256
370
   -1
100
AcDbCircle
 10
72.60407725666862
 20
30.30452513156474
 40
0.5
100
AcDbArc
 50
270
 51
0
  0
LINE
  5
20F
100
AcDbEntity
  8
switches
  6
ByLayer
 62
  256
370
   -1
100
AcDbLine
 10
78.65407725666863
 20
43.80452513156474
 11
91.65407725666863
 21
43.80452513156474
  0
LINE
  5
210
100
AcDbEntity
  8
switches
  6
ByLayer
 62
  256
370
   -1
100
AcDbLine
 10
78.65407725666863
 20
29.80452513156474
 11
91.65407725666863
 21
29.80452513156474
  0
LINE
  5
211
100
AcDbEntity
  8
switches
  6
ByLayer
 62
  256
370
   -1
100
AcDbLine
 10
78.15407725666863
 20
43.30452513156474
 11
78.15407725666863
 21
30.30452513156474
  0
LINE
  5
212
100
AcDbEntity
  8
switches
  6
ByLayer
 62
  256
370
   -1
100
AcDbLine
 10
92.15407725666863
 20
43.30452513156474
 11
92.15407725666863
 21
30.30452513156474
  0
ARC
  5
213
100
AcDbEntity
  8
switches
  6
ByLayer
 62
  256
370
   -1
100
AcDbCircle
 10
78.65407725666863
 20
43.30452513156474
 40
0.5
100
AcDbArc
 50
90
 51
180
  0
ARC
  5
214
100
AcDbEntity
  8
switches
  6
ByLayer
 62
  256
370
   -1
100
AcDbCircle
 10
91.65407725666863
 20
43.30452513156474
 40
0.5
100
AcDbArc
 50
0
 51
90
  0
ARC
  5
215
100
AcDbEntity
  8
switches
  6
ByLayer
 62
  256
370
   -1
100
AcDbCircle
 10
78.65407725666863
 20
30.30452513156474
 40
0.5
100
AcDbArc
 50
180
 51
270
  0
ARC
  5
216
100
AcDbEntity
  8
switches
  6
ByLayer
 62
  256
370
   -1
100
AcDbCircle
 10
91.65407725666863
 20
30.30452513156474
 40
0.5
100
AcDbArc
 50
270
 51
0
  0
LINE
  5
217
100
AcDbEntity
  8
switches
  6
ByLayer
 62
  256
370
   -1
100
AcDbLine
 10
97.70407725666864
 20
43.80452513156474
 11
110.7040772566686
 21
43.80452513156474
  0
LINE
  5
218
100
AcDbEntity
  8
switches
  6
ByLayer
 62
  256
370
   -1
100
AcDbLine
 10
97.70407725666864
 20
29.80452513156474
 11
110.7040772566686
 21
29.80452513156474
  0
LINE
  5
219
100
AcDbEntity
  8
switches
  6
ByLayer
 62
  256
370
   -1
100
AcDbLine
 10
97.20407725666864
 20
43.30452513156474
 11
97.20407725666864
 21
30.30452513156474
  0
LINE
  5
21A
100
AcDbEntity
  8
switches
  6
ByLayer
 62
  256
370
   -1
100
AcDbLine
 10
111.2040772566686
 20
43.30452513156474
 11
111.2040772566686
 21
30.30452513156474
  0
ARC
  5
21B
100
AcDbEntity
  8
switches
  6
ByLayer
 62
  256
370
   -1
100
AcDbCircle
 10
97.70407725666864
 20
43.30452513156474
 40
0.5
100
AcDbArc
 50
90
 51
180
  0
ARC
  5
21C
100
AcDbEntity
  8
switches
  6
ByLayer
 62
  256
370
   -1
100
AcDbCircle
 10
110.7040772566686
 20
43.30452513156474
 40
0.5
100
AcDbArc
 50
0
 51
90
  0
ARC
  5
21D
100
AcDbEntity
  8
switches
  6
ByLayer
 62
  256
370
   -1
100
AcDbCircle
 10
97.70407725666864
 20
30.30452513156474
 40
0.5
100
AcDbArc
 50
180
 51
270
  0
ARC
  5
21E
100
AcDbEntity
  8
switches
  6
ByLayer
 62
  256
370
   -1
100
AcDbCircle
 10
110.7040772566686
 20
30.30452513156474
 40
0.5
100
AcDbArc
 50
270
 51
0
  0
LINE
  5
21F
100
AcDbEntity
  8
switches
  6
ByLayer
 62
  256
370
   -1
100
AcDbLine
 10
116.7540772566687
 20
43.80452513156474
 11
129.7540772566687
 21
43.80452513156474
  0
LINE
  5
220
100
AcDbEntity
  8
switches
  6
ByLayer
 62
  256
370
   -1
100
AcDbLine
 10
116.7540772566687
 20
29.80452513156474
 11
129.7540772566687
 21
29.80452513156474
  0
LINE
  5
221
100
AcDbEntity
  8
switches
  6
ByLayer
 62
  256
370
   -1
100
AcDbLine
 10
116.2540772566687
 20
43.30452513156474
 11
116.2540772566687
 21
30.30452513156474
  0
LINE
  5
222
100
AcDbEntity
  8
switches
  6
ByLayer
 62
  256
370
   -1
100
AcDbLine
 10
130.2540772566687
 20
43.30452513156474
 11
130.2540772566687
 21
30.30452513156474
  0
ARC
  5
223
100
AcDbEntity
  8
switches
  6
ByLayer
 62
  256
370
   -1
100
AcDbCircle
 10
116.7540772566687
 20
43.30452513156474
 40
0.5
100
AcDbArc
 50
90
 51
180
  0
ARC
  5
224
100
AcDbEntity
  8
switches
  6
ByLayer
 62
  256
370
   -1
100
AcDbCircle
 10
129.7540772566687
 20
43.30452513156474
 40
0.5
100
AcDbArc
 50
0
 51
90
  0
ARC
  5
225
100
AcDbEntity
  8
switches
  6
ByLayer
 62
  256
370
   -1
100
AcDbCircle
 10
116.7540772566687
 20
30.30452513156474
 40
0.5
100
AcDbArc
 50
180
 51
270
  0
ARC
  5
226
100
AcDbEntity
  8
switches
  6
ByLayer
 62
  256
370
   -1
100
AcDbCircle
 10
129.7540772566687
 20
30.30452513156474
 40
0.5
100
AcDbArc
 50
270
 51
0
  0
LINE
  5
227
100
AcDbEntity
  8
switches
  6
ByLayer
 62
  256
370
   -1
100
AcDbLine
 10
152.4728272566687
 20
43.80452513156474
 11
165.4728272566687
 21
43.80452513156474
  0
LINE
  5
228
100
AcDbEntity
  8
switches
  6
ByLayer
 62
  256
370
   -1
100
AcDbLine
 10
152.4728272566687
 20
29.80452513156474
 11
165.4728272566687
 21
29.80452513156474
  0
LINE
  5
229
100
AcDbEntity
  8
switches
  6
ByLayer
 62
  256
370
   -1
100
AcDbLine
 10
151.9728272566687
 20
43.30452513156474
 11
151.9728272566687
 21
30.30452513156474
  0
LINE
  5
22A
100
AcDbEntity
  8
switches
  6
ByLayer
 62
  256
370
   -1
100
AcDbLine
 10
165.9728272566687
 20
43.30452513156474
 11
165.9728272566687
 21
30.30452513156474
  0
ARC
  5
22B
100
AcDbEntity
  8
switches
  6
ByLayer
 62
  256
370
   -1
100
AcDbCircle
 10
152.4728272566687
 20
43.30452513156474
 40
0.5
100
AcDbArc
 50
90
 51
180
  0
ARC
  5
22C
100
AcDbEntity
  8
switches
  6
ByLayer
 62
  256
370
   -1
100
AcDbCircle
 10
165.4728272566687
 20
43.30452513156474
 40
0.5
100
AcDbArc
 50
0
 51
90
  0
ARC
  5
22D
100
AcDbEntity
  8
switches
  6
ByLayer
 62
  256
370
   -1
100
AcDbCircle
 10
152.4728272566687
 20
30.30452513156474
 40
0.5
100
AcDbArc
 50
180
 51
270
  0
ARC
  5
22E
100
AcDbEntity
  8
switches
  6
ByLayer
 62
  256
370
   -1
100
AcDbCircle
 10
165.4728272566687
 20
30.30452513156474
 40
0.5
100
AcDbArc
 50
270
 51
0
  0
LINE
  5
22F
100
AcDbEntity
  8
switches
  6
ByLayer
 62
  256
370
   -1
100
AcDbLine
 10
144.0348272566686
 20
42.80452513156474
 11
150.0348272566686
 21
42.80452513156474
  0
LINE
  5
230
100
AcDbEntity
  8
switches
  6
ByLayer
 62
  256
370
   -1
100
AcDbLine
 10
144.0348272566686
 20
27.80452513156474
 11
150.0348272566686
 21
27.80452513156474
  0
LINE
  5
231
100
AcDbEntity
  8
switches
  6
ByLayer
 62
  256
370
   -1
100
AcDbLine
 10
143.5348272566686
 20
42.30452513156474
 11
143.5348272566686
 21
28.30452513156474
  0
LINE
  5
232
100
AcDbEntity
  8
switches
  6
ByLayer
 62
  256
370
   -1
100
AcDbLine
 10
150.5348272566686
 20
42.30452513156474
 11
150.5348272566686
 21
28.30452513156474
  0
ARC
  5
233
100
AcDbEntity
  8
switches
  6
ByLayer
 62
  256
370
   -1
100
AcDbCircle
 10
144.0348272566686
 20
42.30452513156474
 40
0.5
100
AcDbArc
 50
90
 51
180
  0
ARC
  5
234
100
AcDbEntity
  8
switches
  6
ByLayer
 62
  256
370
   -1
100
AcDbCircle
 10
150.0348272566686
 20
42.30452513156474
 40
0.5
100
AcDbArc
 50
0
 51
90
  0
ARC
  5
235
100
AcDbEntity
  8
switches
  6
ByLayer
 62
  256
370
   -1
100
AcDbCircle
 10
144.0348272566686
 20
28.30452513156474
 40
0.5
100
AcDbArc
 50
180
 51
270
  0
ARC
  5
236
100
AcDbEntity
  8
switches
  6
ByLayer
 62
  256
370
   -1
100
AcDbCircle
 10
150.0348272566686
 20
28.30452513156474
 40
0.5
100
AcDbArc
 50
270
 51
0
  0
LINE
  5
237
100
AcDbEntity
  8
switches
  6
ByLayer
 62
  256
370
   -1
100
AcDbLine
 10
167.9108272566687
 20
42.80452513156474
 11
173.9108272566687
 21
42.80452513156474
  0
LINE
  5
238
100
AcDbEntity
  8
switches
  6
ByLayer
 62
  256
370
   -1
100
AcDbLine
 10
167.9108272566687
 20
27.80452513156474
 11
173.9108272566687
 21
27.80452513156474
  0
LINE
  5
239
100
AcDbEntity
  8
switches
  6
ByLayer
 62
  256
370
   -1
100
AcDbLine
 10
167.4108272566687
 20
42.30452513156474
 11
167.4108272566687
 21
28.30452513156474
  0
LINE
  5
23A
100
AcDbEntity
  8
switches
  6
ByLayer
 62
  256
370
   -1
100
AcDbLine
 10
174.4108272566687
 20
42.30452513156474
 11
174.4108272566687
 21
28.30452513156474
  0
ARC
  5
23B
100
AcDbEntity
  8
switches
  6
ByLayer
 62
  256
370
   -1
100
AcDbCircle
 10
167.9108272566687
 20
42.30452513156474
 40
0.5
100
AcDbArc
 50
90
 51
180
  0
ARC
  5
23C
100
AcDbEntity
  8
switches
  6
ByLayer
 62
  256
370
   -1
100
AcDbCircle
 10
173.9108272566687
 20
42.30452513156474
 40
0.5
100
AcDbArc
 50
0
 51
90
  0
ARC
  5
23D
100
AcDbEntity
  8
switches
  6
ByLayer
 62
  256
370
   -1
100
AcDbCircle
 10
167.9108272566687
 20
28.30452513156474
 40
0.5
100
AcDbArc
 50
180
 51
270
  0
ARC
  5
23E
100
AcDbEntity
  8
switches
  6
ByLayer
 62
  256
370
   -1
100
AcDbCircle
 10
173.9108272566687
 20
28.30452513156474
 40
0.5
100
AcDbArc
 50
270
 51
0
  0
LINE
  5
23F
100
AcDbEntity
  8
switches
  6
ByLayer
 62
  256
370
   -1
100
AcDbLine
 10
140.2228272566687
 20
43.80452513156474
 11
141.2228272566687
 21
43.80452513156474
  0
LINE
  5
240
100
AcDbEntity
  8
switches
  6
ByLayer
 62
  256
370
   -1
100
AcDbLine
 10
140.2228272566687
 20
29.80452513156474
 11
141.2228272566687
 21
29.80452513156474
  0
LINE
  5
241
100
AcDbEntity
  8
switches
  6
ByLayer
 62
  256
370
   -1
100
AcDbLine
 10
139.7228272566687
 20
43.30452513156474
 11
139.7228272566687
 21
30.30452513156474
  0
LINE
  5
242
100
AcDbEntity
  8
switches
  6
ByLayer
 62
  256
370
   -1
100
AcDbLine
 10
141.7228272566687
 20
43.30452513156474
 11
141.7228272566687
 21
30.30452513156474
  0
ARC
  5
243
100
AcDbEntity
  8
switches
  6
ByLayer
 62
  256
370
   -1
100
AcDbCircle
 10
140.2228272566687
 20
43.30452513156474
 40
0.5
100
AcDbArc
 50
90
 51
180
  0
ARC
  5
244
100
AcDbEntity
  8
switches
  6
ByLayer
 62
  256
370
   -1
100
AcDbCircle
 10
141.2228272566687
 20
43.30452513156474
 40
0.5
100
AcDbArc
 50
0
 51
90
  0
ARC
  5
245
100
AcDbEntity
  8
switches
  6
ByLayer
 62
  256
370
   -1
100
AcDbCircle
 10
140.2228272566687
 20
30.30452513156474
 40
0.5
100
AcDbArc
 50
180
 51
270
  0
ARC
  5
246
100
AcDbEntity
  8
switches
  6
ByLayer
 62
  256
370
   -1
100
AcDbCircle
 10
141.2228272566687
 20
30.30452513156474
 40
0.5
100
AcDbArc
 50
270
 51
0
  0
LINE
  5
247
100
AcDbEntity
  8
switches
  6
ByLayer
 62
  256
370
   -1
100
AcDbLine
 10
176.7228272566687
 20
43.80452513156474
 11
177.7228272566687
 21
43.80452513156474
  0
LINE
  5
248
100
AcDbEntity
  8
switches
  6
ByLayer
 62
  256
370
   -1
100
AcDbLine
 10
176.7228272566687
 20
29.80452513156474
 11
177.7228272566687
 21
29.80452513156474
  0
LINE
  5
249
100
AcDbEntity
  8
switches
  6
ByLayer
 62
  256
370
   -1
100
AcDbLine
 10
176.2228272566687
 20
43.30452513156474
 11
176.2228272566687
 21
30.30452513156474
  0
LINE
  5
24A
100
AcDbEntity
  8
switches
  6
ByLayer
 62
  256
370
   -1
100
AcDbLine
 10
178.2228272566687
 20
43.30452513156474
 11
178.2228272566687
 21
30.30452513156474
  0
ARC
  5
24B
100
AcDbEntity
  8
switches
  6
ByLayer
 62
  256
370
   -1
100
AcDbCircle
 10
176.7228272566687
 20
43.30452513156474
 40
0.5
100
AcDbArc
 50
90
 51
180
  0
ARC
  5
24C
100
AcDbEntity
  8
switches
  6
ByLayer
 62
  256
370
   -1
100
AcDbCircle
 10
177.7228272566687
 20
43.30452513156474
 40
0.5
100
AcDbArc
 50
0
 51
90
  0
ARC
  5
24D
100
AcDbEntity
  8
switches
  6
ByLayer
 62
  256
370
   -1
100
AcDbCircle
 10
176.7228272566687
 20
30.30452513156474
 40
0.5
100
AcDbArc
 50
180
 51
270
  0
ARC
  5
24E
100
AcDbEntity
  8
switches
  6
ByLayer
 62
  256
370
   -1
100
AcDbCircle
 10
177.7228272566687
 20
30.30452513156474
 40
0.5
100
AcDbArc
 50
270
 51
0
  0
LINE
  5
24F
100
AcDbEntity
  8
switches
  6
ByLayer
 62
  256
370
   -1
100
AcDbLine
 10
188.1915772566687
 20
43.80452513156474
 11
201.1915772566687
 21
43.80452513156474
  0
LINE
  5
250
100
AcDbEntity
  8
switches
  6
ByLayer
 62
  256
370
   -1
100
AcDbLine
 10
188.1915772566687
 20
29.80452513156474
 11
201.1915772566687
 21
29.80452513156474
  0
LINE
  5
251
100
AcDbEntity
  8
switches
  6
ByLayer
 62
  256
370
   -1
100
AcDbLine
 10
187.6915772566687
 20
43.30452513156474
 11
187.6915772566687
 21
30.30452513156474
  0
LINE
  5
252
100
AcDbEntity
  8
switches
  6
ByLayer
 62
  256
370
   -1
100
AcDbLine
 10
201.6915772566687
 20
43.30452513156474
 11
201.6915772566687
 21
30.30452513156474
  0
ARC
  5
253
100
AcDbEntity
  8
switches
  6
ByLayer
 62
  256
370
   -1
100
AcDbCircle
 10
188.1915772566687
 20
43.30452513156474
 40
0.5
100
AcDbArc
 50
90
 51
180
  0
ARC
  5
254
100
AcDbEntity
  8
switches
  6
ByLayer
 62
  256
370
   -1
100
AcDbCircle
 10
201.1915772566687
 20
43.30452513156474
 40
0.5
100
AcDbArc
 50
0
 51
90
  0
ARC
  5
255
100
AcDbEntity
  8
switches
  6
ByLayer
 62
  256
370
   -1
100
AcDbCircle
 10
188.1915772566687
 20
30.30452513156474
 40
0.5
100
AcDbArc
 50
180
 51
270
  0
ARC
  5
256
100
AcDbEntity
  8
switches
  6
ByLayer
 62
  256
370
   -1
100
AcDbCircle
 10
201.1915772566687
 20
30.30452513156474
 40
0.5
100
AcDbArc
 50
270
 51
0
  0
LINE
  5
257
100
AcDbEntity
  8
switches
  6
ByLayer
 62
  256
370
   -1
100
AcDbLine
 10
57.22282725666863
 20
24.75452513156462
 11
70.22282725666862
 21
24.75452513156462
  0
LINE
  5
258
100
AcDbEntity
  8
switches
  6
ByLayer
 62
  256
370
   -1
100
AcDbLine
 10
57.22282725666863
 20
10.75452513156462
 11
70.22282725666862
 21
10.75452513156462
  0
LINE
  5
259
100
AcDbEntity
  8
switches
  6
ByLayer
 62
  256
370
   -1
100
AcDbLine
 10
56.72282725666863
 20
24.25452513156462
 11
56.72282725666863
 21
11.25452513156462
  0
LINE
  5
25A
100
AcDbEntity
  8
switches
  6
ByLayer
 62
  256
370
   -1
100
AcDbLine
 10
70.72282725666862
 20
24.25452513156462
 11
70.72282725666862
 21
11.25452513156462
  0
ARC
  5
25B
100
AcDbEntity
  8
switches
  6
ByLayer
 62
  256
370
   -1
100
AcDbCircle
 10
57.22282725666863
 20
24.25452513156462
 40
0.5
100
AcDbArc
 50
90
 51
180
  0
ARC
  5
25C
100
AcDbEntity
  8
switches
  6
ByLayer
 62
  256
370
   -1
100
AcDbCircle
 10
70.22282725666862
 20
24.25452513156462
 40
0.5
100
AcDbArc
 50
0
 51
90
  0
ARC
  5
25D
100
AcDbEntity
  8
switches
  6
ByLayer
 62
  256
370
   -1
100
AcDbCircle
 10
57.22282725666863
 20
11.25452513156462
 40
0.5
100
AcDbArc
 50
180
 51
270
  0
ARC
  5
25E
100
AcDbEntity
  8
switches
  6
ByLayer
 62
  256
370
   -1
100
AcDbCircle
 10
70.22282725666862
 20
11.25452513156462
 40
0.5
100
AcDbArc
 50
270
 51
0
  0
LINE
  5
25F
100
AcDbEntity
  8
switches
  6
ByLayer
 62
  256
370
   -1
100
AcDbLine
 10
48.78482725666863
 20
23.75452513156462
 11
54.78482725666863
 21
23.75452513156462
  0
LINE
  5
260
100
AcDbEntity
  8
switches
  6
ByLayer
 62
  256
370
   -1
100
AcDbLine
 10
48.78482725666863
 20
8.75452513156462
 11
54.78482725666863
 21
8.75452513156462
  0
LINE
  5
261
100
AcDbEntity
  8
switches
  6
ByLayer
 62
  256
370
   -1
100
AcDbLine
 10
48.28482725666863
 20
23.25452513156462
 11
48.28482725666863
 21
9.25452513156462
  0
LINE
  5
262
100
AcDbEntity
  8
switches
  6
ByLayer
 62
  256
370
   -1
100
AcDbLine
 10
55.28482725666863
 20
23.25452513156462
 11
55.28482725666863
 21
9.25452513156462
  0
ARC
  5
263
100
AcDbEntity
  8
switches
  6
ByLayer
 62
  256
370
   -1
100
AcDbCircle
 10
48.78482725666863
 20
23.25452513156462
 40
0.5
100
AcDbArc
 50
90
 51
180
  0
ARC
  5
264
100
AcDbEntity
  8
switches
  6
ByLayer
 62
  256
370
   -1
100
AcDbCircle
 10
54.78482725666863
 20
23.25452513156462
 40
0.5
100
AcDbArc
 50
0
 51
90
  0
ARC
  5
265
100
AcDbEntity
  8
switches
  6
ByLayer
 62
  256
370
   -1
100
AcDbCircle
 10
48.78482725666863
 20
9.25452513156462
 40
0.5
100
AcDbArc
 50
180
 51
270
  0
ARC
  5
266
100
AcDbEntity
  8
switches
  6
ByLayer
 62
  256
370
   -1
100
AcDbCircle
 10
54.78482725666863
 20
9.25452513156462
 40
0.5
100
AcDbArc
 50
270
 51
0
  0
LINE
  5
267
100
AcDbEntity
  8
switches
  6
ByLayer
 62
  256
370
   -1
100
AcDbLine
 10
72.66082725666864
 20
23.75452513156462
 11
78.66082725666864
 21
23.75452513156462
  0
LINE
  5
268
100
AcDbEntity
  8
switches
  6
ByLayer
 62
  256
370
   -1
100
AcDbLine
 10
72.66082725666864
 20
8.75452513156462
 11
78.66082725666864
 21
8.75452513156462
  0
LINE
  5
269
100
AcDbEntity
  8
switches
  6
ByLayer
 62
  256
370
   -1
100
AcDbLine
 10
72.16082725666864
 20
23.25452513156462
 11
72.16082725666864
 21
9.25452513156462
  0
LINE
  5
26A
100
AcDbEntity
  8
switches
  6
ByLayer
 62
  256
370
   -1
100
AcDbLine
 10
79.16082725666864
 20
23.25452513156462
 11
79.16082725666864
 21
9.25452513156462
  0
ARC
  5
26B
100
AcDbEntity
  8
switches
  6
ByLayer
 62
  256
370
   -1
100
AcDbCircle
 10
72.66082725666864
 20
23.25452513156462
 40
0.5
100
AcDbArc
 50
90
 51
180
  0
ARC
  5
26C
100
AcDbEntity
  8
switches
  6
ByLayer
 62
  256
370
   -1
100
AcDbCircle
 10
78.66082725666864
 20
23.25452513156462
 40
0.5
100
AcDbArc
 50
0
 51
90
  0
ARC
  5
26D
100
AcDbEntity
  8
switches
  6
ByLayer
 62
  256
370
   -1
100
AcDbCircle
 10
72.66082725666864
 20
9.25452513156462
 40
0.5
100
AcDbArc
 50
180
 51
270
  0
ARC
  5
26E
100
AcDbEntity
  8
switches
  6
ByLayer
 62
  256
370
   -1
100
AcDbCircle
 10
78.66082725666864
 20
9.25452513156462
 40
0.5
100
AcDbArc
 50
270
 51
0
  0
LINE
  5
26F
100
AcDbEntity
  8
switches
  6
ByLayer
 62
  256
370
   -1
100
AcDbLine
 10
44.97282725666863
 20
24.75452513156462
 11
45.97282725666863
 21
24.75452513156462
  0
LINE
  5
270
100
AcDbEntity
  8
switches
  6
ByLayer
 62
  256
370
   -1
100
AcDbLine
 10
44.97282725666863
 20
10.75452513156462
 11
45.97282725666863
 21
10.75452513156462
  0
LINE
  5
271
100
AcDbEntity
  8
switches
  6
ByLayer
 62
  256
370
   -1
100
AcDbLine
 10
44.47282725666863
 20
24.25452513156462
 11
44.47282725666863
 21
11.25452513156462
  0
LINE
  5
272
100
AcDbEntity
  8
switches
  6
ByLayer
 62
  256
370
   -1
100
AcDbLine
 10
46.47282725666863
 20
24.25452513156462
 11
46.47282725666863
 21
11.25452513156462
  0
ARC
  5
273
100
AcDbEntity
  8
switches
  6
ByLayer
 62
  256
370
   -1
100
AcDbCircle
 10
44.97282725666863
 20
24.25452513156462
 40
0.5
100
AcDbArc
 50
90
 51
180
  0
ARC
  5
274
100
AcDbEntity
  8
switches
  6
ByLayer
 62
  256
370
   -1
100
AcDbCircle
 10
45.97282725666863
 20
24.25452513156462
 40
0.5
100
AcDbArc
 50
0
 51
90
  0
ARC
  5
275
100
AcDbEntity
  8
switches
  6
ByLayer
 62
  256
370
   -1
100
AcDbCircle
 10
44.97282725666863
 20
11.25452513156462
 40
0.5
100
AcDbArc
 50
180
 51
270
  0
ARC
  5
276
100
AcDbEntity
  8
switches
  6
ByLayer
 62
  256
370
   -1
100
AcDbCircle
 10
45.97282725666863
 20
11.25452513156462
 40
0.5
100
AcDbArc
 50
270
 51
0
  0
LINE
  5
277
100
AcDbEntity
  8
switches
  6
ByLayer
 62
  256
370
   -1
100
AcDbLine
 10
81.47282725666865
 20
24.75452513156462
 11
82.47282725666865
 21
24.75452513156462
  0
LINE
  5
278
100
AcDbEntity
  8
switches
  6
ByLayer
 62
  256
370
   -1
100
AcDbLine
 10
81.47282725666865
 20
10.75452513156462
 11
82.47282725666865
 21
10.75452513156462
  0
LINE
  5
279
100
AcDbEntity
  8
switches
  6
ByLayer
 62
  256
370
   -1
100
AcDbLine
 10
80.97282725666865
 20
24.25452513156462
 11
80.97282725666865
 21
11.25452513156462
  0
LINE
  5
27A
100
AcDbEntity
  8
switches
  6
ByLayer
 62
  256
370
   -1
100
AcDbLine
 10
82.97282725666865
 20
24.25452513156462
 11
82.97282725666865
 21
11.25452513156462
  0
ARC
  5
27B
100
AcDbEntity
  8
switches
  6
ByLayer
 62
  256
370
   -1
100
AcDbCircle
 10
81.47282725666865
 20
24.25452513156462
 40
0.5
100
AcDbArc
 50
90
 51
180
  0
ARC
  5
27C
100
AcDbEntity
  8
switches
  6
ByLayer
 62
  256
370
   -1
100
AcDbCircle
 10
82.47282725666865
 20
24.25452513156462
 40
0.5
100
AcDbArc
 50
0
 51
90
  0
ARC
  5
27D
100
AcDbEntity
  8
switches
  6
ByLayer
 62
  256
370
   -1
100
AcDbCircle
 10
81.47282725666865
 20
11.25452513156462
 40
0.5
100
AcDbArc
 50
180
 51
270
  0
ARC
  5
27E
100
AcDbEntity
  8
switches
  6
ByLayer
 62
  256
370
   -1
100
AcDbCircle
 10
82.47282725666865
 20
11.25452513156462
 40
0.5
100
AcDbArc
 50
270
 51
0
  0
LINE
  5
27F
100
AcDbEntity
  8
switches
  6
ByLayer
 62
  256
370
   -1
100
AcDbLine
 10
95.32282725666862
 20
24.75452513156462
 11
108.3228272566686
 21
24.75452513156462
  0
LINE
  5
280
100
AcDbEntity
  8
switches
  6
ByLayer
 62
  256
370
   -1
100
AcDbLine
 10
95.32282725666862
 20
10.75452513156462
 11
108.3228272566686
 21
10.75452513156462
  0
LINE
  5
281
100
AcDbEntity
  8
switches
  6
ByLayer
 62
  256
370
   -1
100
AcDbLine
 10
94.82282725666862
 20
24.25452513156462
 11
94.82282725666862
 21
11.25452513156462
  0
LINE
  5
282
100
AcDbEntity
  8
switches
  6
ByLayer
 62
  256
370
   -1
100
AcDbLine
 10
108.8228272566686
 20
24.25452513156462
 11
108.8228272566686
 21
11.25452513156462
  0
ARC
  5
283
100
AcDbEntity
  8
switches
  6
ByLayer
 62
  256
370
   -1
100
AcDbCircle
 10
95.32282725666862
 20
24.25452513156462
 40
0.5
100
AcDbArc
 50
90
 51
180
  0
ARC
  5
284
100
AcDbEntity
  8
switches
  6
ByLayer
 62
  256
370
   -1
100
AcDbCircle
 10
108.3228272566686
 20
24.25452513156462
 40
0.5
100
AcDbArc
 50
0
 51
90
  0
ARC
  5
285
100
AcDbEntity
  8
switches
  6
ByLayer
 62
  256
370
   -1
100
AcDbCircle
 10
95.32282725666862
 20
11.25452513156462
 40
0.5
100
AcDbArc
 50
180
 51
270
  0
ARC
  5
286
100
AcDbEntity
  8
switches
  6
ByLayer
 62
  256
370
   -1
100
AcDbCircle
 10
108.3228272566686
 20
11.25452513156462
 40
0.5
100
AcDbArc
 50
270
 51
0
  0
LINE
  5
287
100
AcDbEntity
  8
switches
  6
ByLayer
 62
  256
370
   -1
100
AcDbLine
 10
119.1353272566686
 20
24.75452513156462
 11
132.1353272566686
 21
24.75452513156462
  0
LINE
  5
288
100
AcDbEntity
  8
switches
  6
ByLayer
 62
  256
370
   -1
100
AcDbLine
 10
119.1353272566686
 20
10.75452513156462
 11
132.1353272566686
 21
10.75452513156462
  0
LINE
  5
289
100
AcDbEntity
  8
switches
  6
ByLayer
 62
  256
370
   -1
100
AcDbLine
 10
118.6353272566686
 20
24.25452513156462
 11
118.6353272566686
 21
11.25452513156462
  0
LINE
  5
28A
100
AcDbEntity
  8
switches
  6
ByLayer
 62
  256
370
   -1
100
AcDbLine
 10
132.6353272566686
 20
24.25452513156462
 11
132.6353272566686
 21
11.25452513156462
  0
ARC
  5
28B
100
AcDbEntity
  8
switches
  6
ByLayer
 62
  256
370
   -1
100
AcDbCircle
 10
119.1353272566686
 20
24.25452513156462
 40
0.5
100
AcDbArc
 50
90
 51
180
  0
ARC
  5
28C
100
AcDbEntity
  8
switches
  6
ByLayer
 62
  256
370
   -1
100
AcDbCircle
 10
132.1353272566686
 20
24.25452513156462
 40
0.5
100
AcDbArc
 50
0
 51
90
  0
ARC
  5
28D
100
AcDbEntity
  8
switches
  6
ByLayer
 62
  256
370
   -1
100
AcDbCircle
 10
119.1353272566686
 20
11.25452513156462
 40
0.5
100
AcDbArc
 50
180
 51
270
  0
ARC
  5
28E
100
AcDbEntity
  8
switches
  6
ByLayer
 62
  256
370
   -1
100
AcDbCircle
 10
132.1353272566686
 20
11.25452513156462
 40
0.5
100
AcDbArc
 50
270
 51
0
  0
LINE
  5
28F
100
AcDbEntity
  8
switches
  6
ByLayer
 62
  256
370
   -1
100
AcDbLine
 10
142.9478272566686
 20
24.75452513156462
 11
155.9478272566686
 21
24.75452513156462
  0
LINE
  5
290
100
AcDbEntity
  8
switches
  6
ByLayer
 62
  256
370
   -1
100
AcDbLine
 10
142.9478272566686
 20
10.75452513156462
 11
155.9478272566686
 21
10.75452513156462
  0
LINE
  5
291
100
AcDbEntity
  8
switches
  6
ByLayer
 62
  256
370
   -1
100
AcDbLine
 10
142.4478272566686
 20
24.25452513156462
 11
142.4478272566686
 21
11.25452513156462
  0
LINE
  5
292
100
AcDbEntity
  8
switches
  6
ByLayer
 62
  256
370
   -1
100
AcDbLine
 10
156.4478272566686
 20
24.25452513156462
 11
156.4478272566686
 21
11.25452513156462
  0
ARC
  5
293
100
AcDbEntity
  8
switches
  6
ByLayer
 62
  256
370
   -1
100
AcDbCircle
 10
142.9478272566686
 20
24.25452513156462
 40
0.5
100
AcDbArc
 50
90
 51
180
  0
ARC
  5
294
100
AcDbEntity
  8
switches
  6
ByLayer
 62
  256
370
   -1
100
AcDbCircle
 10
155.9478272566686
 20
24.25452513156462
 40
0.5
100
AcDbArc
 50
0
 51
90
  0
ARC
  5
295
100
AcDbEntity
  8
switches
  6
ByLayer
 62
  256
370
   -1
100
AcDbCircle
 10
142.9478272566686
 20
11.25452513156462
 40
0.5
100
AcDbArc
 50
180
 51
270
  0
ARC
  5
296
100
AcDbEntity
  8
switches
  6
ByLayer
 62
  256
370
   -1
100
AcDbCircle
 10
155.9478272566686
 20
11.25452513156462
 40
0.5
100
AcDbArc
 50
270
 51
0
  0
LINE
  5
297
100
AcDbEntity
  8
switches
  6
ByLayer
 62
  256
370
   -1
100
AcDbLine
 10
166.7603272566686
 20
24.75452513156462
 11
179.7603272566686
 21
24.75452513156462
  0
LINE
  5
298
100
AcDbEntity
  8
switches
  6
ByLayer
 62
  256
370
   -1
100
AcDbLine
 10
166.7603272566686
 20
10.75452513156462
 11
179.7603272566686
 21
10.75452513156462
  0
LINE
  5
299
100
AcDbEntity
  8
switches
  6
ByLayer
 62
  256
370
   -1
100
AcDbLine
 10
166.2603272566686
 20
24.25452513156462
 11
166.2603272566686
 21
11.25452513156462
  0
LINE
  5
29A
100
AcDbEntity
  8
switches
  6
ByLayer
 62
  256
370
   -1
100
AcDbLine
 10
180.2603272566686
 20
24.25452513156462
 11
180.2603272566686
 21
11.25452513156462
  0
ARC
  5
29B
100
AcDbEntity
  8
switches
  6
ByLayer
 62
  256
370
   -1
100
AcDbCircle
 10
166.7603272566686
 20
24.25452513156462
 40
0.5
100
AcDbArc
 50
90
 51
180
  0
ARC
  5
29C
100
AcDbEntity
  8
switches
  6
ByLayer
 62
  256
370
   -1
100
AcDbCircle
 10
179.7603272566686
 20
24.25452513156462
 40
0.5
100
AcDbArc
 50
0
 51
90
  0
ARC
  5
29D
100
AcDbEntity
  8
switches
  6
ByLayer
 62
  256
370
   -1
100
AcDbCircle
 10
166.7603272566686
 20
11.25452513156462
 40
0.5
100
AcDbArc
 50
180
 51
270
  0
ARC
  5
29E
100
AcDbEntity
  8
switches
  6
ByLayer
 62
  256
370
   -1
100
AcDbCircle
 10
179.7603272566686
 20
11.25452513156462
 40
0.5
100
AcDbArc
 50
270
 51
0
  0
LINE
  5
29F
100
AcDbEntity
  8
switches
  6
ByLayer
 62
  256
370
   -1
100
AcDbLine
 10
188.1915772566687
 20
24.75452513156462
 11
201.1915772566687
 21
24.75452513156462
  0
LINE
  5
2A0
100
AcDbEntity
  8
switches
  6
ByLayer
 62
  256
370
   -1
100
AcDbLine
 10
188.1915772566687
 20
10.75452513156462
 11
201.1915772566687
 21
10.75452513156462
  0
LINE
  5
2A1
100
AcDbEntity
  8
switches
  6
ByLayer
 62
  256
370
   -1
100
AcDbLine
 10
187.6915772566687
 20
24.25452513156462
 11
187.6915772566687
 21
11.25452513156462
  0
LINE
  5
2A2
100
AcDbEntity
  8
switches
  6
ByLayer
 62
  256
370
   -1
100
AcDbLine
 10
201.6915772566687
 20
24.25452513156462
 11
201.6915772566687
 21
11.25452513156462
  0
ARC
  5
2A3
100
AcDbEntity
  8
switches
  6
ByLayer
 62
  256
370
   -1
100
AcDbCircle
 10
188.1915772566687
 20
24.25452513156462
 40
0.5
100
AcDbArc
 50
90
 51
180
  0
ARC
  5
2A4
100
AcDbEntity
  8
switches
  6
ByLayer
 62
  256
370
   -1
100
AcDbCircle
 10
201.1915772566687
 20
24.25452513156462
 40
0.5
100
AcDbArc
 50
0
 51
90
  0
ARC
  5
2A5
100
AcDbEntity
  8
switches
  6
ByLayer
 62
  256
370
   -1
100
AcDbCircle
 10
188.1915772566687
 20
11.25452513156462
 40
0.5
100
AcDbArc
 50
180
 51
270
  0
ARC
  5
2A6
100
AcDbEntity
  8
switches
  6
ByLayer
 62
  256
370
   -1
100
AcDbCircle
 10
201.1915772566687
 20
11.25452513156462
 40
0.5
100
AcDbArc
 50
270
 51
0
  0
LINE
  5
2A7
100
AcDbEntity
  8
switches
  6
ByLayer
 62
  256
370
   -1
100
AcDbLine
 10
44.81657725666863
 20
124.7670251315647
 11
44.81657725666863
 21
110.7670251315647
  0
LINE
  5
2A8
100
AcDbEntity
  8
switches
  6
ByLayer
 62
  256
370
   -1
100
AcDbLine
 10
44.81657725666863
 20
124.7670251315647
 11
58.81657725666863
 21
124.7670251315647
  0
LINE
  5
2A9
100
AcDbEntity
  8
switches
  6
ByLayer
 62
  256
370
   -1
100
AcDbLine
 10
58.81657725666863
 20
124.7670251315647
 11
58.81657725666863
 21
110.7670251315647
  0
LINE
  5
2AA
100
AcDbEntity
  8
switches
  6
ByLayer
 62
  256
370
   -1
100
AcDbLine
 10
44.81657725666863
 20
110.7670251315647
 11
58.81657725666863
 21
110.7670251315647
  0
LINE
  5
2AB
100
AcDbEntity
  8
switches
  6
ByLayer
 62
  256
370
   -1
100
AcDbLine
 10
58.81657725666863
 20
124.7670251315647
 11
58.81657725666863
 21
110.7670251315647
  0
CIRCLE
  5
2AC
100
AcDbEntity
  8
holes
  6
CONTINUOUS
 62
  256
370
   -1
100
AcDbCircle
 10
80.39187725666864
 20
82.64342513156474
 40
1.2
  0
CIRCLE
  5
2AD
100
AcDbEntity
  8
holes
  6
CONTINUOUS
 62
  256
370
   -1
100
AcDbCircle
 10
118.1946772566686
 20
82.64342513156474
 40
1.2
  0
CIRCLE
  5
2AE
100
AcDbEntity
  8
holes
  6
CONTINUOUS
 62
  256
370
   -1
100
AcDbCircle
 10
47.05437725666863
 20
57.64032513156472
 40
1.2
  0
CIRCLE
  5
2AF
100
AcDbEntity
  8
holes
  6
CONTINUOUS
 62
  256
370
   -1
100
AcDbCircle
 10
104.2046772566686
 20
57.64032513156472
 40
1.2
  0
CIRCLE
  5
2B0
100
AcDbEntity
  8
holes
  6
CONTINUOUS
 62
  256
370
   -1
100
AcDbCircle
 10
142.3046772566686
 20
57.64032513156472
 40
1.2
  0
CIRCLE
  5
2B1
100
AcDbEntity
  8
holes
  6
CONTINUOUS
 62
  256
370
   -1
100
AcDbCircle
 10
85.15367725666863
 20
25.79102513156472
 40
1.2
  0
CIRCLE
  5
2B2
100
AcDbEntity
  8
holes
  6
CONTINUOUS
 62
  256
370
   -1
100
AcDbCircle
 10
163.7356772566686
 20
27.27902513156472
 40
1.2
  0
CIRCLE
  5
2B3
100
AcDbEntity
  8
holes
  6
CONTINUOUS
 62
  256
370
   -1
100
AcDbCircle
 10
200.0496772566686
 20
27.27902513156472
 40
1.2
  0
CIRCLE
  5
2B4
100
AcDbEntity
  8
holes
  6
CONTINUOUS
 62
  256
370
   -1
100
AcDbCircle
 10
200.0496772566686
 20
65.37932513156464
 40
1.2
  0
ARC
  5
2B5
100
AcDbEntity
  8
top
  6
ByLayer
 62
  256
370
   -1
100
AcDbCircle
 10
201.3236772566686
 20
124.1014251315647
 40
6
100
AcDbArc
 50
0
 51
90
  0
LINE
  5
2B6
100
AcDbEntity
  8
top
  6
ByLayer
 62
  256
370
   -1
100
AcDbLine
 10
207.3236772566686
 20
12.61102513156474
 11
207.3236772566686
 21
124.1014251315647
  0
ARC
  5
2B7
100
AcDbEntity
  8
top
  6
ByLayer
 62
  256
370
   -1
100
AcDbCircle
 10
201.3236772566686
 20
12.61102513156474
 40
6
100
AcDbArc
 50
270
 51
0
  0
ARC
  5
2B8
100
AcDbEntity
  8
top
  6
ByLayer
 62
  256
370
   -1
100
AcDbCircle
 10
32.98067725666863
 20
51.71102513156463
 40
6
100
AcDbArc
 50
180
 51
258.0973173507822
  0
ARC
  5
2B9
100
AcDbEntity
  8
top
  6
ByLayer
 62
  256
370
   -1
100
AcDbCircle
 10
30.50567725666863
 20
39.96903317959944
 40
6
100
AcDbArc
 50
0
 51
78.09731735078218
  0
ARC
  5
2BA
100
AcDbEntity
  8
top
  6
ByLayer
 62
  256
370
   -1
100
AcDbCircle
 10
25.74317725666863
 20
91.04832513156464
 40
6
100
AcDbArc
 50
281.9026826492187
 51
0
  0
ARC
  5
2BB
100
AcDbEntity
  8
top
  6
ByLayer
 62
  256
370
   -1
100
AcDbCircle
 10
28.21817725666864
 20
79.30633317960034
 40
6
100
AcDbArc
 50
101.9026826492188
 51
180
  0
LINE
  5
2BC
100
AcDbEntity
  8
top
  6
ByLayer
 62
  256
370
   -1
100
AcDbLine
 10
26.98067725666863
 20
57.76087513156473
 11
26.98067725666863
 21
51.71102513156463
  0
LINE
  5
2BD
100
AcDbEntity
  8
top
  6
ByLayer
 62
  256
370
   -1
100
AcDbLine
 10
22.21817725666864
 20
79.30633317960034
 11
22.21817725666864
 21
67.33263535369754
  0
ARC
  5
2BE
100
AcDbEntity
  8
top
  6
ByLayer
 62
  256
370
   -1
100
AcDbCircle
 10
20.98067725666861
 20
57.76087513156473
 40
6
100
AcDbArc
 50
0
 51
52.90596132936552
  0
ARC
  5
2BF
100
AcDbEntity
  8
top
  6
ByLayer
 62
  256
370
   -1
100
AcDbCircle
 10
28.21817725666864
 20
67.33263535369754
 40
6
100
AcDbArc
 50
180
 51
232.9059613293656
  0
ARC
  5
2C0
100
AcDbEntity
  8
top
  6
ByLayer
 62
  256
370
   -1
100
AcDbCircle
 10
35.26817725666863
 20
110.0983251315647
 40
6
100
AcDbArc
 50
281.9026826492189
 51
0
  0
LINE
  5
2C1
100
AcDbEntity
  8
top
  6
ByLayer
 62
  256
370
   -1
100
AcDbLine
 10
31.74317725666863
 20
98.35633317960054
 11
31.74317725666863
 21
91.04832513156464
  0
ARC
  5
2C2
100
AcDbEntity
  8
top
  6
ByLayer
 62
  256
370
   -1
100
AcDbCircle
 10
37.74317725666863
 20
98.35633317960054
 40
6
100
AcDbArc
 50
101.9026826492189
 51
180
  0
LINE
  5
2C3
100
AcDbEntity
  8
top
  6
ByLayer
 62
  256
370
   -1
100
AcDbLine
 10
41.26817725666863
 20
124.1014251315647
 11
41.26817725666863
 21
110.0983251315647
  0
LINE
  5
2C4
100
AcDbEntity
  8
top
  6
ByLayer
 62
  256
370
   -1
100
AcDbLine
 10
201.3236772566686
 20
130.1014251315647
 11
47.26817725666865
 21
130.1014251315647
  0
ARC
  5
2C5
100
AcDbEntity
  8
top
  6
ByLayer
 62
  256
370
   -1
100
AcDbCircle
 10
47.26817725666864
 20
124.1014251315647
 40
6
100
AcDbArc
 50
89.99999999999986
 51
180
  0
LINE
  5
2C6
100
AcDbEntity
  8
top
  6
ByLayer
 62
  256
370
   -1
100
AcDbLine
 10
42.50567725666863
 20
6.611025131564745
 11
201.3236772566686
 21
6.611025131564745
  0
LINE
  5
2C7
100
AcDbEntity
  8
top
  6
ByLayer
 62
  256
370
   -1
100
AcDbLine
 10
36.50567725666863
 20
39.96903317959944
 11
36.50567725666863
 21
12.61102513156474
  0
ARC
  5
2C8
100
AcDbEntity
  8
top
  6
ByLayer
 62
  256
370
   -1
100
AcDbCircle
 10
42.50567725666863
 20
12.61102513156474
 40
6
100
AcDbArc
 50
180
 51
270
  0
ENDSEC
  0
SECTION
  2
OBJECTS
  0
DICTIONARY
  5
C
330
0
100
AcDbDictionary
281
    1
  3
ACAD_GROUP
350
D
  0
DICTIONARY
  5
D
330
C
100
AcDbDictionary
281
    1
  0
PLOTSETTINGS
  5
2C9
100
AcDbPlotSettings
  6
1x1
 40
2.96
 41
2.96
 42
2.96
 43
2.96
  0
ENDSEC
  0
EOF
